<svg xmlns="http://www.w3.org/2000/svg" viewBox="0 0 582.27 470.53">
  <title>surfing</title>
  <g id="SIMPLE_BACKGROUND">
    <g id="ocean">
      <path d="M523.23,249.89a12.5,12.5,0,0,1-2.33.31l-6.68.6c-5.8.53-14.19,1.35-24.5,2.79-5.16.71-10.79,1.61-16.82,2.66s-12.43,2.34-19.15,3.83c-13.43,3-28,6.94-43.14,11.87s-29.48,9.8-42.77,13.53A232.19,232.19,0,0,1,331.93,293a137.52,137.52,0,0,1-24.72.72c-1.46,0-2.74-.26-3.86-.37l-2.82-.35a12.19,12.19,0,0,1-2.32-.39,13.94,13.94,0,0,1,2.35.06l2.83.2c1.12.06,2.4.24,3.86.22a151.89,151.89,0,0,0,24.54-1.24A242.65,242.65,0,0,0,367.43,284c13.22-3.8,27.53-8.77,42.68-13.64a443,443,0,0,1,43.32-11.79c6.75-1.45,13.19-2.66,19.24-3.69s11.72-1.83,16.9-2.47c10.35-1.3,18.78-1.95,24.6-2.28,2.91-.19,5.18-.25,6.71-.3A13.65,13.65,0,0,1,523.23,249.89Z" stroke="#000" stroke-miterlimit="10" stroke-width="0.5"/>
      <path d="M582,275.71a7.43,7.43,0,0,1-1.72.6c-1.15.34-2.85.81-5,1.4s-5,1-8.13,1.54-6.85.93-10.92,1.11a211.87,211.87,0,0,1-28.51-.39c-10.71-.75-22.42-2.08-34.71-3.05a225,225,0,0,0-34.68-.37,239.25,239.25,0,0,0-28,4.21c-7.92,1.63-14.3,3.14-18.72,4.14-2.21.5-3.93.88-5.1,1.13a7.14,7.14,0,0,1-1.8.28,8.08,8.08,0,0,1,1.72-.6c1.15-.35,2.84-.83,5-1.43,4.38-1.19,10.72-2.87,18.63-4.65a221.67,221.67,0,0,1,28.16-4.58,215.47,215.47,0,0,1,34.93.25c12.35,1,24,2.35,34.7,3.17a225.83,225.83,0,0,0,28.34.74c4-.11,7.66-.56,10.85-.86s5.9-.9,8.13-1.26,3.92-.86,5.09-1.1A8.53,8.53,0,0,1,582,275.71Z" stroke="#000" stroke-miterlimit="10" stroke-width="0.5"/>
      <path d="M372.94,258.65a4.38,4.38,0,0,1-1.35.48c-.91.26-2.24.62-4,1.05-3.46.87-8.48,2-14.72,3.31C340.42,266.05,323,269,303.67,271c-9.67,1-19,1.35-27.48.4a137.18,137.18,0,0,1-22-4.37c-6.14-1.72-11-3.34-14.41-4.49a37.14,37.14,0,0,1-5.18-2,35.3,35.3,0,0,1,5.37,1.35c3.43,1,8.37,2.41,14.52,4a146.87,146.87,0,0,0,21.87,4c8.31.85,17.54.44,27.17-.53,19.3-1.94,36.66-4.71,49.17-7,6.26-1.14,11.31-2.12,14.8-2.8A39.78,39.78,0,0,1,372.94,258.65Z" stroke="#000" stroke-miterlimit="10" stroke-width="0.5"/>
      <path d="M505.32,196.68a7.84,7.84,0,0,1-1.71.54l-5,1.26c-4.3,1.08-10.53,2.66-18.14,4.88s-16.63,5-26.49,8.63-20.53,7.91-31.54,13-21.5,9.91-31.27,13.85a178.27,178.27,0,0,1-26.61,8.64,105.72,105.72,0,0,1-18.68,2.62c-1.11.1-2.11.05-3,.05l-2.17,0A8.36,8.36,0,0,1,339,250a7.11,7.11,0,0,1,1.78-.21l2.16-.12c.85-.06,1.84,0,2.94-.2a119,119,0,0,0,18.45-3.12,189.24,189.24,0,0,0,26.32-8.9c9.68-4,20.11-8.93,31.16-13.95s21.79-9.36,31.71-12.88,19-6.25,26.67-8.33,14-3.5,18.32-4.39c2.18-.46,3.88-.76,5-1A7,7,0,0,1,505.32,196.68Z" stroke="#000" stroke-miterlimit="10" stroke-width="0.5"/>
      <path d="M98.25,458.25a5.79,5.79,0,0,1-1.61-.07c-.53-.06-1.18-.12-1.94-.23l-2.63-.49c-1-.18-2.06-.51-3.25-.8s-2.43-.76-3.8-1.19a68.7,68.7,0,0,1-8.87-3.93A95.5,95.5,0,0,1,55.8,436.69a156.7,156.7,0,0,1-20.14-23.36,161.37,161.37,0,0,1-23.77-50.47c-1-3.45-1.64-6.63-2.25-9.41s-.94-5.21-1.27-7.18-.43-3.53-.54-4.58a6.76,6.76,0,0,1-.08-1.61,5.59,5.59,0,0,1,.41,1.56c.21,1,.49,2.56.84,4.52s.9,4.34,1.53,7.1S12,359.14,13,362.55a170.52,170.52,0,0,0,8.75,23.38A165.32,165.32,0,0,0,37,412.39,162.47,162.47,0,0,0,56.83,435.6,98.44,98.44,0,0,0,76.7,450.53a75.94,75.94,0,0,0,8.64,4.09c1.33.46,2.55.95,3.71,1.3s2.2.7,3.17.92l2.57.63,1.9.38A6.41,6.41,0,0,1,98.25,458.25Z" stroke="#000" stroke-miterlimit="10" stroke-width="0.5"/>
      <path d="M134,443.89a4.61,4.61,0,0,1-1.44.07,30,30,0,0,1-4.14-.26,58.38,58.38,0,0,1-14.78-3.76c-.76-.28-1.52-.6-2.3-.95s-1.57-.67-2.36-1c-1.58-.78-3.24-1.57-4.89-2.51A107.19,107.19,0,0,1,93.82,429a220.54,220.54,0,0,1-21.47-17.45c-3.64-3.28-7-6.67-10.27-10s-6.17-6.68-8.83-10a126,126,0,0,1-12.74-18.67A100.92,100.92,0,0,1,34.22,359c-.6-1.69-1-3-1.25-3.95a5.09,5.09,0,0,1-.32-1.41,40.22,40.22,0,0,1,2.16,5.13,121.78,121.78,0,0,0,6.71,13.54c6.32,11.08,17.43,25,31.93,38.05a235.05,235.05,0,0,0,21.23,17.42,113,113,0,0,0,10.07,6.45c1.61.95,3.23,1.75,4.77,2.55.78.39,1.56.73,2.31,1.08s1.5.69,2.24,1a64.67,64.67,0,0,0,14.43,4.2c1.76.33,3.14.45,4.08.56A5.44,5.44,0,0,1,134,443.89Z" stroke="#000" stroke-miterlimit="10" stroke-width="0.5"/>
      <path d="M331.7,470.27a16.62,16.62,0,0,1-2.22-1.62c-.72-.54-1.57-1.27-2.64-2L323.15,464a133.86,133.86,0,0,0-25.43-13.61,207.42,207.42,0,0,0-41.22-11.55c-15.89-2.92-33.61-4.6-52.19-6.55S168,428,152.21,424.05a167.13,167.13,0,0,1-40.27-15.29,111,111,0,0,1-23.48-17.08l-3.2-3.26c-.92-.94-1.62-1.83-2.21-2.5a17.49,17.49,0,0,1-1.72-2.15,18.11,18.11,0,0,1,2,1.93c.64.63,1.36,1.48,2.31,2.39s2.06,2,3.29,3.13a117.25,117.25,0,0,0,23.6,16.53,170.22,170.22,0,0,0,40.07,14.84c15.69,3.85,33.35,6.09,51.92,8.05s36.33,3.68,52.3,6.7a201.37,201.37,0,0,1,41.38,12,126.07,126.07,0,0,1,25.36,14.15l3.62,2.78c1,.81,1.86,1.58,2.54,2.17A17.88,17.88,0,0,1,331.7,470.27Z" stroke="#000" stroke-miterlimit="10" stroke-width="0.5"/>
      <path d="M455,468.48a3.7,3.7,0,0,1-.78-.3l-2.22-1-8.45-4-31-15c-6.53-3.19-13.67-6.7-21.41-10.31S375,430.51,366,427.16a224.42,224.42,0,0,0-28.77-8.65c-10.16-2.35-20.82-4.19-31.78-5.81a474.9,474.9,0,0,0-62.16-5.41c-9.6-.17-18.73-.1-27.29-.24s-16.54-.46-23.8-1.15a128.31,128.31,0,0,1-33.68-7.23c-1.89-.77-3.55-1.5-5-2.11l-1-.45-.92-.47-1.6-.83-2.15-1.15a3.29,3.29,0,0,1-.71-.44,3.22,3.22,0,0,1,.79.29l2.21,1,1.63.76.93.44,1,.41,5,1.95a132.84,132.84,0,0,0,33.57,6.68c7.22.62,15.17.88,23.71.95s17.67,0,27.29.08a461.76,461.76,0,0,1,62.38,5.31c11,1.62,21.69,3.48,31.9,5.87a219.86,219.86,0,0,1,28.94,8.8c9,3.4,17.37,7.16,25.11,10.81s14.86,7.24,21.36,10.5l30.74,15.52,8.32,4.29,2.15,1.15A3.09,3.09,0,0,1,455,468.48Z" stroke="#000" stroke-miterlimit="10" stroke-width="0.5"/>
      <path d="M503.72,438.22a12.17,12.17,0,0,1-1.58-1.69l-1.81-2.13L499.19,433l-1.4-1.47-3.29-3.44c-1.26-1.2-2.67-2.46-4.16-3.85a119.14,119.14,0,0,0-10.82-8.54c-.52-.37-1-.76-1.58-1.12l-1.67-1.07-3.45-2.21c-1.17-.75-2.44-1.41-3.69-2.14s-2.52-1.49-3.87-2.15c-2.69-1.34-5.43-2.81-8.38-4.07-1.46-.64-2.92-1.36-4.45-2l-4.65-1.86a205.28,205.28,0,0,0-20.19-6.51c-7.11-1.88-14.57-3.51-22.26-4.84-15.42-2.59-30.27-4.06-43.78-5.35s-25.7-2.42-35.89-3.74-18.41-2.68-24-3.86c-2.83-.53-5-1.1-6.46-1.44a12,12,0,0,1-2.23-.63,13.74,13.74,0,0,1,2.29.31c1.5.23,3.68.7,6.51,1.14,5.66,1,13.87,2.18,24.06,3.34s22.37,2.19,35.9,3.39,28.41,2.63,43.91,5.23c7.74,1.35,15.25,3,22.41,4.91a199,199,0,0,1,20.31,6.65l4.68,1.91c1.54.61,3,1.35,4.48,2,3,1.29,5.72,2.8,8.42,4.18,1.35.68,2.61,1.49,3.88,2.21s2.52,1.43,3.7,2.2l3.46,2.27,1.67,1.11c.55.37,1.06.77,1.58,1.15A111.89,111.89,0,0,1,491,423.61c1.47,1.43,2.86,2.73,4.09,4l3.21,3.56,1.35,1.52,1.1,1.42,1.69,2.23A13.38,13.38,0,0,1,503.72,438.22Z" stroke="#000" stroke-miterlimit="10" stroke-width="0.5"/>
      <path d="M89.58,279.59a10.2,10.2,0,0,1,.67-2l2.15-5.51c.91-2.4,2-5.34,3.07-8.82a62.81,62.81,0,0,0,2.49-12,37.19,37.19,0,0,0-1.31-14.63,27.7,27.7,0,0,0-9-13.9c-4.59-3.74-11-5.21-17.44-4.69a44,44,0,0,0-18.87,6.41,85.37,85.37,0,0,0-15.83,12.61,119.13,119.13,0,0,0-12.36,14.34A115,115,0,0,0,14,265.92l-.95,1.76-.86,1.76c-.56,1.17-1.14,2.31-1.66,3.44-1,2.3-2,4.47-2.76,6.63a122.86,122.86,0,0,0-6,20.81c-.55,2.51-.82,4.48-1,5.81a10.54,10.54,0,0,1-.43,2,9.51,9.51,0,0,1,.1-2.07c.13-1.35.3-3.34.75-5.88A111.33,111.33,0,0,1,6.71,279.1c.75-2.19,1.73-4.4,2.7-6.73.5-1.16,1.07-2.31,1.62-3.5l.85-1.79.95-1.79a113.15,113.15,0,0,1,9.11-14.76,116.92,116.92,0,0,1,12.45-14.59A85.4,85.4,0,0,1,50.5,223.06a45.25,45.25,0,0,1,19.59-6.6,30.18,30.18,0,0,1,9.92.83,22.66,22.66,0,0,1,8.57,4.27,28.91,28.91,0,0,1,9.36,14.69,37.8,37.8,0,0,1,1.16,15.14,60.46,60.46,0,0,1-2.77,12.18C95.19,267.07,94,270,93,272.36s-1.86,4.18-2.44,5.4A9.31,9.31,0,0,1,89.58,279.59Z" stroke="#000" stroke-miterlimit="10" stroke-width="0.5"/>
      <path d="M75.5,317.05s-.17.2-.58.46a4.62,4.62,0,0,1-.77.45l-1.12.48a13.77,13.77,0,0,1-7.73.3,17.88,17.88,0,0,1-9.73-6.13,21.44,21.44,0,0,1-4.28-13.38,31.84,31.84,0,0,1,3.24-13.64,55.12,55.12,0,0,1,6-9.65c2-2.55,3.69-4.51,4.91-5.84s1.93-2,2-1.94A9.39,9.39,0,0,1,66,270.51c-1.06,1.44-2.63,3.5-4.47,6.11a61.1,61.1,0,0,0-5.6,9.6,31.61,31.61,0,0,0-3,13,20.45,20.45,0,0,0,3.83,12.46,17.24,17.24,0,0,0,8.83,5.93,14.39,14.39,0,0,0,7.27.21l1.12-.32c.33-.09.59-.22.81-.29C75.22,317.06,75.47,317,75.5,317.05Z" stroke="#000" stroke-miterlimit="10" stroke-width="0.5"/>
      <path d="M118.49,233.79c-.27,0-.51-2.21-1.91-5.45a22.7,22.7,0,0,0-21.52-14c-3.53,0-5.68.73-5.76.46s2-1.26,5.7-1.61a21.87,21.87,0,0,1,22.66,14.74C118.84,231.45,118.67,233.79,118.49,233.79Z" stroke="#000" stroke-miterlimit="10" stroke-width="0.5"/>
      <path d="M102.35,215.45c-.07.22-2.41-.36-6.14-1.33a67.82,67.82,0,0,0-14.68-2.48,29.7,29.7,0,0,0-14.26,3c-3.36,1.74-5,3.56-5.19,3.35s1.22-2.24,4.62-4.35A27.26,27.26,0,0,1,81.57,210a52.56,52.56,0,0,1,15,3C100.22,214.27,102.41,215.24,102.35,215.45Z" stroke="#000" stroke-miterlimit="10" stroke-width="0.5"/>
      <path d="M144.66,213.27c-.2.22-2-1.49-5.45-3.44l-1.35-.75c-.48-.25-1-.45-1.52-.69a34.79,34.79,0,0,0-3.44-1.34,39.42,39.42,0,0,0-8.25-1.62,39,39,0,0,0-8.41.36,36.12,36.12,0,0,0-3.59.8c-.56.16-1.1.28-1.61.46l-1.45.53c-3.68,1.41-5.74,2.83-5.91,2.59s1.75-1.9,5.46-3.65l1.47-.65c.52-.22,1.08-.38,1.65-.57a30,30,0,0,1,3.72-1,36.21,36.21,0,0,1,8.79-.51,35.8,35.8,0,0,1,8.62,1.83,30.44,30.44,0,0,1,3.53,1.54c.53.28,1.06.52,1.54.81l1.35.86C143.22,211.13,144.78,213.17,144.66,213.27Z" stroke="#000" stroke-miterlimit="10" stroke-width="0.5"/>
      <path d="M191.6,224c-.23.16-1.66-1.77-4.47-4.35l-1.11-1c-.39-.34-.84-.66-1.27-1-.86-.72-1.87-1.36-2.91-2.07a44,44,0,0,0-7.26-3.69,44.51,44.51,0,0,0-7.86-2.13c-1.25-.16-2.43-.36-3.55-.4-.55,0-1.09-.1-1.61-.11h-1.5c-3.81,0-6.17.5-6.23.23s2.25-1.05,6.18-1.39l1.55-.09c.54,0,1.1,0,1.68,0a33.07,33.07,0,0,1,3.7.27,38.42,38.42,0,0,1,8.23,2.09,39,39,0,0,1,7.51,4,34.92,34.92,0,0,1,2.92,2.28c.44.38.87.73,1.26,1.11l1.08,1.11C190.64,221.7,191.74,223.9,191.6,224Z" stroke="#000" stroke-miterlimit="10" stroke-width="0.5"/>
      <path d="M188,286.15c-.11-.25,3.6-1.9,9.05-5.45a80.57,80.57,0,0,0,9.07-6.88,53.81,53.81,0,0,0,9.3-10.24A27.52,27.52,0,0,0,220.26,251a20.85,20.85,0,0,0-1.94-10.82,17.08,17.08,0,0,0-4.63-5.87,19,19,0,0,0-1.7-1.19c-.4-.26-.6-.43-.58-.48s.27,0,.73.18a10.36,10.36,0,0,1,1.92,1,15.77,15.77,0,0,1,5.28,5.86,21.28,21.28,0,0,1,2.42,11.47,28.08,28.08,0,0,1-5,13.42A51.36,51.36,0,0,1,207.1,275a69.86,69.86,0,0,1-9.44,6.72,58.48,58.48,0,0,1-6.94,3.55A9,9,0,0,1,188,286.15Z" stroke="#000" stroke-miterlimit="10" stroke-width="0.5"/>
      <path d="M135.93,273.65c.17.14-1.7,2.92-4.88,7.3-1.59,2.19-3.49,4.8-5.73,7.61a77.49,77.49,0,0,1-7.91,8.68,43,43,0,0,1-9.62,6.86,24.52,24.52,0,0,1-9.33,2.66,15.18,15.18,0,0,1-6.49-.88c-1.44-.59-2.11-1.14-2.06-1.22a11.42,11.42,0,0,1,2.26.61,17,17,0,0,0,6.18.35,25.14,25.14,0,0,0,8.75-2.86,45,45,0,0,0,9.2-6.72,88.61,88.61,0,0,0,7.85-8.43c2.28-2.73,4.27-5.26,6-7.36C133.55,276.05,135.75,273.51,135.93,273.65Z" stroke="#000" stroke-miterlimit="10" stroke-width="0.5"/>
      <path d="M156.17,266.49c-.19-.14,1-2,2.89-5s4.45-7.23,5.58-12.4a19.7,19.7,0,0,0,.14-7.32,16.47,16.47,0,0,0-2.05-5.61c-1.79-3-3.86-4-3.69-4.25.05-.08.6.07,1.49.6a10.84,10.84,0,0,1,3.16,3,15.71,15.71,0,0,1,2.56,6,19.47,19.47,0,0,1,0,7.94,27.84,27.84,0,0,1-2.8,7.36,44.31,44.31,0,0,1-3.43,5.35C157.85,265,156.34,266.61,156.17,266.49Z" stroke="#000" stroke-miterlimit="10" stroke-width="0.5"/>
      <path d="M177.71,276.51c.17.14-1.18,2.23-3.74,5.35a49.6,49.6,0,0,1-11.73,10.61,29.09,29.09,0,0,1-15.16,4.59c-4.13,0-6.51-1.15-6.44-1.3s2.49.4,6.41.14a31.54,31.54,0,0,0,14.33-4.82,61.79,61.79,0,0,0,11.73-10C175.86,278.21,177.53,276.36,177.71,276.51Z" stroke="#000" stroke-miterlimit="10" stroke-width="0.5"/>
      <path d="M202.18,298.74c-.12-.22,2.33-1.53,6-4a41.25,41.25,0,0,0,12-12,26.5,26.5,0,0,0,3.35-8.64,22.88,22.88,0,0,0,.25-7.57c-.6-4.33-2.22-6.68-1.94-6.82.08-.05.56.47,1.21,1.56a16.57,16.57,0,0,1,1.87,5.07,22.27,22.27,0,0,1,.09,8,26,26,0,0,1-3.44,9.22,33.41,33.41,0,0,1-6.35,7.46,42.61,42.61,0,0,1-6.44,4.66C204.89,298,202.26,298.92,202.18,298.74Z" stroke="#000" stroke-miterlimit="10" stroke-width="0.5"/>
    </g>
    <g id="board">
      <path d="M90.1,350.75c-.89-2.54.77-5.14,1-5.5,2.29-3.51,7.06-4.14,9.46-4.49,13.3-2,3.76-2.94,28.76-7,9.13-1.48,16.12-2.27,18.08-2.5,16.42-1.84,23.18-1.62,36.53-2.67,7.54-.6,16.4-1.82,33.81-4.24,27-3.75,31.35-4.85,45.07-6.7,22.69-3.06,39.52-3.94,59.49-5,26-1.35,45.38-1.31,63.91-1.24,0,0,29.67.11,72.06,1.81,2,.08,15.42.63,33.17,1.42l11.22.5c2,0,3.67.69,4,1.79.48,1.4-1,3.91-4.32,4.73-4.06,2.65-9.58,6.14-16.22,10.06a447.71,447.71,0,0,1-51,25.78,456.88,456.88,0,0,1-75.5,24.68,457.59,457.59,0,0,1-93.07,11.86,460.28,460.28,0,0,1-62.73-2.89,367.74,367.74,0,0,1-44-7.49s-24.11-5.73-45.54-15.81c-16.06-7.56-13.5-10-20.81-13.73A6.49,6.49,0,0,1,90.1,350.75Z" fill="#fff"/>
      <path d="M505.81,319.44a4.63,4.63,0,0,1-.91.68L502.12,322l-10.75,6.94A452.75,452.75,0,0,1,450,351.45a479.57,479.57,0,0,1-65.26,24.9,456.15,456.15,0,0,1-83.92,16.4,442.22,442.22,0,0,1-85.5.29c-1.64-.13-3.27-.23-4.89-.4l-4.8-.61-9.41-1.21-4.6-.59c-1.53-.19-3-.38-4.52-.68L178.35,388c-5.76-1.06-11.33-2-16.63-3.2s-10.36-2.48-15.15-3.84a181.34,181.34,0,0,1-25.26-9.15,117,117,0,0,1-17.72-9.89c-1.17-.74-2.22-1.54-3.21-2.28s-1.94-1.4-2.76-2.08c-1.65-1.38-3.07-2.5-4.15-3.5l-2.42-2.29a5.91,5.91,0,0,1-.78-.82,5.57,5.57,0,0,1,.9.7l2.52,2.16c1.1,1,2.56,2,4.22,3.37.84.66,1.8,1.29,2.8,2s2.05,1.48,3.24,2.21a121,121,0,0,0,17.73,9.58,184.6,184.6,0,0,0,25.2,8.87c4.78,1.32,9.83,2.56,15.11,3.72s10.85,2.07,16.59,3.1l8.77,1.55c1.47.29,3,.47,4.5.65l4.59.57,9.38,1.17,4.79.6c1.61.16,3.24.25,4.87.38a447.85,447.85,0,0,0,85.21-.43,461.18,461.18,0,0,0,83.66-16.21,491.6,491.6,0,0,0,65.18-24.5c17.93-8.52,32-16.34,41.51-22.05l10.9-6.68,2.86-1.7A6,6,0,0,1,505.81,319.44Z" stroke="#000" stroke-miterlimit="10" stroke-width="0.5"/>
      <path d="M505.92,319.27a1.61,1.61,0,0,0,.69-.78,2.25,2.25,0,0,0,.05-1.28,2,2,0,0,0-1.12-1.3c-1.23-.64-3.06-.49-5.13-.6l-7.21-.24-46-1.65c-19.4-.62-42.51-1.24-68.17-1.23s-53.88.74-83.39,3c-14.75,1.24-29.13,2.64-43,4.6-13.84,1.78-27.1,4.18-39.81,6.05-6.36.95-12.57,1.8-18.63,2.46s-12,1.12-17.65,1.49c-11.41.73-22,1.26-31.65,2.3a240.87,240.87,0,0,0-44.91,9.14,36.85,36.85,0,0,0-6.72,2.44,7.52,7.52,0,0,0-2.15,1.77,4.92,4.92,0,0,0-1,2.07,4.42,4.42,0,0,0,.32,3.07,5.09,5.09,0,0,0,.66.87s-.1,0-.24-.15a2.85,2.85,0,0,1-.56-.63,4.43,4.43,0,0,1-.5-3.23,5.32,5.32,0,0,1,1-2.25,7.93,7.93,0,0,1,2.24-1.94,35.31,35.31,0,0,1,6.77-2.63,230.71,230.71,0,0,1,45-9.68c9.67-1.11,20.3-1.71,31.68-2.5,5.69-.4,11.57-.87,17.59-1.57s12.23-1.54,18.56-2.51c12.68-1.91,25.95-4.34,39.82-6.15,13.85-2,28.26-3.4,43-4.64,29.57-2.28,57.83-3,83.52-2.9s48.81.82,68.21,1.59,35.1,1.58,45.94,2.16l7.21.4,2.89.18a5.84,5.84,0,0,1,2.38.61,2.29,2.29,0,0,1,1.2,1.53,2.24,2.24,0,0,1-.14,1.4C506.41,319.27,505.89,319.28,505.92,319.27Z" stroke="#000" stroke-miterlimit="10" stroke-width="0.5"/>
      <path d="M250,351.9a5.8,5.8,0,0,1-1.58.25c-1,.12-2.57.25-4.55.41-4,.33-9.69.69-16.78,1s-15.53.64-24.92.82-19.7.18-30.53,0-21.14-.57-30.52-1-17.8-1.06-24.87-1.65-12.79-1.13-16.73-1.59c-2-.22-3.51-.41-4.54-.56a6,6,0,0,1-1.57-.3,5.45,5.45,0,0,1,1.6,0c1,0,2.58.13,4.56.26l16.76,1.07c7.07.45,15.5.89,24.86,1.3s19.66.72,30.48.91,21.11.18,30.48.11,17.81-.25,24.9-.46l16.78-.51c2-.06,3.53-.1,4.57-.1A6.17,6.17,0,0,1,250,351.9Z" stroke="#000" stroke-miterlimit="10" stroke-width="0.5"/>
      <path d="M503.81,318.31a4.8,4.8,0,0,1-1.37.65c-.92.37-2.29.89-4.05,1.54s-3.93,1.45-6.47,2.29-5.42,1.86-8.64,2.83-6.74,2.11-10.55,3.17-7.9,2.19-12.2,3.33c-8.64,2.18-18.19,4.36-28.29,6.29s-19.8,3.35-28.64,4.46c-4.42.52-8.63,1-12.57,1.37s-7.62.67-11,.9-6.41.38-9.08.51-5,.21-6.86.23-3.34.05-4.33,0a5.19,5.19,0,0,1-1.52-.1,6,6,0,0,1,1.51-.23c1-.1,2.44-.21,4.32-.34s4.17-.28,6.83-.51,5.69-.41,9-.75,7-.64,10.94-1.1,8.11-.95,12.52-1.51c8.8-1.19,18.45-2.69,28.52-4.58s19.6-4,28.23-6.14c4.3-1.1,8.4-2.1,12.21-3.17s7.35-2,10.58-3,6.13-1.83,8.69-2.59,4.75-1.46,6.54-2,3.19-1,4.15-1.25A5.72,5.72,0,0,1,503.81,318.31Z" stroke="#000" stroke-miterlimit="10" stroke-width="0.5"/>
      <path d="M251.79,305.57l-.26.1a7.86,7.86,0,0,1-.8.22,13.77,13.77,0,0,1-3.24.28,15.46,15.46,0,0,1-5.19-1.09,14.79,14.79,0,0,1-5.88-4.23c-1.83-2.09-2.86-5-5-7.42a9.15,9.15,0,0,0-4.14-2.54,11.15,11.15,0,0,0-5.28-.22,10.77,10.77,0,0,0-5.09,2.39,8.06,8.06,0,0,0-2.79,5.1,4.48,4.48,0,0,0,.57,2.85,3.48,3.48,0,0,0,2.42,1.53c2.07.34,4.38-.42,6.7-1a34.54,34.54,0,0,0,6.83-2.48,15.54,15.54,0,0,0,5.69-4.69,11.13,11.13,0,0,0,2.2-7.13,8.23,8.23,0,0,0-4-6.31,14.91,14.91,0,0,0-7.92-2,24.7,24.7,0,0,0-8.46,1.78c-5.58,2.07-10.79,5.5-16.39,8.62a49.3,49.3,0,0,1-8.94,4.05,32.07,32.07,0,0,1-10,1.63,19.37,19.37,0,0,1-10.06-2.7,9.17,9.17,0,0,1-1.11-.77,7.71,7.71,0,0,1-1-.85l-1-.94-.85-1.06a10.48,10.48,0,0,1-.81-1.08l-.68-1.18a16.24,16.24,0,0,1-1.12-2.48,32,32,0,0,1-1.49-10.62c0-3.56.18-7.12.1-10.66a30.38,30.38,0,0,0-1.69-10.36,21.4,21.4,0,0,0-6.13-8.49,29.48,29.48,0,0,0-9.21-5.28,38.77,38.77,0,0,0-10.38-2c-7.06-.41-14.07.63-20.85,1.85a56.41,56.41,0,0,0-9.8,2.69,27.64,27.64,0,0,0-8.43,5,20.16,20.16,0,0,0-3.22,3.57,22.59,22.59,0,0,0-2.38,4.13,38,38,0,0,0-2.64,9.09c-1.06,6.22-1.24,12.47-2.11,18.5s-2.45,12-5.89,16.74a26.24,26.24,0,0,1-13.44,9.67A62.49,62.49,0,0,1,61,309.33a19.09,19.09,0,0,0-6.81,2.14,7.16,7.16,0,0,0-2.36,2.28,6.87,6.87,0,0,0-1,3A13.11,13.11,0,0,0,51,320c.18,1.08.5,2.12.73,3.16a27.39,27.39,0,0,0,5.94,10.38,31.74,31.74,0,0,0,8.22,6.53,33.1,33.1,0,0,0,8.29,3.09,27.83,27.83,0,0,0,3.74.51c.59,0,1.16.1,1.72.1l1.6-.06a19.66,19.66,0,0,0,2.83-.3c.86-.1,1.63-.31,2.37-.36a2.35,2.35,0,0,1,1.86.54,1.54,1.54,0,0,1,.33,1.36,1.05,1.05,0,0,1-.47.71c-.17.09-.28.07-.28.06a1.61,1.61,0,0,0,.23-.12,1,1,0,0,0,.35-.68,1.37,1.37,0,0,0-.33-1.16,2.2,2.2,0,0,0-1.67-.38c-.68.07-1.44.3-2.32.43a18.32,18.32,0,0,1-2.87.38l-1.63.1c-.57,0-1.15,0-1.75-.06a28.57,28.57,0,0,1-3.83-.45,33.06,33.06,0,0,1-8.54-3A32.09,32.09,0,0,1,57,334.2a28.34,28.34,0,0,1-6.26-10.7c-.25-1.08-.6-2.16-.79-3.29a14.15,14.15,0,0,1-.19-3.52,8,8,0,0,1,1.12-3.53,8.33,8.33,0,0,1,2.71-2.67,20.38,20.38,0,0,1,7.21-2.35,61.5,61.5,0,0,0,7.5-1.52A25,25,0,0,0,81,297.37c3.23-4.52,4.79-10.24,5.57-16.15s1-12.19,2.05-18.56a39.23,39.23,0,0,1,2.72-9.47,24.45,24.45,0,0,1,2.53-4.4A21.87,21.87,0,0,1,97.3,245a29.32,29.32,0,0,1,8.89-5.29,57.85,57.85,0,0,1,10.08-2.79c6.85-1.24,13.94-2.31,21.24-1.9a40.15,40.15,0,0,1,10.83,2.08,31,31,0,0,1,9.74,5.58,23.06,23.06,0,0,1,6.58,9.13,32,32,0,0,1,1.79,10.91c.08,3.63-.13,7.2-.11,10.69a30.35,30.35,0,0,0,1.39,10.09,13.9,13.9,0,0,0,1,2.26l.61,1.06a10,10,0,0,0,.73,1l.76,1,.88.84a6.24,6.24,0,0,0,.93.77,7.32,7.32,0,0,0,1,.69,17.85,17.85,0,0,0,9.25,2.48,30.76,30.76,0,0,0,9.5-1.52,48.07,48.07,0,0,0,8.68-3.92c5.55-3.05,10.83-6.51,16.62-8.64a34.68,34.68,0,0,1,4.4-1.32,20.68,20.68,0,0,1,4.55-.51,16.22,16.22,0,0,1,8.65,2.22,9.55,9.55,0,0,1,4.55,7.35,12.37,12.37,0,0,1-2.48,8,16.6,16.6,0,0,1-6.16,5,34.59,34.59,0,0,1-7.09,2.52c-1.19.3-2.33.59-3.52.82a10.5,10.5,0,0,1-3.67.13,4.6,4.6,0,0,1-3.13-2,5.61,5.61,0,0,1-.69-3.52,9.05,9.05,0,0,1,3.18-5.73,11.63,11.63,0,0,1,5.56-2.56,12.12,12.12,0,0,1,5.7.31,10.1,10.1,0,0,1,4.47,2.83,22.73,22.73,0,0,1,2.64,4,23.77,23.77,0,0,0,2.26,3.55,14.49,14.49,0,0,0,5.57,4.18,15.68,15.68,0,0,0,5,1.21A20.88,20.88,0,0,0,251.79,305.57Z" stroke="#000" stroke-miterlimit="10" stroke-width="0.5"/>
    </g>
  </g>
  <g id="CHARACTER1">
    <g id="arm_right" data-name="arm right">
      <path d="M298.82,57.1c-2.23-1.11-3.88-1.39-10.89-2.09-12.62-1.25-19.06-1.87-25.5-1.57a114,114,0,0,0-12.06,1.22A46.8,46.8,0,0,0,243,51.82c-6.8-2-9.82-1.16-15.73-1.9-10.32-1.3-18-5.92-22-8.37a62.84,62.84,0,0,1-9.86-7.34,44.5,44.5,0,0,0-11.52-12c-2.76-1.94-4.48-2.66-10.8-5.66C157.19,9,153,6.36,152.37,7.19s4,4.67,11.33,12.72c5.13,5.66,9,10.58,11.47,13.87l-9.87-2.4a42.69,42.69,0,0,0,9,8.72,42.92,42.92,0,0,0,15.74,7c2.79,1.51,6.79,3.62,11.66,6,10.36,5.13,18.37,9.1,28.12,12.49a152.88,152.88,0,0,0,36,8.13c5.49.52,10.31.64,17.59,2.59a76.91,76.91,0,0,1,17,6.82c5.55-3.34,8.73-9.18,7.94-14.75C307.4,61.4,300.53,58,298.82,57.1Z" fill="#fff"/>
      <path d="M250.34,54.64c-.14.25-2.94-1.56-8.13-2.4-2.57-.44-5.7-.67-9.2-.92a55.11,55.11,0,0,1-11.4-1.81,71.6,71.6,0,0,1-18.94-8.79c-4.48-2.88-7.07-4.92-7-5.09s2.95,1.5,7.56,4.1A85.26,85.26,0,0,0,222,47.94a59.39,59.39,0,0,0,11.1,1.88,78.25,78.25,0,0,1,9.3,1.29,23.59,23.59,0,0,1,6,2.16,8.88,8.88,0,0,1,1.46.94C250.22,54.45,250.37,54.6,250.34,54.64Z" stroke="#000" stroke-miterlimit="10" stroke-width="0.5"/>
      <path d="M298.79,57.1c-.06.24-3-.3-7.83-1a185,185,0,0,0-18.86-1.78,179.79,179.79,0,0,0-18.94.29c-4.85.31-7.85.62-7.89.37s2.92-.91,7.78-1.52A119.92,119.92,0,0,1,291.16,55C296,56,298.84,56.9,298.79,57.1Z" stroke="#000" stroke-miterlimit="10" stroke-width="0.5"/>
      <path d="M295.49,80.63c0,.05-.4-.07-1.08-.34l-1.26-.52-1.75-.63A66.62,66.62,0,0,0,280,76.24c-4.92-.87-10.85-1.39-17.47-2.08a123.73,123.73,0,0,1-21.32-4C226.33,66,213.76,59.84,204.8,55.33c-4.48-2.27-8.05-4.21-10.51-5.57a22.71,22.71,0,0,1-3.74-2.27,22.66,22.66,0,0,1,4,1.7l10.73,5.11c9.07,4.23,21.64,10.17,36.32,14.3,14.64,4.31,28.65,4.36,38.56,6.51a55.47,55.47,0,0,1,11.45,3.44l1.7.78,1.21.66C295.2,80.36,295.52,80.58,295.49,80.63Z" stroke="#000" stroke-miterlimit="10" stroke-width="0.5"/>
      <path d="M176.27,35.39c-.12.22-2.21-.84-5.75-2L169.13,33l-.75-.2-.35-.08-.53-.08c-.07,0-.2,0-.21,0l.22.24.38.42.49.53.69.71c.92,1,1.94,1.88,3,2.8a47.13,47.13,0,0,0,12.29,7.51c3.43,1.45,5.7,2,5.64,2.27s-2.41,0-6-1.19A39.41,39.41,0,0,1,171,38.58a39.63,39.63,0,0,1-3.1-2.93l-.7-.75c-.24-.26-.38-.44-.82-.95-.75-.86-1.33-1.66-1.94-2.45l-.88-1.16c-.17-.15.1,0,.19,0l.36.09.72.16c.94.21,1.81.4,2.69.65l.64.17.57.18.76.25c.49.18,1,.35,1.4.53C174.46,33.79,176.37,35.22,176.27,35.39Z" stroke="#000" stroke-miterlimit="10" stroke-width="0.5"/>
      <path d="M152.38,7.21c.34-.31,5.89,5.25,12.42,12.41,1.63,1.79,3.16,3.51,4.54,5.09a51.2,51.2,0,0,1,3.55,4.37c1.88,2.64,2.47,4.61,2.27,4.69s-1.14-1.62-3.18-4-5.16-5.46-8.39-9.06C157.07,13.56,152.05,7.51,152.38,7.21Z" stroke="#000" stroke-miterlimit="10" stroke-width="0.5"/>
      <path d="M176.34,26.82c-.34.31-5-4.25-10.92-9.68S154.59,7.41,154.87,7.05s5.69,3.39,11.65,8.89S176.66,26.52,176.34,26.82Z" stroke="#000" stroke-miterlimit="10" stroke-width="0.5"/>
      <path d="M180.44,26c-.38.29-3.63-3.7-8.59-7.53s-9.59-6-9.4-6.48,5.26,1.17,10.4,5.2S180.8,25.75,180.44,26Z" stroke="#000" stroke-miterlimit="10" stroke-width="0.5"/>
      <path d="M186.6,28.27c-.38.28-3.68-3.64-8.26-7.94s-8.65-7.39-8.39-7.78,4.84,2.16,9.51,6.6S187,28,186.6,28.27Z" stroke="#000" stroke-miterlimit="10" stroke-width="0.5"/>
      <path d="M199.24,38.6c-.35.3-5.21-4.9-11.31-11.18S176.79,16.11,177.1,15.77,183,20,189.1,26.28,199.58,38.32,199.24,38.6Z" stroke="#000" stroke-miterlimit="10" stroke-width="0.5"/>
    </g>
    <g id="torso">
      <path d="M298.75,54.81a33.77,33.77,0,0,0-3.57,7.11c-2.25,5.63-2.78,10.08-3.53,17a102.17,102.17,0,0,0-.56,17.33c.43,7.23,1.42,10,2,11.28a27,27,0,0,0,6.11,8.9,31.13,31.13,0,0,0,11.65,7.32l14.11,11.18a28.19,28.19,0,0,0-4.4,6.78,29.19,29.19,0,0,0-2.63,13.61,49.82,49.82,0,0,0,16.31,15.57c2.24,1.31,21.62,12.22,43.13,3.41A49.27,49.27,0,0,0,401,153.2,78.68,78.68,0,0,0,387.64,126a84.34,84.34,0,0,0-13.38-13.88,85.69,85.69,0,0,0-15.37-10.16,102.87,102.87,0,0,0-1.73-11.85,108.44,108.44,0,0,0-3.61-13.14c-4.35-12.87-6.52-19.31-9.74-22.69C332.54,42.41,306.58,44.17,298.75,54.81Z" fill="#fff"/>
      <path d="M291.67,75.67c-.37.26-1.68-1-3.07-2.62s-2.37-3.16-2.05-3.48,1.86.71,3.3,2.43S292,75.41,291.67,75.67Z" stroke="#000" stroke-miterlimit="10" stroke-width="0.5"/>
      <path d="M313,123.81a6.06,6.06,0,0,1-2.2-.56,51.64,51.64,0,0,1-5.69-2.33,29.78,29.78,0,0,1-7.68-5.12,19.78,19.78,0,0,1-3.46-4.34,22.39,22.39,0,0,1-2.22-5.51,57.27,57.27,0,0,1-1.5-11.14,72.24,72.24,0,0,1,.15-9.14c.45-5.19,1.28-8.31,1.47-8.27s-.17,3.21-.32,8.33c-.06,2.56,0,5.62.2,9a63,63,0,0,0,1.58,10.81,22,22,0,0,0,2,5.14,19.65,19.65,0,0,0,3.13,4.06,32.08,32.08,0,0,0,7.16,5.17c2.24,1.23,4.12,2.12,5.41,2.77S313,123.71,313,123.81Z" stroke="#000" stroke-miterlimit="10" stroke-width="0.5"/>
      <path d="M359.2,101.44c-.5.07-2.06-11-6.35-24s-9.48-22.92-9-23.16c.18-.1,1.73,2.25,3.81,6.28a115.16,115.16,0,0,1,10.95,33.59C359.28,98.6,359.41,101.41,359.2,101.44Z" stroke="#000" stroke-miterlimit="10" stroke-width="0.5"/>
      <path d="M324.92,134.88c-.27.36-3.65-1.85-7.55-4.94s-6.84-5.88-6.55-6.22,3.68,1.87,7.56,4.94S325.19,134.52,324.92,134.88Z" stroke="#000" stroke-miterlimit="10" stroke-width="0.5"/>
      <path d="M316.43,155.4c-.43-.08.08-4.71,1.91-10.12s4.2-9.41,4.59-9.22-1.27,4.44-3,9.74S316.88,155.49,316.43,155.4Z" stroke="#000" stroke-miterlimit="10" stroke-width="0.5"/>
      <path d="M401,153.16c-.27.08-1.29-3.61-3.74-9.24l-1-2.19c-.35-.76-.77-1.53-1.16-2.33-.78-1.63-1.77-3.28-2.76-5a84.47,84.47,0,0,0-16.73-20.17c-1.55-1.31-3-2.58-4.44-3.65-.72-.54-1.39-1.09-2.08-1.57l-2-1.37c-5.08-3.44-8.52-5.13-8.39-5.39a8.83,8.83,0,0,1,2.53.94l1.32.6c.47.23,1,.51,1.52.8,1.08.59,2.34,1.22,3.64,2.08l2.07,1.31c.71.46,1.42,1,2.17,1.52,1.51,1,3,2.3,4.61,3.59a76.34,76.34,0,0,1,17,20.55c1,1.82,1.94,3.52,2.68,5.2.38.84.78,1.63,1.1,2.41l.9,2.28c.6,1.43,1,2.79,1.37,4,.19.59.37,1.13.51,1.64l.34,1.41A8.76,8.76,0,0,1,401,153.16Z" stroke="#000" stroke-miterlimit="10" stroke-width="0.5"/>
      <path d="M360,101.41c.13.11-1.7,2.72-5.46,6.22l-1.5,1.35c-.53.47-1.11.9-1.7,1.38-1.16,1-2.5,1.87-3.9,2.85a61.27,61.27,0,0,1-20.24,8.71c-1.66.34-3.24.69-4.74.87-.75.1-1.47.22-2.17.29l-2,.16c-5.13.32-8.29-.14-8.28-.32s3.16-.22,8.17-.83l2-.26c.68-.09,1.38-.25,2.11-.37,1.46-.23,3-.63,4.61-1A77.17,77.17,0,0,0,337.1,117a75.85,75.85,0,0,0,9.55-5c1.39-.92,2.73-1.76,3.9-2.67.59-.44,1.19-.84,1.72-1.27l1.54-1.25C357.69,103.55,359.82,101.22,360,101.41Z" stroke="#000" stroke-miterlimit="10" stroke-width="0.5"/>
      <path d="M294.51,63.89a1.07,1.07,0,0,1,.67-2,.94.94,0,0,1,.44,1.24A1,1,0,0,1,294.51,63.89Z" stroke="#000" stroke-miterlimit="10" stroke-width="0.5"/>
      <path d="M291.92,81.67c-.43,0-1.09-3.67-.53-8.24s2.05-8,2.46-7.88-.33,3.68-.85,8.07S292.39,81.64,291.92,81.67Z" stroke="#000" stroke-miterlimit="10" stroke-width="0.5"/>
      <path d="M325.48,117.32c-.11.15-3.12-1.75-7.31-5.67a63.35,63.35,0,0,1-13.36-17.91,53.36,53.36,0,0,1-5.55-21.64,39.58,39.58,0,0,1,.33-6.79,6.62,6.62,0,0,1,.57-2.43c.28,0-.2,3.54.25,9.15a58.75,58.75,0,0,0,5.86,21A72.38,72.38,0,0,0,319,110.84C322.9,114.9,325.64,117.11,325.48,117.32Z" stroke="#000" stroke-miterlimit="10" stroke-width="0.5"/>
      <path d="M317.37,42.83c.25.12-1.29,3.23-2.46,8.63a65.65,65.65,0,0,0-1.29,9.6c-.25,3.64-.27,7.67-.16,11.91s.26,8.3.28,12a96.59,96.59,0,0,1-.37,9.85c-.52,5.61-1.6,9-1.78,8.9s.41-3.44.63-9c.13-2.77.12-6.07,0-9.74s-.27-7.74-.41-12a107.15,107.15,0,0,1,.29-12.07,56,56,0,0,1,1.67-9.75,35,35,0,0,1,2.3-6.27A6.6,6.6,0,0,1,317.37,42.83Z" stroke="#000" stroke-miterlimit="10" stroke-width="0.5"/>
      <path d="M354.83,82.64c.06.07-.51.69-1.83,1.44a13.79,13.79,0,0,1-6.18,1.6,18.53,18.53,0,0,1-9.21-2.23,29.47,29.47,0,0,1-8.77-7.51,73.33,73.33,0,0,1-10.48-17.86c-2-4.91-2.7-8.13-2.51-8.18s1.33,3,3.57,7.72A88.2,88.2,0,0,0,330.1,74.9a29.7,29.7,0,0,0,8.23,7.23,18.37,18.37,0,0,0,8.49,2.4,15.25,15.25,0,0,0,5.91-1C354.06,83,354.75,82.53,354.83,82.64Z" stroke="#000" stroke-miterlimit="10" stroke-width="0.5"/>
      <path d="M342.21,134.51c-.32.31-3.3-2.25-6.65-5.71s-5.81-6.53-5.48-6.84,3.3,2.24,6.65,5.7S342.54,134.19,342.21,134.51Z" stroke="#000" stroke-miterlimit="10" stroke-width="0.5"/>
      <path d="M345.26,140.56c.1.05.14.22,0,.48a1.58,1.58,0,0,1-.89.73,2.53,2.53,0,0,1-1.69,0,5.38,5.38,0,0,1-1.54-.95c-1.74-1.45-2.92-2.91-2.63-3.26s1.93.55,3.67,2a3.56,3.56,0,0,0,2,1.12C344.71,140.7,345.06,140.46,345.26,140.56Z" stroke="#000" stroke-miterlimit="10" stroke-width="0.5"/>
      <path d="M383.68,122.85a9.45,9.45,0,0,1-1.64,2.3l-1,1.18c-.36.41-.79.84-1.24,1.31a42.52,42.52,0,0,1-3.15,3.06l-1.93,1.69c-.68.58-1.44,1.11-2.2,1.7-1.51,1.2-3.26,2.28-5.07,3.46a72.37,72.37,0,0,1-12.71,6,71.52,71.52,0,0,1-13.69,3.2c-2.15.21-4.19.45-6.12.44-1,0-1.88.08-2.78.05l-2.56-.13a39.46,39.46,0,0,1-4.38-.44c-.64-.09-1.23-.15-1.78-.25L322,146.1a9.53,9.53,0,0,1-2.72-.79,9.47,9.47,0,0,1,2.82.16l1.48.18,1.78.12c1.28.06,2.72.23,4.33.19l2.51,0c.88,0,1.79-.09,2.73-.14,1.88,0,3.87-.34,6-.58a71.32,71.32,0,0,0,25.83-9c1.79-1.12,3.54-2.13,5-3.26.76-.56,1.53-1.05,2.22-1.59l2-1.58c1.28-1,2.31-2,3.26-2.84l1.32-1.2,1.05-1.07C382.85,123.45,383.6,122.77,383.68,122.85Z" stroke="#000" stroke-miterlimit="10" stroke-width="0.5"/>
    </g>
    <g id="leg_right" data-name="leg right">
      <path d="M316.43,155.41c-4.09,1.51-9.19,4.86-19.38,11.56-11.51,7.58-24.3,16.06-39.22,29.5a270.71,270.71,0,0,0-21.48,21.67c.66,3.34,1.62,8.15,2.81,13.93,2.46,11.91,5.05,23.82,6.27,29.06,2.26,9.7,6.54,25.48,15,47.72a76,76,0,0,1-16.5,26.91c-3.81,4-5.54,4.83-11.65,10.39-8.38,7.64-9,9.55-8.57,10.79.36,1,2.28,1.91,6.1,3.62,2.46,1.1,4.53,1.88,5.94,2.38.2,1.08.78,3.41,2.57,4.24.92.42,2.37.54,6.85-2.16a53.06,53.06,0,0,0,11.33-9.3c3.54-3.8,2.66-3.58,5.11-6,4.11-4,5.91-4,12-8.61,4.47-3.38,6.71-5.06,8.6-8.05a22.11,22.11,0,0,0,3.25-11.5c-1.07-2.95-2.46-7-3.85-11.92a131.22,131.22,0,0,1-4.56-21c-.36-3-.48-9.59-.7-22.79-.15-8.39-.11-10.57-.35-15.42-.36-7-.95-12.71-1.4-16.47a142.45,142.45,0,0,1,19.7-10.22c1.66-.7,2.29-.92,13.72-5.2,11.64-4.35,17.49-6.54,19-7.23,7.09-3.2,13.29-6,20-11.81a62.19,62.19,0,0,0,10.6-11.85c5.35-7.79,12.27-17.87,9.53-25.2C362.94,151.13,336.37,148,316.43,155.41Z" fill="#fff"/>
      <path d="M236.39,218.1a19,19,0,0,1,2.5-3.23c.83-1,1.88-2.22,3.15-3.59s2.66-3,4.31-4.63,3.42-3.54,5.41-5.45,4.13-3.94,6.41-6c4.61-4.16,9.81-8.58,15.48-13s11.28-8.27,16.47-11.67c2.62-1.67,5.1-3.27,7.48-4.66s4.59-2.71,6.64-3.84,3.93-2.13,5.58-3,3.09-1.57,4.28-2.12a19,19,0,0,1,3.76-1.6,18.8,18.8,0,0,1-3.47,2.16c-1.14.64-2.53,1.42-4.13,2.36s-3.45,2-5.44,3.19-4.2,2.52-6.51,4-4.78,3.07-7.36,4.76c-5.12,3.45-10.66,7.38-16.31,11.72s-10.83,8.71-15.47,12.79c-2.29,2.06-4.49,4-6.48,5.9s-3.85,3.64-5.52,5.28-3.16,3.13-4.47,4.44-2.44,2.46-3.35,3.4A20,20,0,0,1,236.39,218.1Z" stroke="#000" stroke-miterlimit="10" stroke-width="0.5"/>
      <path d="M276.11,233.58a14.85,14.85,0,0,1,3-2.41,73.14,73.14,0,0,1,9-5.3,148.38,148.38,0,0,1,14.27-6.11c5.46-2.06,11.51-4.13,17.76-6.52a124.75,124.75,0,0,0,17.05-7.91,68.71,68.71,0,0,0,12.4-8.92,52.12,52.12,0,0,0,6.89-7.67,22.56,22.56,0,0,1,2.28-3.06A13.94,13.94,0,0,1,357,189.1a43.67,43.67,0,0,1-6.63,8.15A64,64,0,0,1,338,206.62a114.63,114.63,0,0,1-17.21,8.14c-6.3,2.41-12.37,4.43-17.83,6.41s-10.32,3.89-14.29,5.74C280.68,230.57,276.28,233.82,276.11,233.58Z" stroke="#000" stroke-miterlimit="10" stroke-width="0.5"/>
      <path d="M283.93,319.8a16.82,16.82,0,0,1-1.26-3.56c-.68-2.33-1.61-5.72-2.56-10a212.64,212.64,0,0,1-4.73-33.58c-.42-6.62-.47-12.94-.34-18.68s.34-10.86.08-15.15a53.09,53.09,0,0,0-1.45-10.05,27.65,27.65,0,0,1-.95-3.63,12.36,12.36,0,0,1,1.56,3.45,44.16,44.16,0,0,1,2,10.14c.41,4.36.35,9.55.28,15.27s0,12,.46,18.55a264.56,264.56,0,0,0,4.23,33.45c.8,4.25,1.55,7.66,2,10A16.87,16.87,0,0,1,283.93,319.8Z" stroke="#000" stroke-miterlimit="10" stroke-width="0.5"/>
      <path d="M260.36,310.18a13,13,0,0,1-1.44-3.09c-.83-2-1.95-5-3.26-8.66-2.62-7.37-5.92-17.66-9-29.19s-5.3-22.11-6.67-29.8c-.69-3.85-1.19-7-1.48-9.14a14.09,14.09,0,0,1-.28-3.39,13.71,13.71,0,0,1,.91,3.28c.47,2.13,1.14,5.21,2,9,1.66,7.62,4.07,18.12,7.12,29.61s6.17,21.8,8.51,29.24l2.76,8.82A14.17,14.17,0,0,1,260.36,310.18Z" stroke="#000" stroke-miterlimit="10" stroke-width="0.5"/>
      <path d="M274.49,319.76c-.22-.11.11-1.12.41-2.77a20.41,20.41,0,0,0,.21-6.4,19.28,19.28,0,0,0-.78-3.44,20.9,20.9,0,0,1-.8-3,5.42,5.42,0,0,1,0-2.17c.13-.51.31-.75.41-.72s.13,1.08.68,2.62c.25.78.65,1.68,1.08,2.75a15.4,15.4,0,0,1,1,3.73,14.76,14.76,0,0,1-.72,6.92C275.39,319,274.67,319.85,274.49,319.76Z" stroke="#000" stroke-miterlimit="10" stroke-width="0.5"/>
      <path d="M250,328.62c-.38-.28,2.29-4.5,5.14-9.92s4.87-10,5.32-9.83-.93,5.06-3.87,10.59S250.32,328.88,250,328.62Z" stroke="#000" stroke-miterlimit="10" stroke-width="0.5"/>
      <path d="M239.35,367.67a8.69,8.69,0,0,1,2.3-1.34c1.51-.79,3.74-1.85,6.27-3.47a28,28,0,0,0,3.86-3,37.08,37.08,0,0,0,3.76-4.17c1.25-1.56,2.51-3.27,4-5a31.59,31.59,0,0,1,5.14-4.68c3.82-2.81,7.73-4.91,10.92-7.27a25.06,25.06,0,0,0,7.07-7.57,16.86,16.86,0,0,0,1.58-3.65,13.91,13.91,0,0,0,.5-3c.08-1.66-.13-2.59,0-2.62a5.1,5.1,0,0,1,.63,2.62,12.52,12.52,0,0,1-.25,3.19,16.63,16.63,0,0,1-1.46,4,24.62,24.62,0,0,1-7.18,8.22c-3.25,2.51-7.17,4.67-10.85,7.38a31.3,31.3,0,0,0-4.91,4.43c-1.44,1.6-2.73,3.28-4,4.84a35.42,35.42,0,0,1-4,4.23,27.23,27.23,0,0,1-4.16,2.93,45.11,45.11,0,0,1-6.61,3.07A7.9,7.9,0,0,1,239.35,367.67Z" stroke="#000" stroke-miterlimit="10" stroke-width="0.5"/>
      <path d="M224.47,354.4c-.18-.11.6-1.78,2.51-4a90.84,90.84,0,0,1,8.11-7.83c6.54-5.83,12.09-10.29,12.39-10s-4.76,5.34-11.3,11.18c-3.27,2.93-6.34,5.43-8.36,7.4S224.67,354.53,224.47,354.4Z" stroke="#000" stroke-miterlimit="10" stroke-width="0.5"/>
      <path d="M233.05,362.83c-.18.4-3.14-.45-6.68-2a6.59,6.59,0,0,1-2.43-1.73,3.41,3.41,0,0,1-.81-2.48,2.25,2.25,0,0,1,.73-1.59c.34-.27.58-.28.64-.19s-.41.74-.22,1.76a2.61,2.61,0,0,0,.78,1.5,6.68,6.68,0,0,0,2,1.25C230.51,360.87,233.24,362.41,233.05,362.83Z" stroke="#000" stroke-miterlimit="10" stroke-width="0.5"/>
      <path d="M238.32,367.18c0,.1-.14.27-.52.35a2.26,2.26,0,0,1-1.6-.39,3.37,3.37,0,0,1-1.41-2,4.33,4.33,0,0,1,.41-2.94,6.7,6.7,0,0,1,1.73-2.16,13.56,13.56,0,0,1,1.71-1.23c1-.59,1.63-.93,1.79-.77s-.23.83-1.07,1.67a13.71,13.71,0,0,0-2.7,3.21,3.54,3.54,0,0,0-.4,1.92,2.59,2.59,0,0,0,.67,1.41C237.55,367,238.27,367,238.32,367.18Z" stroke="#000" stroke-miterlimit="10" stroke-width="0.5"/>
      <path d="M232.26,353.63c.12.44-1.51,1.24-3,2.72-.39.37-.73.74-1,1.09a2.32,2.32,0,0,0-.52.83.9.9,0,0,0-.07.58c.05.16.12.24.07.33a.48.48,0,0,1-.55.08,1.22,1.22,0,0,1-.6-1.08,2.62,2.62,0,0,1,.46-1.63,7.3,7.3,0,0,1,1.12-1.38,6.66,6.66,0,0,1,2.76-1.61C231.66,353.34,232.19,353.42,232.26,353.63Z" stroke="#000" stroke-miterlimit="10" stroke-width="0.5"/>
      <path d="M235.08,355.66c.06.46-1.43,1-2.76,2.3s-2,2.69-2.5,2.6c-.2-.06-.31-.54-.14-1.28a5.45,5.45,0,0,1,4.14-3.86C234.57,355.3,235.05,355.45,235.08,355.66Z" stroke="#000" stroke-miterlimit="10" stroke-width="0.5"/>
      <path d="M238.72,356.78c.23.4-1.1,1.59-2.7,3s-3,2.58-3.33,2.3.5-2,2.25-3.52S238.5,356.4,238.72,356.78Z" stroke="#000" stroke-miterlimit="10" stroke-width="0.5"/>
      <path d="M332.58,205.33c-.28,0,.16-3.1-.14-8a51.27,51.27,0,0,0-4.67-18.45,47.65,47.65,0,0,0-5.43-9,32.36,32.36,0,0,0-5.92-6.14,15.58,15.58,0,0,0-5-2.63c-1.31-.37-2.08-.43-2.08-.57s.79-.25,2.21-.05a13.8,13.8,0,0,1,5.58,2.31,30,30,0,0,1,6.43,6.15,44.77,44.77,0,0,1,5.73,9.22,46.29,46.29,0,0,1,4.35,19.1C333.6,202.33,332.74,205.36,332.58,205.33Z" stroke="#000" stroke-miterlimit="10" stroke-width="0.5"/>
      <path d="M279.48,308.07c0,.43-5.39,1.2-12.1.69a26.13,26.13,0,0,1-4.76-.67,10.43,10.43,0,0,1-3.7-1.64,5.23,5.23,0,0,1-1.76-2.12c-.26-.61-.25-1-.16-1,.25-.11.76,1.2,2.55,2.17a12,12,0,0,0,3.4,1.14,40.18,40.18,0,0,0,4.55.51C274.07,307.64,279.45,307.6,279.48,308.07Z" stroke="#000" stroke-miterlimit="10" stroke-width="0.5"/>
      <path d="M277.45,300.62c.24.34-3.49,3.24-8.95,5s-10.18,1.75-10.18,1.32,4.44-1.11,9.66-2.86S277.19,300.22,277.45,300.62Z" stroke="#000" stroke-miterlimit="10" stroke-width="0.5"/>
    </g>
    <g id="leg_left" data-name="leg left">
      <path d="M393.65,135.13a46.45,46.45,0,0,0-8.61.66c-4.45.77-15.33,1.83-26.55,13.72a253.51,253.51,0,0,0-20.22,24.29,258.59,258.59,0,0,0-38.62,77.66,106.89,106.89,0,0,0,10.75,18,111.49,111.49,0,0,0,16.15,17.42c9.46,8.53,21.49,19.84,38,36-1.12,4.2-2.7,10.56-4.19,18.49-1.18,6.31-1,6.63-1.94,10.56a140.65,140.65,0,0,1-6.33,19.41c.07,1.47.38,3.44,1.67,4.08s2.84-.81,6-1.68c2.31-.64,2.59-.1,8.43-.18,4.73-.06,7.1-.1,8.92-.86a12.29,12.29,0,0,0,6.3-5.66c1.19-2.47.56-3.85.62-10.77,0-1.68,0-4.77.35-8.07.14-1.56.42-3.79,2.63-13.7,1.66-7.41,2-8.54,1.52-10.78a16.9,16.9,0,0,0-4.15-7.41c-2.29-2.51-3.64-2.6-6.31-4.91-.9-.78-3-2.72-6-7.71-5.75-9.73-5-14.78-10.87-26.29a77.42,77.42,0,0,0-5.61-9.46,74.8,74.8,0,0,0-12.26-13.67,94.59,94.59,0,0,1,6.47-12.16A125.27,125.27,0,0,1,360.47,228c3.75-4.51,4.1-4.62,11.48-13.15,4.88-5.64,7.33-8.46,9.34-11.05a170.87,170.87,0,0,0,9.91-14.26c2.86-4.58,4.28-6.87,5.4-9.59A51.85,51.85,0,0,0,400,166a54,54,0,0,0,.56-11.22A41.49,41.49,0,0,0,393.65,135.13Z" fill="#fff"/>
      <path d="M300.05,248a24,24,0,0,1,1-4.45l.62-2.36c.27-.85.55-1.77.86-2.77.64-2,1.31-4.26,2.26-6.7l1.42-3.87c.51-1.33,1.11-2.7,1.69-4.12,1.14-2.87,2.57-5.84,4-9,3-6.24,6.66-13,10.84-19.78s8.58-13.05,12.71-18.62c2.1-2.76,4.08-5.39,6-7.77s3.76-4.61,5.46-6.6,3.27-3.76,4.65-5.31,2.6-2.87,3.62-3.93a24.67,24.67,0,0,1,3.25-3.18,23,23,0,0,1-2.78,3.6c-.94,1.12-2.09,2.49-3.4,4.1s-2.84,3.41-4.45,5.46-3.43,4.26-5.29,6.7-3.83,5.05-5.88,7.82c-4,5.59-8.34,11.83-12.53,18.59s-7.8,13.42-10.88,19.57c-1.48,3.11-2.94,6-4.13,8.87-.6,1.4-1.23,2.75-1.76,4.06s-1,2.59-1.52,3.8c-1,2.41-1.75,4.65-2.46,6.59-.36,1-.68,1.88-1,2.72l-.75,2.3A24.14,24.14,0,0,1,300.05,248Z" stroke="#000" stroke-miterlimit="10" stroke-width="0.5"/>
      <path d="M343,254.24a5.19,5.19,0,0,1,.48-1.4c.35-.9,1-2.18,1.76-3.82a98.92,98.92,0,0,1,8.19-13.14c3.84-5.3,8.87-11.25,14.56-17.72s12-13.53,17.68-21.61a97.5,97.5,0,0,0,7.45-12.29,71.84,71.84,0,0,0,4.8-12.45,50.38,50.38,0,0,0,1.32-22.35A45.4,45.4,0,0,0,394,135.21c-1.79-3.15-3-4.77-2.89-4.85s.4.33,1,1.08a41.68,41.68,0,0,1,2.44,3.44,43,43,0,0,1,5.87,14.36,50.29,50.29,0,0,1-1,23A71.42,71.42,0,0,1,394.59,185a95.62,95.62,0,0,1-7.54,12.52c-5.78,8.19-12.17,15.24-17.89,21.67s-10.84,12.24-14.76,17.41a117.56,117.56,0,0,0-8.56,12.75C344,252.48,343.16,254.29,343,254.24Z" stroke="#000" stroke-miterlimit="10" stroke-width="0.5"/>
      <path d="M377.18,310.62c-.08.09-.8-.52-2.05-1.7-.6-.61-1.26-1.42-2.07-2.34s-1.59-2.06-2.37-3.38a63.53,63.53,0,0,1-4.88-9.56c-1.57-3.72-3.06-7.87-4.73-12.16a87.78,87.78,0,0,0-5.39-11.72,62.35,62.35,0,0,0-6-8.6c-3.87-4.61-6.61-7.19-6.43-7.38s.84.47,2.14,1.58a61.68,61.68,0,0,1,5.16,5.05A54.92,54.92,0,0,1,357,269a77.65,77.65,0,0,1,5.62,11.89c1.68,4.32,3.12,8.48,4.6,12.18a72.44,72.44,0,0,0,4.48,9.53C374.59,307.86,377.42,310.4,377.18,310.62Z" stroke="#000" stroke-miterlimit="10" stroke-width="0.5"/>
      <path d="M364.49,323.68a20.07,20.07,0,0,1-2.68-2.76c-1.66-1.82-4.11-4.41-7.25-7.5s-7-6.65-11.35-10.53S334,294.81,329,290.25a185.78,185.78,0,0,1-13.46-13.51,100.85,100.85,0,0,1-9.5-12.38,68.18,68.18,0,0,1-5.05-9.23,15.09,15.09,0,0,1-1.33-3.62c.28-.13,2.33,5,7.34,12.21a112.37,112.37,0,0,0,9.66,12c3.91,4.3,8.49,8.77,13.44,13.31l14.11,12.73c4.32,4,8.12,7.62,11.17,10.84s5.39,5.94,6.9,7.9A15.65,15.65,0,0,1,364.49,323.68Z" stroke="#000" stroke-miterlimit="10" stroke-width="0.5"/>
      <path d="M383.41,352.22c-.22-.05.12-2.78.85-7.15s1.88-10.42,3.15-17a16.23,16.23,0,0,0,.24-4.67,8.66,8.66,0,0,0-1.5-3.9,24.3,24.3,0,0,0-5.51-5.1,33,33,0,0,1-4.06-3.41c-.88-.91-1.22-1.54-1.15-1.6s.6.39,1.58,1.12,2.42,1.75,4.29,2.95c.93.61,1.95,1.28,3,2.11a15.57,15.57,0,0,1,3.07,3.06,10.06,10.06,0,0,1,1.85,4.56,16.81,16.81,0,0,1-.21,5.15c-1.3,6.7-2.62,12.64-3.63,17S383.63,352.26,383.41,352.22Z" stroke="#000" stroke-miterlimit="10" stroke-width="0.5"/>
      <path d="M353.65,368.76c-.22-.13,1.06-2.45,2.09-6.55s1.72-9.94,2.94-16.38,2.54-12.2,3.66-16.33,2-6.65,2.21-6.59-.25,2.66-1.08,6.85-2,10-3.19,16.37-2,12.27-3.44,16.41S353.81,368.87,353.65,368.76Z" stroke="#000" stroke-miterlimit="10" stroke-width="0.5"/>
      <path d="M360.14,372.6c.15.16-.11.74-.75,1.53a6.3,6.3,0,0,1-3.48,2.26,4,4,0,0,1-4.06-1.61,2.13,2.13,0,0,1-.35-1.34c.05-.33.17-.48.28-.48s.37.6,1,1.1a3.55,3.55,0,0,0,2.83.73,9.2,9.2,0,0,0,3-1.51C359.41,372.75,360,372.44,360.14,372.6Z" stroke="#000" stroke-miterlimit="10" stroke-width="0.5"/>
      <path d="M383.38,351.16c.23,0,.64,2.32,1.14,6.13a30.27,30.27,0,0,1,.29,6.88,13.08,13.08,0,0,1-1.07,4.07,9.59,9.59,0,0,1-2.83,3.65,9.71,9.71,0,0,1-4.27,1.73c-1.43.26-2.75.36-4,.5-2.52.26-4.8.48-6.72.64a13.2,13.2,0,0,1-4.65-.18c-1.09-.31-1.57-.74-1.52-.83s.61.11,1.64.21a17.23,17.23,0,0,0,4.4-.35c1.89-.3,4.16-.64,6.67-1s5.39-.45,7.47-2a8.07,8.07,0,0,0,2.37-3,12,12,0,0,0,1-3.57,35.6,35.6,0,0,0,.05-6.59C383.17,353.56,383.16,351.18,383.38,351.16Z" stroke="#000" stroke-miterlimit="10" stroke-width="0.5"/>
      <path d="M378.25,326.83c-.23-.05-.2-.95-.11-2.35a10.44,10.44,0,0,0-.63-5c-.8-1.65-2.56-2.7-3.56-3.79s-1.39-2-1.2-2.13.78.5,1.94,1.25c.57.38,1.28.82,2.07,1.41a6.64,6.64,0,0,1,2.89,5.85,10.77,10.77,0,0,1-.38,2.6C378.89,326.08,378.46,326.88,378.25,326.83Z" stroke="#000" stroke-miterlimit="10" stroke-width="0.5"/>
      <path d="M390,191c-.25.11-1.49-2.85-4.33-7.1a54.67,54.67,0,0,0-13.73-14.24,46.49,46.49,0,0,0-9.49-5.33,25.7,25.7,0,0,0-8.56-2,15.72,15.72,0,0,0-5.85.78l-.89.31-.64.27c-.36.14-.56.19-.59.14s.11-.19.42-.43.35-.26.59-.41l.86-.47a14.32,14.32,0,0,1,6.11-1.35,24.87,24.87,0,0,1,9.09,1.75,44.21,44.21,0,0,1,9.9,5.4,49.21,49.21,0,0,1,13.76,14.95C389.27,187.81,390.13,191,390,191Z" stroke="#000" stroke-miterlimit="10" stroke-width="0.5"/>
      <path d="M366.47,365.76c.19.42-1.54,1.58-2.29,3.86s-.23,4.23-.64,4.43c-.18.1-.65-.32-1-1.24a6,6,0,0,1,2.36-6.7C365.75,365.6,366.38,365.57,366.47,365.76Z" stroke="#000" stroke-miterlimit="10" stroke-width="0.5"/>
      <path d="M369.12,366c.34.31-.51,1.78-.73,3.74s.17,3.59-.24,3.81c-.19.09-.6-.23-.95-1a5.82,5.82,0,0,1,.76-5.9C368.48,366.08,369,365.87,369.12,366Z" stroke="#000" stroke-miterlimit="10" stroke-width="0.5"/>
      <path d="M374.93,364.58c.26.38-1.3,1.78-2,4.11s-.29,4.34-.72,4.52c-.19.07-.62-.37-.91-1.3a6.62,6.62,0,0,1,2.14-6.79C374.21,364.53,374.82,364.4,374.93,364.58Z" stroke="#000" stroke-miterlimit="10" stroke-width="0.5"/>
      <path d="M378,364.59c.4.23-.16,1.94-.39,4.07s-.11,3.91-.56,4-1.36-1.74-1.06-4.23S377.65,364.36,378,364.59Z" stroke="#000" stroke-miterlimit="10" stroke-width="0.5"/>
    </g>
    <g id="head">
      <path d="M315.92,40.49a33.88,33.88,0,0,0,2.56-4.12A33.53,33.53,0,0,0,322,25.81c.66-4.5,1.17-8-.48-11.42-3.14-6.5-11.66-7.75-12.93-7.92a32.24,32.24,0,0,0-7.94-4.25c-8.52-3.09-16.07-1.6-21.7-.49a45.19,45.19,0,0,0-26.34,14.51c-12.7,13.47-19.05,20.2-25.53,25.66-9.34,7.88-11.92,7-26.89,19.14-4.72,3.82-8.84,7.44-11.88,13.48A35.92,35.92,0,0,0,184.59,91l5.87-9.57a26.33,26.33,0,0,0-1.14,11.24c.33,2.79.8,6.74,3.7,10.34,4.33,5.38,10.92,6.06,12.76,6.25A21.63,21.63,0,0,0,219.37,106l-3.24,5.07a77.66,77.66,0,0,0,12.33-4,55.87,55.87,0,0,0,14.45-8.44c3-2.45,4.86-4.63,9.92-11.18,3.7-4.78,8.48-11.12,14-18.79q-2,5.49-4.07,11a63.44,63.44,0,0,0,8.7-5.22,60.34,60.34,0,0,0,7.17-6c7.68-7.69,4.62-12.68,10-17.7C296.6,43.17,309.8,48.59,315.92,40.49Z"/>
      <path d="M265.33,40.37c1,1.83,2.49,4.37,4.47,7.27,2.86,4.17,6.8,9.94,12.12,14.14,2.92,2.31,9.82,7,21.48,7.89l4.21-2.3,5.62,2.21a35.79,35.79,0,0,0,2.86-12.86,61,61,0,0,0-.71-9c-.59-4.9-1.23-9.2-1.82-12.73a10,10,0,0,0,2.31-5.07c.05-.35.78-6.27-3.25-8.53A5.91,5.91,0,0,0,304,28.59a7.54,7.54,0,0,1-4.05-1.1c-3.53-2.21-3.61-6.67-3.61-7A87.84,87.84,0,0,1,288,27.8,87.64,87.64,0,0,1,265.33,40.37Z" fill="#fff"/>
      <path d="M301.42,69.89c0,.18-2.64.31-6.73-.75a37.76,37.76,0,0,1-14.44-7.66,47,47,0,0,1-10.38-12.61c-2.05-3.65-2.88-6.11-2.7-6.19s1.42,2.16,3.69,5.58a55.94,55.94,0,0,0,10.44,12A42.91,42.91,0,0,0,295,68C298.89,69.34,301.45,69.63,301.42,69.89Z" stroke="#000" stroke-miterlimit="10" stroke-width="0.5"/>
      <path d="M313.57,35c.17-.08,1.24,1.91,2,5.46a31.32,31.32,0,0,1,.6,6.32,32.39,32.39,0,0,1-1.05,7.72A30,30,0,0,1,308.57,67,9,9,0,0,1,305,69.51c-1,.34-1.59.25-1.6.16s.52-.26,1.34-.74a10.4,10.4,0,0,0,2.93-2.71,34.53,34.53,0,0,0,5.86-12.1,37.41,37.41,0,0,0,1.12-7.35,38.44,38.44,0,0,0-.24-6.1C314,37.21,313.32,35.11,313.57,35Z" stroke="#000" stroke-miterlimit="10" stroke-width="0.5"/>
      <path d="M313.23,69.58c-.08.43-1.56.53-3.2-.12s-2.66-1.72-2.42-2.09,1.53,0,3,.57S313.32,69.13,313.23,69.58Z" stroke="#000" stroke-miterlimit="10" stroke-width="0.5"/>
      <path d="M313.62,34.6c-.06-.11.25-.38.64-.93a5.7,5.7,0,0,0,.91-2.66,12.61,12.61,0,0,0-.33-4.28,8.08,8.08,0,0,0-2.34-4.39,5,5,0,0,0-4.52-.9,4.72,4.72,0,0,0-3,2.48,6.13,6.13,0,0,0-.66,2.74c0,.69.06,1.09-.05,1.13s-.37-.3-.58-1.05a5.5,5.5,0,0,1,.23-3.28A5.74,5.74,0,0,1,307.53,20a6.3,6.3,0,0,1,6,1.1,9,9,0,0,1,2.76,5.33,12,12,0,0,1,0,4.79,5.34,5.34,0,0,1-1.58,2.88C314.11,34.6,313.67,34.68,313.62,34.6Z" stroke="#000" stroke-miterlimit="10" stroke-width="0.5"/>
      <path d="M284.61,44.16c-.18.43-2.81-.3-6.07-.85s-6-.74-6-1.2,2.8-1,6.27-.4S284.79,43.77,284.61,44.16Z" stroke="#000" stroke-miterlimit="10" stroke-width="0.5"/>
      <path d="M296.52,27.61c.34.32-1.56,2.86-3.43,6.24S290,40.16,289.56,40s.1-3.42,2.11-7S296.21,27.31,296.52,27.61Z" stroke="#000" stroke-miterlimit="10" stroke-width="0.5"/>
      <path d="M285.29,51.24c-.37.25-1.63-.93-2.81-2.65S280.64,45.28,281,45s1.63.93,2.81,2.65S285.66,51,285.29,51.24Z" stroke="#000" stroke-miterlimit="10" stroke-width="0.5"/>
      <ellipse cx="296.36" cy="40.04" rx="0.82" ry="4.19" transform="translate(23.77 163.03) rotate(-31.98)" stroke="#000" stroke-miterlimit="10" stroke-width="0.5"/>
      <path d="M289.11,55.14c-.48,0-.66-3.06-2.34-6.27s-4-5.2-3.68-5.59c.12-.17.9.1,1.94.89a11.88,11.88,0,0,1,3.2,4,11.72,11.72,0,0,1,1.3,4.92C289.56,54.36,289.32,55.14,289.11,55.14Z" stroke="#000" stroke-miterlimit="10" stroke-width="0.5"/>
      <path d="M295.45,56.35c.23.37-1,1.43-2.82,1.55s-3.18-.76-3-1.17,1.43-.35,2.9-.46S295.24,55.94,295.45,56.35Z" stroke="#000" stroke-miterlimit="10" stroke-width="0.5"/>
      <path d="M302.86,54.17c.21,0,.46.88,0,2.25a10.11,10.11,0,0,1-3.1,4.33A8.72,8.72,0,0,1,295,63.18a3.2,3.2,0,0,1-1.7-.28c-.36-.18-.51-.38-.46-.47s.87,0,1.95-.39a11.32,11.32,0,0,0,3.91-2.52A14.8,14.8,0,0,0,301.84,56C302.45,54.94,302.62,54.16,302.86,54.17Z" stroke="#000" stroke-miterlimit="10" stroke-width="0.5"/>
      <path d="M304.08,28.65c.06.18-.76.66-2.19.45A6.73,6.73,0,0,1,297.5,26a11.39,11.39,0,0,1-1.62-4.93c-.13-1.3-.05-2.1.16-2.14s.56.7,1,1.89a20.17,20.17,0,0,0,1.87,4.3A7.38,7.38,0,0,0,302.19,28C303.25,28.42,304,28.4,304.08,28.65Z" stroke="#000" stroke-miterlimit="10" stroke-width="0.5"/>
      <path d="M308.58,6.47c0-.09.62-.19,1.71,0a12.28,12.28,0,0,1,4.4,1.52,15.51,15.51,0,0,1,5.11,4.71,18,18,0,0,1,2.94,8,22.65,22.65,0,0,1-.58,8.44,28.15,28.15,0,0,1-2.53,6.36c-1.89,3.41-3.55,5.16-3.7,5s1.1-2.13,2.66-5.55a26.45,26.45,0,0,0,2.53-14.09,17.71,17.71,0,0,0-2.57-7.35,15.8,15.8,0,0,0-4.46-4.56C311,6.87,308.53,6.76,308.58,6.47Z" stroke="#000" stroke-miterlimit="10" stroke-width="0.5"/>
      <path d="M297.12,19.62a11.71,11.71,0,0,1-2.18,2.62,56.92,56.92,0,0,1-7,6.08,101.58,101.58,0,0,1-11.67,7.34c-4.54,2.5-9.65,5-15,7.64s-10.3,5.33-14.62,8.07a75.85,75.85,0,0,0-10.85,8.15c-5.73,5.22-8.16,9.47-8.43,9.29a11.77,11.77,0,0,1,1.65-3,44.61,44.61,0,0,1,6-7.14,70.43,70.43,0,0,1,10.83-8.57,145.82,145.82,0,0,1,14.71-8.27c5.33-2.66,10.45-5.1,15-7.5a119,119,0,0,0,11.71-7C293.64,23,296.91,19.41,297.12,19.62Z" stroke="#000" stroke-miterlimit="10" stroke-width="0.5"/>
      <path d="M184.58,90.9a6,6,0,0,1-.33-1.64c-.05-.55-.08-1.22-.11-2a24.42,24.42,0,0,1,.18-2.77,32.17,32.17,0,0,1,7.26-16A52.72,52.72,0,0,1,200.36,60c3.45-2.71,7.36-5.27,11.44-8a144.28,144.28,0,0,0,12.42-8.85,152,152,0,0,0,12.08-11c4-4,7.71-8,11.33-11.91A98.37,98.37,0,0,1,258.82,9.62a39.9,39.9,0,0,1,12.36-6.68,54.34,54.34,0,0,1,12-2.36,68.08,68.08,0,0,1,10-.23,24.31,24.31,0,0,1,7.46,1.55,13.52,13.52,0,0,1,4.11,2.51,7.38,7.38,0,0,1,.87.91c.17.22.25.34.23.36s-.44-.37-1.31-1a14.74,14.74,0,0,0-4.12-2.18,25,25,0,0,0-7.29-1.23,70.23,70.23,0,0,0-9.88.47,54.38,54.38,0,0,0-11.66,2.49,39,39,0,0,0-11.87,6.58A99.68,99.68,0,0,0,248.8,21.35c-3.6,3.9-7.35,8-11.34,12a148.31,148.31,0,0,1-12.24,11.14,137.21,137.21,0,0,1-12.6,8.86c-4.11,2.65-8,5.15-11.43,7.77a53.4,53.4,0,0,0-8.72,8.14A32.79,32.79,0,0,0,185,84.55C184.25,88.59,184.78,90.89,184.58,90.9Z" stroke="#000" stroke-miterlimit="10" stroke-width="0.5"/>
      <path d="M190.63,82.29c.24.4-1.75,1.89-3.28,4.39s-2,4.91-2.52,4.88c-.22,0-.39-.69-.28-1.77a9.84,9.84,0,0,1,4.37-7C189.85,82.24,190.52,82.1,190.63,82.29Z" stroke="#000" stroke-miterlimit="10" stroke-width="0.5"/>
      <path d="M219.35,106c0,.1-.58.45-1.75,1a42.32,42.32,0,0,1-5.07,1.85,25.4,25.4,0,0,1-8,1.15,16.14,16.14,0,0,1-4.82-.89,14,14,0,0,1-4.58-2.65A18.3,18.3,0,0,1,189.64,98a24,24,0,0,1-1-8.06c.23-4.61,1.19-7.3,1.36-7.26s-.28,2.82-.21,7.27a25.62,25.62,0,0,0,1.29,7.58,17.63,17.63,0,0,0,5.09,7.64,14,14,0,0,0,8.42,3.28,27.26,27.26,0,0,0,7.66-.77c2.18-.49,3.93-1,5.15-1.33S219.31,105.91,219.35,106Z" stroke="#000" stroke-miterlimit="10" stroke-width="0.5"/>
      <path d="M268,68.08c.18.14-2.31,3.64-6.47,9.19-2.08,2.78-4.58,6.06-7.38,9.7a94,94,0,0,1-9.77,11.41,45.83,45.83,0,0,1-14.63,8.93c-2.4,1-4.69,1.71-6.8,2.36-1.05.33-2.06.61-3,.89l-3.75,1a1.13,1.13,0,0,0-.54-.12,4.61,4.61,0,0,0-.53,0c-.06,0-.22,0-.22,0l.23-.11a2.52,2.52,0,0,0,.44-.28,3.37,3.37,0,0,0,.91-1.18l.57-.44.34-.36a5.59,5.59,0,0,0,.47-.61c.21-.29.36-.55.49-.77.24-.43.36-.67.41-.65s0,.29-.11.78a7.82,7.82,0,0,1-.37.89,4.74,4.74,0,0,1-.47.76,3.41,3.41,0,0,1-.71.71,2.2,2.2,0,0,1-.32.21l-.17.08.25-.08L218,110l4.58-1.55c2.07-.71,4.3-1.52,6.63-2.51a46.7,46.7,0,0,0,14.08-8.76A103.94,103.94,0,0,0,253,86c2.86-3.58,5.46-6.79,7.65-9.48C265,71.19,267.81,67.94,268,68.08Z" stroke="#000" stroke-miterlimit="10" stroke-width="0.5"/>
      <path d="M281.68,62.86c.17.06-.27,2-2,4.79a23.08,23.08,0,0,1-9.45,8.3c-1.11.52-2.19,1-3.18,1.41a11.32,11.32,0,0,0-2.84,1.82l-4.5,4,.52-.86c0-.06.19-.29.3-.46l.36-.53c.51-.78,1-1.54,1.51-2.28l.7-1.07c.2-.33.46-.7.6-1l.46-.82.35-.75a3.92,3.92,0,0,0,.16-.36l.09-.21c.06-.14.12-.28.17-.42s.21-.54.29-.8c.18-.53.33-1,.44-1.47.46-1.79.56-2.91.74-2.9s.38,1.12.16,3.07a13.88,13.88,0,0,1-.28,1.6c-.06.28-.14.58-.23.88s-.09.31-.14.46l-.08.24,0,.09a5.37,5.37,0,0,1-.23.65l-.13.26s-.08.12,0,.07l.16-.15a4.33,4.33,0,0,1,.8-.54c1-.5,2.12-.94,3.16-1.43a25.72,25.72,0,0,0,9.2-7.49C280.62,64.54,281.44,62.75,281.68,62.86Z" stroke="#000" stroke-miterlimit="10" stroke-width="0.5"/>
    </g>
    <g id="arm_left" data-name="arm left">
      <path d="M313.7,56.5a15.42,15.42,0,0,1-.08-10.17,12.46,12.46,0,0,1,4.52-6c3.07-2.07,6.46-2,11.87-1.37a168.09,168.09,0,0,1,16.73,2.71c17.56,3.73,20.71,4.52,23.09,5.13,5,1.28,9.22,2.49,12.51,3.47,2.58-.07,6.3-.2,10.77-.44,7.41-.41,14.51-.8,23.18-2,4.26-.61,10.08-1.58,17-3.21a43.94,43.94,0,0,0,4.66-4c3.53-3.53,5.1-6.28,8-10.43,3.71-5.34,5.75-8.28,8.5-10.95a35.78,35.78,0,0,1,13.22-8c.4,2.93.79,5.86,1.19,8.78a57.23,57.23,0,0,0-5.93,8c-1.88,3-2.2,4.18-4.75,8.82-2.74,5-4.11,7.45-5.9,9.66a38.52,38.52,0,0,1-9.71,8.41,54.69,54.69,0,0,1-12,5.62c-11.33,4.12-17,6.19-24.44,7.55a87.28,87.28,0,0,1-22.67,1.56,82.79,82.79,0,0,1-12.6-1.83q-4.32-.14-8.69-.32-16.11-.68-31.59-1.87l-9.07,1.88A21.46,21.46,0,0,1,313.7,56.5Z" fill="#fff"/>
      <path d="M382.3,50.26a13.78,13.78,0,0,1-3.36-.65l-9-2.19c-7.62-1.83-18.2-4.17-30-6.13-2.95-.5-5.84-.94-8.63-1.36a33.23,33.23,0,0,0-7.92-.44A10.82,10.82,0,0,0,317,42a10.7,10.7,0,0,0-3,5.15,16,16,0,0,0-.52,5.08,31.49,31.49,0,0,0,.47,3.92,17.87,17.87,0,0,1,.54,3.37,11.7,11.7,0,0,1-1.16-3.23,25.39,25.39,0,0,1-.76-4,16.41,16.41,0,0,1,.31-5.44A11.77,11.77,0,0,1,316.11,41a12.07,12.07,0,0,1,7.08-3,33.8,33.8,0,0,1,8.31.35c2.8.4,5.71.83,8.67,1.33a292.7,292.7,0,0,1,30,6.62c3.79,1.05,6.83,2,8.92,2.7A13.75,13.75,0,0,1,382.3,50.26Z" stroke="#000" stroke-miterlimit="10" stroke-width="0.5"/>
      <path d="M433.81,44.91c0,.21-3,1.08-8.09,2.07a198.05,198.05,0,0,1-19.93,2.81c-7.84.76-15,.67-20,1.27s-8,1.72-8.12,1.47,2.8-1.76,8-2.61a84.46,84.46,0,0,1,9-.93c3.38-.21,7.1-.48,11-.83,7.79-.7,14.81-1.61,19.89-2.32S433.76,44.68,433.81,44.91Z" stroke="#000" stroke-miterlimit="10" stroke-width="0.5"/>
      <path d="M455.78,25.27c.18.15-.83,1.64-2.58,3.93l-3.12,4a13.28,13.28,0,0,0-2.68,5.17,23.13,23.13,0,0,1-.9,3.17,15.38,15.38,0,0,1-5,6.66c-2.42,1.81-4.3,2.15-4.35,2s1.56-1,3.61-2.86a16.81,16.81,0,0,0,3-3.77A15.88,15.88,0,0,0,445,41a27.8,27.8,0,0,0,.82-3,11.32,11.32,0,0,1,1.27-3.17,19.54,19.54,0,0,1,1.81-2.53c1.26-1.49,2.43-2.72,3.42-3.78C454.3,26.35,455.61,25.13,455.78,25.27Z" stroke="#000" stroke-miterlimit="10" stroke-width="0.5"/>
      <path d="M452.62,24.65c.12.24-1.26,1-3.07,2.67a30.43,30.43,0,0,0-3,3.17c-1,1.29-2.1,2.75-3.23,4.32s-2.23,3.06-3.31,4.38a27.75,27.75,0,0,1-3.16,3.27c-2,1.69-3.52,2.3-3.61,2.13s1.13-1.15,2.81-3a41.47,41.47,0,0,0,2.78-3.36c1-1.33,2-2.82,3.17-4.4a54.77,54.77,0,0,1,3.41-4.34,21.13,21.13,0,0,1,3.37-3.09C451,24.88,452.56,24.48,452.62,24.65Z" stroke="#000" stroke-miterlimit="10" stroke-width="0.5"/>
      <path d="M467.62,11.21c.08.23-1.52,1-3.94,2.35-1.22.68-2.62,1.57-4.13,2.62s-3.1,2.31-4.71,3.71c-6.39,5.64-10.33,11.48-10.76,11.18-.18-.12.61-1.71,2.24-4.07a47.4,47.4,0,0,1,7.45-8.34,44.18,44.18,0,0,1,4.94-3.73,34.67,34.67,0,0,1,4.45-2.4C465.8,11.37,467.55,11,467.62,11.21Z" stroke="#000" stroke-miterlimit="10" stroke-width="0.5"/>
      <path d="M456.16,26.88c-.4-.13.64-4.14,3.52-8.28s6.25-6.54,6.51-6.2-2.45,3.17-5.17,7.13S456.6,27,456.16,26.88Z" stroke="#000" stroke-miterlimit="10" stroke-width="0.5"/>
      <path d="M458,28.48c-.4-.15,1-4.56,4.39-9.06s7.21-7.11,7.46-6.76-2.93,3.4-6.15,7.73S458.42,28.67,458,28.48Z" stroke="#000" stroke-miterlimit="10" stroke-width="0.5"/>
      <path d="M460.91,29.45c-.41-.12.61-4.19,3.71-8.25s6.72-6.15,6.94-5.79-2.76,2.93-5.64,6.78S461.35,29.62,460.91,29.45Z" stroke="#000" stroke-miterlimit="10" stroke-width="0.5"/>
      <path d="M441.1,55.48c-.11-.26,2.33-1.17,5.41-3.83a33.9,33.9,0,0,0,4.82-5.23A62.92,62.92,0,0,0,456,39c1.51-2.76,2.87-5.45,4.22-7.86a59.17,59.17,0,0,1,3.89-6.23c2.46-3.41,4.53-5.05,4.66-4.91s-1.55,2.07-3.71,5.56c-1.09,1.73-2.27,3.87-3.52,6.3S459,37,457.46,39.78a52.86,52.86,0,0,1-4.95,7.56,29.58,29.58,0,0,1-5.28,5.21C443.8,55.11,441.13,55.64,441.1,55.48Z" stroke="#000" stroke-miterlimit="10" stroke-width="0.5"/>
      <path d="M330.49,65.58c.09.44-1.87,1.21-4.37,1.73s-4.6.58-4.69.14,1.86-1.21,4.36-1.73S330.4,65.13,330.49,65.58Z" stroke="#000" stroke-miterlimit="10" stroke-width="0.5"/>
      <path d="M377.38,67.31c0,.22-2.56.51-6.72.71s-9.91.27-16.26.06-12.09-.64-16.22-1.11-6.68-.91-6.66-1.13c.05-.47,10.29.22,22.93.62S377.36,66.84,377.38,67.31Z" stroke="#000" stroke-miterlimit="10" stroke-width="0.5"/>
      <path d="M443.56,53.41a10,10,0,0,1-2.32,1.79l-1.3.87c-.49.31-1,.62-1.6,1-1.16.67-2.46,1.48-4,2.22L432,60.46c-.83.42-1.71.79-2.61,1.21-1.79.85-3.77,1.6-5.85,2.42a108.27,108.27,0,0,1-13.93,4.07,106.22,106.22,0,0,1-14.38,2c-2.23.1-4.35.23-6.34.18-1,0-1.94,0-2.86,0l-2.65-.14c-1.68-.06-3.2-.27-4.53-.41-.66-.08-1.28-.14-1.85-.22l-1.54-.27a10,10,0,0,1-2.85-.68c0-.27,4.15.28,10.82.43l2.61,0c.91,0,1.86,0,2.84-.06,2,0,4-.19,6.24-.33a122.17,122.17,0,0,0,14.15-2.07,122.88,122.88,0,0,0,13.76-3.89c2.06-.77,4-1.46,5.82-2.25.9-.39,1.79-.73,2.62-1.11l2.37-1.1C439.88,55.36,443.41,53.17,443.56,53.41Z" stroke="#000" stroke-miterlimit="10" stroke-width="0.5"/>
    </g>
  </g>
</svg>
