<svg xmlns="http://www.w3.org/2000/svg" viewBox="0 0 526.23 521.4">
  <title>Scrum meeting</title>
  <g id="Layer_Plants">
    <path d="M20.89,486.65c-2.32-2.42-4.24-4.63-5.77-6.49-3.23-3.91-4.89-6-6.51-9.13a33.76,33.76,0,0,1-2.82-8c-1.29-5.25-.63-6.89,0-7.78a5.69,5.69,0,0,1,2.38-2,14.72,14.72,0,0,1-3-5.92,15,15,0,0,1,.68-9.12,21.3,21.3,0,0,1-2.72-5.34c-.91-2.67-.78-4-1.14-9.6-.76-11.72-.84-12.65-.84-12.65-.32-4.05-.54-5.74.51-6.46,1.43-1,4.21.51,5.71,1.68,2.31,1.81,3,4,4.4,7.09,1.68,3.83.61.6,4.87,9.44,4,8.29,6.88,15.12,8.59,19.35,1.06,2.6,1.9,4.79,2.5,6.35l2.48-.34a62.74,62.74,0,0,1-2.33-6.85c-1.54-5.6-1.2-7.47-.85-8.58a9.45,9.45,0,0,1,1.75-3.17,41.73,41.73,0,0,1-2.54-10.62,41.28,41.28,0,0,1,.38-10.79c.72-5.32,1.6-6,2.14-6.17,1.78-.67,4.32,2,5.33,3.09,6.43,6.93,8.23,16.66,10.69,28.88.73,3.63,2,10.09,3.83,18.44.28-.24,2.32-1.93,3.79-1.23.91.44,1.18,1.59,1.39,2.58a50.64,50.64,0,0,1,1.16,8.42,65,65,0,0,0,.78,8.85c.43-.75,1-1.54,1.56-1.46,1.35.21,1.49,5.77,1.51,6.44a27.2,27.2,0,0,1-1.33,8.84Z" fill="#fff"/>
    <path d="M461.79,491.11a13.68,13.68,0,0,1-.58-5.34c.65-7.09,6.81-11.14,7.83-11.78a10.72,10.72,0,0,1,2.23-12.3A32.07,32.07,0,0,1,477.72,443c.47-2.94,1.2-6.86,2.32-11.42.31-1.25.63-2.49,4.09-13.51,2.3-7.34,3.52-11.06,6.77-13.34.72-.51,2.33-1.61,3.71-1.08,1.66.64,2.1,3.32,2.4,5.15a18.73,18.73,0,0,1,.13,5.11c-.62,5.8.06,4.76-.57,10.83a111.26,111.26,0,0,1-3.35,17.62,3.63,3.63,0,0,1,3,.45,3.57,3.57,0,0,1,1.47,3.39A24.05,24.05,0,0,1,503,433.94l2,1.15a56.9,56.9,0,0,1,8.5-21.25c3.57-5.69,6.12-9.74,8.58-9.32,2,.34,3,3.49,3.13,4,.69,2.29-.06,4-1.17,8.25-1,3.72.49-1-1.57,7.09-3,12-5.32,18.67-7.77,29.24-.53,2.28-.93,4.12-1.15,5.17a5.81,5.81,0,0,1,1.67,1.76,7,7,0,0,1,.72,4.54,41.76,41.76,0,0,1-2,9.28c-.51,1.54-1.26,3.67-2.3,6.18l2.22,1.37A54.57,54.57,0,0,1,504.88,502Z" fill="#fff"/>
    <path d="M8.1,453.29c0,.15-.59.22-1.23.93A5.75,5.75,0,0,0,5.73,458a15.32,15.32,0,0,0,.34,2.9c.2,1.05.45,2.17.79,3.32A37.19,37.19,0,0,0,14.12,478c1.54,1.85,3.17,3.33,4.44,4.74a13.61,13.61,0,0,1,2.57,3.71c.42,1,.47,1.6.38,1.63s-.37-.48-.94-1.32a18.71,18.71,0,0,0-2.83-3.22c-1.32-1.25-3.07-2.66-4.75-4.55a33.63,33.63,0,0,1-4.67-6.7,34,34,0,0,1-3.59-11.12A14.89,14.89,0,0,1,4.58,458a5.82,5.82,0,0,1,1.87-4.23C7.41,453,8.11,453.23,8.1,453.29Z" stroke="#000" stroke-miterlimit="10" stroke-width="0.5"/>
    <path d="M5.77,438.26c.22.11-.06,1-.26,2.53a16.78,16.78,0,0,0,.21,5.78A16.49,16.49,0,0,0,8,451.89c.81,1.27,1.45,2,1.3,2.19S8.18,453.8,7,452.6a11.22,11.22,0,0,1-1.68-2.35,13.78,13.78,0,0,1-1.23-3.33,13.37,13.37,0,0,1-.28-3.55,11,11,0,0,1,.54-2.84C4.92,439,5.59,438.17,5.77,438.26Z" stroke="#000" stroke-miterlimit="10" stroke-width="0.5"/>
    <path d="M32.2,461.72A20.07,20.07,0,0,1,30.67,458c-.9-2.44-2.18-6-3.86-10.28A301,301,0,0,0,11.74,414.8q-1.26-2.32-2.5-4.59a20.86,20.86,0,0,0-2.77-4,10.7,10.7,0,0,0-.83-.82,4.63,4.63,0,0,0-.86-.61,3.22,3.22,0,0,0-1.85-.45,1.19,1.19,0,0,0-1,.94,7.79,7.79,0,0,0-.12,2.11c.09,3.05.12,6,.23,8.68l.5,7.56c.18,2.32.29,4.42.48,6.23a32.62,32.62,0,0,0,.75,4.61c.62,2.5,1.34,3.75,1.22,3.82s-.28-.26-.63-.86a15.47,15.47,0,0,1-1.2-2.78,29.63,29.63,0,0,1-1-4.67c-.27-1.85-.47-3.94-.72-6.25s-.45-4.85-.7-7.58-.25-5.67-.38-8.75a8.64,8.64,0,0,1,.14-2.53,3,3,0,0,1,.8-1.37,2.72,2.72,0,0,1,1.49-.7c2.11-.24,3.78,1.08,4.94,2.33a23,23,0,0,1,3,4.33c.84,1.52,1.69,3,2.52,4.62a242.9,242.9,0,0,1,14.71,33.26c1.55,4.38,2.67,8,3.38,10.48A19.09,19.09,0,0,1,32.2,461.72Z" stroke="#000" stroke-miterlimit="10" stroke-width="0.5"/>
    <path d="M43.86,483.16c-.24,0,.18-2-.49-5.23a16,16,0,0,0-2.21-5.27c-.15-.23-.31-.46-.48-.68l-.25-.34a1,1,0,0,0-.12-.14,2,2,0,0,0-.2-.21l-.1-.1s-.06.08-.08.11a1.15,1.15,0,0,0-.11.29.59.59,0,0,0,0,.14v.07a1.34,1.34,0,0,0,0,.2,2.56,2.56,0,0,0,.47,1.45l-1.41.61c-.52-2.29-1.11-4.71-1.79-7.19-1-3.49-2-6.77-3-9.74-.5-1.48-1-2.88-1.49-4.19l-.71-1.89c-.23-.6-.43-1.2-.67-1.67-.47-1-1.2-1.37-1.85-1a2.16,2.16,0,0,0-1,1.69,8.86,8.86,0,0,0,0,1.47c0,.35,0,.55,0,.56s-.15-.15-.28-.49a5.16,5.16,0,0,1-.31-1.57,2.74,2.74,0,0,1,1.16-2.43,2,2,0,0,1,1.89-.21,3.18,3.18,0,0,1,1.45,1.4c.33.58.56,1.16.83,1.75l.8,1.87c.54,1.31,1.1,2.7,1.65,4.19,1.1,3,2.18,6.28,3.15,9.81.69,2.51,1.27,5,1.75,7.29l.79,3.79L39,474.35a4.11,4.11,0,0,1-.71-2.33c0-.1,0-.2,0-.3s0-.28,0-.41a5.77,5.77,0,0,1,.2-.77,4.48,4.48,0,0,1,.7-1.22l.2-.27.11-.14s.07-.14.11-.07l.49.42a3.87,3.87,0,0,1,.49.43l.47.57.44.54.26.38a9.06,9.06,0,0,1,.49.77,15.42,15.42,0,0,1,2.05,5.81C44.77,481.22,44,483.21,43.86,483.16Z" stroke="#000" stroke-miterlimit="10" stroke-width="0.5"/>
    <path d="M49.8,459.48a26,26,0,0,1-1-4.35c-.58-2.81-1.4-6.87-2.51-11.88S43.74,432.31,42,425.76c-.88-3.27-1.79-6.7-3-10.12a37.3,37.3,0,0,0-5.15-9.88l-.79-1-.84-.93c-.28-.31-.59-.59-.88-.88a5.61,5.61,0,0,0-.86-.75.9.9,0,0,0-1.3,0,4.2,4.2,0,0,0-.95,1.82A40,40,0,0,0,27.37,422a38.52,38.52,0,0,0,.91,3.91c.2.61.36,1.23.58,1.82l.32.92c.18.48.38.93.56,1.39l.06,1v.06h0l-.46-.4h0v0s0-.09,0-.1a.11.11,0,0,0,0-.1c0-.06-.12-.08-.25-.08a3.73,3.73,0,0,0-.9.18c.05.23,0,.11,0,.15h0l-.05,0-.09.07a1.28,1.28,0,0,0-.2.26,2.22,2.22,0,0,0-.22.74,17.54,17.54,0,0,0-.12,1.79,28,28,0,0,0,.1,3.35,30.5,30.5,0,0,0,1,5.3c.81,2.87,1.58,4.36,1.45,4.42s-.3-.32-.68-1a21.67,21.67,0,0,1-1.39-3.21,27.45,27.45,0,0,1-1.28-5.39,30.74,30.74,0,0,1-.23-3.46c0-.63,0-1.23.07-1.93a2.41,2.41,0,0,1,1.3-2.06.58.58,0,0,1,.32,0,.4.4,0,0,1,.18.1s.09.16.06.12l-.18-.4L28,429l-.34-.88c-.24-.6-.42-1.24-.63-1.87a39.77,39.77,0,0,1-1.79-13,39.8,39.8,0,0,1,1.44-9.67A5.64,5.64,0,0,1,28,401.08a2.56,2.56,0,0,1,1.64-.74,2.75,2.75,0,0,1,1.68.52,8,8,0,0,1,1.08.92c.31.32.64.62.94,1l.9,1,.83,1a37.87,37.87,0,0,1,5.36,10.33c1.27,3.52,2.15,7,3,10.29C45.12,432,46.41,438,47.38,443s1.62,9.16,2,12A22.57,22.57,0,0,1,49.8,459.48Z" stroke="#000" stroke-miterlimit="10" stroke-width="0.5"/>
    <path d="M57.4,484.42c-.19-.08.36-1.6.65-4.26a22.72,22.72,0,0,0,0-4.75,20.06,20.06,0,0,0-.5-2.81c-.06-.25-.12-.49-.19-.74l-.09-.26c-.06-.15-.12-.28-.18-.41s-.05,0-.08.05l-.08.14a1.78,1.78,0,0,0-.12.29l-.05.15,0,.19,0,.25a5.3,5.3,0,0,0-.07,1.05l-1.62.06-.2-3.3c-.42-6.42-1.08-12.25-1.61-16.41a4.16,4.16,0,0,0-.9-2.33,1.54,1.54,0,0,0-1.59-.42,1.35,1.35,0,0,0-.9.65c-.12.25-.12.42-.19.43s-.16-.15-.13-.52a1.6,1.6,0,0,1,1-1.15,2.38,2.38,0,0,1,1.13-.21,2.12,2.12,0,0,1,1.3.55,5,5,0,0,1,1.42,2.79A133.68,133.68,0,0,1,56.42,470l.19,3.33-1.62.06A7.53,7.53,0,0,1,55.1,472l.07-.33a2.48,2.48,0,0,1,.1-.39,6.5,6.5,0,0,1,.33-.94,7.08,7.08,0,0,1,.89-1.5l.48-.64c.16-.2.35-.49.48-.54.34.89.65,1.74.94,2.56a11.7,11.7,0,0,1,.37,1.26c.08.27.13.54.19.8a18.64,18.64,0,0,1,.39,3,19,19,0,0,1-.36,5C58.4,483.05,57.53,484.48,57.4,484.42Z" stroke="#000" stroke-miterlimit="10" stroke-width="0.5"/>
    <path d="M469,474c.11.23-.85.84-2.12,2a16.52,16.52,0,0,0-3.83,5.53,17.72,17.72,0,0,0-1.05,3.56,17.38,17.38,0,0,0-.25,3c0,1.75.25,2.86,0,2.94s-.83-.94-1.16-2.83a12.6,12.6,0,0,1-.09-3.36,15.14,15.14,0,0,1,1-4,14.93,14.93,0,0,1,2.14-3.52,12.08,12.08,0,0,1,2.47-2.27C467.78,474.06,469,473.81,469,474Z" stroke="#000" stroke-miterlimit="10" stroke-width="0.5"/>
    <path d="M491.63,447.26a34.05,34.05,0,0,1,1.13-4.65,122.47,122.47,0,0,0,2.54-12.71,106.72,106.72,0,0,0,1-19.15c-.09-1.8,0-3.69-.76-5.16a2.29,2.29,0,0,0-1.59-1.36,2.62,2.62,0,0,0-2.09.65,8.25,8.25,0,0,0-1.78,2,27.33,27.33,0,0,0-1.39,2.6c-.89,1.82-1.75,3.68-2.56,5.6a102.87,102.87,0,0,0-6.55,22.5,29.45,29.45,0,0,1-1.12,5.33,30.62,30.62,0,0,1-2.72,4.35,22.89,22.89,0,0,0-3.14,8.12,28.68,28.68,0,0,0-.38,3.84,9.94,9.94,0,0,1-.29,1.88,5.5,5.5,0,0,1-.77,1.66c-.64,1-1.34,1.68-1.78,2.45a8.49,8.49,0,0,0-.91,2.27,9.16,9.16,0,0,0-.16,3.41,6,6,0,0,1,.18,1.22s-.27-.35-.5-1.15a8.26,8.26,0,0,1-.14-3.61,8.56,8.56,0,0,1,.86-2.52c.45-.88,1.15-1.68,1.68-2.55,1.19-1.67.56-4.29,1.08-7.09a23.46,23.46,0,0,1,3.12-8.64,31.49,31.49,0,0,0,2.53-4.16,29.12,29.12,0,0,0,1-5.06,99.48,99.48,0,0,1,6.53-22.88c.82-1.95,1.7-3.85,2.61-5.69a13.94,13.94,0,0,1,3.65-5.19,4.18,4.18,0,0,1,3.39-.92A3.86,3.86,0,0,1,497,404.9c.93,2,.77,4,.87,5.81a100.18,100.18,0,0,1-1.4,19.37,93.39,93.39,0,0,1-3.07,12.71A23.31,23.31,0,0,1,491.63,447.26Z" stroke="#000" stroke-miterlimit="10" stroke-width="0.5"/>
    <path d="M491,482.62c.06,0,.13.12.31.33a1.83,1.83,0,0,0,.93.57l-.36.14a43,43,0,0,0,2.94-8,33.39,33.39,0,0,0,1-6.11c.09-2.15-.15-4.58-1.55-6.31l-.18-.21a1.65,1.65,0,0,0-.25-.27l-.4-.38-.19-.18a.07.07,0,0,1,0-.11l0-.11c.18-.53.36-1.05.53-1.57.26-.76.49-1.51.71-2.25.44-1.48.83-2.91,1.16-4.29a68.86,68.86,0,0,0,1.41-7.37,4.76,4.76,0,0,0-.36-2.57,2.74,2.74,0,0,0-1.42-1.24c-1-.39-1.64.1-1.7,0s.06-.21.36-.4a2.17,2.17,0,0,1,1.52-.19,3.26,3.26,0,0,1,2,1.38,5.48,5.48,0,0,1,.74,3.09,53.48,53.48,0,0,1-1.1,7.65c-.3,1.42-.66,2.89-1.09,4.41-.22.76-.45,1.53-.7,2.3l-.25.74c0,.09.05.08.07.13l.39.44a8.42,8.42,0,0,1,1.63,3.71,14.66,14.66,0,0,1,.19,3.71,31.16,31.16,0,0,1-1.22,6.38,29.18,29.18,0,0,1-3.71,7.95l-.16.22-.2-.08a1.88,1.88,0,0,1-1-1C491,482.8,491,482.63,491,482.62Z" stroke="#000" stroke-miterlimit="10" stroke-width="0.5"/>
    <path d="M512.58,460.73a22.44,22.44,0,0,1,.83-4.3c.63-2.74,1.61-6.69,2.84-11.57l4.4-17.11c.82-3.22,1.64-6.6,2.35-10.13.35-1.77.68-3.57,1-5.4.14-.9.29-1.88.37-2.73a7.75,7.75,0,0,0-.2-2.56,2.09,2.09,0,0,0-1.2-1.57,2,2,0,0,0-1.9.51,14.68,14.68,0,0,0-1.85,1.85c-.62.67-1.18,1.37-1.76,2a57.15,57.15,0,0,0-9.59,17q-.39,1-.69,2c-.23.67-.42,1.33-.6,2s-.35,1.29-.5,1.93c-.07.32-.15.63-.22.94s-.19.92-.28,1.38l-.26,1.34,0,.16v.08s0,.06,0,0l-.26-.24-.52-.46-1.1-1-.16-.15h0l.08.06h0l-.16-.16c-.11,0-.19.18-.29.27l-.4.49c-.31.41-.6.83-.86,1.24a19.46,19.46,0,0,0-2.14,4.53c-.85,2.64-.89,4.22-1,4.21a2.77,2.77,0,0,1-.07-1.15,15.34,15.34,0,0,1,.5-3.24,18.75,18.75,0,0,1,2-4.83c.26-.44.55-.89.86-1.34l.24-.33c.1-.13.23-.31.36-.46l.38-.48.2-.24c.07-.06.13-.25.21-.11l1,.89.14.12h0l.08.06.16.14.08.06s0-.07,0-.1l.08-.5c0-.16.06-.33.08-.49l.21-1c.13-.65.28-1.31.46-2s.34-1.36.56-2.05.41-1.4.66-2.11a56.28,56.28,0,0,1,3.79-8.77,57.57,57.57,0,0,1,5.84-8.8c.59-.7,1.16-1.43,1.8-2.11a14.59,14.59,0,0,1,2.08-2.08,4.54,4.54,0,0,1,1.5-.78,3.22,3.22,0,0,1,1.87,0,3.1,3.1,0,0,1,1.53,1.12,5.06,5.06,0,0,1,.74,1.56,9.25,9.25,0,0,1,.25,3.12c-.1,1-.24,1.91-.39,2.86-.29,1.86-.63,3.68-1,5.47-.74,3.56-1.6,7-2.45,10.18-1.74,6.44-3.37,12.19-4.74,17s-2.52,8.75-3.35,11.44A21.86,21.86,0,0,1,512.58,460.73Z" stroke="#000" stroke-miterlimit="10" stroke-width="0.5"/>
    <path d="M504.9,502c-.2-.14,1.19-2.24,3-5.93a59.94,59.94,0,0,0,5.18-15.31l.66.95a2.56,2.56,0,0,0-.62,0,3.93,3.93,0,0,0-.6.13l-.41.2s-.17.15-.26.23l-.29.29a2.15,2.15,0,0,0-1-.27.23.23,0,0,0-.13.06.15.15,0,0,0-.05.13l-.11-.21a1.17,1.17,0,0,0-.13-.24l-.29-.31c.35-.7.64-1.38,1-2.06l.34-.8.24-.56c.31-.76.6-1.5.87-2.23.54-1.47,1-2.9,1.41-4.28s.73-2.69,1-3.93a26.74,26.74,0,0,0,.61-3.42,8,8,0,0,0-.7-4.73c-.56-1-1.2-1.31-1.12-1.43s.79.06,1.61,1.08a7.87,7.87,0,0,1,1.32,5.15,24.36,24.36,0,0,1-.45,3.61c-.23,1.28-.52,2.64-.89,4.06s-.81,2.9-1.34,4.42c-.26.76-.55,1.52-.85,2.3-.17.39-.33.79-.5,1.2l-.11.24,0,.12a.76.76,0,0,1,.08-.11l.09-.08a.8.8,0,0,1,.24-.13l.1,0a.85.85,0,0,1,.22,0,4.45,4.45,0,0,1,1,0l.82.14-.16.81a51,51,0,0,1-5.81,15.52C506.75,500.18,505,502.08,504.9,502Z" stroke="#000" stroke-miterlimit="10" stroke-width="0.5"/>
  </g>
  <g id="Layer_Papers">
    <g id="Paper4">
      <path d="M255.36,248.41c.37,3,.87,7.55,1.2,13a208.69,208.69,0,0,1-.5,31.41c-2,22.74-6,48.37-9.38,70.76-5.49,36.79-6.28,45.47-6.76,53.89a367.35,367.35,0,0,0,0,42.07c3.95,1.34,9.41,3.12,16,5a341.35,341.35,0,0,0,70.3,12.25,343.84,343.84,0,0,0,76.73-3.3,341.11,341.11,0,0,0,57.82-14.34c.21-7.7.25-18.23-.5-30.7a384.09,384.09,0,0,0-6.64-50.66,387.57,387.57,0,0,0-9-39.27c-3.46-12-6.19-19-11.06-37.2-3.52-13.15-4.43-18.18-5-22.88a119.27,119.27,0,0,1-.05-28.46Z" fill="#fff"/>
      <path d="M428.42,250c0,.45-38.73.46-86.49,0s-86.48-1.17-86.48-1.62,38.73-.45,86.49,0S428.43,249.57,428.42,250Z" stroke="#000" stroke-miterlimit="10" stroke-width="0.5"/>
      <path d="M461.6,456.59a11.11,11.11,0,0,1-.22-2.11c-.09-1.39-.19-3.43-.31-6.07-.33-5.26-.71-12.87-1.59-22.25a505,505,0,0,0-11.84-72.53c-3.28-14-7.24-27.08-10.92-39s-6.64-22.81-8.1-32.17a96,96,0,0,1-1.3-22.34c.11-1.32.2-2.49.29-3.5s.28-1.86.39-2.55a10.74,10.74,0,0,1,.42-2.08,10.29,10.29,0,0,1-.09,2.12c-.07.69-.15,1.55-.24,2.55s-.09,2.18-.14,3.49a104.82,104.82,0,0,0,1.8,22.12c1.6,9.26,4.69,20,8.41,31.92s7.77,25,11.06,39.06a459.27,459.27,0,0,1,11.41,72.82c.73,9.41.94,17.05,1.07,22.32,0,2.64,0,4.69,0,6.08A9.4,9.4,0,0,1,461.6,456.59Z" stroke="#000" stroke-miterlimit="10" stroke-width="0.5"/>
      <path d="M239.83,457.35a11.36,11.36,0,0,1-.27-2.09c-.12-1.38-.27-3.42-.45-6-.09-1.32-.19-2.78-.29-4.37s0-3.34-.07-5.21c0-3.74-.16-8,.12-12.7.09-2.35.19-4.82.3-7.38s.39-5.23.59-8c.37-5.52,1.09-11.39,1.77-17.57,1.53-12.35,3.59-25.86,5.86-40s4.32-27.64,5.87-40c.68-6.17,1.42-12,1.8-17.52.21-2.75.48-5.4.62-7.95s.23-5,.33-7.35c.31-4.69.2-8.93.23-12.66,0-1.86,0-3.59,0-5.19s-.14-3.05-.2-4.36c-.12-2.62-.2-4.66-.23-6a9.65,9.65,0,0,1,0-2.12,11,11,0,0,1,.29,2.09c.14,1.38.32,3.41.54,6,.1,1.31.22,2.77.35,4.36s.08,3.34.13,5.21c.05,3.74.25,8,0,12.7-.08,2.35-.15,4.82-.23,7.39s-.35,5.22-.53,8c-.32,5.52-1,11.4-1.66,17.58-1.47,12.36-3.48,25.88-5.75,40s-4.37,27.64-6,39.94c-.72,6.16-1.49,12-1.91,17.51-.23,2.74-.52,5.39-.69,7.95s-.27,5-.4,7.34c-.35,4.69-.29,8.93-.36,12.65,0,1.87-.07,3.6-.07,5.2s.11,3.05.15,4.36c.08,2.62.14,4.66.15,6A9.58,9.58,0,0,1,239.83,457.35Z" stroke="#000" stroke-miterlimit="10" stroke-width="0.5"/>
      <path d="M460.65,459.23a12.46,12.46,0,0,1-2.12.85c-1.41.51-3.5,1.24-6.19,2.15l-4.48,1.52c-1.66.51-3.47,1-5.41,1.58-3.89,1.09-8.29,2.46-13.26,3.56l-7.77,1.85c-2.71.62-5.56,1.1-8.5,1.69s-6,1.23-9.13,1.64l-9.72,1.45a364.48,364.48,0,0,1-43.69,2.93,365.93,365.93,0,0,1-43.69-2.78L297,474.26c-3.17-.4-6.19-1.09-9.14-1.61s-5.79-1-8.49-1.66l-7.78-1.82c-5-1.08-9.38-2.45-13.28-3.52-1.94-.56-3.75-1-5.41-1.56l-4.49-1.5c-2.69-.91-4.78-1.62-6.19-2.13a12.16,12.16,0,0,1-2.12-.84,11.44,11.44,0,0,1,2.22.53c1.44.4,3.56,1,6.28,1.83l4.52,1.37c1.67.46,3.49.91,5.44,1.42,3.91,1,8.31,2.27,13.29,3.27l7.77,1.72c2.71.58,5.56,1,8.49,1.56s5.95,1.15,9.11,1.52l9.7,1.34a384,384,0,0,0,43.5,2.64A382.15,382.15,0,0,0,393.87,474l9.7-1.37c3.16-.39,6.17-1.06,9.11-1.56s5.77-1,8.48-1.59l7.76-1.74c5-1,9.38-2.32,13.28-3.32,1.95-.52,3.77-1,5.43-1.44l4.52-1.38c2.72-.82,4.83-1.45,6.27-1.86A13,13,0,0,1,460.65,459.23Z" stroke="#000" stroke-miterlimit="10" stroke-width="0.5"/>
      <path d="M278.81,290c.23,0,.43.93,1.61,1.47a2.39,2.39,0,0,0,2,.08,1.92,1.92,0,0,0,.95-1.92,1.88,1.88,0,0,0-1.21-1.75,2.44,2.44,0,0,0-1.94.35c-1.09.71-1.14,1.69-1.38,1.69s-.26-.23-.25-.72a2.83,2.83,0,0,1,.9-1.85,3.37,3.37,0,0,1,3-.93,2.94,2.94,0,0,1,1.73,1.11,3.8,3.8,0,0,1,.3,4.06,3,3,0,0,1-1.55,1.34,3.41,3.41,0,0,1-3.14-.47,2.83,2.83,0,0,1-1.16-1.71C278.58,290.24,278.71,290,278.81,290Z" stroke="#000" stroke-miterlimit="10" stroke-width="0.5"/>
      <path d="M327.07,285.88c0,.45-7.45.81-16.64.81s-16.65-.36-16.65-.81,7.45-.82,16.65-.82S327.07,285.43,327.07,285.88Z" stroke="#000" stroke-miterlimit="10" stroke-width="0.5"/>
      <path d="M375.81,293.19c0,.45-17.08.82-38.16.82s-38.16-.37-38.16-.82,17.09-.81,38.16-.81S375.81,292.74,375.81,293.19Z" stroke="#000" stroke-miterlimit="10" stroke-width="0.5"/>
      <path d="M394.52,285.88c0,.45-10.54.81-23.54.81s-23.55-.36-23.55-.81,10.54-.82,23.55-.82S394.52,285.43,394.52,285.88Z" stroke="#000" stroke-miterlimit="10" stroke-width="0.5"/>
      <path d="M279.69,333.15c.12-.06.31.19.7.51a3.93,3.93,0,0,0,1.87.77,3.26,3.26,0,0,0,2.62-.75,2.92,2.92,0,0,0-2.1-4.75,3.22,3.22,0,0,0-2.32,1.43,3.88,3.88,0,0,0-.69,1.9c0,.51,0,.81-.09.87s-.36-.19-.54-.79a3.66,3.66,0,0,1,.32-2.56,4.27,4.27,0,0,1,3.17-2.35,3.62,3.62,0,0,1,2.45.57,4.7,4.7,0,0,1,1.69,2,4.75,4.75,0,0,1,.35,2.6,3.62,3.62,0,0,1-1.23,2.19,4.24,4.24,0,0,1-3.87.77,3.65,3.65,0,0,1-2.11-1.49C279.59,333.54,279.6,333.18,279.69,333.15Z" stroke="#000" stroke-miterlimit="10" stroke-width="0.5"/>
      <path d="M338.45,326.52c0,.45-8.91.81-19.9.81s-19.89-.36-19.89-.81,8.91-.82,19.89-.82S338.45,326.07,338.45,326.52Z" stroke="#000" stroke-miterlimit="10" stroke-width="0.5"/>
      <ellipse cx="343.75" cy="335.46" rx="45.06" ry="0.82" stroke="#000" stroke-miterlimit="10" stroke-width="0.5"/>
      <path d="M400.22,327.33c0,.45-9.64.82-21.52.82s-21.52-.37-21.52-.82,9.64-.81,21.52-.81S400.22,326.88,400.22,327.33Z" stroke="#000" stroke-miterlimit="10" stroke-width="0.5"/>
      <path d="M270,382c.13,0,.12.36.22.87a4.21,4.21,0,0,0,1,1.89,3.55,3.55,0,0,0,2.59,1.24,2.9,2.9,0,0,0,2.56-2,2.94,2.94,0,0,0-.47-3.2,3.54,3.54,0,0,0-2.73-.89,4,4,0,0,0-2,.69c-.43.3-.65.54-.76.48s-.06-.41.31-.93a3.87,3.87,0,0,1,2.27-1.38,4.49,4.49,0,0,1,3.93.94,3.78,3.78,0,0,1,1.25,2.24,4.86,4.86,0,0,1-.29,2.66,4.91,4.91,0,0,1-1.63,2.12,3.94,3.94,0,0,1-2.46.76,4.54,4.54,0,0,1-3.49-2.06,3.82,3.82,0,0,1-.67-2.56C269.68,382.22,269.92,381.93,270,382Z" stroke="#000" stroke-miterlimit="10" stroke-width="0.5"/>
      <ellipse cx="320.99" cy="377.72" rx="32.88" ry="0.82" stroke="#000" stroke-miterlimit="10" stroke-width="0.5"/>
      <path d="M365.29,370.41" fill="none" stroke="#000" stroke-miterlimit="10" stroke-width="0.5"/>
      <ellipse cx="373.01" cy="372.03" rx="30.45" ry="0.82" stroke="#000" stroke-miterlimit="10" stroke-width="0.5"/>
      <path d="M394.49,389.91c0,.45-23.26.82-52,.82s-52-.37-52-.82,23.26-.81,52-.81S394.49,389.46,394.49,389.91Z" stroke="#000" stroke-miterlimit="10" stroke-width="0.5"/>
      <ellipse cx="380.33" cy="382.6" rx="18.27" ry="0.82" stroke="#000" stroke-miterlimit="10" stroke-width="0.5"/>
      <path d="M405.91,398c0,.45-9.27.82-20.71.82s-20.7-.37-20.7-.82,9.27-.81,20.7-.81S405.91,397.59,405.91,398Z" stroke="#000" stroke-miterlimit="10" stroke-width="0.5"/>
      <path d="M272.21,440.85c.13,0,.26.23.58.56a2.93,2.93,0,0,0,1.63.79,2.67,2.67,0,0,0,2.33-.65,2.3,2.3,0,0,0,.07-2.71,3.05,3.05,0,0,0-1.1-1.1,2.1,2.1,0,0,0-1.34-.22A3.21,3.21,0,0,0,272.3,439c-.9,1.37-.55,2.53-.8,2.59-.09,0-.33-.19-.48-.75a3.65,3.65,0,0,1,.26-2.39,4.22,4.22,0,0,1,2.81-2.38,3.62,3.62,0,0,1,2.36.28,4.48,4.48,0,0,1,1.78,1.7,4.26,4.26,0,0,1,.59,2.41,3.24,3.24,0,0,1-1,2.18,3.39,3.39,0,0,1-1.93.88,3.92,3.92,0,0,1-1.74-.17,3,3,0,0,1-1.88-1.57C272,441.2,272.12,440.87,272.21,440.85Z" stroke="#000" stroke-miterlimit="10" stroke-width="0.5"/>
      <ellipse cx="347.41" cy="437.87" rx="61.71" ry="0.82" stroke="#000" stroke-miterlimit="10" stroke-width="0.5"/>
      <ellipse cx="314.49" cy="446" rx="18.27" ry="0.82" stroke="#000" stroke-miterlimit="10" stroke-width="0.5"/>
      <path d="M394.51,452.5c0,.45-15.81.81-35.32.81s-35.31-.36-35.31-.81,15.81-.82,35.31-.82S394.51,452.05,394.51,452.5Z" stroke="#000" stroke-miterlimit="10" stroke-width="0.5"/>
    </g>
    <g id="Paper3">
      <path d="M119.59,311.55a139.57,139.57,0,0,1-1.71,22,142.14,142.14,0,0,1-4.59,19.68c-4.23,13.83-9.16,23-12.17,29.18-5.53,11.3-9,22.92-16,46.18a570,570,0,0,0-14.58,60.71,107.78,107.78,0,0,0,14.9,10.16c15.1,8.51,28.84,11.34,45.43,13.92,21.33,3.32,35.76,5.57,58.65,6.37a455.36,455.36,0,0,0,112.08-10c10.79-2.33,19.71-4.67,26-6.42.16-16.36-.57-30.13-1.39-40.4-.57-7.2-3.36-40.07-14.3-83.59-2.46-9.78-4.77-17.85-6.45-23.49q-1.4-24.54-2.81-49.07a736.52,736.52,0,0,0-183.06,4.74Z" fill="#fff"/>
      <path d="M113,353.78c-.46-.1,1.41-9.48,3.21-21.11s2.9-21.13,3.37-21.1.08,9.64-1.76,21.35S113.43,353.89,113,353.78Z" stroke="#000" stroke-miterlimit="10" stroke-width="0.5"/>
      <path d="M70.24,487.64a36.17,36.17,0,0,1,.83-5.5c.32-1.76.73-3.91,1.25-6.4s1.09-5.32,1.81-8.44c1.39-6.25,3.2-13.65,5.38-21.83s4.8-17.11,7.77-26.41,6.08-18.08,9-26,5.8-15,8.3-20.89c1.22-3,2.41-5.6,3.43-7.93s1.93-4.32,2.7-5.93a37.66,37.66,0,0,1,2.52-5,34.41,34.41,0,0,1-1.94,5.21c-.67,1.66-1.5,3.68-2.44,6s-2,5-3.2,8c-2.37,5.94-5.07,13-8,21s-5.89,16.71-8.88,26S83.25,437.74,81,445.87s-4.18,15.49-5.71,21.7c-.79,3.09-1.44,5.9-2,8.37s-1.11,4.59-1.52,6.33A36.55,36.55,0,0,1,70.24,487.64Z" stroke="#000" stroke-miterlimit="10" stroke-width="0.5"/>
      <path d="M318.83,506.05a15.21,15.21,0,0,1-2.49.72l-7.23,1.76c-6.29,1.46-15.44,3.36-26.82,5.38s-25,3.85-40.24,5.18a434.16,434.16,0,0,1-49.67,1.57,386.67,386.67,0,0,1-49.51-4.45c-3.76-.65-7.45-1.2-11-1.89l-10.32-2.11c-6.64-1.46-12.78-3.06-18.29-4.85a116.13,116.13,0,0,1-14.53-5.75,83.88,83.88,0,0,1-10.25-5.85,64.17,64.17,0,0,1-5.92-4.54,15.21,15.21,0,0,1-1.87-1.79A15.34,15.34,0,0,1,72.76,491c1.34,1,3.36,2.51,6.06,4.26a90,90,0,0,0,10.29,5.55,120.09,120.09,0,0,0,14.49,5.48c5.49,1.71,11.61,3.23,18.23,4.63l10.3,2c3.54.67,7.22,1.19,11,1.82a401.93,401.93,0,0,0,49.32,4.3,451.71,451.71,0,0,0,49.5-1.44c15.19-1.24,28.79-3.08,40.19-4.82s20.54-3.59,26.87-4.86l7.28-1.46A17.12,17.12,0,0,1,318.83,506.05Z" stroke="#000" stroke-miterlimit="10" stroke-width="0.5"/>
      <path d="M302.55,306.8a7.73,7.73,0,0,1-1.89-.08c-1.23-.11-3-.3-5.38-.55l-3.87-.44-4.63-.4c-3.32-.27-7.09-.67-11.28-.87l-6.57-.41c-2.28-.12-4.66-.17-7.12-.27-4.92-.24-10.19-.24-15.73-.32-11.09,0-23.27.29-36.05,1-25.55,1.46-48.61,3.95-65.29,5.74L125,312.3c-2.34.23-4.16.41-5.39.5a8,8,0,0,1-1.89.07,7.8,7.8,0,0,1,1.85-.39c1.22-.21,3-.48,5.35-.81,4.65-.67,11.38-1.58,19.71-2.63,16.66-2.08,39.73-4.76,65.34-6.22,12.81-.7,25-.95,36.15-.86,5.56.12,10.84.17,15.77.47,2.47.13,4.86.21,7.15.37l6.58.51c4.19.27,8,.76,11.28,1.12l4.63.53,3.86.58c2.33.35,4.13.64,5.35.85A8.87,8.87,0,0,1,302.55,306.8Z" stroke="#000" stroke-miterlimit="10" stroke-width="0.5"/>
      <path d="M305.74,356.42c-.22,0-.68-2.61-1.15-6.89s-.94-10.22-1.18-16.79-.19-12.53,0-16.84.44-7,.66-7,.36,2.67.49,7,.3,10.22.49,16.77.52,12.47.69,16.76S306,356.4,305.74,356.42Z" stroke="#000" stroke-miterlimit="10" stroke-width="0.5"/>
      <path d="M328.39,499a5,5,0,0,1-.22-1.47c-.09-1-.19-2.38-.31-4.22s-.24-4.07-.43-6.68-.35-5.56-.63-8.83-.54-6.86-.92-10.7-.8-7.94-1.25-12.26c-1-8.62-2.24-18.07-3.81-28s-3.37-19.26-5.12-27.76c-.91-4.24-1.74-8.28-2.63-12s-1.69-7.25-2.47-10.44-1.52-6.07-2.16-8.6-1.2-4.7-1.67-6.48-.82-3.16-1-4.1a5.51,5.51,0,0,1-.26-1.47,5,5,0,0,1,.57,1.37c.32.92.77,2.28,1.33,4s1.23,3.9,1.94,6.41,1.57,5.37,2.39,8.55,1.78,6.66,2.67,10.42,1.84,7.79,2.79,12c1.83,8.5,3.65,17.9,5.26,27.81s2.77,19.41,3.69,28.06c.42,4.33.84,8.44,1.11,12.3s.54,7.46.72,10.74.29,6.26.39,8.87.15,4.86.16,6.7,0,3.27,0,4.23A5.53,5.53,0,0,1,328.39,499Z" stroke="#000" stroke-miterlimit="10" stroke-width="0.5"/>
      <ellipse cx="155.14" cy="371.51" rx="0.82" ry="27.78" transform="translate(-218.61 521.15) rotate(-89.16)" stroke="#000" stroke-miterlimit="10" stroke-width="0.5"/>
      <path d="M160.32,381.18c0,.44-7.83.21-17.41-.53s-17.32-1.71-17.29-2.16,7.83-.21,17.41.53S160.35,380.73,160.32,381.18Z" stroke="#000" stroke-miterlimit="10" stroke-width="0.5"/>
      <path d="M217.06,395.85a15.34,15.34,0,0,1-3.55,0c-2.27-.07-5.56-.22-9.62-.45-8.13-.45-19.35-1.19-31.74-2.11s-23.59-1.84-31.7-2.59c-4-.37-7.32-.7-9.59-1a13.8,13.8,0,0,1-3.49-.58,15.34,15.34,0,0,1,3.55-.05c2.28.07,5.57.23,9.63.45,8.13.46,19.34,1.2,31.72,2.11s23.59,1.84,31.69,2.59c4,.37,7.33.7,9.59,1A14,14,0,0,1,217.06,395.85Z" stroke="#000" stroke-miterlimit="10" stroke-width="0.5"/>
      <path d="M238,385.25c0,.22-3.52.36-9.2.29s-13.51-.35-22.15-1-16.44-1.44-22.07-2.18-9.09-1.37-9.06-1.59,3.53,0,9.18.44,13.45,1.09,22.06,1.7,16.43,1.08,22.09,1.44S238,385,238,385.25Z" stroke="#000" stroke-miterlimit="10" stroke-width="0.5"/>
      <path d="M261.14,376.24c0,.22-2.62.27-6.84.13s-10-.51-16.43-1.1-12.19-1.31-16.36-1.94-6.73-1.16-6.7-1.38,2.63-.1,6.83.24,10,.86,16.38,1.46,12.18,1.13,16.36,1.57S261.16,376,261.14,376.24Z" stroke="#000" stroke-miterlimit="10" stroke-width="0.5"/>
      <path d="M178.86,412.34c0,.22-3.27.34-8.53.25s-12.53-.39-20.54-1-15.23-1.43-20.45-2.15-8.41-1.33-8.39-1.55,3.28,0,8.52.41L149.92,410l20.46,1.48C175.62,411.82,178.87,412.11,178.86,412.34Z" stroke="#000" stroke-miterlimit="10" stroke-width="0.5"/>
      <path d="M144.7,422.62c0,.44-5.26.64-11.69,0s-11.54-1.81-11.46-2.24,5.25,0,11.62.61S144.72,422.16,144.7,422.62Z" stroke="#000" stroke-miterlimit="10" stroke-width="0.5"/>
      <path d="M208.39,442.94a18.49,18.49,0,0,1-3.93.37c-2.53.14-6.19.25-10.72.29-9.06.09-21.58-.16-35.38-1.15s-26.22-2.51-35.17-3.9c-4.48-.68-8.09-1.31-10.58-1.8a19,19,0,0,1-3.83-.93,18.28,18.28,0,0,1,3.93.3l10.63,1.29c9,1.09,21.39,2.43,35.14,3.42s26.23,1.42,35.27,1.62l10.7.23A18.67,18.67,0,0,1,208.39,442.94Z" stroke="#000" stroke-miterlimit="10" stroke-width="0.5"/>
      <path d="M168.47,454.88c0,.23-3.35-.05-8.7-.61L138.89,452,118,449.64c-5.34-.62-8.64-1.08-8.62-1.31s3.35-.16,8.72.16,12.79.95,21,1.85,15.53,1.93,20.85,2.79S168.5,454.66,168.47,454.88Z" stroke="#000" stroke-miterlimit="10" stroke-width="0.5"/>
      <path d="M226.93,478.18a23.78,23.78,0,0,1-4.6,0c-3-.09-7.23-.28-12.51-.57-10.55-.56-25.11-1.52-41.19-2.81s-30.6-2.67-41.11-3.8c-5.25-.56-9.5-1-12.43-1.43a26,26,0,0,1-4.54-.76,25.53,25.53,0,0,1,4.6.12c2.95.19,7.21.51,12.48.93l41.13,3.32,41.14,3.28c5.27.43,9.53.8,12.47,1.09A25.34,25.34,0,0,1,226.93,478.18Z" stroke="#000" stroke-miterlimit="10" stroke-width="0.5"/>
    </g>
    <g id="Paper2">
      <path d="M36.6,151.69l2.19,32.61c-3.71,19.39-8.33,43.94-13.51,72.59-4.77,26.39-7.39,41.73-8.47,62.85-.72,14.22-.49,26.07-.14,34.26,7.83,1.22,18.91,2.74,32.23,3.87,47.28,4,83.65-.23,114.46-4,34.15-4.17,66.16-10.54,94.55-16.19,5.35-1.06,9.77-2,12.79-2.59q-3.31-21.33-7.57-43.51c-8-41.67-17.78-80.62-28.46-116.71a246.59,246.59,0,0,0-.06-25c-.47-8.84-1.39-17-2.52-24.35-27.55,1-57.29,3.22-88.85,7.15A1022.89,1022.89,0,0,0,36.6,151.69Z" fill="#fff"/>
      <path d="M38.61,188.14c-.24,0-.23-2.06-.38-5.34s-.51-7.8-.94-12.82c-.83-10-1.14-18.23-.69-18.27s1.49,8.08,2.31,18.13a103.48,103.48,0,0,1,.48,13C39.24,186.13,38.82,188.16,38.61,188.14Z" stroke="#000" stroke-miterlimit="10" stroke-width="0.5"/>
      <path d="M14.91,350.45a6.25,6.25,0,0,1-.09-1.7c0-1.1,0-2.74,0-4.84s.1-4.68.27-7.66.28-6.39.58-10.14l.42-5.89c.16-2.05.37-4.17.57-6.38.37-4.4.92-9.1,1.46-14,1.17-9.88,2.66-20.71,4.48-32.05,3.67-22.67,7.79-43,10.89-57.75,1.55-7.36,2.85-13.3,3.79-17.4.47-2.05.85-3.64,1.12-4.71a6.26,6.26,0,0,1,.5-1.62,7.13,7.13,0,0,1-.18,1.69c-.17,1.09-.45,2.7-.82,4.77-.77,4.13-1.9,10.11-3.28,17.5C31.86,225,27.92,245.37,24.26,268c-1.82,11.32-3.35,22.12-4.6,32-.58,4.93-1.17,9.61-1.6,14l-.66,6.35-.53,5.87c-.37,3.74-.59,7.13-.82,10.1s-.42,5.54-.55,7.64-.26,3.72-.36,4.83A7.38,7.38,0,0,1,14.91,350.45Z" stroke="#000" stroke-miterlimit="10" stroke-width="0.5"/>
      <path d="M232,125.49a9,9,0,0,1-2,.25c-1.3.1-3.22.23-5.69.38s-5.5.31-9,.55-7.5.46-11.91.81-9.25.67-14.44,1.13-10.72,1-16.54,1.52c-11.64,1.19-24.42,2.66-37.8,4.48s-26.08,3.88-37.62,5.87c-5.75,1-11.23,2-16.34,3s-9.86,1.92-14.2,2.8-8.25,1.72-11.7,2.44-6.4,1.36-8.82,1.89-4.3.92-5.58,1.16a8.73,8.73,0,0,1-2,.3,9.88,9.88,0,0,1,1.9-.61c1.26-.36,3.12-.85,5.52-1.47s5.33-1.37,8.76-2.16,7.33-1.75,11.66-2.68,9.07-2,14.18-3S91,140.08,96.73,139c11.54-2.08,24.26-4.15,37.65-6s26.22-3.25,37.88-4.36c5.84-.51,11.39-1,16.59-1.37s10-.69,14.46-.93,8.43-.42,11.95-.57,6.55-.24,9-.28,4.4-.07,5.71-.07A9.88,9.88,0,0,1,232,125.49Z" stroke="#000" stroke-miterlimit="10" stroke-width="0.5"/>
      <path d="M235.81,173.94c-.23,0-.46-2.65-.76-6.94s-.69-10.21-1.22-16.74-1.12-12.44-1.53-16.72-.62-6.94-.39-7,.83,2.57,1.53,6.83,1.47,10.16,2,16.72.75,12.52.75,16.84S236,173.94,235.81,173.94Z" stroke="#000" stroke-miterlimit="10" stroke-width="0.5"/>
      <path d="M270.6,334.87a6.34,6.34,0,0,1-.42-1.62c-.23-1.07-.53-2.66-.9-4.7-.74-4.08-1.82-10-3.15-17.28-2.68-14.59-6.6-34.7-11.55-56.79s-10-41.93-13.83-56.27c-1.92-7.16-3.47-13-4.55-17-.53-2-.94-3.56-1.19-4.63a5.94,5.94,0,0,1-.31-1.64,6.39,6.39,0,0,1,.62,1.55c.36,1,.86,2.57,1.49,4.54,1.27,4,3,9.71,5.05,16.85,4.1,14.27,9.34,34.11,14.31,56.22s8.7,42.29,11.1,56.94c1.2,7.32,2.09,13.26,2.64,17.38.27,2.06.47,3.66.59,4.75A6.21,6.21,0,0,1,270.6,334.87Z" stroke="#000" stroke-miterlimit="10" stroke-width="0.5"/>
      <path d="M270.57,335.12a14.54,14.54,0,0,1-2.51.68l-7.28,1.63c-3.16.69-7,1.52-11.55,2.45s-9.63,2-15.32,3.09S222,345.3,215.3,346.5s-13.87,2.45-21.43,3.72c-15.12,2.43-31.8,4.83-49.4,6.65s-34.44,2.72-49.77,3c-7.66,0-15,.14-21.76-.17-3.41-.13-6.7-.17-9.86-.35L54,358.76c-5.79-.31-11-1-15.57-1.47-2.29-.26-4.42-.47-6.38-.72l-5.33-.83-7.36-1.19a14.51,14.51,0,0,1-2.55-.53,15.74,15.74,0,0,1,2.6.2l7.4.89,5.34.69c2,.2,4.09.37,6.37.59,4.58.39,9.78,1,15.56,1.22l9.06.51c3.15.15,6.44.16,9.83.26,6.8.25,14.06.07,21.71,0,15.28-.4,32.06-1.39,49.63-3.15s34.21-4.17,49.33-6.51c7.55-1.23,14.73-2.36,21.42-3.57s12.95-2.29,18.64-3.33l26.95-5,7.34-1.33A16.26,16.26,0,0,1,270.57,335.12Z" stroke="#000" stroke-miterlimit="10" stroke-width="0.5"/>
      <path d="M60.27,200.45c.24,0,.23,1,1.2,1.71a2.29,2.29,0,0,0,1.77.49,1.71,1.71,0,0,0,1.24-1.52,1.65,1.65,0,0,0-.75-1.78,2.08,2.08,0,0,0-1.79.1c-1.09.55-1.18,1.47-1.41,1.47s-.26-.22-.23-.7a2.54,2.54,0,0,1,1-1.72,3.12,3.12,0,0,1,3-.53,2.75,2.75,0,0,1,1.47,1.36,3.61,3.61,0,0,1-.55,3.89,2.92,2.92,0,0,1-1.77.92A3.27,3.27,0,0,1,60.66,203a2.72,2.72,0,0,1-.69-1.84C60,200.65,60.18,200.44,60.27,200.45Z" stroke="#000" stroke-miterlimit="10" stroke-width="0.5"/>
      <path d="M107,193.49c0,.45-7.65,1.35-17.16,2s-17.25.83-17.28.38,7.66-1.35,17.16-2S106.94,193.05,107,193.49Z" stroke="#000" stroke-miterlimit="10" stroke-width="0.5"/>
      <path d="M161.82,193.84a12.34,12.34,0,0,1-3.14.72c-2,.36-5,.82-8.66,1.35-7.32,1.07-17.45,2.42-28.67,3.7s-21.4,2.2-28.78,2.7c-3.69.25-6.68.41-8.75.47a12.37,12.37,0,0,1-3.23-.06,11.86,11.86,0,0,1,3.18-.57c2-.25,5-.59,8.7-1l28.7-3.17c11.21-1.28,21.35-2.45,28.71-3.22,3.67-.39,6.65-.68,8.72-.84A12.6,12.6,0,0,1,161.82,193.84Z" stroke="#000" stroke-miterlimit="10" stroke-width="0.5"/>
      <path d="M180,187.15c0,.23-3.24.52-8.5.92S159,189,151,189.68s-15.24,1.42-20.48,1.94-8.5.78-8.53.55,3.17-.89,8.39-1.7,12.45-1.71,20.48-2.41,15.31-1,20.59-1.14S180,186.93,180,187.15Z" stroke="#000" stroke-miterlimit="10" stroke-width="0.5"/>
      <ellipse cx="87.04" cy="217.94" rx="26.05" ry="0.82" transform="translate(-11.11 4.77) rotate(-2.95)" stroke="#000" stroke-miterlimit="10" stroke-width="0.5"/>
      <path d="M183.36,218.42c0,.44-19.27,2.76-43.13,5.17s-43.25,4-43.29,3.56,19.26-2.77,43.12-5.18S183.31,218,183.36,218.42Z" stroke="#000" stroke-miterlimit="10" stroke-width="0.5"/>
      <path d="M196.9,202.93c0,.23-3.77.95-9.94,2l-24.1,3.92-24.12,3.83c-6.18,1-10,1.46-10.06,1.24s3.72-1.13,9.86-2.37,14.63-2.8,24.06-4.31,18-2.71,24.2-3.45S196.87,202.71,196.9,202.93Z" stroke="#000" stroke-miterlimit="10" stroke-width="0.5"/>
      <ellipse cx="138.13" cy="245.62" rx="59.67" ry="0.82" transform="translate(-19.02 11.71) rotate(-4.54)" stroke="#000" stroke-miterlimit="10" stroke-width="0.5"/>
      <path d="M122.54,259.4c0,.22-3.58.8-9.43,1.49s-14,1.5-22.92,2.18-17.09,1.11-23,1.3-9.54.16-9.55-.06,3.61-.6,9.48-1.09l22.92-1.77,22.93-1.7C118.87,259.34,122.51,259.17,122.54,259.4Z" stroke="#000" stroke-miterlimit="10" stroke-width="0.5"/>
      <path d="M184.06,262a24.81,24.81,0,0,1-4.43.95c-2.86.51-7,1.18-12.16,1.94-10.28,1.54-24.53,3.41-40.31,5.09s-30.1,2.84-40.48,3.5c-5.19.34-9.39.56-12.3.66a23.8,23.8,0,0,1-4.52,0,24.19,24.19,0,0,1,4.48-.63l12.25-1.18c10.34-.95,24.63-2.3,40.4-4s30-3.37,40.33-4.61l12.22-1.43A24.46,24.46,0,0,1,184.06,262Z" stroke="#000" stroke-miterlimit="10" stroke-width="0.5"/>
    </g>
    <g id="Paper1">
      <path d="M213.4,102l-9.24,44.72c-4.33,15.09-8.46,30.94-12.26,47.53-6.48,28.24-11.2,55.09-14.61,80.2,8.93,2.12,21.19,4.76,35.88,7.07,5.76.91,30.54,4.7,69.57,5.77,20.81.58,54.07,1.37,97.47-3.79a609.9,609.9,0,0,0,66.57-11.67c-4.45-13.61-8.36-24.73-11.11-32.37-9.25-25.72-22.42-59.52-40.37-98.08-4.67-10-8.62-18.14-11.1-23.18a91.66,91.66,0,0,0-5.53-29.85c-25.83.71-52.93,2.11-81.18,4.41C268.05,95.15,240,98.31,213.4,102Z" fill="#fff"/>
      <path d="M212.41,103c.44.1-1.22,9.27-3.43,20.54s-4.14,20.39-4.59,20.31.78-9.33,3-20.62S212,102.94,212.41,103Z" stroke="#000" stroke-miterlimit="10" stroke-width="0.5"/>
      <path d="M377.62,87.67a7.17,7.17,0,0,1-1.66.23c-1.1.1-2.71.23-4.79.37L353.54,89.4c-14.87.95-35.42,2.38-58.08,4.35s-43.14,4.13-58,5.77L220,101.45c-2.07.22-3.68.38-4.78.47a7.15,7.15,0,0,1-1.68.06,6.08,6.08,0,0,1,1.64-.38c1.08-.2,2.68-.46,4.74-.78,4.12-.64,10.1-1.48,17.5-2.45,14.79-1.93,35.27-4.26,57.95-6.25s43.26-3.21,58.16-3.87c7.45-.33,13.49-.54,17.66-.62,2.08,0,3.7-.06,4.8,0A6.09,6.09,0,0,1,377.62,87.67Z" stroke="#000" stroke-miterlimit="10" stroke-width="0.5"/>
      <path d="M385,120.08c-.47,0-1.6-7.09-3.35-15.83s-3.44-15.77-3-15.9,2.84,6.77,4.59,15.58S385.45,120,385,120.08Z" stroke="#000" stroke-miterlimit="10" stroke-width="0.5"/>
      <path d="M446.75,271.74a6.91,6.91,0,0,1-.68-1.55c-.4-1-1-2.56-1.67-4.54-1.42-3.95-3.46-9.67-6-16.73s-5.63-15.43-9.14-24.7-7.5-19.42-11.81-30-8.58-20.62-12.53-29.72-7.6-17.24-10.72-24.06-5.65-12.34-7.4-16.15c-.88-1.91-1.55-3.4-2-4.41a6.57,6.57,0,0,1-.59-1.59,6.48,6.48,0,0,1,.88,1.44c.54,1,1.29,2.41,2.26,4.28,1.93,3.73,4.63,9.17,7.88,15.94s7,14.88,11.05,23.94S414.64,183,419,193.59s8.24,20.8,11.7,30.1,6.43,17.74,8.83,24.85,4.28,12.89,5.5,16.91c.62,2,1.08,3.57,1.38,4.63A6.54,6.54,0,0,1,446.75,271.74Z" stroke="#000" stroke-miterlimit="10" stroke-width="0.5"/>
      <path d="M177.3,274.37a30.18,30.18,0,0,1,.4-5.12c.35-3.29,1-8,1.81-13.88,1.68-11.69,4.4-27.8,8.1-45.45s7.73-33.48,10.9-44.86c1.58-5.7,2.93-10.28,3.93-13.43a30.15,30.15,0,0,1,1.7-4.85,31.29,31.29,0,0,1-1.09,5l-3.43,13.55c-2.88,11.44-6.7,27.29-10.41,44.91s-6.59,33.66-8.56,45.29c-1,5.82-1.78,10.53-2.33,13.79A31.27,31.27,0,0,1,177.3,274.37Z" stroke="#000" stroke-miterlimit="10" stroke-width="0.5"/>
      <path d="M444.84,271.56a16.24,16.24,0,0,1-2.63.77l-7.62,1.89-5.52,1.33c-2,.45-4.23.9-6.6,1.39-4.75,1-10.14,2.17-16.16,3.16l-9.43,1.64c-3.28.56-6.72,1-10.26,1.52-7.09,1.12-14.72,1.91-22.73,2.83-16.05,1.59-33.77,2.76-52.39,3.05s-36.35-.52-52.44-1.7c-8-.71-15.68-1.31-22.79-2.24-3.56-.44-7-.79-10.31-1.26l-9.47-1.4c-6-.83-11.46-1.9-16.23-2.74-2.38-.43-4.6-.82-6.63-1.22l-5.55-1.18-7.67-1.7a18.77,18.77,0,0,1-2.65-.7,17,17,0,0,1,2.72.38l7.72,1.39,5.57,1.05,6.65,1.09c4.78.75,10.2,1.74,16.24,2.49l9.47,1.29c3.29.44,6.73.76,10.29,1.17,7.1.87,14.73,1.41,22.75,2.08,16.05,1.09,33.74,1.76,52.31,1.57s36.24-1.41,52.26-2.91c8-.88,15.61-1.62,22.69-2.67,3.54-.5,7-.91,10.26-1.43l9.43-1.54c6-.91,11.41-2,16.17-2.91l6.62-1.26,5.54-1.19,7.68-1.59A17.56,17.56,0,0,1,444.84,271.56Z" stroke="#000" stroke-miterlimit="10" stroke-width="0.5"/>
      <path d="M245.35,135.93c.24-.09.6,1,2,1.6a3,3,0,0,0,2.39.07,2,2,0,0,0,.93-.86,2.77,2.77,0,0,0,.29-1.42,2.08,2.08,0,0,0-1.44-2,2.38,2.38,0,0,0-2.08.81,2.68,2.68,0,0,0-.75,1.53c0,.42,0,.69-.09.75s-.35-.13-.54-.68a2.83,2.83,0,0,1,.47-2.31,3.67,3.67,0,0,1,1.22-1.15,3.23,3.23,0,0,1,2-.43,3.07,3.07,0,0,1,2,1.19,4,4,0,0,1,.82,2.24,4.23,4.23,0,0,1-.53,2.31,3.44,3.44,0,0,1-1.76,1.45,4,4,0,0,1-3.5-.44,3.56,3.56,0,0,1-1.47-1.77C245.19,136.26,245.26,136,245.35,135.93Z" stroke="#000" stroke-miterlimit="10" stroke-width="0.5"/>
      <path d="M319,134.63c0,.45-12.1.81-27,.81s-27-.36-27-.81,12.1-.82,27-.82S319,134.18,319,134.63Z" stroke="#000" stroke-miterlimit="10" stroke-width="0.5"/>
      <ellipse cx="309.08" cy="141.23" rx="40.23" ry="0.82" stroke="#000" stroke-miterlimit="10" stroke-width="0.5"/>
      <path d="M372.44,134c0,.45-8.71.81-19.46.81s-19.45-.36-19.45-.81,8.71-.82,19.45-.82S372.44,133.52,372.44,134Z" stroke="#000" stroke-miterlimit="10" stroke-width="0.5"/>
      <path d="M223.5,164.53c.12.05.06.33.1.77a3.11,3.11,0,0,0,.69,1.63,2.54,2.54,0,0,0,2.07,1,1.56,1.56,0,0,0,1-.55,2.53,2.53,0,0,0,.54-1.34,1.89,1.89,0,0,0-1.17-2.15,2.36,2.36,0,0,0-2.16.7,2.79,2.79,0,0,0-.86,1.51c-.07.43,0,.72-.15.76s-.35-.16-.48-.73a2.89,2.89,0,0,1,.62-2.3,3.75,3.75,0,0,1,1.3-1.1,3.2,3.2,0,0,1,2.07-.31,2.94,2.94,0,0,1,1.95,1.4,3.89,3.89,0,0,1,.5,2.38,4,4,0,0,1-1,2.24,3,3,0,0,1-2.17,1,3.29,3.29,0,0,1-2-.63,4.18,4.18,0,0,1-1.14-1.26,3.1,3.1,0,0,1-.35-2.35C223.15,164.68,223.43,164.48,223.5,164.53Z" stroke="#000" stroke-miterlimit="10" stroke-width="0.5"/>
      <path d="M301.13,165.27c0,.45-11.67.71-26.06.58s-26-.6-26-1,11.67-.71,26.06-.58S301.14,164.82,301.13,165.27Z" stroke="#000" stroke-miterlimit="10" stroke-width="0.5"/>
      <path d="M351.26,175a20.62,20.62,0,0,1-4.22.46c-2.73.19-6.67.37-11.55.52-9.75.3-23.24.38-38.12-.15s-28.33-1.59-38-2.59c-4.86-.5-8.78-1-11.48-1.35a20.32,20.32,0,0,1-4.18-.76,21.45,21.45,0,0,1,4.25.13l11.51.83c9.71.71,23.14,1.57,38,2.11s28.3.64,38.05.63H347A21.63,21.63,0,0,1,351.26,175Z" stroke="#000" stroke-miterlimit="10" stroke-width="0.5"/>
      <path d="M370.44,166.14c0,.22-2.82.57-7.42.85s-11,.46-18,.36-13.39-.49-18-.91-7.42-.85-7.4-1.07,2.87-.2,7.46-.08,10.94.32,17.94.43,13.35.1,17.95.12S370.43,165.91,370.44,166.14Z" stroke="#000" stroke-miterlimit="10" stroke-width="0.5"/>
      <path d="M224.12,203.4c.11.06,0,.35.12.78a2.24,2.24,0,0,0,1,1.41,1.52,1.52,0,0,0,2-.29,2.38,2.38,0,0,0,.61-1.25,2.1,2.1,0,0,0-.29-1.41,3.33,3.33,0,0,0-2.62-1.48,2.63,2.63,0,0,0-2.25.92,2,2,0,0,0-.27,1.65c.11.42.31.64.24.74s-.41.05-.8-.44a2.45,2.45,0,0,1-.17-2.52,3.66,3.66,0,0,1,3.25-1.85,4.6,4.6,0,0,1,4,2.14,3.57,3.57,0,0,1,.46,2.52,3.75,3.75,0,0,1-1.13,2.06,2.93,2.93,0,0,1-2,.82,2.78,2.78,0,0,1-2.67-3C223.74,203.55,224,203.35,224.12,203.4Z" stroke="#000" stroke-miterlimit="10" stroke-width="0.5"/>
      <path d="M338.11,199.47a13,13,0,0,1-3.28.18c-2.1,0-5.15,0-8.91-.08l-29.37-.45-29.37-.29c-3.76,0-6.81-.09-8.91-.15a12.78,12.78,0,0,1-3.27-.26,12.49,12.49,0,0,1,3.26-.38c2.1-.13,5.14-.26,8.91-.36,7.52-.22,17.92-.34,29.4-.19s21.88.52,29.39.93c3.76.21,6.8.41,8.9.6A12.84,12.84,0,0,1,338.11,199.47Z" stroke="#000" stroke-miterlimit="10" stroke-width="0.5"/>
      <path d="M330.21,212.22c0,.22-3.76.78-9.89.63s-14.51-.49-23.81-1-17.7-1-23.78-1.44-9.84-.85-9.83-1.07,3.79-.24,9.88-.08,14.52.5,23.81,1,17.71,1,23.78,1.43S330.19,212,330.21,212.22Z" stroke="#000" stroke-miterlimit="10" stroke-width="0.5"/>
      <path d="M395.54,209.78c0,.45-10.2.59-22.77.31S350,209.23,350,208.78s10.21-.59,22.77-.32S395.55,209.33,395.54,209.78Z" stroke="#000" stroke-miterlimit="10" stroke-width="0.5"/>
      <path d="M353.91,236.93a28.24,28.24,0,0,1-4.88.12c-3.14,0-7.68-.11-13.29-.23l-43.83-1-43.83-.76c-5.6-.1-10.14-.19-13.28-.29a27.86,27.86,0,0,1-4.87-.31,28.32,28.32,0,0,1,4.87-.32c3.14-.1,7.68-.18,13.29-.23,11.22-.1,26.73,0,43.86.28s32.62.89,43.83,1.43c5.61.27,10.14.53,13.27.76A27.05,27.05,0,0,1,353.91,236.93Z" stroke="#000" stroke-miterlimit="10" stroke-width="0.5"/>
    </g>
  </g>
  <g id="Layer_Character3">
    <g id="PRIMARY_foot_right" data-name="PRIMARY_foot right">
      <path d="M242.38,510.25l-7.61,2.23c-7.19-14-9.7-16.81-10.56-16.46-1.24.49.52,7.62.77,8.6a43.92,43.92,0,0,0,6.59,14.52,30.79,30.79,0,0,0,9.38-1.3,30.46,30.46,0,0,0,4.57-1.8Z"/>
    </g>
    <g id="Leg_right" data-name="Leg right">
      <path d="M303.84,477.09a109.26,109.26,0,0,1-9.47,5.92,87.77,87.77,0,0,1-17.68,7.82A107.86,107.86,0,0,1,263,493.89c-5.56,1-8.09,1.17-13.15,2.35a98.36,98.36,0,0,0-9.8,2.81c.48,1.41,1,2.86,1.42,4.34,1.37,4.46,2.48,8.76,3.37,12.87,3.48-.3,8.14-.8,13.61-1.66a188.79,188.79,0,0,0,25.23-5.71,141.17,141.17,0,0,0,22.08-8.41,132.09,132.09,0,0,0,15.22-8.7Z" fill="#fff"/>
      <path d="M240.12,499c-.08-.18,3-1.7,8.35-3.08,2.67-.69,5.88-1.35,9.44-2s7.48-1.26,11.54-2.12a87,87,0,0,0,20-6.91c4.93-2.32,7.95-3.87,8.07-3.66s-2.71,2.08-7.55,4.69a85,85,0,0,1-8.76,4.09,69.5,69.5,0,0,1-11.39,3.38c-4.11.87-8,1.45-11.62,2s-6.76,1.09-9.43,1.63C243.4,498.15,240.21,499.27,240.12,499Z" stroke="#000" stroke-miterlimit="10" stroke-width="0.5"/>
      <path d="M244.88,516.25c-.46.06-1.34-3.73-2.71-8.3s-2.67-8.23-2.25-8.43,2.43,3.26,3.82,8S245.31,516.19,244.88,516.25Z" stroke="#000" stroke-miterlimit="10" stroke-width="0.5"/>
      <path d="M314.32,496.26a9.79,9.79,0,0,1-2.4,1.59c-.79.47-1.78,1-2.95,1.62s-2.48,1.3-4,2c-3,1.44-6.58,3-10.65,4.6s-8.63,3.12-13.47,4.51-9.54,2.45-13.83,3.28-8.18,1.38-11.47,1.72c-1.63.2-3.13.3-4.43.4s-2.44.16-3.36.19a9.42,9.42,0,0,1-2.87-.09c0-.25,4-.66,10.51-1.64,3.25-.49,7.09-1.18,11.33-2.05s8.86-2,13.67-3.37,9.32-2.89,13.39-4.36,7.69-2.94,10.7-4.24C310.55,497.83,314.2,496,314.32,496.26Z" stroke="#000" stroke-miterlimit="10" stroke-width="0.5"/>
      <path d="M234.78,512.48c-.13-.43,1.47-1.28,3.57-1.9s3.9-.76,4-.33-1.47,1.28-3.57,1.9S234.91,512.91,234.78,512.48Z" stroke="#000" stroke-miterlimit="10" stroke-width="0.5"/>
      <path d="M245.4,516.89c0,.13-1.28.66-3.67,1.23a41.42,41.42,0,0,1-4.38.78c-.85.12-1.76.21-2.72.28-.48,0-1,.06-1.48.08l-.77,0-1.17,0-1.08-1.78c-.29-.49-.59-1-.88-1.51-.58-1-1.16-2.13-1.71-3.26a72.55,72.55,0,0,1-3.14-7.32c-.59-1.63-1.12-3.25-1.57-4.84a8.15,8.15,0,0,1-.37-2.64,6.06,6.06,0,0,1,.1-.71c0-.13.06-.24.1-.37l.2-.46a3.63,3.63,0,0,1,1.29-1.32,7.39,7.39,0,0,1,1.42,1,5.62,5.62,0,0,1,.78.9,12.93,12.93,0,0,1,1.06,1.77l1.7,3.25c1.06,2,2,3.87,2.74,5.38,1.5,3,2.31,4.86,2.15,4.94s-1.25-1.58-3-4.48c-.87-1.46-1.9-3.22-3.05-5.22l-1.81-3.18a13.72,13.72,0,0,0-1-1.58,5,5,0,0,0-.55-.61,1,1,0,0,0-.25-.16.44.44,0,0,0-.19.23l0,.08,0,.2a2.24,2.24,0,0,0-.05.46,6.51,6.51,0,0,0,.33,2.11c.46,1.55,1,3.14,1.56,4.73.93,2.54,1.95,5,3,7.19.53,1.13,1.07,2.2,1.62,3.23.27.51.55,1,.82,1.51l.61,1.1h1.12l1.45,0c.94,0,1.83-.07,2.67-.13,1.68-.12,3.14-.29,4.34-.45C244,517,245.36,516.74,245.4,516.89Z" stroke="#000" stroke-miterlimit="10" stroke-width="0.5"/>
    </g>
    <g id="PRIMARY_foot_left" data-name="PRIMARY_foot left">
      <path d="M267.52,507.65l-.66,4.07c-6.31,3.43-10.44,4.54-13.11,4.9-1,.13-3.84.44-4.26,1.87a1.9,1.9,0,0,0,.41,1.65c1.39,1.72,5.54.44,11.75-1.34,2.75-.79,7.11-2,12.69-3.51l.6-7.4Z"/>
    </g>
    <g id="Leg_left" data-name="Leg left">
      <path d="M303.56,488.14a80.42,80.42,0,0,1-7.74-7.78c-5.56-6-5.92-7.31-9.6-10.46-4.94-4.23-8.32-5.38-9.52-5.75-2.33-.72-5.82-1.79-8.85-.14-2,1.09-3.06,3-4.1,5.5A52.59,52.59,0,0,0,260.09,487a159.38,159.38,0,0,0,0,16.86,11.39,11.39,0,0,0,2.81,2.64c4.22,2.76,9.28,1.87,12.09,1.37a25.55,25.55,0,0,0,4.54-1.24c0-3.65.09-7.29.14-10.93a22.69,22.69,0,0,0,7,9,16.8,16.8,0,0,0,9.39,4c2.81.16,4.87-.59,7.75-1.64a25.33,25.33,0,0,0,8.51-4.79,24.12,24.12,0,0,0,5.08-6.17A46.92,46.92,0,0,1,303.56,488.14Z" fill="#fff"/>
      <path d="M260,503.83a12.25,12.25,0,0,1-.57-3.46,70,70,0,0,1-.25-9.56A83.47,83.47,0,0,1,261,476.72c.29-1.31.61-2.64,1-4a40.75,40.75,0,0,1,1.28-4.15,11.4,11.4,0,0,1,2.47-4,7.25,7.25,0,0,1,2.09-1.43,8.62,8.62,0,0,1,2.46-.61,18.51,18.51,0,0,1,9.09,1.8,28.6,28.6,0,0,1,7.08,4.76A102.75,102.75,0,0,1,296,479.62c2.56,3.09,4.61,5.62,6,7.38a15.39,15.39,0,0,1,2,2.85,13.65,13.65,0,0,1-2.52-2.43c-1.54-1.64-3.72-4.05-6.4-7.05a118.83,118.83,0,0,0-9.63-10.16,28.1,28.1,0,0,0-6.75-4.44,17.19,17.19,0,0,0-8.27-1.62,5.55,5.55,0,0,0-3.57,1.57,9.85,9.85,0,0,0-2.12,3.44,39.82,39.82,0,0,0-1.27,4c-.37,1.33-.7,2.63-1,3.92a93.09,93.09,0,0,0-2.09,13.83C259.8,498.85,260.32,503.82,260,503.83Z" stroke="#000" stroke-miterlimit="10" stroke-width="0.5"/>
      <path d="M278.3,506.91c.13.16-.72,1.06-2.52,1.54a15.34,15.34,0,0,1-3.13.46,30,30,0,0,1-3.82,0,15,15,0,0,1-3.85-.7,10.27,10.27,0,0,1-2.87-1.51c-1.48-1.17-1.91-2.3-1.73-2.4s.91.66,2.36,1.43a14.53,14.53,0,0,0,6.19,1.56c1.28.08,2.53.07,3.67.08a24.29,24.29,0,0,0,3-.09C277.21,507.17,278.16,506.71,278.3,506.91Z" stroke="#000" stroke-miterlimit="10" stroke-width="0.5"/>
      <path d="M279.83,484.64c.45,0,.94,4.92.84,11s-.75,11-1.19,11-.54-4.95-.44-11S279.38,484.65,279.83,484.64Z" stroke="#000" stroke-miterlimit="10" stroke-width="0.5"/>
      <path d="M316.46,498.09c.14.1-1.14,2.27-4.22,4.88a28.27,28.27,0,0,1-5.93,3.8,28.78,28.78,0,0,1-8.28,2.52,16.07,16.07,0,0,1-4.59.06,10.78,10.78,0,0,1-4.1-1.51,20.36,20.36,0,0,1-5.12-4.92c-2.43-3.2-3.31-5.54-3.13-5.63s1.45,2,4,4.89a21.8,21.8,0,0,0,5,4.37,9.36,9.36,0,0,0,3.55,1.22,15.63,15.63,0,0,0,4.14-.09,30.82,30.82,0,0,0,7.89-2.27,33.54,33.54,0,0,0,5.85-3.35C314.67,499.79,316.25,497.91,316.46,498.09Z" stroke="#000" stroke-miterlimit="10" stroke-width="0.5"/>
      <path d="M274.31,515.3c.06.2-2.54,1.26-6.92,2.5-2.18.62-4.81,1.29-7.75,1.89q-2.22.46-4.65.87l-2.46.38-1.29.18a2.66,2.66,0,0,1-1.77-.29l-.19-.14a2.52,2.52,0,0,1,1-4.1,6.67,6.67,0,0,1,1.8-.47l1.57-.23a41.14,41.14,0,0,0,5.66-1.38,43.08,43.08,0,0,0,4.63-1.82c.67-.32,1.3-.62,1.87-.93l1.38-.73c0-.25,0-.85.07-1.28s.05-.82.08-1.13c.05-.61.12-.94.2-.94s.15.32.24.93c0,.31.08.68.13,1.13s.08.86.13,1.75l-.92.62-.8.53c-.57.36-1.19.72-1.86,1.09a36.51,36.51,0,0,1-4.69,2.11,37.08,37.08,0,0,1-5.85,1.6,15.17,15.17,0,0,0-3,.62,1.61,1.61,0,0,0-.46.31,1,1,0,0,0-.23.39c-.12.33,0,.63.06.67l0,0c.14.18,1.16,0,2-.11l2.44-.36c1.61-.24,3.15-.5,4.61-.76,2.93-.52,5.56-1.06,7.77-1.53C271.52,515.74,274.24,515.07,274.31,515.3Z" stroke="#000" stroke-miterlimit="10" stroke-width="0.5"/>
      <path d="M275,514.74c-.43.08-1.09-1.44-1.1-3.42s.62-3.5,1.06-3.42.56,1.6.57,3.41S275.43,514.65,275,514.74Z" stroke="#000" stroke-miterlimit="10" stroke-width="0.5"/>
    </g>
    <g id="Torso">
      <path d="M318.12,446c-1.53.45-1.22,2-3.94,5.43-3,3.76-4.39,3.22-5.91,6-1.2,2.22-1.26,4.35-1.38,8.63a45.9,45.9,0,0,0,.34,7c-1.69,1.58-3.52,3.2-5.47,4.82-1.44,1.2-2.86,2.32-4.26,3.38a27.78,27.78,0,0,0,11.08,11.38c3.51,2,6.83,3.89,11.1,3.34a12.85,12.85,0,0,0,5-1.75,44.47,44.47,0,0,0,2.77-10.13c.83-5.56-.08-6.86.09-15.1.19-9.79,1.54-11.24-.08-15.11C325.47,449.18,320.9,445.17,318.12,446Z" fill="#fff"/>
      <path d="M307.11,475.49c-.22,0-.47-1.63-.68-4.27-.1-1.33-.2-2.9-.28-4.65a28.34,28.34,0,0,1,.15-5.83,10.71,10.71,0,0,1,.93-3,9.69,9.69,0,0,1,1.7-2.42,35.09,35.09,0,0,1,3.59-3.08c2.07-1.58,3-2.91,3.17-2.8s0,.48-.38,1.15a11.76,11.76,0,0,1-2,2.51c-.94,1-2.16,2-3.24,3.22a9,9,0,0,0-2.14,4.71,34.84,34.84,0,0,0-.26,5.53c0,1.75,0,3.32-.06,4.65C307.5,473.84,307.34,475.48,307.11,475.49Z" stroke="#000" stroke-miterlimit="10" stroke-width="0.5"/>
      <path d="M296.89,482.19c-.29-.34,1.78-2.65,4.63-5.16s5.4-4.29,5.7-3.95-1.77,2.65-4.62,5.17S297.19,482.53,296.89,482.19Z" stroke="#000" stroke-miterlimit="10" stroke-width="0.5"/>
      <path d="M322.06,496.06c0,.2-1.65.52-4.37.35A19.69,19.69,0,0,1,307.6,493a27.52,27.52,0,0,1-4.31-4l-3.08-3.5c-1.74-2-3-3-2.86-3.22s1.66.58,3.67,2.4c1,.9,2.14,2.05,3.36,3.29a33.73,33.73,0,0,0,4.17,3.71,22.48,22.48,0,0,0,9.28,3.62C320.41,495.71,322.06,495.81,322.06,496.06Z" stroke="#000" stroke-miterlimit="10" stroke-width="0.5"/>
      <path d="M322.82,496.72c-.23-.19,1.43-1.88,2.56-5.34a27.44,27.44,0,0,0,1.19-6.26c.21-2.42.22-5.1.19-7.94-.09-11.39.19-20.62.64-20.63s.9,9.23,1,20.62a63.76,63.76,0,0,1-.32,8.1,24.5,24.5,0,0,1-1.61,6.51,13.42,13.42,0,0,1-2.36,3.87C323.38,496.45,322.89,496.78,322.82,496.72Z" stroke="#000" stroke-miterlimit="10" stroke-width="0.5"/>
    </g>
    <g id="Arm">
      <path d="M320.6,454.47c-1.09,3.54-.64,6.07-.37,10.72.21,3.5,0,7,.14,10.51a207.86,207.86,0,0,1-1.27,26.9l2.52.91a10.41,10.41,0,0,0-4.24,3.49c-.77,1.13-1.71,3-1.25,3.43s1.39-.09,4.61-2.76a21.32,21.32,0,0,0,1.68,5.17c.75,1.56,2.83,5.93,4.84,5.68,1.82-.22,2.69-4.1,2.9-5.07a16.31,16.31,0,0,0-1.26-10.19c.46-.68.91-1.37,1.36-2.05,0-3,.05-6.07.07-9.11.05-7.16.09-14.25.09-14.27,0-3.45,0-6.9.07-10.34.05-3.67-.45-7.36,0-11,.25-2.1.57-3.52-.27-5-1-1.83-3.42-3.29-5.5-2.79C322.21,449.24,321.26,452.35,320.6,454.47Z" fill="#fff"/>
      <path d="M319.1,502.57c-.25,0,.12-3,.36-7.81s.25-11.46.1-18.83-.13-14.08.26-18.93a14.63,14.63,0,0,1,1.27-5.71c.67-1.25,1.34-1.71,1.4-1.64s-.38.67-.82,1.9a17.29,17.29,0,0,0-.7,5.51c-.09,4.81.06,11.46.22,18.85a148.76,148.76,0,0,1-.58,18.94C320.07,499.69,319.3,502.61,319.1,502.57Z" stroke="#000" stroke-miterlimit="10" stroke-width="0.5"/>
      <path d="M330.25,503.06c-.22,0-.41-2.89-.52-7.56s-.17-11.12-.12-18.25.22-13.58.33-18.23,0-7.53.25-7.55.71,2.85.9,7.54.19,11.13.15,18.26-.18,13.57-.36,18.24S330.48,503.06,330.25,503.06Z" stroke="#000" stroke-miterlimit="10" stroke-width="0.5"/>
      <path d="M330.67,500.82c.15.14-.12.78-.91,1.54a8.25,8.25,0,0,1-8,1.76c-1-.36-1.55-.82-1.46-1,.18-.43,2.54.26,5.34-.4S330.32,500.5,330.67,500.82Z" stroke="#000" stroke-miterlimit="10" stroke-width="0.5"/>
      <path d="M320.46,507.57c.17.14-.19.91-1.13,1.87a10.22,10.22,0,0,1-.81.73,6.73,6.73,0,0,1-.58.43,5.11,5.11,0,0,1-.88.5,1.49,1.49,0,0,1-1.71-.28,1.88,1.88,0,0,1-.22-1.94,2.59,2.59,0,0,1,.28-.55,5.32,5.32,0,0,1,.29-.49c.14-.21.29-.41.44-.6a12.12,12.12,0,0,1,.95-1,9.54,9.54,0,0,1,1.9-1.42c1.18-.65,2-.77,2.11-.57s-.54.69-1.44,1.51a19.54,19.54,0,0,0-1.48,1.51c-.26.3-.51.63-.76,1l-.37.54-.08.13,0,.07a.44.44,0,0,0,0,.34c.07.11.2.09.3.05a2,2,0,0,0,.56-.27l.85-.52C319.64,507.88,320.29,507.42,320.46,507.57Z" stroke="#000" stroke-miterlimit="10" stroke-width="0.5"/>
      <path d="M324.65,517.38c-.37.23-1.95-1.64-3.06-4.41s-1.28-5.21-.85-5.3,1.3,2.07,2.37,4.69S325.05,517.14,324.65,517.38Z" stroke="#000" stroke-miterlimit="10" stroke-width="0.5"/>
      <path d="M329.2,518.79c-.45-.14.28-3.37.21-7.36s-.84-7.19-.4-7.35,2,3,2,7.33S329.6,519,329.2,518.79Z" stroke="#000" stroke-miterlimit="10" stroke-width="0.5"/>
      <path d="M324.89,518.54c-.45-.11-.44-1.69-.63-3.54s-.5-3.39-.08-3.58,1.49,1.26,1.7,3.42S325.31,518.66,324.89,518.54Z" stroke="#000" stroke-miterlimit="10" stroke-width="0.5"/>
      <path d="M326.43,518.79c-.45-.08-.5-1.88-.57-4s-.11-4,.34-4.07,1.22,1.67,1.29,4S326.87,518.87,326.43,518.79Z" stroke="#000" stroke-miterlimit="10" stroke-width="0.5"/>
      <path d="M327.39,520.05c-.44-.17,0-2.37.16-5.08s0-5,.44-5.06,1.37,2.18,1.18,5.16S327.79,520.21,327.39,520.05Z" stroke="#000" stroke-miterlimit="10" stroke-width="0.5"/>
    </g>
    <g id="PRIMARY_hair">
      <path d="M307.28,427.22a6.51,6.51,0,0,1-2.67-5,6.31,6.31,0,0,1,1.86-4.13A7.43,7.43,0,0,1,310.1,416c4.56-1.14,6.65-2.33,9.3-2.16,1.38.09,7,.46,9.84,4.66a12.66,12.66,0,0,1,1.81,6.68,17.19,17.19,0,0,1-.65,5.59,3.59,3.59,0,0,1,2,1.74,3.88,3.88,0,0,1,.19,2.47,5.79,5.79,0,0,1-.82,2.1,14.8,14.8,0,0,1,6.92,2,15.19,15.19,0,0,1,5.89,6.54,17.09,17.09,0,0,1,1.18,9.49c-.27,2.9-.45,4.79-1.87,6.6-1.71,2.19-4.26,3-7.1,4a14.7,14.7,0,0,1-4.45,1c-5.65.15-9.63-4.44-10.26-5.19a12.24,12.24,0,0,1-3.21-7.06c-.23-3.57,1.53-6.8,2.44-8.47,1.12-2.05,2.16-3.14,2.69-5.64a5.85,5.85,0,0,0,0-3.72c-.78-1.83-2.57-2.06-4.87-3.6a15.78,15.78,0,0,1-4.62-4.87C314.15,428.23,310.34,429.56,307.28,427.22Z"/>
    </g>
    <g id="Head">
      <path d="M309.58,422.83a10.39,10.39,0,0,0-1.68,4,16,16,0,0,1-.62,3.37A9.08,9.08,0,0,1,303,435l2,2.31a13.4,13.4,0,0,0,2.9,10.21,14.19,14.19,0,0,0,7.59-1.6,3,3,0,0,0,2.51,3,2.94,2.94,0,0,0,2.35-1.13l3.43-6.2c.25-1.19.56-2.73.88-4.53.35-2,.43-2.63,0-3.06-1-1.06-3.86.22-4.23.39a13,13,0,0,1-4.38-5.48,11.69,11.69,0,0,1-3.06-1.71A11.9,11.9,0,0,1,309.58,422.83Z" fill="#fff"/>
      <path d="M302.37,433.88c.06-.25,1-.09,2.05-.84a5.21,5.21,0,0,0,1.51-1.68,8.7,8.7,0,0,0,.88-2.72c.19-1.07.31-2.14.52-3.14a4.77,4.77,0,0,1,1.24-2.67,1.86,1.86,0,0,1,2.12-.33c.48.28.49.63.41.67s-.3-.07-.61-.08a1.29,1.29,0,0,0-1.09.54,4.52,4.52,0,0,0-.59,2.12c-.12.94-.19,2-.4,3.18a8.3,8.3,0,0,1-1.22,3.25,5.3,5.3,0,0,1-2.23,1.87,3.05,3.05,0,0,1-2,.23C302.54,434.17,302.34,434,302.37,433.88Z" stroke="#000" stroke-miterlimit="10" stroke-width="0.5"/>
      <path d="M305.11,436.15c0,.22-.18.45-.58.53a1.82,1.82,0,0,1-1.43-.41,1.84,1.84,0,0,1-.73-1.3c0-.4.16-.65.38-.68.45,0,.88.36,1.36.71S305,435.7,305.11,436.15Z" stroke="#000" stroke-miterlimit="10" stroke-width="0.5"/>
      <path d="M307.11,447.18c-.35.25-2-1.66-2.6-4.61s.09-5.35.51-5.27.51,2.3,1.08,4.93S307.51,446.94,307.11,447.18Z" stroke="#000" stroke-miterlimit="10" stroke-width="0.5"/>
      <path d="M318.93,442.33c.19.06.12,1-.69,2.1a8.92,8.92,0,0,1-4.31,3,14.63,14.63,0,0,1-2.78.69,8.86,8.86,0,0,1-2.39.07,2.77,2.77,0,0,1-1.58-.7c-.3-.3-.34-.55-.27-.62s.77.3,1.9.16a14.15,14.15,0,0,0,2.06-.39,24.53,24.53,0,0,0,2.5-.74,12.24,12.24,0,0,0,4-2.26C318.27,442.89,318.71,442.23,318.93,442.33Z" stroke="#000" stroke-miterlimit="10" stroke-width="0.5"/>
      <path d="M311.93,438.56c.18.12.11.61-.32,1.23a5.39,5.39,0,0,1-5.17,2.06c-.74-.16-1.12-.47-1.08-.68.11-.45,1.68-.44,3.35-1.14S311.54,438.3,311.93,438.56Z" stroke="#000" stroke-miterlimit="10" stroke-width="0.5"/>
      <path d="M309.71,417.24c0,.24-.75.25-1.65.68a4.75,4.75,0,0,0-2.45,2.7,5.72,5.72,0,0,0,.24,3.76c.37,1,.78,1.56.61,1.73s-.88-.15-1.62-1.17a5.53,5.53,0,0,1-.79-4.82,5,5,0,0,1,3.67-3.3C309,416.59,309.77,417.06,309.71,417.24Z" stroke="#000" stroke-miterlimit="10" stroke-width="0.5"/>
      <path d="M317.64,428.1c.08.06.05.31-.21.62a2.62,2.62,0,0,1-1.53.81,4.15,4.15,0,0,1-2.54-.36,5.5,5.5,0,0,1-2.23-2.13A11.57,11.57,0,0,1,310,424.4a7.65,7.65,0,0,1-.39-2.35,3,3,0,0,1,.47-1.63c.25-.33.47-.42.55-.36s-.13.81.13,1.9a10.73,10.73,0,0,0,.65,1.94,16.5,16.5,0,0,0,1.1,2.29,5,5,0,0,0,1.55,1.66,3.82,3.82,0,0,0,1.73.53C316.87,428.45,317.46,427.93,317.64,428.1Z" stroke="#000" stroke-miterlimit="10" stroke-width="0.5"/>
      <path d="M330.5,431.46c-.26,0,0-2,0-5a17.18,17.18,0,0,0-.82-5.16,10.5,10.5,0,0,0-3.48-5,9.69,9.69,0,0,0-5.85-1.68,27.83,27.83,0,0,0-5.3.41c-3,.53-4.81,1.24-4.91,1s1.57-1.29,4.66-2.14a23.4,23.4,0,0,1,5.56-.78,14.47,14.47,0,0,1,3.39.3,8.84,8.84,0,0,1,3.43,1.58,11.38,11.38,0,0,1,3.93,5.88,15.89,15.89,0,0,1,.54,5.65C331.36,429.65,330.68,431.49,330.5,431.46Z" stroke="#000" stroke-miterlimit="10" stroke-width="0.5"/>
      <path d="M331.06,438.21c-.19-.12-.1-.65.14-1.39a11.09,11.09,0,0,0,.64-2.72,3.9,3.9,0,0,0-.68-2.34c-.36-.53-.79-.78-.75-1s.67-.39,1.52.15a3.75,3.75,0,0,1,1.54,3.28,5.8,5.8,0,0,1-1.25,3.18C331.69,438,331.25,438.32,331.06,438.21Z" stroke="#000" stroke-miterlimit="10" stroke-width="0.5"/>
      <path d="M321.06,434.1c0,.21-.36.47-1,.44a3.41,3.41,0,0,1-3-3.61c.09-.67.41-1,.61-.94.44.13.53,1.3,1.43,2.3S321,433.65,321.06,434.1Z" stroke="#000" stroke-miterlimit="10" stroke-width="0.5"/>
      <path d="M320.77,441.14c.08-.21.81-.12,1.57-.73a3.5,3.5,0,0,0,1-1.39,7,7,0,0,0,.55-2.16c.14-1.47-1-2.46-1.73-2.26a1.6,1.6,0,0,0-.91.51c-.18.2-.26.38-.38.39s-.26-.2-.21-.63a1.88,1.88,0,0,1,1.11-1.35,2.2,2.2,0,0,1,1.32-.17,2.82,2.82,0,0,1,1.32.67,3.64,3.64,0,0,1,1.11,2.93,6.74,6.74,0,0,1-.84,2.75,4,4,0,0,1-1.75,1.71,2.45,2.45,0,0,1-1.66.15C320.88,441.44,320.73,441.24,320.77,441.14Z" stroke="#000" stroke-miterlimit="10" stroke-width="0.5"/>
      <path d="M310.94,433.51c-.36.27-1.12-.15-1.45-1.06s0-1.71.45-1.73.84.53,1.08,1.18S311.3,433.23,310.94,433.51Z" stroke="#000" stroke-miterlimit="10" stroke-width="0.5"/>
      <path d="M311.51,428.67c-.36.31-1.23-.45-1.79-.62a2,2,0,0,0-.69,0c-.23,0-.43.21-.64.18s-.51-.36-.22-.95a1.74,1.74,0,0,1,2.06-.73,2.16,2.16,0,0,1,1.35,1.31C311.73,428.24,311.68,428.54,311.51,428.67Z" stroke="#000" stroke-miterlimit="10" stroke-width="0.5"/>
      <path d="M318,448.94c-.17.41-1.33.28-2.18-.75s-.76-2.2-.33-2.29,1,.55,1.59,1.25S318.21,448.53,318,448.94Z" stroke="#000" stroke-miterlimit="10" stroke-width="0.5"/>
      <path d="M323.84,443.83c.22.07.29.58.18,1.39a5.93,5.93,0,0,1-1.35,3,3.85,3.85,0,0,1-3.24,1.36c-1-.13-1.35-.66-1.24-.83s.59-.15,1.2-.32a4.29,4.29,0,0,0,2.06-1.29,13.9,13.9,0,0,0,1.48-2.32C323.3,444.18,323.63,443.76,323.84,443.83Z" stroke="#000" stroke-miterlimit="10" stroke-width="0.5"/>
      <path d="M336.25,469.66c-.05-.12.47-.45,1.32-1.11a17.39,17.39,0,0,0,3.23-3.18,19.68,19.68,0,0,0,3.13-5.88,21.59,21.59,0,0,0,1.06-8.06,16.49,16.49,0,0,0-2.26-7.69,11.69,11.69,0,0,0-4.75-4.37,10.62,10.62,0,0,0-4.29-1.14c-1.07-.06-1.68,0-1.71-.1s.54-.39,1.69-.54a9.58,9.58,0,0,1,4.78.73,12.1,12.1,0,0,1,5.55,4.62,17.17,17.17,0,0,1,2.62,8.39,21.51,21.51,0,0,1-1.27,8.65,18.92,18.92,0,0,1-3.67,6.13,13.42,13.42,0,0,1-3.76,3C336.91,469.61,336.29,469.75,336.25,469.66Z" stroke="#000" stroke-miterlimit="10" stroke-width="0.5"/>
      <path d="M337.84,464.71c.07.05-.18.6-1,1.25a7.45,7.45,0,0,1-4.2,1.3,14.54,14.54,0,0,1-6.33-1.37,14.77,14.77,0,0,1-6.19-5,11.2,11.2,0,0,1-1.72-3.86,11.88,11.88,0,0,1-.22-3.91A18.35,18.35,0,0,1,320.1,447c1.66-3.21,3-4.93,3.22-4.83s-.83,2.08-2.17,5.3a19.91,19.91,0,0,0-1.48,5.8,10.25,10.25,0,0,0,1.78,6.72,14.24,14.24,0,0,0,5.49,4.56,14.66,14.66,0,0,0,5.69,1.57,7.85,7.85,0,0,0,3.86-.68C337.33,465,337.74,464.62,337.84,464.71Z" stroke="#000" stroke-miterlimit="10" stroke-width="0.5"/>
    </g>
  </g>
  <g id="Layer_Character2">
    <g id="Primary_Foot_left-2" data-name="Primary_Foot left">
      <path d="M49.92,351.16c-2.33.28-4.27.64-5.75,1-2.72.58-3.59.95-4.29,1.73a6.19,6.19,0,0,0-1.26,3.08,24.15,24.15,0,0,0-.36,4.82c-.17,3.52-.68,4.15-.48,6.9.12,1.6.24,3.16,1.08,3.45,1,.37,2.46-1.37,2.55-1.48,1.38-1.7,1.23-3.47,1.65-7.73.12-1.19.31-2.9.64-5l6.24-2.43Z"/>
    </g>
    <g id="Leg_left-2" data-name="Leg left">
      <path d="M60.1,321.26c-1,.95-1.06,2.45-.94,5A96.05,96.05,0,0,0,61,340.4c-1.5.34-3,.69-4.54,1.06q-5.54,1.34-10.77,2.81l-1.48,7.85,5.75-1,.69,4.13c4.45-1.47,8-2.38,10.57-3,3-.68,5.82-1.18,8.25-3.47a9.92,9.92,0,0,0,2-2.65,10.69,10.69,0,0,0,1-5.83c-.93-13.45-.15-14.92-2.22-17C67.37,320.43,62.14,319.37,60.1,321.26Z" fill="#fff"/>
      <path d="M61,340.39c-.42.12-1.72-3.37-2.22-7.9s0-8.21.43-8.19.69,3.62,1.19,8S61.41,340.27,61,340.39Z" stroke="#000" stroke-miterlimit="10" stroke-width="0.5"/>
      <path d="M44.12,353.77c-.22,0-.38-1.45-.47-3.76l0-1.9v-1.05a10.13,10.13,0,0,1,0-1.2,2.71,2.71,0,0,1,.6-1.47,3.55,3.55,0,0,1,1.25-.93,17.42,17.42,0,0,1,2.58-.82c6.86-1.87,12.61-2.46,12.68-2s-5.49,1.75-12.26,3.6a21.6,21.6,0,0,0-2.34.7,2.16,2.16,0,0,0-.72.49,1.13,1.13,0,0,0-.3.67l-.31,4C44.59,352.35,44.35,353.77,44.12,353.77Z" stroke="#000" stroke-miterlimit="10" stroke-width="0.5"/>
      <path d="M49.94,355.46c-.23,0-.37-.75-.49-1.89a16.47,16.47,0,0,0-.79-4.19,6.29,6.29,0,0,0-2.46-3.05c-.86-.55-1.58-.62-1.6-.87s.77-.58,2.07-.18a5.82,5.82,0,0,1,3.51,3.52,9.84,9.84,0,0,1,.43,4.79C50.43,354.78,50.16,355.48,49.94,355.46Z" stroke="#000" stroke-miterlimit="10" stroke-width="0.5"/>
      <path d="M72.38,338.06c.19,0,.64,1.78.51,4.8A10,10,0,0,1,71.26,348a7.27,7.27,0,0,1-2.51,2.21,26,26,0,0,1-3.11,1.3c-4.2,1.54-8,2.9-10.84,3.73a10.32,10.32,0,0,1-3.56.4c-.85-.09-1.29-.3-1.27-.4s1.82,0,4.49-1.1,6.44-2.63,10.61-4.16A28.53,28.53,0,0,0,68,348.84a6.06,6.06,0,0,0,2.06-1.69,9.87,9.87,0,0,0,1.69-4.42C72.16,339.92,72.12,338.07,72.38,338.06Z" stroke="#000" stroke-miterlimit="10" stroke-width="0.5"/>
      <path d="M50.59,355.3c0,.11-.65.38-1.85.87-.59.25-1.32.56-2.15.95-.41.2-.85.41-1.31.65a3.58,3.58,0,0,0-1.16.82,1.79,1.79,0,0,0-.24,1.33c0,.64.06,1.33,0,2A25.54,25.54,0,0,1,42,371.2a3.86,3.86,0,0,1-.87,1.32,2.18,2.18,0,0,1-1.86.6,2.68,2.68,0,0,1-1.59-.93,3.35,3.35,0,0,1-.71-1.58,12.54,12.54,0,0,1,0-2.83l.19-2.55.38-4.83a42.75,42.75,0,0,1,.49-4.44,5.09,5.09,0,0,1,.9-2,3.88,3.88,0,0,1,1.73-1.25,16.45,16.45,0,0,1,3.19-.64c.91-.13,1.71-.24,2.36-.31,1.29-.16,2-.19,2-.08s-.66.36-1.92.7c-.64.17-1.41.37-2.31.58a19.21,19.21,0,0,0-2.92.82,3,3,0,0,0-1.75,2.51c-.2,1.22-.2,2.74-.31,4.27l-.29,4.83-.16,2.55a11.13,11.13,0,0,0,0,2.43,1.63,1.63,0,0,0,.34.81,1.11,1.11,0,0,0,.61.39.57.57,0,0,0,.5-.17,2.57,2.57,0,0,0,.51-.8A25.67,25.67,0,0,0,42,366.11a27.45,27.45,0,0,0,.59-4.21c0-.67.05-1.31,0-1.94a5.09,5.09,0,0,1,.09-1.07,2.25,2.25,0,0,1,.54-1.05,4.34,4.34,0,0,1,1.59-1c.49-.2,1-.39,1.4-.55.89-.32,1.67-.55,2.31-.71C49.83,355.25,50.56,355.19,50.59,355.3Z" stroke="#000" stroke-miterlimit="10" stroke-width="0.5"/>
    </g>
    <g id="Primary_Foot_right-2" data-name="Primary_Foot right">
      <path d="M62.59,351.81l-9.19,4.7a22.72,22.72,0,0,0-1.25,4.95c-.25,1.87-.15,3-.27,7.09,0,1.44-.09,2.62-.13,3.4.17,2.46,1.15,4.17,2.21,4.29,1.31.14,2.5-2.17,2.73-2.64,1.12-2.17.86-4,.87-6.91a49.61,49.61,0,0,1,.58-7.24l5.36-2Z"/>
    </g>
    <g id="Leg_right-2" data-name="Leg right">
      <path d="M68,324.1a8.93,8.93,0,0,0,0,5.07c.55,2.5,1.58,3.46,2.9,6.14a28.23,28.23,0,0,1,2.26,6.57,25.37,25.37,0,0,0-14.88,5.64,6.62,6.62,0,0,1,2.46,1.38c3,2.72,2.27,7.32,2.19,7.79a139.4,139.4,0,0,0,14.34-3A11.83,11.83,0,0,0,82,351.31a6.51,6.51,0,0,0,1.45-1.55c1.32-2.14.37-4.72-.3-7.54-.63-2.6.28,0-1.11-9-1.33-8.69-2-13.05-3.51-13.85C75.44,317.62,69.46,320.16,68,324.1Z" fill="#fff"/>
      <path d="M73.34,341.29c-.43.15-1.66-2.31-3.06-5.36s-2.46-5.58-2.07-5.81,2.11,2,3.55,5.13S73.76,341.15,73.34,341.29Z" stroke="#000" stroke-miterlimit="10" stroke-width="0.5"/>
      <path d="M62.51,355.37c-.21-.07.09-1.08-.29-2.63A6.63,6.63,0,0,0,61,350.25a6,6,0,0,0-1.17-1.13l-.18-.12,0,0-.11-.07-.2-.1-.89-.38c-.67-.25-1.5-.51-2.15-.71a5.7,5.7,0,0,1,1-.58l1.25-.64,1.3-.65.79-.38c6.58-3.06,12.44-4,12.52-3.57s-5.43,2.07-11.83,5.05l-.92.43-.19.09c-.05,0-.18.06-.07.08a.65.65,0,0,1,.22.11l.11.08.29.22a6.91,6.91,0,0,1,1.37,1.52,6.63,6.63,0,0,1,1.09,3.12C63.35,354.47,62.64,355.44,62.51,355.37Z" stroke="#000" stroke-miterlimit="10" stroke-width="0.5"/>
      <path d="M83.48,349.74c-.47,0-.73-6-1.73-13.24s-2.3-13.09-1.85-13.22,2.48,5.6,3.47,13S83.91,349.76,83.48,349.74Z" stroke="#000" stroke-miterlimit="10" stroke-width="0.5"/>
      <path d="M82.75,350.62c.16.12-.4,1.2-2,2.28A16.73,16.73,0,0,1,74,355.25c-2.73.41-5.12.64-6.81,1s-2.71.75-2.83.54.77-1,2.5-1.65a33.29,33.29,0,0,1,6.88-1.53,23.9,23.9,0,0,0,6.46-1.74C81.75,351.19,82.57,350.45,82.75,350.62Z" stroke="#000" stroke-miterlimit="10" stroke-width="0.5"/>
      <path d="M51.71,373.2c-.45,0-.6-5.72-.34-12.73l.05-1.3c0-.45,0-.81.08-1.34a2.43,2.43,0,0,1,.29-.86,2.52,2.52,0,0,1,.56-.67,7.83,7.83,0,0,1,1.1-.7,19.8,19.8,0,0,1,3.8-1.66c2.26-.71,3.74-.73,3.78-.52s-1.32.65-3.36,1.59a29.19,29.19,0,0,0-3.45,1.88,7.68,7.68,0,0,0-.85.59.74.74,0,0,0-.28.57c0,.28,0,.77-.05,1.18l0,1.3C52.73,367.54,52.16,373.22,51.71,373.2Z" stroke="#000" stroke-miterlimit="10" stroke-width="0.5"/>
      <path d="M51.49,371.29c.21-.1,1,1.4,2.14,3.75a1.51,1.51,0,0,0,.46.56.51.51,0,0,0,.48,0,1.93,1.93,0,0,0,.62-.56,4.26,4.26,0,0,0,.5-1,16.12,16.12,0,0,0,1.16-5.3c.13-1.8.1-3.56.1-5.19,0-.82,0-1.61,0-2.36l.05-1.1a2.9,2.9,0,0,1,.09-.63,1.66,1.66,0,0,1,1-1.17,2.77,2.77,0,0,1,.6-.17l1-.19c.6-.12,1.13-.21,1.56-.27.86-.12,1.36-.13,1.39,0s-.4.35-1.22.67c-.4.17-.9.35-1.48.55s-1.45.41-1.54.66a5,5,0,0,0-.06,1.65l.1,2.33a45.3,45.3,0,0,1,0,5.35,15.81,15.81,0,0,1-1.42,5.8,3.91,3.91,0,0,1-2,2.18,1.76,1.76,0,0,1-1.68-.23,2.65,2.65,0,0,1-.78-1.1C51.69,373,51.29,371.39,51.49,371.29Z" stroke="#000" stroke-miterlimit="10" stroke-width="0.5"/>
    </g>
    <g id="Arm_left" data-name="Arm left">
      <path d="M78.15,258.48c-.26,0-1.38.14-2.73,4a28.48,28.48,0,0,0-1.33,12.08A16.25,16.25,0,0,1,72.35,281a18.47,18.47,0,0,1-5.8,6.44c-2.51,1.86-3.13,1.52-5.08,3.26-.51.45-4.57,4.05-3.71,6.07s6.77,1.71,10.52.59c1.55-.47,5.82-1.81,8.29-5.78a21.27,21.27,0,0,0,1.5-3.62c1.22-3.36,2.24-6.15,2.25-9.71a19.44,19.44,0,0,0-.74-5.37,34.74,34.74,0,0,0,1.11-4.38c.56-3,.94-5.28-.1-7.5C80.41,260.57,79.4,258.43,78.15,258.48Z" fill="#fff"/>
      <path d="M74,273.53c.18-.06.83,1.54.33,4.15a13.47,13.47,0,0,1-1.67,4.26,20.37,20.37,0,0,1-3.53,4.27,51.18,51.18,0,0,1-4.19,3.46c-1.32,1-2.52,1.88-3.54,2.6-2,1.43-3.38,2.24-3.52,2.06s.94-1.3,2.8-3c.93-.83,2.06-1.8,3.32-2.86s2.66-2.2,4-3.47a23.67,23.67,0,0,0,3.38-3.89,14.83,14.83,0,0,0,1.82-3.74C73.93,275.12,73.73,273.56,74,273.53Z" stroke="#000" stroke-miterlimit="10" stroke-width="0.5"/>
      <path d="M79.19,274.65c-.41.21-1.28-.58-2.6-.83s-2.42,0-2.7-.33c-.12-.18,0-.57.61-.92a3.33,3.33,0,0,1,2.44-.34A3.4,3.4,0,0,1,79,273.56C79.38,274.11,79.37,274.55,79.19,274.65Z" stroke="#000" stroke-miterlimit="10" stroke-width="0.5"/>
      <path d="M75.11,294.37c-.4-.24,1.69-4.38,3.19-9.81.38-1.36.7-2.67,1-3.86a17.62,17.62,0,0,0,.48-3.13c.11-1.77-.46-2.77-.26-2.91s.36.12.68.59a5.2,5.2,0,0,1,.74,2.28,13.73,13.73,0,0,1-.16,3.44,35,35,0,0,1-.87,4C78.29,290.68,75.47,294.61,75.11,294.37Z" stroke="#000" stroke-miterlimit="10" stroke-width="0.5"/>
      <path d="M76,266.69c0-.08,0-.18,0-.4s.1-.89.23-1.47a4.14,4.14,0,0,1,.5-1.45,1.76,1.76,0,0,1,.62-.55,1.32,1.32,0,0,1,1-.07,1.46,1.46,0,0,1,.87.81,2.14,2.14,0,0,1,.17.95,3.52,3.52,0,0,1-.13,1,6.53,6.53,0,0,0-.38,1.37c0,.23,0,.25,0,.36l0,.28.07.59a5.39,5.39,0,0,1-.07,2.37,2.19,2.19,0,0,1-1,1.38c-.39.19-.64.12-.66,0s.53-.58.56-1.63a6.45,6.45,0,0,0-.28-1.88,5.74,5.74,0,0,1-.13-.65l0-.35,0-.29a.65.65,0,0,1,0-.31.67.67,0,0,0,0-.7A.3.3,0,0,0,77,266c-.1.06-.12.17-.2.29a1,1,0,0,1-.36.33C76.24,266.74,76.07,266.76,76,266.69Z" stroke="#000" stroke-miterlimit="10" stroke-width="0.5"/>
      <path d="M79.26,257.35c.33.36-2.16,2.88-3.7,6.81s-1.56,7.44-2,7.47c-.21,0-.51-.87-.55-2.37a15,15,0,0,1,4.25-10.58C78.29,257.63,79.12,257.19,79.26,257.35Z" stroke="#000" stroke-miterlimit="10" stroke-width="0.5"/>
      <path d="M79,266.71c-.45-.06-.56-2-.24-4.39s.93-4.24,1.37-4.18.56,2,.24,4.39S79.47,266.76,79,266.71Z" stroke="#000" stroke-miterlimit="10" stroke-width="0.5"/>
      <path d="M79.52,273.19c-.38-.07-.23-2.48.86-5.45l1.3.87-1,.95-.12.11L79.25,271l0-1.86a10.34,10.34,0,0,1,1.05-4.79c.58-1.12,1.16-1.66,1.34-1.55.41.22-.87,2.87-.76,6.31l-1.38-.57.12-.11,1-.93,2.77-2.6-1.48,3.47C80.69,271.1,79.91,273.28,79.52,273.19Z" stroke="#000" stroke-miterlimit="10" stroke-width="0.5"/>
    </g>
    <g id="Torso-2" data-name="Torso">
      <path d="M57.63,295.94q.39,2.51,1,5.28c.56,2.39,1.21,4.59,1.89,6.59-.77,1.71-1.34,3.16-1.73,4.22a26.76,26.76,0,0,0-1.74,6,19.33,19.33,0,0,0-.15,3.77,7.21,7.21,0,0,0,1.58,1.75c1.33,1,3,1.5,6.5,1.5,4,0,7.29,0,11.27-1.72a22,22,0,0,0,5.3-3.25c-.25-1.25-.46-2.56-.63-3.91a61.77,61.77,0,0,1,1-20.85,20.93,20.93,0,0,0-8.07-3.22C65.69,290.69,59.28,294.81,57.63,295.94Z" fill="#fff"/>
      <path d="M81.87,295.37c-.15.21-1.4-.52-3.54-1.31A23.33,23.33,0,0,0,74.5,293a25.24,25.24,0,0,0-4.82-.39,26,26,0,0,0-4.8.61,23.47,23.47,0,0,0-3.77,1.24c-2.1.89-3.31,1.68-3.47,1.48s.86-1.29,3-2.51a18,18,0,0,1,3.91-1.66,21.38,21.38,0,0,1,5.14-.79,21.61,21.61,0,0,1,5.18.55,18.39,18.39,0,0,1,4,1.47C80.94,294.12,82,295.22,81.87,295.37Z" stroke="#000" stroke-miterlimit="10" stroke-width="0.5"/>
      <path d="M56.62,321.14c-.21,0-.33-1.5,0-3.86a28.08,28.08,0,0,1,1-4.08,31.39,31.39,0,0,1,1.93-4.73,1.84,1.84,0,0,0,.22-.89,5,5,0,0,0-.26-1.05l-.69-2.33c-.44-1.49-.81-2.83-1.09-4-.58-2.27-.83-3.72-.61-3.78s.85,1.24,1.7,3.43c.43,1.09.91,2.4,1.43,3.86L61,306a5.44,5.44,0,0,1,.35,1.43,3.31,3.31,0,0,1-.34,1.67C57.74,315.45,57.11,321.19,56.62,321.14Z" stroke="#000" stroke-miterlimit="10" stroke-width="0.5"/>
      <path d="M79.85,320.82c.15.11-.64,1.46-2.75,2.74a14.9,14.9,0,0,1-3.94,1.58,26.64,26.64,0,0,1-5.1.68,40,40,0,0,1-5.09-.13,9.45,9.45,0,0,1-4.14-1.29,5.18,5.18,0,0,1-2-2.17c-.3-.64-.27-1-.18-1.07s.77,1.32,2.74,2.24a9.75,9.75,0,0,0,3.7.8c1.47.06,3.18,0,4.91,0a33.09,33.09,0,0,0,4.83-.52,17.66,17.66,0,0,0,3.74-1.14C78.61,321.63,79.66,320.63,79.85,320.82Z" stroke="#000" stroke-miterlimit="10" stroke-width="0.5"/>
      <path d="M81.57,320.05c-.4.11-2-5.39-1.9-12.4s1.89-12.46,2.29-12.34-.58,5.57-.66,12.36S82.05,320,81.57,320.05Z" stroke="#000" stroke-miterlimit="10" stroke-width="0.5"/>
    </g>
    <g id="Arm_right" data-name="Arm right">
      <path d="M77,294.28c.67-.6,1.09-.65,6.17-2.3l3.17-1.05a56.27,56.27,0,0,1,1.73-5.54,55.13,55.13,0,0,1,3.27-7.15c.36-3.22.91-6.85,1.62-6.85s.78,2.56,1.6,2.65c.61.07,1.64-1.19,3.46-7.66a14,14,0,0,1,1.19,5.5,14.27,14.27,0,0,1-.59,4.06,14,14,0,0,1-2.25,4.46,3.91,3.91,0,0,1,.86,1.77c.3,1.6-.68,2.91-1.41,4.09-.9,1.45.1.26-3.82,9.65-.9,2.16-1.19,2.81-2,3.49-1.37,1.2-2.3.81-5.06,1.73-4.07,1.34-4.92,3.15-7,2.62a4.36,4.36,0,0,1-2.54-1.93C74,299.49,75.06,296,77,294.28Z" fill="#fff"/>
      <path d="M86.88,290.86c.11.44-2.37,1.44-5.42,2.58s-5.58,2-5.79,1.61,2.06-2,5.22-3.13S86.78,290.43,86.88,290.86Z" stroke="#000" stroke-miterlimit="10" stroke-width="0.5"/>
      <path d="M91.64,278c.4.24-.94,3.06-2.37,6.59s-2.48,6.46-2.93,6.36-.09-3.32,1.42-7S91.27,277.74,91.64,278Z" stroke="#000" stroke-miterlimit="10" stroke-width="0.5"/>
      <path d="M97.53,281.9c.21.09-.23,1.78-1.13,4.44-.44,1.33-1,2.91-1.64,4.65-.32.87-.67,1.78-1,2.73s-.71,1.91-1.18,2.95a6.78,6.78,0,0,1-2.16,2.75,15.73,15.73,0,0,1-2.75,1.35c-1.72.71-3.27,1.33-4.58,1.84-2.63,1-4.3,1.52-4.39,1.31s1.42-1.1,3.92-2.37c1.25-.63,2.76-1.37,4.44-2.16a15.87,15.87,0,0,0,2.43-1.27A5.3,5.3,0,0,0,91.08,296c.42-.9.79-1.91,1.17-2.84l1.11-2.69c.72-1.71,1.39-3.24,2-4.52C96.5,283.36,97.32,281.82,97.53,281.9Z" stroke="#000" stroke-miterlimit="10" stroke-width="0.5"/>
      <path d="M97.23,282.17c-.45.08-1.12-1.37-2.67-2.37s-3.12-1.11-3.21-1.56c0-.21.38-.52,1.17-.6a4.84,4.84,0,0,1,4.81,3.21C97.56,281.61,97.44,282.12,97.23,282.17Z" stroke="#000" stroke-miterlimit="10" stroke-width="0.5"/>
      <path d="M94.89,275.58c-.21,0-.43-.47-.79-1.17l-.3-.57a3,3,0,0,0-.3-.46l-.33-.29a.31.31,0,0,0,0,.1l-.11.22a1.55,1.55,0,0,0-.12.41,8.2,8.2,0,0,0-.17,1.46c0,.86,0,1.45-.18,1.54s-.67-.38-1-1.38a5.11,5.11,0,0,1-.18-1.82,5.83,5.83,0,0,1,.31-1.45,9.14,9.14,0,0,1,.7-1.48c.12-.21.26-.46.39-.67a11.12,11.12,0,0,1,1.8,2.36,4.61,4.61,0,0,1,.4,1,4.42,4.42,0,0,1,.15.74C95.28,275,95.1,275.56,94.89,275.58Z" stroke="#000" stroke-miterlimit="10" stroke-width="0.5"/>
      <path d="M97.67,265.24c.44,0,.53,2.41-.46,5.09s-2.57,4.44-2.93,4.19.5-2.26,1.4-4.75S97.21,265.18,97.67,265.24Z" stroke="#000" stroke-miterlimit="10" stroke-width="0.5"/>
      <path d="M96.85,273.68c-.39-.26.46-2.16.83-4.61s.19-4.52.64-4.64c.21-.06.56.43.81,1.32a8.9,8.9,0,0,1-1.1,6.92C97.51,273.44,97,273.79,96.85,273.68Z" stroke="#000" stroke-miterlimit="10" stroke-width="0.5"/>
      <path d="M97.61,275.78c-.39-.25.35-2.08.89-4.39s.74-4.26,1.2-4.3,1,2.09.38,4.69S98,276,97.61,275.78Z" stroke="#000" stroke-miterlimit="10" stroke-width="0.5"/>
      <path d="M95.5,281.59c-.19-.14.15-.92.81-2.09s1.62-2.71,2.43-4.49c1.65-3.56,1.89-6.85,2.36-6.85.22,0,.44.85.4,2.25a14,14,0,0,1-1.28,5.28,18.62,18.62,0,0,1-3,4.48C96.34,281.18,95.68,281.72,95.5,281.59Z" stroke="#000" stroke-miterlimit="10" stroke-width="0.5"/>
    </g>
    <g id="Layer_Hair">
      <path d="M61.11,277.1a8.94,8.94,0,0,0-1.26,3.36,11.17,11.17,0,0,0,.66,5.06,17.32,17.32,0,0,1-.95,10.87c-1.47,3.23-3.4,3.8-3.48,6.63a11.44,11.44,0,0,0,.93,3.83,32.3,32.3,0,0,0,3.24,6.59c1.25,2,1.87,3,2.53,3.45,2.88,2,6.93.48,8.28,0A12.39,12.39,0,0,0,77,312.61c2.82-3.85,2.33-8.31,2-11a28.24,28.24,0,0,0-2.43-8.25c-2-4.82-3.29-5-3.48-7.91-.17-2.6.75-4.11-.38-6.42a6,6,0,0,0-2.14-2.48c-1.71-1.11-3.56-.91-5.15-.74A12.82,12.82,0,0,0,61.11,277.1Z"/>
    </g>
    <g id="Head-2" data-name="Head">
      <path d="M72.94,279.83c.66-.27,2,1.35,2.6,2.61a6.16,6.16,0,0,1,.44,3.72c-.15,1.09-.7,3.36-1.38,3.36C73.26,289.51,71.54,280.4,72.94,279.83Z" fill="#fff"/>
      <path d="M62.18,315.12c0,.08-.65-.14-1.53-.84a11.35,11.35,0,0,1-3-3.69,13.77,13.77,0,0,1-1.57-6.95,12.57,12.57,0,0,1,.87-4.2,23.86,23.86,0,0,1,2.21-3.9,12.81,12.81,0,0,0,1-1.82,4.66,4.66,0,0,0,.29-.92,4.32,4.32,0,0,0,.17-.94,12.66,12.66,0,0,0-.24-3.79,34.16,34.16,0,0,1-1.06-6.88,9,9,0,0,1,.47-2.75,2.81,2.81,0,0,1,1.43-1.73,1.53,1.53,0,0,1,1.43.14c.27.21.29.4.25.42s-.16-.06-.4-.13a1.29,1.29,0,0,0-1,.15c-.76.43-1.11,2.06-1,3.88a41.63,41.63,0,0,0,1.38,6.6,13.63,13.63,0,0,1,.35,4.26,8.8,8.8,0,0,1-.54,2.29,13.23,13.23,0,0,1-1.09,2.08A26.14,26.14,0,0,0,58.4,300a12.25,12.25,0,0,0-.84,3.68,13.52,13.52,0,0,0,1.11,6.37,13.79,13.79,0,0,0,2.41,3.73C61.79,314.62,62.26,315,62.18,315.12Z" stroke="#000" stroke-miterlimit="10" stroke-width="0.5"/>
      <path d="M60.92,316.25a15.15,15.15,0,0,1,2.48.47,16.13,16.13,0,0,0,6.65-.18,11.26,11.26,0,0,0,4.06-1.9,8.94,8.94,0,0,0,3-4,21,21,0,0,0,.59-11.87,23,23,0,0,0-2.28-5.83,33.84,33.84,0,0,1-2.65-5.58,10.54,10.54,0,0,1-.52-3c0-1,.11-1.88.15-2.7a5.61,5.61,0,0,0-.22-2.21,4.76,4.76,0,0,0-1.05-1.71A5.6,5.6,0,0,0,68,276.13a7.25,7.25,0,0,0-2.79.09c-1.54.36-2.32.86-2.38.74s.6-.76,2.2-1.35a7.5,7.5,0,0,1,3.09-.39A6.41,6.41,0,0,1,71.94,277a5.7,5.7,0,0,1,1.42,2.09,6.87,6.87,0,0,1,.39,2.69c0,.89-.11,1.77-.07,2.6a9,9,0,0,0,.52,2.55,34.52,34.52,0,0,0,2.62,5.29,23.84,23.84,0,0,1,2.47,6.21,22.83,22.83,0,0,1,.55,6.69,19.67,19.67,0,0,1-1.33,6.13,10.3,10.3,0,0,1-3.61,4.53,12,12,0,0,1-4.6,1.92,14.77,14.77,0,0,1-7-.32C61.66,316.85,60.88,316.34,60.92,316.25Z" stroke="#000" stroke-miterlimit="10" stroke-width="0.5"/>
      <path d="M75.49,287.8c-.41-.2.26-2.26-.55-4.63s-2.45-3.69-2.23-4.09c.09-.19.73-.11,1.56.46a6.36,6.36,0,0,1,2.23,7C76.15,287.47,75.68,287.9,75.49,287.8Z" stroke="#000" stroke-miterlimit="10" stroke-width="0.5"/>
    </g>
  </g>
  <g id="Layer_Character1">
    <g id="Arm_right-2" data-name="Arm right">
      <path d="M305,36a27,27,0,0,0-2,6.68c-.2,1.29-.27,2.83-.42,5.91-.22,4.5-.09,5-.4,6.78a41.63,41.63,0,0,1-1.52,5.25,28,28,0,0,0-.94,8.91,43,43,0,0,0,1,6.34,22.1,22.1,0,0,0,1.86,5.42c.89,1.67,2.26,4.24,4,4.18.77,0,1.43-.59,2.74-1.74a6.46,6.46,0,0,0,1.88-2.11c.63-1.42,0-2.79-.52-4.51a28.33,28.33,0,0,1-1.17-6.78c.19-1.25.45-3,.73-5.15.49-3.64.72-5.85,1.39-12.17.77-7.33,1.13-11,.22-12.59C310.2,37.64,307.1,36.49,305,36Z" fill="#fff"/>
      <path d="M299.31,67.9c-.09,0-.31-.43-.43-1.32a10.72,10.72,0,0,1,.37-3.74c.37-1.53,1-3.25,1.59-5.14a25,25,0,0,0,.84-6.31c.07-2.31.05-4.56.27-6.63a18.61,18.61,0,0,1,1.3-5.39,9.94,9.94,0,0,1,2-3.16c.63-.63,1.07-.86,1.14-.79s-1.22,1.52-2.1,4.35a21.76,21.76,0,0,0-.89,5.12c-.13,2-.06,4.18-.13,6.55a23.05,23.05,0,0,1-1,6.7c-.67,2-1.44,3.62-1.93,5a15,15,0,0,0-.83,3.4C299.43,67.4,299.44,67.88,299.31,67.9Z" stroke="#000" stroke-miterlimit="10" stroke-width="0.5"/>
      <path d="M309.48,70.67c-.22-.12.28-1.28.47-3.24a60.83,60.83,0,0,0-.16-7.87,18.47,18.47,0,0,1,.42-4.56,10.4,10.4,0,0,1,1.47-3.51,5.87,5.87,0,0,1,1.85-1.8c.53-.31.87-.37.92-.28s-.93.94-1.78,2.66a16.29,16.29,0,0,0-1.25,7.44c.12,3.07.22,6-.34,8.12S309.64,70.78,309.48,70.67Z" stroke="#000" stroke-miterlimit="10" stroke-width="0.5"/>
      <path d="M309.69,70.77c.09.2-.33.63-1.18,1.09a7,7,0,0,1-3.74.82,4.8,4.8,0,0,1-3.53-1.84c-.62-.87-.57-1.58-.37-1.63s.56.38,1.2.84a5.69,5.69,0,0,0,2.83,1,13,13,0,0,0,3.23-.29C309,70.62,309.6,70.56,309.69,70.77Z" stroke="#000" stroke-miterlimit="10" stroke-width="0.5"/>
      <path d="M304.23,77.36c.14-.19.83.33,1.08.4s.24.16.4,0,0-.23,0-.32l0-.26,0-.12a.2.2,0,0,0,0-.09l-.05-.21c-.08-.29-.17-.56-.26-.81a11.14,11.14,0,0,0-.63-1.33c-.4-.75-.74-1.22-.6-1.41s.76,0,1.5.69a5.94,5.94,0,0,1,1.09,1.41,6.59,6.59,0,0,1,.42,1l.09.27a3.19,3.19,0,0,1,.09.41,5.25,5.25,0,0,1,.14.87,7.85,7.85,0,0,1,0,.83,3,3,0,0,1-.12.66,1.13,1.13,0,0,1-.67.76,1.05,1.05,0,0,1-.92-.17,3.4,3.4,0,0,1-.71-.71C304.13,77.91,304.09,77.54,304.23,77.36Z" stroke="#000" stroke-miterlimit="10" stroke-width="0.5"/>
      <path d="M307.51,85.64c0,.09-.29.21-.82.17a4.28,4.28,0,0,1-2.08-.79c-1.61-1.06-3-3.36-3.82-5.91-1.79-5.14-1.53-9.61-1.1-9.6s.93,4.2,2.64,9.07a13.83,13.83,0,0,0,3,5.54C306.45,85.23,307.53,85.38,307.51,85.64Z" stroke="#000" stroke-miterlimit="10" stroke-width="0.5"/>
      <path d="M307.56,85.51c-.42.17-1.16-.63-1.66-1.8s-.56-2.25-.15-2.43,1.16.63,1.65,1.79S308,85.33,307.56,85.51Z" stroke="#000" stroke-miterlimit="10" stroke-width="0.5"/>
      <path d="M309.28,83.69c-.46,0-.6-2.3-1.13-5s-1.18-4.84-.77-5,1.83,1.8,2.38,4.73S309.71,83.75,309.28,83.69Z" stroke="#000" stroke-miterlimit="10" stroke-width="0.5"/>
      <path d="M311.16,81.58c-.46,0-.67-1.86-1.07-4s-.82-3.94-.4-4.14,1.58,1.45,2,3.85S311.6,81.63,311.16,81.58Z" stroke="#000" stroke-miterlimit="10" stroke-width="0.5"/>
    </g>
    <g id="Torso-3" data-name="Torso">
      <path d="M306.44,35.41,309.53,40A44.94,44.94,0,0,1,308,47.55a12.07,12.07,0,0,0-.68,3.34,11.76,11.76,0,0,0,1.14,5.19,14.4,14.4,0,0,0,2.13,3.44c-.17,2.32-.33,4.64-.5,6.95a26.29,26.29,0,0,0,6.13,3.39,27.4,27.4,0,0,0,11.23,1.75,30.88,30.88,0,0,0,8.2-1.44,12.78,12.78,0,0,0,1.19-8,12.05,12.05,0,0,0-1.31-3.62C336.7,55,337.47,52,338,49.85a29.7,29.7,0,0,0,1-6.2,18.4,18.4,0,0,0-2-8.54,96.17,96.17,0,0,0-30.55.3Z" fill="#fff"/>
      <path d="M337,35.11c-.08.23-1.82-.25-4.69-.33s-6.93.15-11.38.19c-2.22,0-4.34.05-6.28,0s-3.66,0-5.08.12c-2.85.22-4.45,1-4.57.83s1.41-1.43,4.41-2a33.41,33.41,0,0,1,5.19-.48c1.94-.08,4.07-.13,6.31-.17a86.12,86.12,0,0,1,11.5.29C335.37,34,337.06,34.92,337,35.11Z" stroke="#000" stroke-miterlimit="10" stroke-width="0.5"/>
      <path d="M313.34,62.74c-.18.14-1.22-.91-2.76-2.7a32,32,0,0,1-2.6-3.33,9,9,0,0,1-1.48-5.22,14.89,14.89,0,0,1,1.16-5.19c.61-1.51,1.36-2.7,1.63-3.72a3.66,3.66,0,0,0-.05-2.42c-.22-.55-.5-.8-.43-.9s.49,0,1,.57a3.8,3.8,0,0,1,.64,3,26.29,26.29,0,0,1-1.35,4,15.33,15.33,0,0,0-.94,4.69c-.19,3.37,2.12,5.81,3.37,7.83S313.52,62.61,313.34,62.74Z" stroke="#000" stroke-miterlimit="10" stroke-width="0.5"/>
      <path d="M335.26,59.64c-.44-.11.6-5.18,2.28-11.28a20.41,20.41,0,0,0,.74-4.21,17.1,17.1,0,0,0-.18-3.48c-.3-2-.75-3.2-.53-3.3s1,1,1.66,3a13.59,13.59,0,0,1,.55,3.77,16.84,16.84,0,0,1-.67,4.6C337.42,54.92,335.69,59.76,335.26,59.64Z" stroke="#000" stroke-miterlimit="10" stroke-width="0.5"/>
      <path d="M336.92,67.89c-.45,0-.84-1.91-.86-4.23,0-.56,0-1.18,0-1.6A4.88,4.88,0,0,0,336,61a1.33,1.33,0,0,0-.27-.56c-.12-.13-.24-.21-.25-.32s.12-.26.42-.29a1.35,1.35,0,0,1,1.09.58,3.36,3.36,0,0,1,.64,1.5,13.78,13.78,0,0,1,.1,1.71C337.71,66,337.37,67.91,336.92,67.89Z" stroke="#000" stroke-miterlimit="10" stroke-width="0.5"/>
      <path d="M335.66,70.17c.07.18-1.5,1.08-4.34,1.67a27.81,27.81,0,0,1-11.2-.12,34.1,34.1,0,0,1-5.92-1.79c-1.72-.68-3.46-1.49-4.39-2.87a3.36,3.36,0,0,1-.17-3.65c.53-.77,1.1-.8,1.12-.72s-.33.36-.55,1a2.8,2.8,0,0,0,.53,2.67,9,9,0,0,0,4,2.16,45.88,45.88,0,0,0,5.71,1.6,35.14,35.14,0,0,0,10.7.57C333.89,70.43,335.57,69.93,335.66,70.17Z" stroke="#000" stroke-miterlimit="10" stroke-width="0.5"/>
    </g>
    <g id="Arm_left-2" data-name="Arm left">
      <path d="M327.6,41.58a8.87,8.87,0,0,1,2.33-3.34,9.82,9.82,0,0,1,7.78-2.09,19.43,19.43,0,0,1,2.59,6.21,22.88,22.88,0,0,1,.19,7.63c-.29,3.36.15.93,0,13.06-.07,4.65-.21,10.49-.52,17.3a29.35,29.35,0,0,1,4.87,0,27.06,27.06,0,0,1,7.08,1.48c2.79,1,4.57,1.62,4.68,2.73.15,1.46-2.68,3.33-5.42,3.72-2.32.34-3.48-.54-6.76-1.23a28.68,28.68,0,0,0-7.61-.52c.27,1,.51,2.21,0,2.5-.75.47-3.18-1.61-4.57-3.87a13.6,13.6,0,0,1-1.74-7.72c.23-12.88-.59-5.91,0-16,.47-8.68,1-12.51-1.31-17.16A18.47,18.47,0,0,0,327.6,41.58Z" fill="#fff"/>
      <path d="M340,80.32c-.23,0-.29-2.83-.29-7.38s0-10.82,0-17.76c0-3.46,0-6.77,0-9.77a39.42,39.42,0,0,0-.15-4.19,9.05,9.05,0,0,0-1-3.31A5.08,5.08,0,0,0,336.59,36a4.49,4.49,0,0,0-2-.61c-1.18,0-1.79.42-1.86.3s.43-.76,1.84-.93a4.77,4.77,0,0,1,2.45.43,5.79,5.79,0,0,1,2.52,2.16A9.76,9.76,0,0,1,340.84,41a33.83,33.83,0,0,1,.32,4.35c.1,3,.17,6.32.18,9.8,0,7-.22,13.25-.51,17.8S340.18,80.33,340,80.32Z" stroke="#000" stroke-miterlimit="10" stroke-width="0.5"/>
      <path d="M330.5,78.75c-.46,0-.58-8.48-.75-18.91,0-2.61-.07-5.09-.1-7.36a57.81,57.81,0,0,0-.2-5.92,9.85,9.85,0,0,0-1.11-3.68c-.45-.79-.81-1.19-.73-1.28s.58.15,1.25.92a8.49,8.49,0,0,1,1.72,3.85,40.46,40.46,0,0,1,.57,6.07c.11,2.26.19,4.76.23,7.37C331.55,70.28,330.94,78.76,330.5,78.75Z" stroke="#000" stroke-miterlimit="10" stroke-width="0.5"/>
      <path d="M337.82,79.59c.09.2-.24.6-.92,1a6.41,6.41,0,0,1-3.1,1.08,4.23,4.23,0,0,1-3.27-1.18c-.64-.7-.64-1.34-.45-1.41s.57.22,1.16.5a5.17,5.17,0,0,0,2.46.46,17.85,17.85,0,0,0,2.75-.51C337.2,79.41,337.72,79.38,337.82,79.59Z" stroke="#000" stroke-miterlimit="10" stroke-width="0.5"/>
      <path d="M336.81,86.5c.05-.08.33-.08.65.25a1.91,1.91,0,0,1,.38,1.85,2,2,0,0,1-1,1.16,2.54,2.54,0,0,1-1.63.23,3.19,3.19,0,0,1-1.56-.77,5.1,5.1,0,0,1-1-1.34c-1.83-3.69-2.43-6.86-2-7s1.75,2.81,3.45,6.22a2.67,2.67,0,0,0,1.48,1.43,1,1,0,0,0,1.21-.34,1.59,1.59,0,0,0,.15-1.1C336.86,86.78,336.74,86.6,336.81,86.5Z" stroke="#000" stroke-miterlimit="10" stroke-width="0.5"/>
      <path d="M356.59,84.52c-.16.19-1-.32-2.36-1a25.87,25.87,0,0,0-5.58-1.86c-2.27-.49-4.38-.71-5.92-.91s-2.52-.36-2.52-.59,1-.46,2.55-.56a23.23,23.23,0,0,1,6.23.47,18.6,18.6,0,0,1,3.33,1.05,13.8,13.8,0,0,1,2.49,1.41C356.14,83.53,356.72,84.37,356.59,84.52Z" stroke="#000" stroke-miterlimit="10" stroke-width="0.5"/>
      <path d="M351.16,88.25c-.13.45-3.33-.13-7.27-.46s-7.2-.34-7.25-.81,3.26-1.19,7.39-.82S351.3,87.84,351.16,88.25Z" stroke="#000" stroke-miterlimit="10" stroke-width="0.5"/>
      <path d="M352,86.62c-.22.41-2.46-.44-5.29-.94s-5.21-.53-5.28-1,2.45-1.19,5.57-.61S352.25,86.25,352,86.62Z" stroke="#000" stroke-miterlimit="10" stroke-width="0.5"/>
      <path d="M354.48,86.87c-.31.35-2-.71-4.23-1.79s-4.07-1.83-4-2.29,2.3-.37,4.71.83S354.78,86.55,354.48,86.87Z" stroke="#000" stroke-miterlimit="10" stroke-width="0.5"/>
    </g>
    <g id="PRIMARY_LEGS">
      <path d="M302.26,103.49c1.29,2.55,2.58,5.11,3.88,7.66a27.84,27.84,0,0,0-11.62,4.73,27.33,27.33,0,0,0-5.85,5.6,10.53,10.53,0,0,0,4.49.24c2-.33,2.85-1.09,5.64-2.48,2-1,6.22-3.12,6.83-2.34s-3.28,4.29-2.57,5.26c.2.27.85.49,4.46-1a60.41,60.41,0,0,0,8.64-4.36c1.74-1,4.33-2.49,7.62-4.17-.16-1-.36-2-.58-3a63.17,63.17,0,0,0-2.59-8.71,14.68,14.68,0,0,1-5.42,2.75c-2.26.6-4.4.47-8.58.19C304.79,103.78,303.28,103.62,302.26,103.49Z"/>
    </g>
    <g id="legs">
      <path d="M328.94,72.6A16.25,16.25,0,0,0,324.6,66a14.68,14.68,0,0,0-8.06-4,14.25,14.25,0,0,0-7,.85,8.6,8.6,0,0,0-3.6-2.51c-4.92-1.71-10.59,2-13.45,5.65-2.38,3-2.92,6.14-3.63,10.26a39.37,39.37,0,0,0-.15,11.43A34.74,34.74,0,0,0,291,98.06a31,31,0,0,0,2.82,5.4,10.31,10.31,0,0,0,3.78,1.12,10.63,10.63,0,0,0,6.09-1.32,21.41,21.41,0,0,0,4.67.72,23.51,23.51,0,0,0,14.2-4.38c-.28-2.22-.57-4.44-.85-6.66a14.88,14.88,0,0,0,5-.13,15.55,15.55,0,0,0,7.7-4Q331.66,80.69,328.94,72.6Z" fill="#fff"/>
      <path d="M329,73.65a19.26,19.26,0,0,1-1.11-2.46,15.79,15.79,0,0,0-4.49-5.53,13.82,13.82,0,0,0-9.78-2.94A14.66,14.66,0,0,0,303,69a15.63,15.63,0,0,0-2.34,6.14,37,37,0,0,0-.44,6.32c0,4.11.19,7.81.53,10.89.64,6.17,2.06,9.8,1.81,9.89a7.64,7.64,0,0,1-1.18-2.48,39.56,39.56,0,0,1-1.77-7.26,87.78,87.78,0,0,1-.89-11,35,35,0,0,1,.37-6.61,17,17,0,0,1,2.55-6.78,15.9,15.9,0,0,1,11.84-6.87,15.17,15.17,0,0,1,3.17.09,14.4,14.4,0,0,1,2.89.76,15.17,15.17,0,0,1,4.57,2.69,14.66,14.66,0,0,1,4.35,6.17A5.75,5.75,0,0,1,329,73.65Z" stroke="#000" stroke-miterlimit="10" stroke-width="0.5"/>
      <path d="M308.71,61.61c-.08.12-.76-.31-2.1-.71a11,11,0,0,0-5.78.05,13.8,13.8,0,0,0-7.08,4.66,21.29,21.29,0,0,0-3.92,9.82,55,55,0,0,0-.45,10.89,44.44,44.44,0,0,0,1.26,8.81c1.26,4.93,3.08,7.61,2.84,7.75-.08.05-.65-.53-1.42-1.78a25.78,25.78,0,0,1-2.53-5.65,40.05,40.05,0,0,1-1.65-9,50.68,50.68,0,0,1,.34-11.24,21.83,21.83,0,0,1,4.36-10.5,14.43,14.43,0,0,1,8-4.84,10.51,10.51,0,0,1,6.26.47C308.19,60.93,308.76,61.55,308.71,61.61Z" stroke="#000" stroke-miterlimit="10" stroke-width="0.5"/>
      <path d="M321.18,100.62c.11.18-.73,1-2.38,1.9a19.38,19.38,0,0,1-7,2.14,19,19,0,0,1-7.3-.56,3.72,3.72,0,0,1-2-1.23c-.35-.5-.3-.86-.2-.88s.27.2.65.43a4.48,4.48,0,0,0,1.83.56,29.6,29.6,0,0,0,6.87.06C317,102.48,320.93,100.21,321.18,100.62Z" stroke="#000" stroke-miterlimit="10" stroke-width="0.5"/>
      <path d="M322.57,99.59c-.44.07-1.5-4.4-2.12-10s-.57-10.2-.12-10.23,1.12,4.48,1.74,10.05S323,99.52,322.57,99.59Z" stroke="#000" stroke-miterlimit="10" stroke-width="0.5"/>
      <path d="M334.39,89.12c.16.14-.18.87-1.1,1.75A10.13,10.13,0,0,1,329,93.24a10.24,10.24,0,0,1-4.93.11c-1.24-.31-1.9-.78-1.83-1,.14-.46,3,.21,6.34-.72S334.05,88.8,334.39,89.12Z" stroke="#000" stroke-miterlimit="10" stroke-width="0.5"/>
      <path d="M316.93,112.17c-.41.19-1.61-1.51-2.69-3.81s-1.63-4.31-1.22-4.5,1.61,1.51,2.69,3.81S317.34,112,316.93,112.17Z" stroke="#000" stroke-miterlimit="10" stroke-width="0.5"/>
      <path d="M323.76,112.69c.23.38-7.56,5.33-17.82,10.19a5.2,5.2,0,0,1-1.56.51,2.35,2.35,0,0,1-1.09-.09,1.78,1.78,0,0,1-.91-.7,1.88,1.88,0,0,1-.18-1.55,3.35,3.35,0,0,1,.57-1.07c.23-.3.45-.51.65-.74s.42-.44.64-.65a27.87,27.87,0,0,1,7.47-5.27c2.94-1.39,4.91-1.68,5-1.52s-1.74.89-4.44,2.47a32.29,32.29,0,0,0-4.49,3.17,30.76,30.76,0,0,0-2.39,2.24c-.2.2-.39.41-.58.63a6.79,6.79,0,0,0-.54.62,2.35,2.35,0,0,0-.3.54.29.29,0,0,0,0,.22.24.24,0,0,0,.13.09.67.67,0,0,0,.26,0,3.51,3.51,0,0,0,1.08-.38C315.43,116.58,323.53,112.29,323.76,112.69Z" stroke="#000" stroke-miterlimit="10" stroke-width="0.5"/>
      <path d="M323.43,112.29c-.08-.08-.05-.26-.1-.49a5.34,5.34,0,0,0-.41-1.06,33.28,33.28,0,0,1-1.47-4.09c-1-3.24-1.39-6-1-6.1s1.56,2.4,2.52,5.64a32.71,32.71,0,0,1,1,4.22,2.63,2.63,0,0,1-.07,1.52C323.76,112.31,323.5,112.37,323.43,112.29Z" stroke="#000" stroke-miterlimit="10" stroke-width="0.5"/>
      <path d="M304.68,102.61c.14.16-.24.76-1.15,1.4a8.74,8.74,0,0,1-8.33.66c-1-.5-1.47-1-1.36-1.21.23-.41,2.54.59,5.48.32S304.39,102.24,304.68,102.61Z" stroke="#000" stroke-miterlimit="10" stroke-width="0.5"/>
      <path d="M308.84,116.24c0,.11-.66.35-1.89.7s-3,.81-5.12,1.62a25.54,25.54,0,0,0-3.3,1.57,29.52,29.52,0,0,1-3.94,2,11,11,0,0,1-2.42.61,7.09,7.09,0,0,1-3.12-.22c-.31-.11-.62-.22-.92-.35l-.48-.18-.11,0-.06,0s0,0,0,0l.15-.2c.4-.55.76-1.1,1.21-1.67l.55-.62c.14-.16.28-.33.44-.49.32-.31.62-.64.95-1a27.56,27.56,0,0,1,7.73-5.21,26.64,26.64,0,0,1,3.9-1.4c.63-.18,1.25-.32,1.86-.44l.26,0,.18,0,.37,0-.49-.85c-.3-.53-.57-1-.8-1.52a21.31,21.31,0,0,1-1.05-2.53c-.49-1.43-.61-2.27-.5-2.3s.46.72,1.13,2c.33.66.75,1.46,1.28,2.34.26.45.56.91.88,1.4l.71,1,.92,1.26-1.31.26-.68.13-.62.14c-.57.14-1.15.31-1.74.49a29.23,29.23,0,0,0-3.66,1.45,27.73,27.73,0,0,0-7.24,5c-.31.29-.6.6-.89.89l-.74.81-.2.23c-.07.05,0,.06.07.08l.14.05a6.44,6.44,0,0,0,1.67,0,9.91,9.91,0,0,0,2.09-.48,34.3,34.3,0,0,0,3.83-1.74,23.73,23.73,0,0,1,3.54-1.46,31.3,31.3,0,0,1,5.37-1.15C308.1,116.16,308.82,116.13,308.84,116.24Z" stroke="#000" stroke-miterlimit="10" stroke-width="0.5"/>
    </g>
    <g id="PRIMARY_hair-2" data-name="PRIMARY_hair">
      <path d="M305.59,25c-1.08-1-4.31-4.11-4.52-8.73-.12-2.61.75-4.63,1.78-6.91a14.48,14.48,0,0,1,4.46-6.28A9.65,9.65,0,0,1,312.14,1a9.72,9.72,0,0,1,7,2.22A13.84,13.84,0,0,1,322.85,3a14.65,14.65,0,0,1,7,2.66,16.43,16.43,0,0,1,5.8,6.57c.76,1.67.66,2.32,1.82,4.65a15.45,15.45,0,0,0,2.6,4.15c2.5,2.64,4.39,1.81,5.82,4.14a6.69,6.69,0,0,1,.67,4.95,6.42,6.42,0,0,1-1.49,2.56,10.47,10.47,0,0,1-6.81,3.7A10.15,10.15,0,0,1,329,31.56a92.61,92.61,0,0,1-9.07,5.25c-5.17,2.61-6.82,2.83-8.39,2.48a8.83,8.83,0,0,1-5.11-3.88C303.48,30.94,305.33,25.7,305.59,25Z"/>
    </g>
    <g id="Head-3" data-name="Head">
      <path d="M316.38,8.41a10.42,10.42,0,0,0-10,7.15,11.8,11.8,0,0,0-.52,5.86,15.3,15.3,0,0,0,2.59,6.39c1.19,1.92,2.23,3.6,4.34,4.69a7.47,7.47,0,0,0,3.54.9,7.61,7.61,0,0,0,4.56-1.64,5.72,5.72,0,0,0,3.38,2,5.91,5.91,0,0,0,4.82-1.5L326.23,28a11.27,11.27,0,0,0,1.45-3.1,11.42,11.42,0,0,0,.44-3.8,3.86,3.86,0,0,0,2.94-.32,4,4,0,0,0,1.83-2.57c.31-1.64-.51-3.58-1.75-4-1-.32-1.54.68-3.12,1-2.23.52-4.28-.76-6.55-2.18A19.15,19.15,0,0,1,316.38,8.41Z" fill="#fff"/>
      <path d="M315.47,33.55c0,.2-1.31.37-3.05-.6a14.62,14.62,0,0,1-5.1-5.4,16.8,16.8,0,0,1-2.23-7c-.16-1.9.13-3.05.33-3.05.48,0,.57,4.59,3.32,9.27A19,19,0,0,0,313.05,32C314.4,33.06,315.5,33.3,315.47,33.55Z" stroke="#000" stroke-miterlimit="10" stroke-width="0.5"/>
      <path d="M327.47,19c.08-.05.36.17.64.71a5.93,5.93,0,0,1,.65,2.49A8.63,8.63,0,0,1,328,26a10.6,10.6,0,0,1-2.78,3.75,17.35,17.35,0,0,1-3.81,2.51A19.9,19.9,0,0,1,318,33.61a5,5,0,0,1-2.59.09c-.61-.18-.86-.44-.82-.53s1.28.15,3.05-.65c.87-.38,1.95-1,3.09-1.59a20,20,0,0,0,3.44-2.4,9.74,9.74,0,0,0,3.44-6.32C327.78,20.32,327.24,19.15,327.47,19Z" stroke="#000" stroke-miterlimit="10" stroke-width="0.5"/>
      <path d="M328.65,13.14c0-.2.94-.35,2.28.25a5.06,5.06,0,0,1,2,1.67,4.55,4.55,0,0,1,.77,3.21,4,4,0,0,1-1.78,2.89,3.54,3.54,0,0,1-2.72.38,2.6,2.6,0,0,1-1.5-1c-.24-.36-.25-.61-.16-.66s.75.49,1.86.51a2.51,2.51,0,0,0,2.69-2.34,4,4,0,0,0-1.75-3.68C329.39,13.65,328.61,13.38,328.65,13.14Z" stroke="#000" stroke-miterlimit="10" stroke-width="0.5"/>
      <path d="M311.54,18.37c-.22.06-.48-.17-.84-.36a2.54,2.54,0,0,0-1.31-.35,2.44,2.44,0,0,0-1.25.53c-.33.24-.56.51-.79.48s-.41-.44-.19-1.09a2.45,2.45,0,0,1,4.41-.32C311.89,17.88,311.75,18.32,311.54,18.37Z" stroke="#000" stroke-miterlimit="10" stroke-width="0.5"/>
      <path d="M314.46,22.28c-.46-.06-.63-1.53-1.22-3.15s-1.34-2.89-1-3.22c.15-.15.59,0,1.11.44a5.69,5.69,0,0,1,1.72,4.89C314.93,21.92,314.67,22.3,314.46,22.28Z" stroke="#000" stroke-miterlimit="10" stroke-width="0.5"/>
      <path d="M316.66,26.26c-.27.36-1,.23-1.69-.27s-1-1.21-.7-1.57,1-.23,1.69.27S316.94,25.9,316.66,26.26Z" stroke="#000" stroke-miterlimit="10" stroke-width="0.5"/>
      <path d="M311.56,23.2c-.35.27-1.14-.18-1.6-1.09s-.34-1.81.09-1.93,1,.44,1.37,1.2S311.92,22.93,311.56,23.2Z" stroke="#000" stroke-miterlimit="10" stroke-width="0.5"/>
      <ellipse cx="319.22" cy="19.14" rx="0.82" ry="1.43" transform="translate(16.85 123.25) rotate(-22.43)" stroke="#000" stroke-miterlimit="10" stroke-width="0.5"/>
      <path d="M321.17,15.35c-.23,0-.46-.28-.85-.6a2.61,2.61,0,0,0-3.22-.38c-.44.23-.75.48-1,.39s-.27-.58.16-1.22a2.9,2.9,0,0,1,5,.59C321.57,14.85,321.38,15.33,321.17,15.35Z" stroke="#000" stroke-miterlimit="10" stroke-width="0.5"/>
      <path d="M320.35,26.84c.19.1.21.53-.09,1.09A3.75,3.75,0,0,1,316,29.59c-.59-.2-.87-.53-.8-.73.17-.43,1.36-.38,2.61-.9S319.93,26.64,320.35,26.84Z" stroke="#000" stroke-miterlimit="10" stroke-width="0.5"/>
      <path d="M316.37,8.41c0,.23-.8.57-2.13,1a16.29,16.29,0,0,0-4.72,2.25,7.73,7.73,0,0,0-2.64,4.18c-.38,1.32-.55,2.21-.79,2.2s-.45-.9-.34-2.4a7.81,7.81,0,0,1,.66-2.61,7,7,0,0,1,2.1-2.66A11.39,11.39,0,0,1,314,8.31C315.43,8.13,316.33,8.2,316.37,8.41Z" stroke="#000" stroke-miterlimit="10" stroke-width="0.5"/>
      <path d="M330,14.75c.11.15-.57.91-2.11,1.17a7.42,7.42,0,0,1-5.58-1.6,12,12,0,0,1-3.42-4.51c-.59-1.3-.78-2.16-.59-2.26s.77.58,1.58,1.68A19.25,19.25,0,0,0,323.32,13a8.19,8.19,0,0,0,4.5,1.73C329.08,14.83,329.89,14.53,330,14.75Z" stroke="#000" stroke-miterlimit="10" stroke-width="0.5"/>
      <path d="M319.12,3.17c-.1.09-.49-.25-1.25-.68a7.94,7.94,0,0,0-3.49-1,9.47,9.47,0,0,0-5.15,1.2,12.64,12.64,0,0,0-4.51,4.73,25.79,25.79,0,0,0-2.5,6.32,12.18,12.18,0,0,0-.35,5.39,7.23,7.23,0,0,0,1.54,3.25c.56.67,1,1,.92,1.07s-.58,0-1.36-.61a6.79,6.79,0,0,1-2.22-3.43,12.08,12.08,0,0,1,0-6,23.5,23.5,0,0,1,2.55-6.8,13.39,13.39,0,0,1,5.21-5.24,10.09,10.09,0,0,1,6-1A7.34,7.34,0,0,1,318.24,2C319,2.62,319.19,3.12,319.12,3.17Z" stroke="#000" stroke-miterlimit="10" stroke-width="0.5"/>
      <path d="M347.13,28.59c-.13,0-.07-.59-.44-1.45a6.52,6.52,0,0,0-2.7-2.82c-.74-.45-1.61-.88-2.56-1.43a9.66,9.66,0,0,1-2.79-2.3c-1.65-2-2.35-4.72-3.37-7.16A15.86,15.86,0,0,0,331,7.49a18.19,18.19,0,0,0-5.16-3.16c-3.26-1.27-5.54-1.16-5.53-1.45,0-.09.55-.24,1.58-.27a13.8,13.8,0,0,1,4.33.63A17,17,0,0,1,332,6.35a16.33,16.33,0,0,1,4.79,6.45c1.06,2.62,1.71,5.13,3.05,6.87s3.3,2.56,4.8,3.69A6.4,6.4,0,0,1,347.3,27C347.52,28,347.21,28.62,347.13,28.59Z" stroke="#000" stroke-miterlimit="10" stroke-width="0.5"/>
      <path d="M324.25,33.76c-.19.41-1.22.33-2.3-.18s-1.81-1.24-1.62-1.65,1.22-.33,2.3.18S324.44,33.35,324.25,33.76Z" stroke="#000" stroke-miterlimit="10" stroke-width="0.5"/>
      <path d="M329.07,32.26c-.44.11-1.07-.86-1.77-2s-1.24-2.18-.93-2.52,1.51.3,2.33,1.69S329.5,32.16,329.07,32.26Z" stroke="#000" stroke-miterlimit="10" stroke-width="0.5"/>
      <path d="M346.65,25.59c.09,0,.39.24.63.93a5.6,5.6,0,0,1,.09,3,9.58,9.58,0,0,1-2,4,10.61,10.61,0,0,1-4.52,3.13,9.88,9.88,0,0,1-5.51.3,10.16,10.16,0,0,1-4-2c-2-1.63-2.48-3.2-2.31-3.27s1,1.12,3,2.34a10.59,10.59,0,0,0,3.65,1.42,9.07,9.07,0,0,0,4.66-.37,10.25,10.25,0,0,0,3.94-2.58,9.89,9.89,0,0,0,2-3.31C347,27.1,346.43,25.68,346.65,25.59Z" stroke="#000" stroke-miterlimit="10" stroke-width="0.5"/>
      <path d="M320.66,36.27c.11.14-.92,1.4-3.21,2.8a8.18,8.18,0,0,1-4.67,1.23,6.73,6.73,0,0,1-2.85-.87,8.37,8.37,0,0,1-2.36-2.08A11.52,11.52,0,0,1,305.28,32a24.77,24.77,0,0,1-.24-4.61c.11-2.59.21-4.16.43-4.18s.54,1.58.73,4.14.36,6.16,2.64,9a6.17,6.17,0,0,0,4.08,2.47,7.78,7.78,0,0,0,4-.77C319.18,37,320.51,36.05,320.66,36.27Z" stroke="#000" stroke-miterlimit="10" stroke-width="0.5"/>
    </g>
  </g>
</svg>
