<svg xmlns="http://www.w3.org/2000/svg" viewBox="0 0 569.75 518">
  <title>group discussion</title>
  <g id="SIMPLE_BACKGROUND">
    <g id="CLOCK">
      <path d="M96.22,28.22A30.37,30.37,0,0,0,86.13,52.33,31.71,31.71,0,0,0,90.5,67a29.26,29.26,0,0,0,35.77,13.31c2.86-1,10.17-3.38,15-10.6,5.19-7.76,4.22-16.13,3.62-21.34-.47-4-1.24-10-5.65-16a30,30,0,0,0-12.64-9.65,27.85,27.85,0,0,0-30.38,5.46Z" fill="#fff"/>
      <path d="M88,59.87a44.15,44.15,0,0,0,2.54,6.53,28.64,28.64,0,0,0,8.74,9.81,26.81,26.81,0,0,0,5,2.78,29.15,29.15,0,0,0,12.71,2.3,33.51,33.51,0,0,0,14.32-3.86,28.55,28.55,0,0,0,6.55-4.61,17.06,17.06,0,0,0,2.58-3.15,20,20,0,0,0,1.79-3.76,36.92,36.92,0,0,0,1.69-8.55,54.45,54.45,0,0,0,.2-9A27.87,27.87,0,0,0,138,32.1a30.29,30.29,0,0,0-13.34-9.27,33.5,33.5,0,0,0-3.73-1.06,30.46,30.46,0,0,0-3.74-.5,28,28,0,0,0-3.66,0,26.63,26.63,0,0,0-3.52.51A28.09,28.09,0,0,0,98.3,27.23,31.39,31.39,0,0,0,91,35.15a32.94,32.94,0,0,0-3.5,7.38c-1.33,4.31-1.3,6.88-1.49,6.86a7.36,7.36,0,0,1,0-1.84,16.91,16.91,0,0,1,.26-2.22,22.8,22.8,0,0,1,.64-3,31.42,31.42,0,0,1,3.32-7.68,32.19,32.19,0,0,1,7.32-8.35,29.1,29.1,0,0,1,12.11-5.9,29.56,29.56,0,0,1,3.69-.58,31.07,31.07,0,0,1,3.86,0,31.79,31.79,0,0,1,4,.49,35.31,35.31,0,0,1,3.93,1.08,31.69,31.69,0,0,1,14.08,9.68,29.28,29.28,0,0,1,6.49,17.11,53.49,53.49,0,0,1-.21,9.32,37.76,37.76,0,0,1-1.8,8.92,20.63,20.63,0,0,1-2,4.07,18.14,18.14,0,0,1-2.83,3.43A29.64,29.64,0,0,1,132,78.76a34.62,34.62,0,0,1-15,3.88A30,30,0,0,1,103.76,80a26.74,26.74,0,0,1-5.09-3,27.68,27.68,0,0,1-3.94-3.48A26.87,26.87,0,0,1,90,66.68a24.58,24.58,0,0,1-1.74-5A7.54,7.54,0,0,1,88,59.87Z" stroke="#000" stroke-miterlimit="10" stroke-width="0.5"/>
      <path d="M118.62,20.12c-.22.05-.65-.94-1.33-2.53-.33-.79-.74-1.74-1.21-2.77l-.36-.79-.11-.22-.06-.1-.22-.38,0,.07-.16.43s-.12.37-.22.66l-.28.86-1,3c-.57,1.7-1,2.75-1.21,2.71s-.2-1.19.09-3c.14-.9.36-2,.65-3.13l.23-.89c.09-.31.14-.54.34-1.17.33-1.09.71-2.19,1.09-3.32l.16-.49c.53,1,1,2,1.5,3l.34.74.26.62.33.84a24.75,24.75,0,0,1,.91,3C118.78,19,118.83,20.07,118.62,20.12Z" stroke="#000" stroke-miterlimit="10" stroke-width="0.5"/>
      <path d="M113.22,52.09c.17,0,.27.29.42.58s.38.63.59.68a.58.58,0,0,0,.29,0l.14-.06s0,0,0,0,0,0,0,0h.19s0,0,0,0l-.07.05s0,0,0,0a.36.36,0,0,0-.11-.15.85.85,0,0,0-.29-.18c-.1,0-.23,0-.34,0s-.23-.14-.15-.42a1,1,0,0,1,.94-.56,1.48,1.48,0,0,1,.74.19,1.3,1.3,0,0,1,.62.91,1.46,1.46,0,0,1-.31,1.12,1.82,1.82,0,0,1-.9.61,1.85,1.85,0,0,1-1.59-.23,1.87,1.87,0,0,1-.72-2C112.8,52.24,113.05,52.05,113.22,52.09Z" stroke="#000" stroke-miterlimit="10" stroke-width="0.5"/>
      <path d="M114.42,32.12c.45,0,.83,4.82.85,10.74s-.33,10.74-.78,10.75-.83-4.8-.85-10.74S114,32.12,114.42,32.12Z" stroke="#000" stroke-miterlimit="10" stroke-width="0.5"/>
      <path d="M110.6,38.86c-.44,0-.67-2.12.48-4.38s3-3.34,3.23-3-.82,1.78-1.78,3.72S111.06,38.9,110.6,38.86Z" stroke="#000" stroke-miterlimit="10" stroke-width="0.5"/>
      <path d="M119.27,41.31c-.44.14-1.51-2.05-2.86-4.7s-2.46-4.83-2.09-5.1,2.15,1.57,3.55,4.36S119.69,41.19,119.27,41.31Z" stroke="#000" stroke-miterlimit="10" stroke-width="0.5"/>
      <path d="M125.94,69c-.35.28-3.24-2.63-6.26-6.67s-5-7.64-4.62-7.89S118,57.38,121,61.38,126.29,68.73,125.94,69Z" stroke="#000" stroke-miterlimit="10" stroke-width="0.5"/>
      <path d="M126.29,64.69c.22,0,.49.59.63,1.62a10.48,10.48,0,0,1,.07,1.83,9.34,9.34,0,0,1-.15,1.31,1.51,1.51,0,0,1-1.08,1.27,2,2,0,0,1-1.66-.56l-.85-.66c-.52-.41-1-.8-1.34-1.15-.73-.7-1.12-1.22-1-1.4s.75,0,1.66.46c.45.22,1,.52,1.53.86l.85.54c.08,0,.15.1.24.09s.13-.09.3-.92l.27-1.68C125.92,65.33,126.06,64.71,126.29,64.69Z" stroke="#000" stroke-miterlimit="10" stroke-width="0.5"/>
      <ellipse cx="114.48" cy="25.66" rx="2.15" ry="0.82" transform="translate(79.05 137.5) rotate(-85.06)" stroke="#000" stroke-miterlimit="10" stroke-width="0.5"/>
      <ellipse cx="91.74" cy="53.31" rx="2.92" ry="0.82" stroke="#000" stroke-miterlimit="10" stroke-width="0.5"/>
      <ellipse cx="140.44" cy="55.16" rx="2.76" ry="0.82" stroke="#000" stroke-miterlimit="10" stroke-width="0.5"/>
      <path d="M117.74,78.19c-.41.17-1.16-.76-1.17-2.14s.72-2.31,1.13-2.15.48,1.09.5,2.14S118.17,78,117.74,78.19Z" stroke="#000" stroke-miterlimit="10" stroke-width="0.5"/>
    </g>
    <g id="board">
      <path d="M170.68,1.1q0,94.4.1,188.79l4.93,2.14-8.33,10.36c3.87-.25,9.73-.61,16.87-.91,25.9-1.08,44.18-.37,57.56,0H438.75q-3-4.11-6-8.24l4.64-4.71c0-20.06,0-46.75,0-66.8q0-60.86-.14-121.73Z" fill="#fff"/>
      <path d="M170.78,189.79c-.45,0-.82-41.47-.82-92.63s.37-92.64.82-92.64.81,41.48.81,92.64S171.23,189.79,170.78,189.79Z" stroke="#000" stroke-miterlimit="10" stroke-width="0.5"/>
      <path d="M179.64,193.3" fill="none" stroke="#000" stroke-miterlimit="10" stroke-width="0.5"/>
      <path d="M426.35,193.3c0,.45-54.29.81-121.25.81s-121.24-.36-121.24-.81,54.28-.82,121.24-.82S426.35,192.85,426.35,193.3Z" stroke="#000" stroke-miterlimit="10" stroke-width="0.5"/>
      <ellipse cx="304.76" cy="1.7" rx="123.63" ry="0.82" stroke="#000" stroke-miterlimit="10" stroke-width="0.5"/>
      <ellipse cx="437.38" cy="99.89" rx="0.82" ry="88.55" stroke="#000" stroke-miterlimit="10" stroke-width="0.5"/>
      <path d="M438.6,201.48c0,.45-60.07.82-134.18.82s-134.18-.37-134.18-.82,60.07-.81,134.18-.81S438.6,201,438.6,201.48Z" stroke="#000" stroke-miterlimit="10" stroke-width="0.5"/>
      <path d="M167.36,199.41c-.17-.43,2-1.67,4.2-3.66s3.74-3.94,4.15-3.71-.59,2.76-3.07,4.94S167.5,199.82,167.36,199.41Z" stroke="#000" stroke-miterlimit="10" stroke-width="0.5"/>
      <path d="M439.38,200.21c-.1.2-.7.16-1.56-.21a9.68,9.68,0,0,1-4.94-5.18c-.32-.88-.34-1.49-.14-1.57.44-.17,1.52,1.67,3.29,3.51S439.57,199.79,439.38,200.21Z" stroke="#000" stroke-miterlimit="10" stroke-width="0.5"/>
      <path d="M265.26,80.07c-.45,0-.81-13.23-.81-29.56s.36-29.57.81-29.57.82,13.24.82,29.57S265.71,80.07,265.26,80.07Z" stroke="#000" stroke-miterlimit="10" stroke-width="0.5"/>
      <ellipse cx="311.62" cy="73.07" rx="59.55" ry="0.82" stroke="#000" stroke-miterlimit="10" stroke-width="0.5"/>
      <path d="M361.63,56c-.07,0-.18-.78-.71-2.18a13.23,13.23,0,0,0-1.25-2.45,11.38,11.38,0,0,0-2.19-2.56,1.81,1.81,0,0,0-.47.72c-.06.12-.13.31-.21.52l-.2.64a13.68,13.68,0,0,1-1,2.82,2.23,2.23,0,0,1-1.45,1.12,2.27,2.27,0,0,1-1.89-.42,5.58,5.58,0,0,1-1.69-3.33c-1-4.8-1.19-10.43-1.73-16.57a51.88,51.88,0,0,0-1.64-9.49,13.8,13.8,0,0,0-1.93-4.52,2.82,2.82,0,0,0-1.76-1.17,2.61,2.61,0,0,0-2,.67,9.72,9.72,0,0,0-1.73,1.91,18.43,18.43,0,0,0-1.4,2.31,27.45,27.45,0,0,0-1.91,5.29c-.49,1.86-.88,3.8-1.31,5.78-.21,1-.44,2-.7,3l-.2.76-.28,1c-.26.82-.55,1.59-.83,2.4a7.5,7.5,0,0,0-.85.17c0-.09.23-.21,0-.42a1.69,1.69,0,0,0-.31-.22l-.19-.11-.33-.16c-.07-.56-.08-1.27-.3-1.43a2.62,2.62,0,0,0-.39-.45A4.62,4.62,0,0,0,330,39a4.86,4.86,0,0,0-1.77-.7,4,4,0,0,0-1.85.06,5.07,5.07,0,0,0-1.71.91,9,9,0,0,0-2.48,3.32,19.91,19.91,0,0,0-1.35,4.23c-.34,1.49-.64,3-1.11,4.6a13.33,13.33,0,0,1-2.24,4.49,3.29,3.29,0,0,1-1.2,1,2.68,2.68,0,0,1-1.67.19,4.63,4.63,0,0,1-2.39-1.61,8.22,8.22,0,0,1-.78-1.08l-.6-1.08-.59-1.09-.52-1.13a56.3,56.3,0,0,1-3.71-12.16c-.84-4.07-1.49-8.09-2.4-11.95-.45-1.92-1-3.82-1.58-5.64-.29-.93-.67-1.81-1-2.7a18.62,18.62,0,0,0-1.26-2.48,10.81,10.81,0,0,0-3.64-3.8,5.23,5.23,0,0,0-4.71-.3,10.11,10.11,0,0,0-2.19,1.28c-.67.55-1.33,1.12-1.94,1.72a20.59,20.59,0,0,0-1.68,2,19.56,19.56,0,0,0-1.43,2.11,40.72,40.72,0,0,0-3.83,9.17c-.95,3.1-1.71,6.16-2.57,9.09-.44,1.46-.89,2.89-1.38,4.28L276,42.93c-.23.44-.31,1.22-.93.76a3.1,3.1,0,0,1-.72-.32,2.87,2.87,0,0,1-.67-.41l-.46-.43-.36-.46A24.77,24.77,0,0,1,271,38.34a7.46,7.46,0,0,0-.92-1.57,2.47,2.47,0,0,0-1.28-.91,2.67,2.67,0,0,0-2.78.9,9.48,9.48,0,0,0-1.76,2.72,53.75,53.75,0,0,0-3.42,10.69,59,59,0,0,0-1,7,19.8,19.8,0,0,1-.23,2.49,2.05,2.05,0,0,1-.08-.64c0-.42,0-1,0-1.87a46.06,46.06,0,0,1,.71-7.15,51.15,51.15,0,0,1,3.21-10.93,10.08,10.08,0,0,1,1.9-3,4.48,4.48,0,0,1,1.63-1.14,3.27,3.27,0,0,1,2.14-.08,3.63,3.63,0,0,1,1.8,1.23A8.62,8.62,0,0,1,272,37.86a24.28,24.28,0,0,0,1.79,3.53l.29.36.31.29a1.24,1.24,0,0,0,.42.23c.19.14.19-.12.25-.25l.28-.76c.47-1.36.89-2.77,1.31-4.23.82-2.9,1.55-6,2.49-9.13A41.53,41.53,0,0,1,283,18.39a19.55,19.55,0,0,1,1.5-2.25A21,21,0,0,1,286.28,14c.66-.65,1.36-1.27,2.09-1.87a11.09,11.09,0,0,1,2.52-1.49,7.08,7.08,0,0,1,3-.54,6.81,6.81,0,0,1,3,.9,12.29,12.29,0,0,1,4.22,4.32A20.55,20.55,0,0,1,302.52,18c.35.93.74,1.85,1.05,2.8.64,1.89,1.17,3.83,1.64,5.79,1.88,7.82,2.59,16.19,6,23.79l.5,1.08.56,1,.56,1a7.7,7.7,0,0,0,.63.87A3,3,0,0,0,315,55.48a1.24,1.24,0,0,0,1.28-.59A12,12,0,0,0,318.2,51c.44-1.44.74-3,1.09-4.48a21.75,21.75,0,0,1,1.47-4.55A10.55,10.55,0,0,1,323.71,38,6.59,6.59,0,0,1,326,36.85a5.6,5.6,0,0,1,2.57-.08,6.34,6.34,0,0,1,3.32,1.73c.07.08.15.15.22.24l.11.15a1.25,1.25,0,0,1,.08.12,1,1,0,0,1,.09.24.88.88,0,0,1,0,.43l.16-.41.13-.41.13-.46.2-.73c.25-1,.48-2,.7-2.93.44-2,.84-3.91,1.36-5.83,1.05-3.82,2.57-7.59,5.61-10.23a4,4,0,0,1,3.05-.92,4.16,4.16,0,0,1,2.61,1.7A9.38,9.38,0,0,1,347.63,22c.27.84.58,1.66.79,2.5A52,52,0,0,1,350,34.19c.47,6.21.56,11.77,1.46,16.5a4.78,4.78,0,0,0,1.31,2.83,1.41,1.41,0,0,0,1.2.3,1.44,1.44,0,0,0,1-.73c.95-1.62.92-3.66,2.45-5.24a13.12,13.12,0,0,1,2.69,3.25,13,13,0,0,1,1.15,2.59,11.2,11.2,0,0,1,.38,1.69A1.54,1.54,0,0,1,361.63,56Z" stroke="#000" stroke-miterlimit="10" stroke-width="0.5"/>
      <path d="M384,59c-.45-.07.32-9.1,1.72-20.18s2.89-20,3.33-20S388.7,27.94,387.3,39,384.41,59.08,384,59Z" stroke="#000" stroke-miterlimit="10" stroke-width="0.5"/>
      <path d="M416.27,21.29c-.08.45-6.25-.3-13.85-1.13s-13.8-1.46-13.78-1.92,6.29-.56,13.95.3S416.36,20.86,416.27,21.29Z" stroke="#000" stroke-miterlimit="10" stroke-width="0.5"/>
      <path d="M425.21,59c-.45.08-2.28-8.37-4.51-18.78s-4-18.88-3.55-19,2.92,8.2,5.14,18.65S425.65,58.94,425.21,59Z" stroke="#000" stroke-miterlimit="10" stroke-width="0.5"/>
      <path d="M423.4,58.67c.12.14-1.6,1.71-5.09,2.82a30.81,30.81,0,0,1-6.23,1.19c-2.37.23-5,.29-7.68.31a117,117,0,0,1-13.89-.72,11.41,11.41,0,0,1-4.15-1.22c-.9-.52-1.25-1-1.19-1.07s.55.19,1.45.49a14.18,14.18,0,0,0,4,.65c3.51.13,8.4.26,13.78.24,2.69,0,5.26,0,7.56-.18a37.45,37.45,0,0,0,6-.8C421.39,59.61,423.26,58.44,423.4,58.67Z" stroke="#000" stroke-miterlimit="10" stroke-width="0.5"/>
      <ellipse cx="401.24" cy="27.66" rx="0.82" ry="5.19" transform="translate(342.25 425.5) rotate(-85.51)" stroke="#000" stroke-miterlimit="10" stroke-width="0.5"/>
      <path d="M411,32.7c0,.44-2.9.88-6.49.64s-6.42-1.06-6.35-1.5,2.95-.36,6.46-.13S411,32.24,411,32.7Z" stroke="#000" stroke-miterlimit="10" stroke-width="0.5"/>
      <path d="M415.61,38.94c.08.2-1.21.89-3.48,1.09s-5.25-.05-8.54,0c-6.58.12-11.89,1-12,.58s5.17-2.08,12-2.21c3.39-.1,6.43.35,8.54.43S415.53,38.71,415.61,38.94Z" stroke="#000" stroke-miterlimit="10" stroke-width="0.5"/>
      <ellipse cx="399.18" cy="45.33" rx="7.24" ry="0.82" stroke="#000" stroke-miterlimit="10" stroke-width="0.5"/>
      <path d="M410.14,52.3c0,.46-4.83.58-10.73.77s-10.71.36-10.76-.09,4.73-1.35,10.71-1.54S410.16,51.86,410.14,52.3Z" stroke="#000" stroke-miterlimit="10" stroke-width="0.5"/>
      <path d="M382,117.35c-.44,0,0-7.95,1.61-17.58s3.64-17.28,4.06-17.18-.89,7.86-2.45,17.44S382.49,117.4,382,117.35Z" stroke="#000" stroke-miterlimit="10" stroke-width="0.5"/>
      <path d="M416.82,83.2c-.06.23-1.51,0-3.87.09s-5.69.31-9.36.37c-7.33.14-13.29-.1-13.3-.55s5.93-.94,13.27-1.08c3.67-.06,7-.11,9.43.11S416.89,83,416.82,83.2Z" stroke="#000" stroke-miterlimit="10" stroke-width="0.5"/>
      <path d="M423.57,118.15c-.46,0-1.61-7.66-3.22-17.11s-3.05-17.12-2.6-17.22,2.6,7.42,4.21,16.94S424,118.11,423.57,118.15Z" stroke="#000" stroke-miterlimit="10" stroke-width="0.5"/>
      <path d="M425.14,115c.13.12-1.65,1.95-5.4,3.33s-9.15,2.12-15.06,2.46a93.12,93.12,0,0,1-15.2-.37c-3.88-.43-6.23-1-6.2-1.19.06-.48,9.58.61,21.31-.07,5.86-.33,11.16-.84,14.79-1.93S425,114.81,425.14,115Z" stroke="#000" stroke-miterlimit="10" stroke-width="0.5"/>
      <ellipse cx="394.84" cy="111.43" rx="5.82" ry="0.82" transform="translate(-10.29 46.76) rotate(-6.69)" stroke="#000" stroke-miterlimit="10" stroke-width="0.5"/>
      <path d="M416.34,104.56c0,.44-6,1.32-13.6,1.61s-13.7-.1-13.69-.55,6.1-.78,13.62-1.08S416.3,104.11,416.34,104.56Z" stroke="#000" stroke-miterlimit="10" stroke-width="0.5"/>
      <path d="M408.48,101.15c0,.45-3.42.74-7.62.9s-7.63.1-7.67-.35,3.36-1.13,7.61-1.28S408.49,100.7,408.48,101.15Z" stroke="#000" stroke-miterlimit="10" stroke-width="0.5"/>
      <path d="M410.16,94.9c-.13.47-4.75-.69-10.52-.54s-10.34,1.42-10.49,1c-.07-.2,1-.8,2.88-1.4a28.3,28.3,0,0,1,15.2-.3C409.13,94.14,410.22,94.7,410.16,94.9Z" stroke="#000" stroke-miterlimit="10" stroke-width="0.5"/>
      <path d="M408.05,89.32c0,.45-3.29,1-7.39,1.12s-7.45-.06-7.47-.51,3.3-1,7.4-1.12S408,88.87,408.05,89.32Z" stroke="#000" stroke-miterlimit="10" stroke-width="0.5"/>
      <path d="M333,148.83c.12,0,.24.25.49.65a4.16,4.16,0,0,0,1.38,1.3,2.85,2.85,0,0,0,2.46.29,2.5,2.5,0,0,0,1.39-2.39,2.1,2.1,0,0,0-.48-1.33,2,2,0,0,0-1.17-.61,2.22,2.22,0,0,0-2.17.84,3,3,0,0,0-.56,1.73c0,.46,0,.75-.06.8s-.37-.14-.57-.69a3.08,3.08,0,0,1,.2-2.44,3.38,3.38,0,0,1,3.33-1.73,3.45,3.45,0,0,1,2.17,1,3.63,3.63,0,0,1,.94,2.39,3.7,3.7,0,0,1-6.14,3.09,3.72,3.72,0,0,1-1.31-2C332.76,149.15,332.86,148.84,333,148.83Z" stroke="#000" stroke-miterlimit="10" stroke-width="0.5"/>
      <ellipse cx="370.82" cy="145.92" rx="24.4" ry="0.82" stroke="#000" stroke-miterlimit="10" stroke-width="0.5"/>
      <path d="M401.84,155.44c0,.45-11.94.82-26.67.82s-26.68-.37-26.68-.82,11.95-.81,26.68-.81S401.84,155,401.84,155.44Z" stroke="#000" stroke-miterlimit="10" stroke-width="0.5"/>
      <path d="M423.79,147.58c0,.45-4.62.81-10.33.81s-10.34-.36-10.34-.81,4.63-.82,10.34-.82S423.79,147.13,423.79,147.58Z" stroke="#000" stroke-miterlimit="10" stroke-width="0.5"/>
      <path d="M334.24,179.92c.12,0,.28.19.61.46a3,3,0,0,0,1.64.64,2.68,2.68,0,0,0,2.2-.77,2.38,2.38,0,0,0,.15-2.65,3.09,3.09,0,0,0-1-1.15,2.31,2.31,0,0,0-1.28-.41,3.53,3.53,0,0,0-2.32.91c-1.19,1-1.29,2.18-1.55,2.16-.09,0-.22-.29-.19-.84a3.84,3.84,0,0,1,.9-2.11,4.4,4.4,0,0,1,3.14-1.62,3.77,3.77,0,0,1,2.17.57,4.48,4.48,0,0,1,1.58,1.76,3.82,3.82,0,0,1-.52,4.42,3.72,3.72,0,0,1-3.5.86,3,3,0,0,1-1.92-1.37C334.09,180.27,334.15,179.94,334.24,179.92Z" stroke="#000" stroke-miterlimit="10" stroke-width="0.5"/>
      <path d="M366.26,175.31c0,.45-4.63.82-10.34.82s-10.34-.37-10.34-.82,4.63-.81,10.34-.81S366.26,174.86,366.26,175.31Z" stroke="#000" stroke-miterlimit="10" stroke-width="0.5"/>
      <path d="M394.39,181.52c0,.45-10.83.82-24.19.82S346,182,346,181.52s10.83-.81,24.19-.81S394.39,181.07,394.39,181.52Z" stroke="#000" stroke-miterlimit="10" stroke-width="0.5"/>
      <path d="M412.2,175.31c0,.45-7.32.82-16.34.82s-16.33-.37-16.33-.82,7.31-.81,16.33-.81S412.2,174.86,412.2,175.31Z" stroke="#000" stroke-miterlimit="10" stroke-width="0.5"/>
    </g>
  </g>
  <g id="CHARACTER3">
    <g id="PRIMARY_footleft">
      <path d="M234.8,388.42c0,2.1,0,4.22,0,6.38.06,7,.4,13.76.94,20.16,8.59.21,15.3.83,19.93,1.38a55.83,55.83,0,0,0,13,.5,48.13,48.13,0,0,0,9.32-1.81,17.34,17.34,0,0,0-4.37-4.23c-4.84-3.24-10.19-3.13-12.85-3-4.85.17-6,1.48-11.69,1.42a36.39,36.39,0,0,1-5.52-.47c-.28-2.56-.5-5.25-.65-8-.25-4.65-.26-9-.11-13.11Z"/>
    </g>
    <g id="leg_left" data-name="leg left">
      <path d="M222.18,223.3c-.75,4.49-1.83,11.43-2.74,19.95-1.06,9.89-1.72,20.18-1.57,59,.07,19.3.1,29.45.54,44.54.42,14.47,1,27.5,1.69,38.8a24.35,24.35,0,0,0,8.16,3c10.5,1.75,18.79-4.22,20.8-5.76.91-17.09,1.32-31.2,1.52-41.06.48-23.9,0-43.18-.86-81.74-.2-8.72-.51-20.83-1.52-36.68-.45-7-.9-12.69-1.22-16.45Z" fill="#fff"/>
      <path d="M249.71,381.8a6.87,6.87,0,0,1-.12-1.7c0-1.11,0-2.74,0-4.85,0-4.21.1-10.3.17-17.83.16-15.05.26-35.85,0-58.81s-.86-43.76-1.36-58.81c-.25-7.52-.45-13.61-.59-17.82-.06-2.1-.09-3.74-.1-4.85a6.48,6.48,0,0,1,.08-1.69,6.93,6.93,0,0,1,.25,1.68c.11,1.1.25,2.73.41,4.83.32,4.2.7,10.28,1.1,17.81.8,15,1.57,35.84,1.84,58.83s0,43.8-.47,58.86c-.23,7.52-.46,13.61-.69,17.82-.11,2.1-.21,3.74-.3,4.84A6.34,6.34,0,0,1,249.71,381.8Z" stroke="#000" stroke-miterlimit="10" stroke-width="0.5"/>
      <path d="M249.05,382.79c.14.15-.87,1.35-3,2.78a21.13,21.13,0,0,1-9.19,3.52,17.77,17.77,0,0,1-9.76-1.49c-2.3-1.11-3.37-2.31-3.25-2.46s1.43.63,3.69,1.4a20.64,20.64,0,0,0,9.12.93,26.33,26.33,0,0,0,8.79-2.88C247.64,383.47,248.9,382.6,249.05,382.79Z" stroke="#000" stroke-miterlimit="10" stroke-width="0.5"/>
      <path d="M220.1,385.51a5.33,5.33,0,0,1-.25-1.5c-.11-1-.24-2.44-.39-4.31-.31-3.75-.66-9.18-1-15.9-.71-13.42-1.35-32-1.4-52.52s.51-39.1,1.16-52.53c.33-6.71.65-12.15,1-15.9.14-1.87.26-3.33.37-4.31a5.06,5.06,0,0,1,.24-1.5,5.82,5.82,0,0,1,.08,1.52c0,1,0,2.45-.06,4.33-.1,3.76-.25,9.19-.43,15.9-.36,13.43-.72,32-.68,52.49s.5,39.05.93,52.48c.21,6.71.38,12.14.5,15.9.05,1.88.08,3.34.08,4.33A5.88,5.88,0,0,1,220.1,385.51Z" stroke="#000" stroke-miterlimit="10" stroke-width="0.5"/>
      <path d="M235.43,408.42c-.44,0-1-4.25-1.27-9.54s-.1-9.6.35-9.62,1,4.25,1.28,9.54S235.88,408.4,235.43,408.42Z" stroke="#000" stroke-miterlimit="10" stroke-width="0.5"/>
      <path d="M243.55,408c-.43.07-1.45-4.27-1.65-9.74s.48-9.87.91-9.83.51,4.4.72,9.77S244,408,243.55,408Z" stroke="#000" stroke-miterlimit="10" stroke-width="0.5"/>
      <path d="M276.66,412.87c-.17.2-1.71-1-4.57-2.15a31.21,31.21,0,0,0-11.74-2c-4.72,0-9,.68-12.16.95a9.54,9.54,0,0,1-3.85-.37c-.88-.32-1.25-.7-1.2-.78s.51.06,1.35.16a12,12,0,0,0,3.57-.16,69.2,69.2,0,0,1,12.29-1.43,30.41,30.41,0,0,1,6.88.71,23.13,23.13,0,0,1,5.34,1.89C275.46,411.17,276.79,412.74,276.66,412.87Z" stroke="#000" stroke-miterlimit="10" stroke-width="0.5"/>
      <path d="M276.53,415.87c.06.19-2.17,1.07-6,1.46s-9,.16-14.74-.16-10.9-.71-14.64-1.07c-1.88-.19-3.37-.34-4.45-.53a2.7,2.7,0,0,1-1.2-.52c-.23-.21-.28-.37-.24-.4a6.68,6.68,0,0,0,1.52.29c1,0,2.56,0,4.43,0,3.76.06,8.95.26,14.67.59s10.87.77,14.58.64S276.47,415.62,276.53,415.87Z" stroke="#000" stroke-miterlimit="10" stroke-width="0.5"/>
    </g>
    <g id="PRIMARY_footright">
      <path d="M224.81,408.07l6,16.23c-3.48,6.38-7.54,13.85-12.08,22.24-2.69,5-4.38,8.12-3.67,8.69,1.36,1.09,10.29-8,11.24-9a112.68,112.68,0,0,0,15.94-20.78c-1.45-4.34-2.86-9-4.18-13.84q-1.8-6.66-3.11-12.85a17.71,17.71,0,0,1-3.59,5.15A18,18,0,0,1,224.81,408.07Z"/>
    </g>
    <g id="leg_right" data-name="leg right">
      <path d="M196.89,228c-1,5.92-2.46,14.2-3.95,24.14-1.71,11.45-3.47,23.33-4.83,38.54-.74,8.25-1.52,19.3-1.86,32.47.88,3.9,2.24,9.58,4.18,16.36,2.58,8.95,4.94,15.55,6.42,19.65,8.17,22.65,16.09,44,18.53,50.53a24.73,24.73,0,0,0,7-.84c2.63-.71,9-2.43,12.9-8.5a19.34,19.34,0,0,0,2.38-13.9q-4.76-15.15-9.38-30.89-4.72-16.14-9-31.84.57-8.73,1.34-17.68c1.35-15.68,3.08-30.84,5.1-45.44,1.17-2.18,2.79-5.3,4.59-9.14,2.64-5.65,6-12.81,7.28-18.18,1-4.13,2.33-13.85-5.07-27.9Z" fill="#fff"/>
      <path d="M185.88,316.49a14,14,0,0,1-.06-3.52c.07-2.26.24-5.52.51-9.55.54-8.06,1.55-19.18,3.07-31.41s3.27-23.27,4.72-31.21c.73-4,1.36-7.19,1.85-9.39a14.21,14.21,0,0,1,.92-3.4,14.6,14.6,0,0,1-.3,3.51c-.31,2.24-.77,5.47-1.33,9.46-1.15,8-2.72,19-4.24,31.23s-2.7,23.29-3.54,31.31c-.43,4-.78,7.25-1,9.5A14.73,14.73,0,0,1,185.88,316.49Z" stroke="#000" stroke-miterlimit="10" stroke-width="0.5"/>
      <path d="M214.53,406a13.53,13.53,0,0,1-1.58-3c-.92-2-2.18-4.87-3.68-8.46-3-7.18-6.93-17.2-10.87-28.41s-7.15-21.48-9.29-29c-1.08-3.74-1.9-6.78-2.42-8.9a13.61,13.61,0,0,1-.65-3.33,13.57,13.57,0,0,1,1.26,3.15l2.91,8.74c2.42,7.38,5.8,17.57,9.73,28.76s7.67,21.25,10.4,28.53l3.2,8.64A14.18,14.18,0,0,1,214.53,406Z" stroke="#000" stroke-miterlimit="10" stroke-width="0.5"/>
      <path d="M227.73,257c-.42-.14.22-3.07,2-6.29s3.84-5.35,4.18-5.08-1.08,2.77-2.75,5.86S228.16,257.15,227.73,257Z" stroke="#000" stroke-miterlimit="10" stroke-width="0.5"/>
      <path d="M219.3,320.61c-.22,0-.15-3.51.19-9.14s1-13.41,1.89-22,1.94-16.3,2.79-21.88,1.53-9,1.75-9,0,3.51-.61,9.12-1.4,13.36-2.31,21.91-1.76,16.29-2.36,21.91S219.53,320.63,219.3,320.61Z" stroke="#000" stroke-miterlimit="10" stroke-width="0.5"/>
      <path d="M236.79,384c-.22.06-1.34-3.29-3-8.75l-6.4-21.35c-2.46-8.35-4.69-15.91-6.31-21.39s-2.48-8.9-2.26-9,1.5,3.22,3.36,8.63,4.29,12.91,6.77,21.26,4.56,16,5.95,21.51S237,383.92,236.79,384Z" stroke="#000" stroke-miterlimit="10" stroke-width="0.5"/>
      <path d="M237.61,386.43c.18,0,.76,2,.37,5.41a20.69,20.69,0,0,1-17.16,17.94c-3.36.54-5.44.05-5.42-.12s2.06-.21,5.18-1a21.73,21.73,0,0,0,16.26-17C237.5,388.5,237.34,386.45,237.61,386.43Z" stroke="#000" stroke-miterlimit="10" stroke-width="0.5"/>
      <path d="M231.69,425.18c-.41.18-2.23-3.33-4.05-7.84s-3-8.29-2.55-8.45,2.24,3.36,4.06,7.84S232.1,425,231.69,425.18Z" stroke="#000" stroke-miterlimit="10" stroke-width="0.5"/>
      <path d="M242.49,424.79c.09,0,0,1.16-1.05,2.87s-2.77,3.88-4.85,6.66-4.61,6-7.44,9.64c-1.42,1.8-2.94,3.68-4.6,5.57-.83.94-1.7,1.88-2.61,2.81a20.74,20.74,0,0,1-3,2.72,8.17,8.17,0,0,1-1,.54,4.93,4.93,0,0,1-.53.22l-.34.12c-.14,0-.28.06-.42.09a4.5,4.5,0,0,1-1.55,0l-.74-.12-.18,0s0-.11,0-.15l.11-.34c.29-.87.58-1.73.86-2.59l.73-1.75c1-2.3,2-4.5,3-6.58,2-4.15,3.95-7.8,5.7-10.8s3.28-5.37,4.38-7a10.25,10.25,0,0,1,1.87-2.38c.21.13-2,3.8-5.24,9.91-1.61,3.05-3.46,6.72-5.35,10.88-.94,2.07-1.9,4.27-2.85,6.56l-.7,1.74-.31.79c-.11.17,0,.15.09.16a.91.91,0,0,0,.23,0l0,0,.12,0a3.2,3.2,0,0,0,.39-.16,7.18,7.18,0,0,0,.75-.43,19.54,19.54,0,0,0,2.79-2.49c.9-.91,1.75-1.82,2.58-2.74,1.65-1.84,3.17-3.68,4.62-5.45l7.71-9.42c2.18-2.68,4.08-4.78,5.22-6.29S242.36,424.75,242.49,424.79Z" stroke="#000" stroke-miterlimit="10" stroke-width="0.5"/>
      <ellipse cx="238.11" cy="411.74" rx="0.82" ry="11.77" transform="translate(-93.37 70.65) rotate(-14.14)" stroke="#000" stroke-miterlimit="10" stroke-width="0.5"/>
    </g>
    <g id="arm_left" data-name="arm left">
      <path d="M248.52,122.29l4.63-1.51c1.5,1.86,3.73,4.71,6.28,8.29,4.29,6,6.22,9.53,10.58,16.21,1.94,3,4.78,7.22,8.41,12.27q3.48-8.24,7.16-16.64,3.29-7.49,6.6-14.77l2.84-.59,1.78-4.25c3.1-7.35,4.06-9.52,6.39-10.83a8.27,8.27,0,0,1,2.89-.94A91.83,91.83,0,0,1,321.15,87.1a62.7,62.7,0,0,1-5.85,17.64,6,6,0,0,1,3.83,2.69,5.76,5.76,0,0,1,.71,3.81,3.09,3.09,0,0,1,2.55,4.37,5.08,5.08,0,0,1,1.13,2.88c.05,1.47-.72,2.1-1.76,4.73s-.55,2.7-1.26,3.73c-1.31,1.91-3.06,1.75-4.91,3.11-1.26.93-2.75,2.69-3.45,6.35a187.71,187.71,0,0,0-10.73,22.09c-2.92,7.2-7.07,13.9-9.4,21.31-.94,3-2.34,8-6.76,10.47a11.87,11.87,0,0,1-5.78,1.4,88.43,88.43,0,0,1-9.62-7.8c-2-1.84-7.36-7-19.13-25-8.55-13.08-9.2-15.7-9.35-18.32C240.93,132.27,245.66,125.64,248.52,122.29Z" fill="#fff"/>
      <path d="M280.17,159.88c-.17.12-1.94-1.89-4.5-5.36s-5.88-8.41-9.44-13.91-6.83-10.44-9.27-14-4-5.69-3.8-5.84,2,1.78,4.73,5.16,6.13,8.25,9.7,13.76,6.72,10.54,9,14.15S280.36,159.74,280.17,159.88Z" stroke="#000" stroke-miterlimit="10" stroke-width="0.5"/>
      <path d="M278.84,191.29c-.21.35-7.6-4.26-14.84-12.1s-11.33-15.51-11-15.7,5,6.94,12.16,14.59S279.13,190.89,278.84,191.29Z" stroke="#000" stroke-miterlimit="10" stroke-width="0.5"/>
      <ellipse cx="285.4" cy="141.32" rx="16.61" ry="0.82" transform="translate(39.95 344.26) rotate(-65.93)" stroke="#000" stroke-miterlimit="10" stroke-width="0.5"/>
      <path d="M312.1,137.56c-.27,0-.15-1.63-.94-4a11.71,11.71,0,0,0-15-7.68c-2.35.73-3.59,1.77-3.76,1.56s.87-1.53,3.35-2.64A11.82,11.82,0,0,1,310.38,129a11.89,11.89,0,0,1,1.89,4.33C312.83,136,312.27,137.6,312.1,137.56Z" stroke="#000" stroke-miterlimit="10" stroke-width="0.5"/>
      <path d="M307.55,144.58c.2.09-.9,3.11-2.86,7.9s-4.75,11.38-7.94,18.61c-1.62,3.6-3.15,7-4.55,10.16s-2.83,6-4.78,7.94a9.42,9.42,0,0,1-5.64,2.84c-1.52.12-2.31-.26-2.28-.34s.82,0,2.18-.29a9.49,9.49,0,0,0,4.9-3c1.68-1.84,2.93-4.59,4.24-7.75s2.86-6.6,4.44-10.22c3.19-7.23,6.16-13.73,8.38-18.41S307.34,144.49,307.55,144.58Z" stroke="#000" stroke-miterlimit="10" stroke-width="0.5"/>
      <path d="M313.18,113.15c-.09.07-.43-.16-1-.63a23.24,23.24,0,0,0-2.3-1.83,5.68,5.68,0,0,0-3.76-1,3.23,3.23,0,0,0-1.91.89,9.36,9.36,0,0,0-1.54,2.1c-3.82,6.76-7.24,12.09-7.64,11.88s2.39-5.9,6.24-12.72a10,10,0,0,1,1.86-2.44,4.69,4.69,0,0,1,2.85-1.21,6.54,6.54,0,0,1,4.59,1.63,11,11,0,0,1,2.08,2.33C313.09,112.7,313.26,113.07,313.18,113.15Z" stroke="#000" stroke-miterlimit="10" stroke-width="0.5"/>
      <path d="M313.4,114.78c.18.12.06.71-.56,1.41a5.55,5.55,0,0,1-6.67,1c-.79-.5-1.07-1-.94-1.19s.65,0,1.38.12a8.55,8.55,0,0,0,2.83.1,8.65,8.65,0,0,0,2.68-.9C312.78,115,313.21,114.65,313.4,114.78Z" stroke="#000" stroke-miterlimit="10" stroke-width="0.5"/>
      <path d="M307.07,121.1c-.42-.19-.53-.87-.73-1.57s-.4-1.35-.12-1.72c.14-.17.45-.19.81,0a2.27,2.27,0,0,1,.74,2.84C307.56,121,307.28,121.18,307.07,121.1Z" stroke="#000" stroke-miterlimit="10" stroke-width="0.5"/>
      <path d="M312.74,109.78c-.21-.12,1-2.62,2.71-6.73.86-2.06,1.85-4.52,2.83-7.3.49-1.37,1-2.87,1.46-4.35a7,7,0,0,0,.22-1.07,2.48,2.48,0,0,0,0-.27c0-.09,0-.18,0-.17a.77.77,0,0,0,0-.15.53.53,0,0,0-.13-.26s0,0-.05,0l-.05.06-.1.11-1.21,1.53c-.5.66-1,1.3-1.48,1.94-1,1.28-1.87,2.53-2.7,3.74-1.69,2.42-3.11,4.66-4.28,6.55-2.34,3.8-3.67,6.24-3.89,6.13s.78-2.71,2.89-6.7c1-2,2.39-4.32,4-6.82.81-1.25,1.71-2.54,2.66-3.85.48-.66,1-1.32,1.49-2l.78-1,.45-.57c.23-.23.45-.43.68-.65l.69-.65.34-.32c0-.11.11,0,.17.07l.17.15a3.1,3.1,0,0,1,1,1.5,4,4,0,0,1,.15,1c0,.21,0,.33,0,.44s0,.24,0,.35a7.59,7.59,0,0,1-.29,1.31c-.51,1.59-1,3-1.58,4.44-1.07,2.78-2.18,5.23-3.19,7.25C314.48,107.56,312.92,109.88,312.74,109.78Z" stroke="#000" stroke-miterlimit="10" stroke-width="0.5"/>
      <path d="M313.74,122c-.16-.2.7-1,1.76-2.46a17.45,17.45,0,0,0,2.92-6.3c.57-2.59.66-5.38-.37-6.36a1.91,1.91,0,0,0-1.61-.5c-.42.08-.64.3-.75.23s-.06-.44.49-.81a2.4,2.4,0,0,1,2.59.18,4.54,4.54,0,0,1,1.56,3.39,14.16,14.16,0,0,1-3.95,10.92C315,121.73,313.85,122.2,313.74,122Z" stroke="#000" stroke-miterlimit="10" stroke-width="0.5"/>
      <path d="M317.36,122.32c-.13-.21.48-.77,1.25-1.74a12.43,12.43,0,0,0,2.22-4.21,11.37,11.37,0,0,0,.47-2.58c.05-.77,0-1.67,0-1.84a.57.57,0,0,0,0-.13l-.1,0-.2-.07-.11,0-.17,0-.31-.08c-.36-.1-.57-.21-.56-.33s.21-.21.58-.3l.3-.07.18,0,.27,0,.63,0,.37,0c.06.07.07.21.12.32a10,10,0,0,1,.5,2.74,9.62,9.62,0,0,1-3.37,7.58C318.32,122.28,317.46,122.5,317.36,122.32Z" stroke="#000" stroke-miterlimit="10" stroke-width="0.5"/>
      <path d="M318.46,126.35c-.15-.18.29-.79,1.06-1.65a18.2,18.2,0,0,0,2.56-3.41,6.63,6.63,0,0,0,.68-3.88c-.15-1-.55-1.63-.37-1.8s.93.23,1.47,1.47a6,6,0,0,1-.33,5,9.91,9.91,0,0,1-3.25,3.53C319.29,126.23,318.6,126.51,318.46,126.35Z" stroke="#000" stroke-miterlimit="10" stroke-width="0.5"/>
      <path d="M315.58,129.9c0-.46,1.72-1,3.3-2.4s2.36-3.06,2.81-3c.21.06.3.6.08,1.43a6.16,6.16,0,0,1-4.78,4.19C316.14,130.28,315.61,130.11,315.58,129.9Z" stroke="#000" stroke-miterlimit="10" stroke-width="0.5"/>
      <path d="M311.33,135.67c-.29-.36.66-1.59,1.78-3.07s2.06-2.72,2.48-2.54.07,1.87-1.18,3.52S311.6,136,311.33,135.67Z" stroke="#000" stroke-miterlimit="10" stroke-width="0.5"/>
    </g>
    <g id="torso">
      <path d="M190.62,130.08a88.33,88.33,0,0,1,12.47-5.58c19.44-7,37.33-5.65,48.68-3.65a43.28,43.28,0,0,1,4.75,12.73,46.1,46.1,0,0,1,0,17c-2.38,15.57-5.84,30.18-7.87,38.23l.18,21.64a28.39,28.39,0,0,1-2,3.76c-5.37,8.44-14.08,11.8-21.46,14.54-6.18,2.3-9.66,3.59-14.79,3.38A29.49,29.49,0,0,1,196,227.4c-1.3-7.51-2.41-15.43-3.25-23.72a340.39,340.39,0,0,1-.64-61Q191.39,136.38,190.62,130.08Z" fill="#fff"/>
      <path d="M251.74,120.85c-.05.26-3.63-.34-9.44-.71-1.45-.09-3-.18-4.75-.19s-3.53,0-5.45,0a111.14,111.14,0,0,0-12.42,1.18,112.83,112.83,0,0,0-12.18,2.7c-1.84.56-3.6,1.06-5.2,1.65s-3.11,1.11-4.46,1.64c-5.42,2.14-8.63,3.81-8.76,3.58s.7-.62,2.11-1.46a29.84,29.84,0,0,1,2.62-1.45c1.05-.53,2.22-1.16,3.58-1.73s2.82-1.26,4.45-1.85,3.37-1.21,5.23-1.82a95.66,95.66,0,0,1,12.35-2.87,94,94,0,0,1,12.64-1.07c1.95,0,3.81,0,5.54.11s3.34.23,4.8.39,2.78.37,3.94.55,2.14.37,2.94.57A7.89,7.89,0,0,1,251.74,120.85Z" stroke="#000" stroke-miterlimit="10" stroke-width="0.5"/>
      <path d="M247.23,193.3c-.22-.07.57-3.38,1.91-8.71s3.22-12.68,4.76-20.89c.76-4.1,1.33-8,1.73-11.63s.61-6.84.68-9.57c.17-5.47-.05-8.87.22-8.89s.8,3.36.93,8.89a92.38,92.38,0,0,1-.33,9.72c-.33,3.64-.86,7.63-1.63,11.78a192.51,192.51,0,0,1-5.25,20.9C248.62,190.16,247.44,193.36,247.23,193.3Z" stroke="#000" stroke-miterlimit="10" stroke-width="0.5"/>
      <path d="M248.84,210.42c-.46,0-.66-4.85-.71-10.81s.08-10.79.54-10.81,1,4.81,1.09,10.8S249.28,210.44,248.84,210.42Z" stroke="#000" stroke-miterlimit="10" stroke-width="0.5"/>
      <path d="M195.48,223.44a10.8,10.8,0,0,1-.8-3c-.42-1.94-.92-4.76-1.46-8.26A278.36,278.36,0,0,1,190.49,157c.19-3.54.41-6.4.64-8.37a10.55,10.55,0,0,1,.5-3c.24,0,.1,4.39,0,11.45s-.06,16.81.47,27.56,1.47,20.46,2.25,27.48S195.72,223.4,195.48,223.44Z" stroke="#000" stroke-miterlimit="10" stroke-width="0.5"/>
      <path d="M247.56,213.28c.08.06-.32.78-1.2,2a33.2,33.2,0,0,1-4.31,4.6,54.81,54.81,0,0,1-18,10.23,41.33,41.33,0,0,1-11.17,2.69,25,25,0,0,1-9.36-1.15,22.73,22.73,0,0,1-5.72-2.71c-1.24-.84-1.82-1.42-1.77-1.5.16-.26,2.81,1.78,7.81,3.11a26.23,26.23,0,0,0,8.92.76,44.21,44.21,0,0,0,10.73-2.73,62.05,62.05,0,0,0,17.8-9.58C245.37,215.73,247.34,213.11,247.56,213.28Z" stroke="#000" stroke-miterlimit="10" stroke-width="0.5"/>
    </g>
    <g id="arm_right" data-name="arm right">
      <path d="M189.05,130.75a63.09,63.09,0,0,0-3,7.61,66.66,66.66,0,0,0-3.13,21.54c0,11.45-1.12,22.91-.48,34.33.83,14.64,1.39,37.49.72,75.44l3.45,2.64-10,8.71,8.41-.68a16.33,16.33,0,0,0,5.53,5.2c9.21,5.18,20.08-1.45,20.72-1.85l-12.7-11.08c1.73-9.8,2.79-17.72,3.41-22.72,3.17-25.67,2.38-38,5.92-64.84.9-6.82,1.77-12.29,2.29-15.42.91-1.06,8.26-10,5.68-20.81C213.3,138.19,202.18,130.16,189.05,130.75Z" fill="#fff"/>
      <path d="M183.33,267.1a35.52,35.52,0,0,1-.38-5.44c-.14-3.5-.3-8.57-.45-14.84-.3-12.53-.61-29.84-.85-49-.12-9.56-.24-18.68,0-27a182.37,182.37,0,0,1,1.8-22c.49-3.11,1-5.91,1.56-8.36a27.56,27.56,0,0,1,2.14-6.09,13.72,13.72,0,0,1,2.33-3.36,3.52,3.52,0,0,1,1.09-.92,24.42,24.42,0,0,0-2.85,4.55,29.54,29.54,0,0,0-1.82,6c-.49,2.42-.9,5.22-1.31,8.31a203.66,203.66,0,0,0-1.44,21.89c-.15,8.26,0,17.37.13,26.93.24,19.13.36,36.44.37,49,0,6.27,0,11.34-.07,14.85A33,33,0,0,1,183.33,267.1Z" stroke="#000" stroke-miterlimit="10" stroke-width="0.5"/>
      <path d="M209.62,174.08c-.44-.09-.41-2,.07-4.24s1.22-4,1.66-3.9.41,2-.07,4.24S210.06,174.17,209.62,174.08Z" stroke="#000" stroke-miterlimit="10" stroke-width="0.5"/>
      <path d="M200.08,270.38c-.45,0,1-19.8,3.21-44.12s4.38-44,4.83-44-1,19.8-3.21,44.12S200.53,270.42,200.08,270.38Z" stroke="#000" stroke-miterlimit="10" stroke-width="0.5"/>
      <path d="M199.07,268c.12.17-.53.9-1.87,1.71A14.8,14.8,0,0,1,185.33,271c-1.48-.51-2.27-1.1-2.19-1.29.17-.45,3.69.8,8.08.3S198.81,267.61,199.07,268Z" stroke="#000" stroke-miterlimit="10" stroke-width="0.5"/>
      <path d="M176.59,281c-.2,0-.41-.92.25-2.16a10.5,10.5,0,0,1,3.64-3.46c3.12-2.08,5.85-3.47,6.1-3.09s-2.07,2.37-5.19,4.45a18.11,18.11,0,0,0-3.6,2.75C177.05,280.33,176.83,281.05,176.59,281Z" stroke="#000" stroke-miterlimit="10" stroke-width="0.5"/>
      <path d="M211.25,281.94c-.33.32-3.13-2-6.78-4.63s-6.78-4.48-6.57-4.9,3.75.87,7.52,3.57S211.56,281.64,211.25,281.94Z" stroke="#000" stroke-miterlimit="10" stroke-width="0.5"/>
      <path d="M190.51,285.53c-.39.26-1.92-1.49-4.11-3.22s-4.22-2.87-4.05-3.31,2.65.09,5.06,2S190.89,285.32,190.51,285.53Z" stroke="#000" stroke-miterlimit="10" stroke-width="0.5"/>
      <path d="M196.91,285.6c-.44.17-1.66-2.1-3.84-4.28s-4.4-3.46-4.22-3.89c.09-.2.79-.14,1.82.28a11.16,11.16,0,0,1,3.56,2.47,11.37,11.37,0,0,1,2.42,3.59C197.06,284.81,197.11,285.51,196.91,285.6Z" stroke="#000" stroke-miterlimit="10" stroke-width="0.5"/>
      <path d="M202.36,286c-.46.1-1.28-2.34-3.29-4.62s-4.24-3.5-4.08-3.94c.08-.2.79-.17,1.83.27a9.79,9.79,0,0,1,3.49,2.6,9.9,9.9,0,0,1,2.06,3.84C202.64,285.19,202.57,285.9,202.36,286Z" stroke="#000" stroke-miterlimit="10" stroke-width="0.5"/>
      <path d="M208.34,286c-.45.15-1.56-2.2-3.73-4.39s-4.46-3.39-4.3-3.84c.08-.2.79-.16,1.84.24a11,11,0,0,1,6,6.14C208.53,285.21,208.54,285.93,208.34,286Z" stroke="#000" stroke-miterlimit="10" stroke-width="0.5"/>
    </g>
    <g id="PRIMARY_hair3">
      <path d="M196.41,93.18c-1.54-4.93-1.42-9-1.27-13.77.12-4.07.22-6.59,1.58-9.62a19.79,19.79,0,0,1,4.93-6.56c5-4.69,8-5.27,15.39-9.75,5.67-3.45,8.08-5.65,16.39-10.46a19.93,19.93,0,0,1,9.33-3,13.32,13.32,0,0,1,6.89,1.28,13,13,0,0,1,5.79,6.19c2.35,5.22.76,10.36.15,12.32-2.82,9.12-11,13.48-13.17,14.54-19.47,15-24.19,24.68-24.6,31-.08,1.38-.22,6.58-3.73,10.87-.94,1.15-4.18,5.12-9,4.77a9.16,9.16,0,0,1-7-4.29,10.24,10.24,0,0,1-.94-7.59c.59-2.89,1.73-3.15,2.27-5.46C200.18,100.09,198.07,98.51,196.41,93.18Z"/>
    </g>
    <g id="head">
      <path d="M242,65.66c.84,5,1.36,9.12,1.68,12.12,1.1,10.3.71,14.45.35,17-.65,4.45-1,6.67-2.6,8.66-2,2.49-4.23,2.73-8.39,6.84a13.79,13.79,0,0,0-2.87,3.39c-1.92,3.65-.87,7.72-.18,9.72a8.71,8.71,0,0,1-3.66,5.79,8.83,8.83,0,0,1-7.11,1,9.35,9.35,0,0,1-4.48-2.77,24.82,24.82,0,0,0,.82-14.87,18.57,18.57,0,0,1-3.62-4.76,18.22,18.22,0,0,1-2-6.82,6.1,6.1,0,0,1-3.78.31c-3-.79-4.11-3.93-4.39-4.71a8.09,8.09,0,0,1,.34-6.36c.19-.36,2.09-3.83,4.28-3.28,1.25.31,2.16,1.82,2.39,3.61.2.15,1.75,1.32,2.89.77s1.16-2.54,1.16-3.79a15.9,15.9,0,0,0-1-4.92,17.11,17.11,0,0,1-.39-6.94A20.49,20.49,0,0,1,215.71,70C225.3,61.33,240,65.12,242,65.66Z" fill="#fff"/>
      <path d="M230,123.31a6.59,6.59,0,0,1-.69-2.44,19.68,19.68,0,0,1-.32-3,11.83,11.83,0,0,1,.48-4,8,8,0,0,1,1.06-2.19,7.64,7.64,0,0,1,1.89-1.87c1.51-1,3.26-1.61,4.67-2.67,2.92-2.09,5-5.81,5.76-10A58.21,58.21,0,0,0,243.41,85c-.11-3.79-.34-7.19-.6-10-.51-5.72-1.05-9.24-.81-9.29s1.14,3.43,2,9.16c.4,2.86.76,6.3.95,10.12a54,54,0,0,1-.47,12.54c-.84,4.45-3.12,8.57-6.49,10.88-1.7,1.18-3.48,1.7-4.79,2.56a6.55,6.55,0,0,0-2.61,3.31,12,12,0,0,0-.66,3.65,26.55,26.55,0,0,0,0,2.89A9.54,9.54,0,0,1,230,123.31Z" stroke="#000" stroke-miterlimit="10" stroke-width="0.5"/>
      <path d="M233.39,103.16c0-.13.47-.21,1-.76a8.93,8.93,0,0,0,1.62-3,6.49,6.49,0,0,0,.35-4.71A2.84,2.84,0,0,0,234.66,93a4.92,4.92,0,0,0-2.86.15c-1.06.29-2.15.72-3.29,1s-2.14.41-3,.7a4.33,4.33,0,0,0-2.06,1.3,4.61,4.61,0,0,0-.91,2,5.16,5.16,0,0,0,.39,3.22c.35.72.69,1.07.6,1.17s-.55-.1-1.14-.83a5.18,5.18,0,0,1-1-3.73,5.4,5.4,0,0,1,1-2.61A5.53,5.53,0,0,1,225,93.4a29.26,29.26,0,0,1,3.14-.84c1-.25,2.05-.67,3.23-1a6.27,6.27,0,0,1,3.84-.09,4.32,4.32,0,0,1,2.57,2.69,5.82,5.82,0,0,1,.2,3.2,10.28,10.28,0,0,1-.9,2.5,7.4,7.4,0,0,1-2.28,3C234,103.41,233.37,103.25,233.39,103.16Z" stroke="#000" stroke-miterlimit="10" stroke-width="0.5"/>
      <path d="M210.19,99.68c.07.09-.14.4-.63.85a4.92,4.92,0,0,1-2.64,1.33,4.19,4.19,0,0,1-2.16-.35,5.78,5.78,0,0,1-1.95-1.45,9.41,9.41,0,0,1-2.21-4.85,8.5,8.5,0,0,1,.79-5.3,6.72,6.72,0,0,1,3.22-3,5.18,5.18,0,0,1,2.89-.44c.69.12,1,.34,1,.43,0,.26-1.52-.07-3.36,1a6.16,6.16,0,0,0-2.4,2.64,7.63,7.63,0,0,0-.52,4.38,8.63,8.63,0,0,0,1.73,4.11,3.89,3.89,0,0,0,2.9,1.64,5.58,5.58,0,0,0,2.36-.7C209.78,99.73,210.12,99.59,210.19,99.68Z" stroke="#000" stroke-miterlimit="10" stroke-width="0.5"/>
      <path d="M217.14,113.66c-.11.18-.82,0-1.79-.57a10.39,10.39,0,0,1-3.13-3.13,8.78,8.78,0,0,1-1.51-4.22c0-1.21.39-1.89.59-1.83s.25.71.55,1.65a15.25,15.25,0,0,0,1.74,3.51C215.26,111.69,217.37,113.26,217.14,113.66Z" stroke="#000" stroke-miterlimit="10" stroke-width="0.5"/>
      <path d="M215.7,123.49c-.44-.14-.18-2.14,0-4.56s.14-4.44.6-4.52,1.2,2,1,4.62S216.11,123.63,215.7,123.49Z" stroke="#000" stroke-miterlimit="10" stroke-width="0.5"/>
      <path d="M229,89c.07-.11.35,0,.81,0a2.34,2.34,0,0,0,1.64-.87,3.87,3.87,0,0,0,.6-2.76c-.09-1.2-.29-2.66-.44-4.11-.33-2.94-.72-5.56-1.06-7.46s-.58-3.08-.36-3.16.84,1,1.48,2.88a37.39,37.39,0,0,1,1.56,7.55c.15,1.51.3,2.88.32,4.26a4.68,4.68,0,0,1-1.29,3.62,2.75,2.75,0,0,1-2.54.68C229.07,89.4,228.92,89,229,89Z" stroke="#000" stroke-miterlimit="10" stroke-width="0.5"/>
      <path d="M223.52,85.67c-.45,0-.68-1.45-.76-3.13s0-3.09.48-3.18,1.07,1.29,1.15,3.11S224,85.72,223.52,85.67Z" stroke="#000" stroke-miterlimit="10" stroke-width="0.5"/>
      <path d="M237.55,82.17c-.45,0-.91-1.19-1-2.74s.15-2.83.6-2.86.91,1.19,1,2.74S238,82.13,237.55,82.17Z" stroke="#000" stroke-miterlimit="10" stroke-width="0.5"/>
      <path d="M223.22,72.58c-.06.23-.43.33-.86.54a4.69,4.69,0,0,0-1.46,1,4.75,4.75,0,0,0-1,1.5c-.18.44-.27.81-.49.88s-.56-.25-.66-1a3.18,3.18,0,0,1,.93-2.53,3.22,3.22,0,0,1,2.48-1C222.94,72,223.27,72.39,223.22,72.58Z" stroke="#000" stroke-miterlimit="10" stroke-width="0.5"/>
      <path d="M239,71.59c-.23-.06-.3-.51-.64-1a2.17,2.17,0,0,0-1.64-1,2.15,2.15,0,0,0-1.62,1c-.34.48-.4.94-.63,1s-.62-.42-.46-1.37a2.64,2.64,0,0,1,.76-1.44,2.72,2.72,0,0,1,1.93-.85,2.83,2.83,0,0,1,2,.81,2.73,2.73,0,0,1,.78,1.43C239.64,71.15,239.22,71.66,239,71.59Z" stroke="#000" stroke-miterlimit="10" stroke-width="0.5"/>
      <path d="M208.82,90.58c-.46,0-.84-.89-1.11-2s-.34-2.05.07-2.25,1.2.59,1.51,1.86S209.26,90.57,208.82,90.58Z" stroke="#000" stroke-miterlimit="10" stroke-width="0.5"/>
      <path d="M212.27,73c.22.11-.26,1.22-.38,3.07a16.84,16.84,0,0,0,.12,3.25c.15,1.22.44,2.57.76,4s.63,2.84.8,4.16a6.84,6.84,0,0,1,0,2,3.12,3.12,0,0,1-.88,1.75,2.25,2.25,0,0,1-1.55.58A1.88,1.88,0,0,1,210,91.5c-.56-.48-.43-.94-.35-.93s.27.26.67.38a1.54,1.54,0,0,0,1.55-.46c.92-1.12-.08-3.93-.68-6.77a26.82,26.82,0,0,1-.67-4.23,13.17,13.17,0,0,1,.24-3.56C211.2,73.9,212.1,72.91,212.27,73Z" stroke="#000" stroke-miterlimit="10" stroke-width="0.5"/>
      <path d="M249.71,68c-.11-.1,1.16-1.17,2.87-3.53a20.64,20.64,0,0,0,2.51-4.62,16.32,16.32,0,0,0,1.13-6.74,14.37,14.37,0,0,0-2.75-7.66,12.17,12.17,0,0,0-3.33-3,11.93,11.93,0,0,0-4.51-1.52,18.89,18.89,0,0,0-10.18,1.91A65,65,0,0,0,225.69,49c-1.64,1.17-3.29,2.32-5,3.35s-3.41,2-5.09,2.84a99,99,0,0,0-9.43,5.37,29.22,29.22,0,0,0-7,6.55,17.35,17.35,0,0,0-3.31,7.55,30.73,30.73,0,0,0,0,7c.2,2.08.37,3.87.51,5.34a25.73,25.73,0,0,1,.25,4.58,24.41,24.41,0,0,1-.88-4.5c-.22-1.47-.48-3.26-.79-5.33a29.71,29.71,0,0,1-.19-7.23A18.2,18.2,0,0,1,198,66.29a30.21,30.21,0,0,1,7.28-7c5.84-4.08,13.07-6.81,19.43-11.65a63.65,63.65,0,0,1,10-6.36,20.24,20.24,0,0,1,11.06-1.95,13.26,13.26,0,0,1,5,1.79,13.54,13.54,0,0,1,3.67,3.47A15.37,15.37,0,0,1,257.37,53a17,17,0,0,1-1.43,7.14,20.19,20.19,0,0,1-2.86,4.66,19,19,0,0,1-2.39,2.46C250.09,67.77,249.74,68,249.71,68Z" stroke="#000" stroke-miterlimit="10" stroke-width="0.5"/>
      <path d="M214.7,114.73c.09,0,.11.58-.29,1.5a7.49,7.49,0,0,1-2.79,3.07,16.59,16.59,0,0,1-5.69,2.26,7.18,7.18,0,0,1-3.82-.21,7.88,7.88,0,0,1-3.39-2.32,10.69,10.69,0,0,1-2.61-7.15,17.2,17.2,0,0,1,1.23-6c1.26-3.18,2.4-4.93,2.58-4.85s-.55,2-1.49,5.21a18.75,18.75,0,0,0-.82,5.59,9.62,9.62,0,0,0,2.33,6.09c3.17,3.93,8.41,1.63,11.08.37a8.42,8.42,0,0,0,2.84-2.41C214.38,115.18,214.58,114.69,214.7,114.73Z" stroke="#000" stroke-miterlimit="10" stroke-width="0.5"/>
      <path d="M226.87,127.58c.15.15-.25.9-1.29,1.8a7.37,7.37,0,0,1-5.08,1.84,5.44,5.44,0,0,1-4.61-3,3.2,3.2,0,0,1-.3-1.69c.06-.4.18-.6.29-.59s.32.81,1,1.71a5.2,5.2,0,0,0,3.69,2,8.65,8.65,0,0,0,4.35-1.17C226,127.85,226.71,127.41,226.87,127.58Z" stroke="#000" stroke-miterlimit="10" stroke-width="0.5"/>
    </g>
  </g>
  <g id="table">
    <path d="M106.26,285.3l-.11,20.86,97.9-.14c23.58,0,56.39-.08,65.63-.08,31.63,0,33.84,0,114.4,0H535.82l-.31-20.31H402.78q-2.88-8.65-5.95-17.45-7.29-20.76-15-40.2a309.89,309.89,0,0,0-76.69.68q2.89,8.75,5.59,18.1c3.95,13.8,7.07,27.05,9.53,39.6Z" fill="#fff"/>
    <path d="M106.52,304.66c-.45,0-1.16-4.28-1.23-9.66s.53-9.72,1-9.69.58,4.35.66,9.67S107,304.62,106.52,304.66Z" stroke="#000" stroke-miterlimit="10" stroke-width="0.5"/>
    <path d="M535.59,305.94c0,.45-95.64.81-213.61.81s-213.62-.36-213.62-.81,95.64-.82,213.62-.82S535.59,305.49,535.59,305.94Z" stroke="#000" stroke-miterlimit="10" stroke-width="0.5"/>
    <ellipse cx="321.65" cy="285.94" rx="211.36" ry="0.82" stroke="#000" stroke-miterlimit="10" stroke-width="0.5"/>
    <path d="M535.82,302.06c-.45,0-.82-3-.82-6.77s.37-6.76.82-6.76.81,3,.81,6.76S536.27,302.06,535.82,302.06Z" stroke="#000" stroke-miterlimit="10" stroke-width="0.5"/>
    <path d="M320.59,284.68c-.22.06-1.21-3.05-2.62-8.11s-3.24-12.1-5.22-19.87-3.88-14.75-5.36-19.79-2.44-8.14-2.22-8.22,1.57,2.89,3.32,7.87,3.85,11.95,5.84,19.74,3.62,14.85,4.76,20S320.81,284.63,320.59,284.68Z" stroke="#000" stroke-miterlimit="10" stroke-width="0.5"/>
    <path d="M381.81,228c0,.24-4.24-.07-11-.46s-16.21-.8-26.6-.78-19.8.46-26.6.88-11,.74-11,.5a10.79,10.79,0,0,1,2.91-.64c1.89-.31,4.64-.66,8-1a266.46,266.46,0,0,1,26.69-1.36c10.44,0,19.89.57,26.69,1.26,3.4.34,6.15.69,8,1A10.29,10.29,0,0,1,381.81,228Z" stroke="#000" stroke-miterlimit="10" stroke-width="0.5"/>
    <path d="M401.94,283.41c-.21.07-1.41-3-3.22-7.87s-4.23-11.73-6.93-19.25S386.69,242,384.93,237s-2.71-8-2.5-8.12,1.58,2.87,3.58,7.71,4.61,11.61,7.31,19.14,5,14.42,6.49,19.43S402.15,283.34,401.94,283.41Z" stroke="#000" stroke-miterlimit="10" stroke-width="0.5"/>
    <path d="M326.05,279.43c-.21.06-1.2-2.52-2.58-6.76s-3.17-10.14-5-16.7-3.31-12.53-4.3-16.88-1.47-7.07-1.25-7.13,1.09,2.57,2.36,6.84,2.95,10.19,4.76,16.74,3.41,12.49,4.51,16.81S326.27,279.36,326.05,279.43Z" stroke="#000" stroke-miterlimit="10" stroke-width="0.5"/>
    <path d="M377.86,231.29c0,.22-3.52.58-9.25.92s-13.66.67-22.41.83-16.68.11-22.42,0-9.29-.37-9.29-.59,3.55-.41,9.29-.57,13.65-.3,22.39-.45,16.66-.3,22.4-.35S377.85,231.06,377.86,231.29Z" stroke="#000" stroke-miterlimit="10" stroke-width="0.5"/>
    <path d="M391.57,275.47c-.22.06-1.13-2.4-2.44-6.44s-3-9.65-4.77-15.88-3.26-11.91-4.33-16-2.3-6.36-2.1-6.49,1.82,2.07,3.2,6.15,3,9.65,4.8,15.88,3.29,11.89,4.31,16S391.79,275.41,391.57,275.47Z" stroke="#000" stroke-miterlimit="10" stroke-width="0.5"/>
    <path d="M390.73,280.27c0,.21-3.51.68-9.23,1.15s-13.65.93-22.42,1.12-16.7.08-22.44-.14-9.28-.53-9.28-.75,3.56-.33,9.29-.4,13.66-.15,22.4-.34,16.65-.46,22.38-.64S390.72,280,390.73,280.27Z" stroke="#000" stroke-miterlimit="10" stroke-width="0.5"/>
    <path d="M340.86,243.4c.37.25-3,5.94-7.94,12.4S323.35,267,323,266.7s3.69-5.48,8.59-11.89S340.48,243.15,340.86,243.4Z" stroke="#000" stroke-miterlimit="10" stroke-width="0.5"/>
    <path d="M363.79,233.87c.37.26-6.9,11.17-16.23,24.36s-17.2,23.68-17.56,23.42,6.9-11.16,16.23-24.36S363.43,233.61,363.79,233.87Z" stroke="#000" stroke-miterlimit="10" stroke-width="0.5"/>
  </g>
  <g id="CHARACTER2">
    <g id="PRIMARY_footright-2" data-name="PRIMARY_footright">
      <path d="M468.2,440,480,458.34c-1.29,1.43-3.3,3.63-5.8,6.28-5.16,5.45-6.1,6.14-8,8.49-3.65,4.47-7.87,11.32-6.65,12.47.57.54,2.12-.31,10.29-5.74,14.29-9.5,18.44-12.83,22.68-17,1.6-1.57,2.86-2.92,3.68-3.81a58,58,0,0,1-6.16-9.25c-1.53-2.87-2.17-4.68-5.35-12.25-1.44-3.42-2.63-6.19-3.39-8Z"/>
    </g>
    <g id="leg_right-2" data-name="leg right">
      <path d="M519.38,316.82c.64,1.15,0,3.45-1.32,8.05a53.2,53.2,0,0,1-4.6,11.7,52,52,0,0,1-9.56,12.53c-4.42,4.28-8.42,6.63-15.06,10.29s-15.31,8.26-25.51,13.29c.78,1.83,2,4.59,3.45,7.93,5.3,11.93,9,19.32,11.89,25.3,3,6.31,7.16,15.5,11.65,27.31a26,26,0,0,0-7.13-.13c-7.08.86-11.9,4.5-15,6.9a39.75,39.75,0,0,0-9.28,10.23c-9.2-11.57-16.44-21.74-21.81-29.66-1.82-2.68-1.27-2-14.57-24.35a68.45,68.45,0,0,1-5.94-13,24.38,24.38,0,0,1-1.41-5.47,21.51,21.51,0,0,1,3.42-13.64c1.9-3,4-4.59,7.86-7.46,11.35-8.36,17.9-12.53,17.9-12.53,13.81-8.81,11.49-8,18.28-12,8.51-5.08,16.5-9.85,27.42-13.38C499.46,315.65,516.58,311.73,519.38,316.82Z" fill="#fff"/>
      <path d="M459.31,374.48a13.71,13.71,0,0,1,2.89-1.83c1.92-1.09,4.71-2.61,8.17-4.46l12.21-6.42a138.08,138.08,0,0,0,14.59-8.28A50.4,50.4,0,0,0,509.11,342a53,53,0,0,0,6.66-11.83,55.11,55.11,0,0,0,2.71-8.8,18.09,18.09,0,0,1,.81-3.32,11.34,11.34,0,0,1-.19,3.43,42.57,42.57,0,0,1-2.26,9.1,50.34,50.34,0,0,1-6.52,12.31,49.62,49.62,0,0,1-12.22,11.92,124.17,124.17,0,0,1-14.83,8.28l-12.37,6.11c-3.54,1.72-6.41,3.08-8.41,4A13.5,13.5,0,0,1,459.31,374.48Z" stroke="#000" stroke-miterlimit="10" stroke-width="0.5"/>
      <path d="M490.63,434c-.21.08-1.79-3.32-4.26-8.85l-9.65-21.58-9.87-21.49c-2.53-5.5-4.05-8.92-3.84-9s2.08,3.15,4.88,8.53,6.49,12.89,10.31,21.32,7,16.16,9.24,21.81S490.83,433.91,490.63,434Z" stroke="#000" stroke-miterlimit="10" stroke-width="0.5"/>
      <path d="M456.79,446.82c-.05,0-.41-.34-1.06-1.08s-1.59-1.84-2.78-3.29c-2.38-2.89-5.77-7.11-9.81-12.45s-8.7-11.83-13.39-19.36A164,164,0,0,1,416.59,385a38.75,38.75,0,0,1-2.26-7.37,16.39,16.39,0,0,1,.31-7.63,19.06,19.06,0,0,1,3.44-6.47,36.13,36.13,0,0,1,4.85-5c1.7-1.46,3.44-2.77,5.12-4s3.34-2.45,4.94-3.59c3.22-2.28,6.26-4.33,9.07-6.16,5.62-3.65,10.3-6.39,13.57-8.2,1.64-.91,2.92-1.59,3.81-2a5.42,5.42,0,0,1,1.38-.6A46.41,46.41,0,0,1,456,337.1c-3.16,2-7.74,4.86-13.25,8.62-2.76,1.88-5.75,4-8.92,6.3-1.58,1.16-3.21,2.37-4.87,3.64s-3.35,2.57-5,4a34.24,34.24,0,0,0-4.61,4.78,17.45,17.45,0,0,0-3.14,5.95,14.88,14.88,0,0,0-.24,6.91,37.34,37.34,0,0,0,2.18,7.05A170,170,0,0,0,431,409.85c4.59,7.52,9.13,14,13,19.46s7.16,9.74,9.38,12.75c1.11,1.5,2,2.67,2.54,3.48A6.1,6.1,0,0,1,456.79,446.82Z" stroke="#000" stroke-miterlimit="10" stroke-width="0.5"/>
      <path d="M487.69,433.16c0,.26-1.91.07-4.83.55A27.89,27.89,0,0,0,472.23,438a51.66,51.66,0,0,0-8.81,7.62c-2.08,2.18-3.35,3.58-3.54,3.43s.78-1.77,2.67-4.19a38.28,38.28,0,0,1,8.78-8.22,24.32,24.32,0,0,1,11.39-4.05C485.86,432.36,487.73,433,487.69,433.16Z" stroke="#000" stroke-miterlimit="10" stroke-width="0.5"/>
      <path d="M480.6,459.29c-.38.24-3.32-3.7-6.57-8.79s-5.56-9.43-5.18-9.67,3.32,3.7,6.56,8.79S481,459.05,480.6,459.29Z" stroke="#000" stroke-miterlimit="10" stroke-width="0.5"/>
      <path d="M495,460.68a10.62,10.62,0,0,1-2.1,2.19c-1.42,1.33-3.53,3.19-6.21,5.4a218.78,218.78,0,0,1-22.05,15.87l-2.29,1.43-.57.36a7.38,7.38,0,0,1-.69.36,2.61,2.61,0,0,1-.92.24,1.92,1.92,0,0,1-1.1-.25,1.79,1.79,0,0,1-.81-1.22,2.83,2.83,0,0,1,.07-1.23,5,5,0,0,1,.37-1c.16-.29.29-.51.44-.77.55-1,1.14-2,1.73-2.88,1.17-1.86,2.41-3.58,3.63-5.16a66.74,66.74,0,0,1,7.11-7.8,53.38,53.38,0,0,1,5.41-4.45,7.37,7.37,0,0,1,2.19-1.32c.15.2-2.74,2.35-6.85,6.54a77.52,77.52,0,0,0-6.72,7.89c-1.16,1.58-2.34,3.29-3.46,5.12-.56.92-1.12,1.86-1.66,2.84a5.58,5.58,0,0,0-.64,1.35c-.11.5-.06.56.06.65s.15.06.5-.08a8.35,8.35,0,0,0,1-.61l2.28-1.43c8.93-5.62,16.68-11.22,22.2-15.4S494.87,460.5,495,460.68Z" stroke="#000" stroke-miterlimit="10" stroke-width="0.5"/>
      <path d="M494.91,457.6c-.35.25-4-4.26-7.33-10.51s-5.16-11.74-4.75-11.9,2.86,5,6.19,11.12S495.29,457.33,494.91,457.6Z" stroke="#000" stroke-miterlimit="10" stroke-width="0.5"/>
    </g>
    <g id="PRIMARY_footleft-2" data-name="PRIMARY_footleft">
      <path d="M413.49,458.57q2.42,6.17,4.84,12.32c-5.33,1.8-9.74,3.48-13,4.78-9.27,3.7-11.76,5.33-13.3,6.47a36,36,0,0,0-7.93,8.06c3-.63,7.15-1.53,12-2.76,4.66-1.18,10.24-2.59,16.95-4.87a166.9,166.9,0,0,0,18.6-7.61q-1.53-5.2-3.19-10.51t-3.4-10.61Z"/>
    </g>
    <g id="leg_left-2" data-name="leg left">
      <path d="M454,318.16c-15.13,4.83-21.16,8.45-36.18,12.5-4.63,1.25-7.58,2.24-13.48,4.23-10.22,3.44-12.92,4.9-15.3,6.59s-6.45,4.54-9,9.68c-1.34,2.65-2.46,6.21-2.34,16.47a132.3,132.3,0,0,0,1.54,19.11A222.83,222.83,0,0,0,389.52,425a267.18,267.18,0,0,0,13.12,30.06,16.79,16.79,0,0,0,3.73,1.94c6.4,2.36,12.33,0,13.95-.6a23.56,23.56,0,0,0,10.62-8.67,26.51,26.51,0,0,0,3.43-6.54,222.92,222.92,0,0,1-16.56-69.75c2.26-.92,6.21-2.44,11.26-3.93,16.43-4.86,23.32-3.18,39-8.49a51.56,51.56,0,0,0,14.69-7.27,36.17,36.17,0,0,0,9.74-10,36.77,36.77,0,0,0,4.43-10.49c2.42-8.47,4.36-15.22,1.76-18.82C493.63,305.48,473,312.09,454,318.16Z" fill="#fff"/>
      <path d="M402.6,455a9.34,9.34,0,0,1-.94-1.72c-.57-1.15-1.39-2.85-2.41-5.06-2.05-4.41-4.95-10.83-8.24-18.9a225.53,225.53,0,0,1-9.8-29,147.55,147.55,0,0,1-3.45-17.79A123.27,123.27,0,0,1,376.9,363a42.7,42.7,0,0,1,1.5-9.89,20.38,20.38,0,0,1,4.82-8.57,22.81,22.81,0,0,1,8.06-4.95c2.84-1.12,5.59-2.11,8.3-3.11,10.8-4,20.57-7.41,28.8-10.22s14.93-5,19.57-6.45c2.33-.73,4.13-1.28,5.36-1.64a9.52,9.52,0,0,1,1.91-.46,8.31,8.31,0,0,1-1.8.78l-5.26,1.92-19.39,6.94c-8.18,2.95-17.91,6.5-28.67,10.54-2.68,1-5.47,2-8.23,3.14a21.5,21.5,0,0,0-7.51,4.63,18.66,18.66,0,0,0-4.4,7.91,41.29,41.29,0,0,0-1.43,9.51,123.63,123.63,0,0,0,.81,19.19,152.77,152.77,0,0,0,3.32,17.63,244.73,244.73,0,0,0,9.42,28.95c3.14,8.09,5.88,14.57,7.75,19.06.93,2.25,1.64,4,2.13,5.19A9,9,0,0,1,402.6,455Z" stroke="#000" stroke-miterlimit="10" stroke-width="0.5"/>
      <path d="M414.56,372.85a14.8,14.8,0,0,1,3.45-2,66.22,66.22,0,0,1,10.17-3.74c4.4-1.27,9.74-2.39,15.66-3.47s12.44-2.18,19.09-4a63.15,63.15,0,0,0,17.75-7.46A40.44,40.44,0,0,0,492,341.47a31,31,0,0,0,4.47-9.57l.39-1.63c.12-.47.16-.88.23-1.21a2.94,2.94,0,0,1,.27-1c.06,0,.08.36.06,1,0,.33,0,.76-.08,1.25s-.15,1-.25,1.69a28.61,28.61,0,0,1-4.13,10.06,39.79,39.79,0,0,1-11.43,11.41,61.81,61.81,0,0,1-18.14,7.77c-6.77,1.82-13.33,2.87-19.26,3.88s-11.23,2-15.62,3.1a88.55,88.55,0,0,0-10.22,3.21A24.92,24.92,0,0,1,414.56,372.85Z" stroke="#000" stroke-miterlimit="10" stroke-width="0.5"/>
      <path d="M434.35,441.16a9.36,9.36,0,0,1-1.37-2.44c-.79-1.6-1.83-4-3-7s-2.51-6.57-3.83-10.6-2.57-8.53-3.72-13.29-2-9.35-2.68-13.54-1.11-8-1.37-11.18-.42-5.78-.44-7.58a8.72,8.72,0,0,1,.13-2.79c.25,0,.61,3.92,1.45,10.24.41,3.16,1,6.92,1.71,11.06s1.67,8.68,2.79,13.41,2.37,9.19,3.57,13.22,2.41,7.64,3.47,10.64C433.13,437.38,434.58,441.06,434.35,441.16Z" stroke="#000" stroke-miterlimit="10" stroke-width="0.5"/>
      <path d="M433,443.66c.18,0-.22,2.18-2.07,5.1a21.4,21.4,0,0,1-23.62,9.07c-3.33-.92-5.06-2.24-5-2.39s2,.68,5.22,1.27A22.5,22.5,0,0,0,430,448.09C432,445.5,432.77,443.55,433,443.66Z" stroke="#000" stroke-miterlimit="10" stroke-width="0.5"/>
      <path d="M434.25,440.75" fill="none" stroke="#000" stroke-miterlimit="10" stroke-width="0.5"/>
      <path d="M419.25,473c-.44.13-1.74-3.09-3.33-7s-2.83-7.2-2.42-7.41,2.33,2.76,3.94,6.8S419.68,472.91,419.25,473Z" stroke="#000" stroke-miterlimit="10" stroke-width="0.5"/>
      <path d="M430.27,475.16s.13,0,.2.18a.81.81,0,0,1-.24.71,2.57,2.57,0,0,1-.94.65l-1.33.67c-2,1-5,2.29-8.69,3.7A278.69,278.69,0,0,1,389.42,490a16.82,16.82,0,0,1-2.35.33l-.61,0c-.32,0-.64,0-1,0-.62-.06-1.2-.17-1.8-.27l-.45-.09h-.05l0-.05.06-.09.12-.19.49-.76a11.94,11.94,0,0,1,1.06-1.52,20.49,20.49,0,0,1,1.48-1.7,30.7,30.7,0,0,1,6.73-5.08,64.61,64.61,0,0,1,6.77-3.32c2.16-.93,4.19-1.74,6.05-2.46,3.73-1.42,6.79-2.43,8.93-3.07a13.55,13.55,0,0,1,3.37-.81,14.91,14.91,0,0,1-3.16,1.41c-2.07.82-5.06,2-8.71,3.54-1.82.78-3.81,1.65-5.93,2.62a69.62,69.62,0,0,0-6.56,3.38,29.81,29.81,0,0,0-6.33,4.9,20.12,20.12,0,0,0-1.36,1.57c-.05.07-.11.14-.15.21l-.08.11s0,0,0,.05H386l.27,0h.14l.51,0a17.88,17.88,0,0,0,2.13-.3c11.68-2.94,22.31-5.86,29.79-8.43,3.76-1.26,6.76-2.4,8.83-3.2l1.38-.52a2.56,2.56,0,0,0,.91-.44C430.45,475.47,430.25,475.19,430.27,475.16Z" stroke="#000" stroke-miterlimit="10" stroke-width="0.5"/>
      <path d="M431.5,473.91c-.43.14-2.27-4.39-4.11-10.12s-3-10.49-2.55-10.63,2.27,4.4,4.11,10.13S431.93,473.78,431.5,473.91Z" stroke="#000" stroke-miterlimit="10" stroke-width="0.5"/>
    </g>
    <g id="chair_legs" data-name="chair legs">
      <path d="M411,356.19q.28,3.8.56,7.57a57.53,57.53,0,0,0,7.46,1.86,66.38,66.38,0,0,0,11.84.94c10.25.19,9.08.88,20.86,1.21,1.63,0,7.61.19,14.84,0,9.35-.21,16.18-.89,29.46-2.22,21.17-2.13,35.68-4.29,39.57-4.87,5.68-.86,10.44-1.64,13.88-2.23l2.55-13.6c-8.19,2.58-17,5-26.27,7.1A331.89,331.89,0,0,1,463,360c-4.54-.34-8.18-.51-10.44-.6-15.74-.62-22.07.42-33.1-1.4C415.63,357.37,412.64,356.63,411,356.19Z" fill="#fff"/>
      <path d="M462.67,366.48c-.44-.08-.52-1.82-.16-3.89s1-3.68,1.44-3.6.51,1.81.16,3.88S463.12,366.55,462.67,366.48Z" stroke="#000" stroke-miterlimit="10" stroke-width="0.5"/>
      <path d="M549,356.33c-.44-.08-.32-2.78.53-6s2.08-5.61,2.5-5.46-.1,2.75-.92,5.88S549.42,356.42,549,356.33Z" stroke="#000" stroke-miterlimit="10" stroke-width="0.5"/>
      <path d="M549.42,358.49a13.7,13.7,0,0,1-3.27.86c-2.12.46-5.21,1-9,1.7-7.64,1.33-18.25,2.9-30,4.2s-22.46,2.1-30.21,2.48c-3.88.19-7,.3-9.18.32a13.83,13.83,0,0,1-3.38-.13,13.45,13.45,0,0,1,3.34-.51l9.14-.83c7.71-.68,18.36-1.65,30.11-2.95s22.34-2.69,30-3.72l9.1-1.18A13.55,13.55,0,0,1,549.42,358.49Z" stroke="#000" stroke-miterlimit="10" stroke-width="0.5"/>
      <path d="M460.76,368.76c0,.23-2.82.26-7.34.11s-10.75-.52-17.63-1.08-13.08-1.23-17.57-1.81-7.24-1.07-7.22-1.29,2.82-.14,7.33.15,10.73.76,17.59,1.32,13.08,1.11,17.58,1.56S460.77,368.54,460.76,368.76Z" stroke="#000" stroke-miterlimit="10" stroke-width="0.5"/>
      <path d="M411.28,357.61c.44.12.45,1.47.53,3.06s.17,2.93-.26,3.09-1.29-1.15-1.37-3S410.85,357.49,411.28,357.61Z" stroke="#000" stroke-miterlimit="10" stroke-width="0.5"/>
      <path d="M464.69,359.63c0,.21-2.94.58-7.74.8a191.13,191.13,0,0,1-37.44-2.12c-4.75-.77-7.64-1.46-7.61-1.68s3,.07,7.76.54,11.33,1.08,18.61,1.49,13.87.55,18.66.62S464.68,359.39,464.69,359.63Z" stroke="#000" stroke-miterlimit="10" stroke-width="0.5"/>
      <path d="M455.7,495.06a30.75,30.75,0,0,1,.12-5.05c.18-3.25.52-7.94,1-13.73,1-11.57,2.6-27.54,4.88-45.12s4.79-33.44,6.81-44.88c1-5.72,1.88-10.34,2.54-13.52a30.22,30.22,0,0,1,1.17-4.91,30,30,0,0,1-.55,5c-.48,3.21-1.17,7.86-2,13.6-1.73,11.47-4,27.34-6.34,44.9s-4.08,33.49-5.34,45l-1.52,13.66A28.14,28.14,0,0,1,455.7,495.06Z" stroke="#000" stroke-miterlimit="10" stroke-width="0.5"/>
      <path d="M432.64,466.42c-.45,0,1.39-22.66,4.1-50.51s5.28-50.39,5.73-50.35-1.39,22.66-4.1,50.51S433.09,466.46,432.64,466.42Z" stroke="#000" stroke-miterlimit="10" stroke-width="0.5"/>
      <path d="M521.66,460.69a16.08,16.08,0,0,1-.37-3.75c-.13-2.41-.26-5.91-.39-10.23-.26-8.64-.51-20.58-.68-33.76s-.24-25.13-.21-33.77c0-4.33.06-7.82.13-10.24a15.72,15.72,0,0,1,.27-3.76,17.29,17.29,0,0,1,.36,3.75c.13,2.41.26,5.91.39,10.23.27,8.64.51,20.58.69,33.76s.23,25.13.2,33.78c0,4.32-.06,7.82-.13,10.24A16.82,16.82,0,0,1,521.66,460.69Z" stroke="#000" stroke-miterlimit="10" stroke-width="0.5"/>
      <path d="M556,485.78a30.18,30.18,0,0,1-.8-5c-.4-3.19-.93-7.83-1.56-13.56-1.25-11.45-2.86-27.29-4.54-44.79s-3.11-33.36-4.06-44.84c-.48-5.74-.84-10.39-1-13.61a29.66,29.66,0,0,1-.16-5,29.1,29.1,0,0,1,.79,4.94c.41,3.2.94,7.83,1.56,13.56,1.25,11.46,2.86,27.3,4.54,44.8s3.12,33.36,4.07,44.85c.48,5.74.84,10.39,1.05,13.61A29.67,29.67,0,0,1,556,485.78Z" stroke="#000" stroke-miterlimit="10" stroke-width="0.5"/>
    </g>
    <g id="torso-2" data-name="torso">
      <path d="M456.41,232c-1.56,5.36-2.78,10-3.69,13.7-2.87,11.58-3,14.76-2.91,17.41.32,7.66,2.77,11.73,3.5,12.89a21.93,21.93,0,0,0,4,4.63A57.63,57.63,0,0,0,458.53,301a39,39,0,0,0-3.12,18c1.8.76,4.28,1.74,7.31,2.71a72.26,72.26,0,0,0,23.9,4,66.53,66.53,0,0,0,37.49-11.94,93.87,93.87,0,0,0-5.17-31.9c1.55-6.43,2.63-11.79,3.34-15.54,2.47-13.08,4.1-22,3.71-33.37a99.67,99.67,0,0,0-1.47-13.9,102.11,102.11,0,0,0-27.63-.67A103.23,103.23,0,0,0,456.41,232Z" fill="#fff"/>
      <path d="M526.52,219.38c0,.26-4.09-.22-10.64-.53-1.64-.07-3.43-.15-5.36-.14s-4,0-6.15.06a126.1,126.1,0,0,0-14,1.29,107.1,107.1,0,0,0-13.69,3.09c-2.05.68-4,1.27-5.8,2-.89.35-1.77.66-2.59,1l-2.34,1c-5.95,2.72-9.35,5-9.52,4.73a10.4,10.4,0,0,1,2.26-1.79l1.27-.88c.48-.3,1-.6,1.57-.94,1.14-.66,2.42-1.46,3.92-2.16L467.8,225c.82-.39,1.7-.73,2.59-1.12,1.79-.8,3.78-1.44,5.85-2.17a94.8,94.8,0,0,1,13.89-3.28,111.78,111.78,0,0,1,14.21-1.17c2.19,0,4.27,0,6.21.09s3.76.2,5.4.34,3.14.33,4.44.49,2.42.34,3.33.51A10.32,10.32,0,0,1,526.52,219.38Z" stroke="#000" stroke-miterlimit="10" stroke-width="0.5"/>
      <path d="M457.3,280.56c-.08.15-2.14-1-4.27-4a24,24,0,0,1-4-13.51,38.43,38.43,0,0,1,2.77-13.79c1.31-3.35,2.42-5.27,2.61-5.19s-.51,2.18-1.52,5.56a47.09,47.09,0,0,0-2.23,13.41A26,26,0,0,0,454,276C455.76,278.94,457.49,280.35,457.3,280.56Z" stroke="#000" stroke-miterlimit="10" stroke-width="0.5"/>
      <path d="M460.14,308.89c-.43.1-2.07-5.89-3.15-13.44s-1.21-13.75-.77-13.79,1.3,6.06,2.39,13.56S460.59,308.8,460.14,308.89Z" stroke="#000" stroke-miterlimit="10" stroke-width="0.5"/>
      <path d="M455.45,319.94c-.42.05-1.17-3.94-.54-8.85s2.32-8.6,2.72-8.44-.52,3.92-1.1,8.64S455.92,319.9,455.45,319.94Z" stroke="#000" stroke-miterlimit="10" stroke-width="0.5"/>
      <path d="M524.08,313.84a9.79,9.79,0,0,1-2.18,1.8l-1.23.89c-.46.31-1,.61-1.53,1-1.12.65-2.36,1.46-3.84,2.15l-2.3,1.13c-.8.39-1.68.7-2.56,1.07-1.76.78-3.73,1.37-5.79,2A66.48,66.48,0,0,1,476.79,326c-2.13-.36-4.17-.65-6-1.16-.93-.23-1.84-.42-2.7-.68l-2.44-.78a41.25,41.25,0,0,1-4.11-1.56c-.6-.25-1.16-.47-1.66-.7l-1.35-.7a9.39,9.39,0,0,1-2.42-1.47,9.87,9.87,0,0,1,2.68.89l1.39.56,1.69.57c1.21.4,2.56.93,4.12,1.31l2.43.67c.84.22,1.74.37,2.66.57,1.83.44,3.83.68,5.92,1a78.18,78.18,0,0,0,13.73.31,77.35,77.35,0,0,0,13.53-2.35c2-.61,4-1.14,5.71-1.85.88-.33,1.75-.61,2.55-1l2.3-1c1.49-.61,2.74-1.33,3.89-1.91l1.58-.81,1.29-.76A8.82,8.82,0,0,1,524.08,313.84Z" stroke="#000" stroke-miterlimit="10" stroke-width="0.5"/>
      <path d="M518.31,284.72c-.22-.05.38-3.55,1.46-9.17s2.64-13.38,3.87-22c.61-4.32,1-8.44,1.34-12.19s.4-7.15.4-10c0-5.7-.25-9.24,0-9.26a7.34,7.34,0,0,1,.54,2.45c.13.79.25,1.77.34,2.91s.23,2.44.26,3.88c.15,2.87.13,6.31,0,10.11s-.61,8-1.22,12.32c-1.25,8.7-3,16.44-4.36,22S518.53,284.77,518.31,284.72Z" stroke="#000" stroke-miterlimit="10" stroke-width="0.5"/>
      <path d="M524.44,314.58c-.48,0-.88-7.65-2.36-17s-3.4-16.74-2.94-16.87,3.09,7.17,4.55,16.62S524.86,314.59,524.44,314.58Z" stroke="#000" stroke-miterlimit="10" stroke-width="0.5"/>
    </g>
    <g id="hand_left" data-name="hand left">
      <path d="M457.94,231c-1.15,1.38-2.89,3.52-4.86,6.25-1.83,2.53-3.52,5.09-9.77,15.69-4.24,7.19-5.81,10-9.24,13.78-1.56,1.72-3,3-3.92,3.92q-5.67-6.36-11.48-13.63-4.71-5.9-8.82-11.58a36.18,36.18,0,0,1-4.26-2.48,74.94,74.94,0,0,1-6.29-5.15,36.1,36.1,0,0,0-6.64-4.66c-3.66-1.87-8.76-3.25-9.42-2.12-.41.72.73,2.72,8.13,8.64-3.49.67-7.08,1.42-10.77,2.28-5.23,1.21-10.22,2.53-15,3.91l6.41,1.91a24.06,24.06,0,0,0,2.46,4.34,19.78,19.78,0,0,0,5,5.09,16.77,16.77,0,0,0,7,3c2.76.45,3.57-.21,7.53,0a33.68,33.68,0,0,1,5.62.71c.87,2.58,2.2,6.19,4.09,10.38,3.62,8,7,13,11.95,20.31,4.47,6.57,6.61,8.94,10,10.46,1.3.6,4.66,2.06,8.25,1a9.91,9.91,0,0,0,4.05-2.42c11.26-10.56,8.72-5.73,17.46-15.79,9.08-10.45,16.41-18.89,23-32.48a117.54,117.54,0,0,0,6.21-15.7" fill="#fff"/>
      <path d="M428.8,271.69c-.18-.24,2.24-2.14,5.3-6l1.19-1.51c.4-.53.79-1.12,1.2-1.71.85-1.16,1.65-2.49,2.53-3.85,1.69-2.79,3.46-5.91,5.31-9.21s3.74-6.42,5.61-9.16c1-1.33,1.86-2.64,2.85-3.75.48-.56.93-1.11,1.38-1.63l1.39-1.4a24.52,24.52,0,0,1,2.54-2.26c.39-.31.75-.61,1.09-.86l1-.63c1.19-.74,1.88-1.1,1.94-1,.17.26-2.44,1.92-5.73,5.54l-1.27,1.44-1.27,1.65c-.92,1.11-1.74,2.42-2.67,3.74-1.76,2.73-3.57,5.83-5.43,9.12s-3.67,6.43-5.46,9.21c-.93,1.37-1.78,2.69-2.7,3.85-.45.58-.87,1.16-1.31,1.69l-1.3,1.48a27.29,27.29,0,0,1-2.38,2.41c-.36.34-.69.66-1,.94l-.93.71C429.52,271.36,428.87,271.78,428.8,271.69Z" stroke="#000" stroke-miterlimit="10" stroke-width="0.5"/>
      <path d="M434.45,302.62c-.13-.23,2.5-1.82,6.38-4.87l1.51-1.21c.52-.43,1-.9,1.59-1.37,1.11-.92,2.22-2,3.41-3.11,2.34-2.27,4.81-4.87,7.28-7.71,4.91-5.72,8.95-11.25,11.93-15.22s4.85-6.42,5-6.29-1.37,2.79-4.1,7a153.52,153.52,0,0,1-11.64,15.62,98.08,98.08,0,0,1-7.48,7.75c-1.25,1.09-2.41,2.15-3.58,3-.58.46-1.13.91-1.67,1.32l-1.61,1.14C437.39,301.54,434.54,302.78,434.45,302.62Z" stroke="#000" stroke-miterlimit="10" stroke-width="0.5"/>
      <path d="M430.71,271.18c-.3.31-5.87-4.74-11.47-12.09-2.82-3.65-5-7.24-6.61-9.74s-2.91-3.77-2.77-3.95,1.81.85,3.71,3.27c1,1.2,2,2.67,3.13,4.27s2.45,3.34,3.84,5.16C426.06,265.36,431,270.85,430.71,271.18Z" stroke="#000" stroke-miterlimit="10" stroke-width="0.5"/>
      <path d="M400.11,261.44c-.21,0-.26-1,.09-2.51A16.43,16.43,0,0,1,407,249.3c1.3-.83,2.23-1.11,2.33-.92.25.41-2.8,2.44-5.31,6S400.58,261.54,400.11,261.44Z" stroke="#000" stroke-miterlimit="10" stroke-width="0.5"/>
      <path d="M434.49,302.68c0,.08-.61.55-2,.85a10.88,10.88,0,0,1-5.9-.53,17.62,17.62,0,0,1-7.12-5.12,77.71,77.71,0,0,1-6.23-8.53,140.78,140.78,0,0,1-9.39-16.6c-2.09-4.42-3.12-7.26-2.92-7.35s1.61,2.57,3.94,6.82,5.67,10.06,9.73,16.24a96.39,96.39,0,0,0,6,8.43,17.54,17.54,0,0,0,6.41,5,11.65,11.65,0,0,0,5.39,1A14.42,14.42,0,0,1,434.49,302.68Z" stroke="#000" stroke-miterlimit="10" stroke-width="0.5"/>
      <path d="M392,240.1c-.09.12-1.13-.49-2.78-1.78-.82-.64-1.79-1.45-2.86-2.43-.53-.5-1.09-1-1.66-1.6a6.58,6.58,0,0,1-.89-1,2.44,2.44,0,0,1-.34-.8,1.74,1.74,0,0,1,.68-1.82,2.31,2.31,0,0,1,.78-.37,4.28,4.28,0,0,1,1.44-.12,11.92,11.92,0,0,1,2.68.45,19.62,19.62,0,0,1,5.08,2.44c.66.42,1.29.86,1.9,1.3l1.75,1.35,3.29,2.6,3,2.36a32.14,32.14,0,0,1,2.43,2.27,13.31,13.31,0,0,1,2.8,4c.44,1.08.48,1.73.38,1.75s-.36-.53-.94-1.46a17,17,0,0,0-3-3.45c-.73-.65-1.56-1.35-2.5-2.06l-3-2.22L396.8,237l-1.75-1.32c-.6-.42-1.21-.84-1.84-1.25a19.27,19.27,0,0,0-4.65-2.29,10.8,10.8,0,0,0-2.32-.45c-.75-.1-1.38.1-1.4.29a.37.37,0,0,0,0,.21,1.2,1.2,0,0,0,.15.37,4.81,4.81,0,0,0,.67.86c.53.59,1,1.14,1.53,1.66,1,1,1.85,1.92,2.58,2.64C391.21,239.14,392.06,240,392,240.1Z" stroke="#000" stroke-miterlimit="10" stroke-width="0.5"/>
      <path d="M364.68,246.16c-.17-.39,5.44-3,12.89-4.53s13.63-1.31,13.63-.88-6,1-13.31,2.48S364.85,246.61,364.68,246.16Z" stroke="#000" stroke-miterlimit="10" stroke-width="0.5"/>
      <path d="M384.1,247.1c0,.21-1,.69-2.87,1.09a27.8,27.8,0,0,1-7.32.51,27.44,27.44,0,0,1-7.21-1.38c-1.78-.62-2.79-1.22-2.71-1.42.16-.46,4.51.87,10,1.17S384,246.63,384.1,247.1Z" stroke="#000" stroke-miterlimit="10" stroke-width="0.5"/>
      <path d="M384.84,251.54c.05.2-.8.63-2.3.87a14.48,14.48,0,0,1-11.11-3.17c-1.14-1-1.64-1.81-1.49-2,.32-.35,3.05,2,7.16,3.13S384.75,251.07,384.84,251.54Z" stroke="#000" stroke-miterlimit="10" stroke-width="0.5"/>
      <path d="M384.86,255.9c0,.22-.79.43-2.08.39a13.67,13.67,0,0,1-4.91-1.14,14.31,14.31,0,0,1-2.45-1.37,5.67,5.67,0,0,1-1.66-1.75,2.65,2.65,0,0,1-.41-1.65c0-.4.21-.59.31-.57s.27.78,1,1.54a12.08,12.08,0,0,0,3.83,2.3C381.85,255.11,384.87,255.44,384.86,255.9Z" stroke="#000" stroke-miterlimit="10" stroke-width="0.5"/>
      <path d="M399.59,260.77c-.13.2-1.39-.53-3.65-.28-1.13.09-2.47.38-4.07.59a18.5,18.5,0,0,1-5.28-.12,15.31,15.31,0,0,1-8.51-4.23c-1.75-1.78-2.17-3.32-2-3.39s1,1.13,2.79,2.54a17,17,0,0,0,8,3.47,20.81,20.81,0,0,0,4.86.23,40.81,40.81,0,0,1,4.19-.25,6.52,6.52,0,0,1,2.88.69C399.41,260.37,399.65,260.69,399.59,260.77Z" stroke="#000" stroke-miterlimit="10" stroke-width="0.5"/>
    </g>
    <g id="PRIMARY_hair2">
      <path d="M462.8,176.21a18.76,18.76,0,0,1-3.22-7.76c-.26-1.62-1.29-7.85,2.55-12.47,2.54-3,5.95-3.89,10.52-5a42.66,42.66,0,0,1,10.76-1c6.25-.06,10.92-.11,16.55,1.92a23.3,23.3,0,0,1,8.25,4.73,18.59,18.59,0,0,1,4.25,5.73c.92,2,1.1,3.34,2,9.61.66,4.67,1,7,1,7,1.15,5,4.08,8.21,9.31,13.74s6.77,5.65,11.1,10.95c2.57,3.14,4,4.91,5.29,7.74,3.29,7.37,2,14.44,1.5,16.94-.75,3.82-2.13,10.86-8.48,15.88-7,5.5-15,4.75-17,4.56-8.9-.83-14.6-6.17-18.08-9.43a40.77,40.77,0,0,1-10.86-17.5,44.85,44.85,0,0,1-2-16.71,45.31,45.31,0,0,1,2-10.47Z"/>
    </g>
    <g id="head-2" data-name="head">
      <path d="M473.76,165.42a13.18,13.18,0,0,0-6.82,4.27c-.37.47-.71,1-2.59,5.17-1.78,3.95-2.66,5.92-3.51,8.22-.69,1.88-1.53,4.34-2.33,7.3a7.55,7.55,0,0,0,1.51,1.69,7.44,7.44,0,0,0,3,1.47c.12,1.24.34,3,.73,5,.61,3.21.95,5,2,7.06a12.58,12.58,0,0,0,3.9,4.94c1.87,1.31,4.36,1.81,9.33,2.82,1.88.38,3.29.59,4.41,1.8a5.72,5.72,0,0,1,1.37,3.38l2.28-.44a27.24,27.24,0,0,1-1.19-6.59,29.27,29.27,0,0,1,.78-8,30.21,30.21,0,0,1,1.82-5.36,7.81,7.81,0,0,0,4.14-2.95,8.26,8.26,0,0,0,1-6.58c-.14-.65-1-4.51-4.37-6.06-.7-.31-2.92-1.33-4.91-.16a4.84,4.84,0,0,0-2.12,3.11,11.38,11.38,0,0,1-4.09-1.8,12.29,12.29,0,0,1-4.25-5.72C471.48,172.5,473.15,167.12,473.76,165.42Z" fill="#fff"/>
      <path d="M461.22,192.31c0,.1-.41.12-1.09,0a3.68,3.68,0,0,1-1.2-.52,2.43,2.43,0,0,1-1.06-1.63,4.91,4.91,0,0,1,.32-2.15c.2-.66.43-1.37.68-2.11.51-1.47,1.11-3.08,1.8-4.74,2.75-6.67,5.89-11.63,6.27-11.42s-2.06,5.46-4.77,12l-1.89,4.65-.82,2A4.42,4.42,0,0,0,459,190c0,.83.83,1.37,1.35,1.68S461.25,192.19,461.22,192.31Z" stroke="#000" stroke-miterlimit="10" stroke-width="0.5"/>
      <path d="M484.26,217.39c-.13,0-.16-.5-.59-1.19a4.6,4.6,0,0,0-2.76-1.86c-1.41-.41-3.29-.26-5.48-.63a15.41,15.41,0,0,1-6.6-2.71,11.1,11.1,0,0,1-2.62-2.73,13.38,13.38,0,0,1-1.51-3.13,39.45,39.45,0,0,1-1.36-5.51c-.56-3.16-.59-5.15-.38-5.18s.67,1.88,1.51,4.92c.43,1.51.91,3.36,1.64,5.25a10.86,10.86,0,0,0,3.69,5.08,15.09,15.09,0,0,0,5.91,2.53c1.93.43,3.91.39,5.54,1a4.84,4.84,0,0,1,3,2.68C484.57,216.86,484.34,217.41,484.26,217.39Z" stroke="#000" stroke-miterlimit="10" stroke-width="0.5"/>
      <path d="M484.43,198c0-.12.48,0,1.24,0a7.51,7.51,0,0,0,3.08-.54,6.56,6.56,0,0,0,3.32-2.93,7.54,7.54,0,0,0,.74-5.34c-.93-3.83-4.57-6.4-7-6.31a3.42,3.42,0,0,0-2.56,1.27c-.44.56-.52,1-.64,1s-.26-.5.1-1.33a3.81,3.81,0,0,1,3-2.08,7.15,7.15,0,0,1,5.1,1.65,9.68,9.68,0,0,1,3.6,5.43,8.66,8.66,0,0,1-1,6.47,7.39,7.39,0,0,1-4.25,3.26,6.49,6.49,0,0,1-3.55.07C484.76,198.4,484.39,198.1,484.43,198Z" stroke="#000" stroke-miterlimit="10" stroke-width="0.5"/>
      <path d="M482.19,185.33c0,.1-.38.23-1.07.22a6.67,6.67,0,0,1-2.83-.83,10.87,10.87,0,0,1-3.28-2.87,14.72,14.72,0,0,1-2.35-4.76,15.2,15.2,0,0,1,.41-9.45c.89-2.29,2-3.37,2.16-3.26s-.52,1.41-1.06,3.61a17,17,0,0,0,.06,8.66,15.57,15.57,0,0,0,2,4.31,11.12,11.12,0,0,0,2.68,2.77C480.7,185,482.2,185.07,482.19,185.33Z" stroke="#000" stroke-miterlimit="10" stroke-width="0.5"/>
      <path d="M513.84,168.15c-.14,0-.17-1.15-.74-3.11a17.61,17.61,0,0,0-4.48-7.22,20.15,20.15,0,0,0-4.74-3.49,26.65,26.65,0,0,0-6.35-2.38,56.58,56.58,0,0,0-15.69-1.12c-2.81.13-5.54.4-8.17.78a31,31,0,0,0-7.29,1.68,9.43,9.43,0,0,0-4.54,4.49,17.11,17.11,0,0,0-1.84,5.54,14.58,14.58,0,0,0,1,8.36c.87,1.83,1.71,2.66,1.59,2.76s-1.05-.62-2.16-2.47a14.35,14.35,0,0,1-1.61-8.8,17.52,17.52,0,0,1,1.78-6,12.65,12.65,0,0,1,2-3,9.47,9.47,0,0,1,3.11-2.27,17.27,17.27,0,0,1,3.76-1.18c1.29-.28,2.59-.51,3.93-.72a81.09,81.09,0,0,1,8.32-.83,55.16,55.16,0,0,1,16.14,1.29,27.57,27.57,0,0,1,6.64,2.65,21,21,0,0,1,4.91,3.87,17,17,0,0,1,4.26,7.87A6.83,6.83,0,0,1,513.84,168.15Z" stroke="#000" stroke-miterlimit="10" stroke-width="0.5"/>
      <path d="M487.39,201.25a34.34,34.34,0,0,0-1.24,6.35,28.05,28.05,0,0,0,.6,7.51,43.37,43.37,0,0,0,3.22,9.48A54.05,54.05,0,0,0,496.19,235a36.22,36.22,0,0,0,10.23,9.21,27.27,27.27,0,0,0,14.43,4,21.52,21.52,0,0,0,14.52-6.11,21,21,0,0,0,4.35-6.88,42.88,42.88,0,0,0,2.32-7.74,29.82,29.82,0,0,0,.56-7.72,21.6,21.6,0,0,0-1.72-7.14,38.44,38.44,0,0,0-8-11.19c-3.07-3.14-6.17-5.87-8.8-8.6a43,43,0,0,1-6.36-8,25.16,25.16,0,0,1-3-7.17,17.89,17.89,0,0,1-.46-4.87,4.8,4.8,0,0,1,.26-1.68,27.58,27.58,0,0,0,.82,6.4,25.62,25.62,0,0,0,3.12,6.84,43.43,43.43,0,0,0,6.4,7.7c2.65,2.64,5.77,5.31,8.94,8.46A39.32,39.32,0,0,1,542.26,212a23.44,23.44,0,0,1,1.89,7.63,31,31,0,0,1-.54,8.13,45,45,0,0,1-2.39,8.06,22.61,22.61,0,0,1-4.68,7.4,23,23,0,0,1-15.64,6.56,28.5,28.5,0,0,1-15.25-4.27,37,37,0,0,1-10.53-9.68,53.5,53.5,0,0,1-6.2-10.76,43.4,43.4,0,0,1-3.07-9.78,26.88,26.88,0,0,1-.33-7.74,19.37,19.37,0,0,1,1.12-4.76A6.39,6.39,0,0,1,487.39,201.25Z" stroke="#000" stroke-miterlimit="10" stroke-width="0.5"/>
      <path d="M469.29,183.18c-.44.06-1-1.18-.94-2.76s.56-2.8,1-2.74.64,1.3.63,2.76S469.74,183.12,469.29,183.18Z" stroke="#000" stroke-miterlimit="10" stroke-width="0.5"/>
      <path d="M471.33,175c-.23,0-.39-.39-.67-.81a2.43,2.43,0,0,0-1.21-1.07,1.73,1.73,0,0,0-1.38.3c-.35.22-.51.56-.74.59s-.23-.09-.31-.31a1.34,1.34,0,0,1,.11-.95,2.23,2.23,0,0,1,1-1,2.42,2.42,0,0,1,1.82-.17,2.63,2.63,0,0,1,1.39,1.05,2.66,2.66,0,0,1,.44,1.25C471.82,174.61,471.54,175,471.33,175Z" stroke="#000" stroke-miterlimit="10" stroke-width="0.5"/>
      <path d="M471.13,191.65c.21.09.18.68-.1,1.58a7.58,7.58,0,0,1-1.95,3.22,4.76,4.76,0,0,1-3.71,1.36c-1.07-.14-1.54-.68-1.44-.85s.66-.14,1.42-.3a5.58,5.58,0,0,0,2.61-1.39,16.69,16.69,0,0,0,2-2.55C470.52,192,470.93,191.55,471.13,191.65Z" stroke="#000" stroke-miterlimit="10" stroke-width="0.5"/>
    </g>
    <g id="chair_back" data-name="chair back">
      <path d="M479.75,243.68c-.55,3.58-1.34,8.76-2.25,15-2.23,15.17-3.74,26.51-4.65,33.33-2.64,19.84-5.83,43.71-8.9,67,6-.72,13.52-1.66,22.27-2.84,21.72-2.93,32.87-4.46,47-7.65,6-1.36,13.49-3.23,22-5.78q.91-13.09,2.19-26.52c3-31.53,7.23-61.53,12.33-89.9a278.92,278.92,0,0,0-90,17.39Z" fill="#fff"/>
      <path d="M465.38,351.83a22,22,0,0,1,.18-4.28c.22-2.75.61-6.72,1.12-11.61,1-9.8,2.62-23.31,4.59-38.21s4-28.36,5.51-38.09c.78-4.86,1.44-8.79,1.94-11.5a21.59,21.59,0,0,1,.94-4.18,21.26,21.26,0,0,1-.31,4.27c-.31,2.74-.8,6.69-1.43,11.58-1.29,9.76-3.07,23.24-5,38.13s-3.76,28.37-5.05,38.13c-.67,4.88-1.22,8.83-1.64,11.55A20.52,20.52,0,0,1,465.38,351.83Z" stroke="#000" stroke-miterlimit="10" stroke-width="0.5"/>
      <path d="M567.32,226.45A13.25,13.25,0,0,1,564,227l-9.16,1c-7.73.86-18.38,2.26-30,4.37s-22.12,4.58-29.66,6.49l-8.93,2.29a13.5,13.5,0,0,1-3.32.68,13.21,13.21,0,0,1,3.14-1.29c2.06-.73,5.06-1.69,8.81-2.79a298.35,298.35,0,0,1,29.66-7,295.23,295.23,0,0,1,30.23-3.92c3.89-.29,7-.45,9.22-.49A13.76,13.76,0,0,1,567.32,226.45Z" stroke="#000" stroke-miterlimit="10" stroke-width="0.5"/>
      <path d="M555.24,342.65a21.93,21.93,0,0,1,0-4.46c.11-2.87.35-7,.71-12.12.72-10.22,2-24.33,3.82-39.86s3.91-29.54,5.6-39.65c.85-5.05,1.58-9.14,2.14-11.95a24,24,0,0,1,1-4.34,23.78,23.78,0,0,1-.4,4.44c-.39,2.85-.94,6.95-1.63,12-1.4,10.15-3.28,24.16-5.12,39.67s-3.28,29.58-4.29,39.77c-.52,5.09-.94,9.21-1.23,12.07A24.18,24.18,0,0,1,555.24,342.65Z" stroke="#000" stroke-miterlimit="10" stroke-width="0.5"/>
      <path d="M554.6,343.25a15.93,15.93,0,0,1-3.35,1.21c-2.18.69-5.37,1.59-9.33,2.62-7.91,2.06-19,4.54-31.28,6.57s-23.58,3.21-31.74,3.79c-4.08.29-7.38.46-9.67.51a15.48,15.48,0,0,1-3.56-.08,15.33,15.33,0,0,1,3.52-.55l9.61-1c8.11-.87,19.3-2.24,31.58-4.25s23.31-4.31,31.27-6.08l9.44-2.11A14.84,14.84,0,0,1,554.6,343.25Z" stroke="#000" stroke-miterlimit="10" stroke-width="0.5"/>
    </g>
  </g>
  <g id="CHARACTER1">
    <g id="PRIMARY_footleft-3" data-name="PRIMARY_footleft">
      <path d="M111.64,455.49c-1.06,1.42-.86,3-.74,5.35.47,8.88-1.45,7.52-1.51,19.19a109,109,0,0,0,1.16,16.32c8.16.21,15,0,20.25-.25,16.36-.84,23.95-2.77,26.22-3.37a95.34,95.34,0,0,0,9.55-3.1,19.11,19.11,0,0,0-4.66-3.35c-4.37-2.23-8.5-2.15-12.32-2-1.26,0-5.28.56-13.33,1.61a23.74,23.74,0,0,1-6.69.06,22.85,22.85,0,0,1-4.42-1.07,133.17,133.17,0,0,1-.09-18c.27-4.42.75-8.54,1.33-12.32C121.82,453.39,114.25,452,111.64,455.49Z"/>
    </g>
    <g id="leg_left-3" data-name="leg left">
      <path d="M36.47,338.81a85.73,85.73,0,0,0,.15,11.7c.54,6.77.81,10.16,2.6,14,3,6.39,8.21,9.82,11.39,11.91,2.73,1.81,5.66,3.26,12.83,5.64,10.8,3.59,18.61,5.09,35.79,8.94,4.57,1,8.24,1.86,10.4,2.36q-2.11,11.46-4.06,23.27Q102,438.27,99.32,459a41.34,41.34,0,0,1,10.84-4.13,36.74,36.74,0,0,1,17.73,0,35.33,35.33,0,0,1,11.2,5.13,304,304,0,0,1,8.55-43.26c3-10.73,3-22.15,6.12-32.82.54-1.83,2.24-7.32.15-13a18,18,0,0,0-4.08-6.34c-2.31-2.33-4.56-3.3-7.59-4.66-10.46-4.7-7-3.66-12.71-6-10.42-4.18-12.76-3.92-19.73-6.71a79.85,79.85,0,0,1-17-9.38,25.86,25.86,0,0,0-8.42-8.6C72.06,321.75,53.1,325.69,36.47,338.81Z" fill="#fff"/>
      <path d="M123,396.88a25.33,25.33,0,0,1-4.54-.81c-2.9-.62-7.08-1.57-12.24-2.79-10.31-2.42-24.53-5.87-40.21-9.79a99.37,99.37,0,0,1-11.42-3.3,28.91,28.91,0,0,1-9.64-5.73,25.45,25.45,0,0,1-5.75-8.39,35.18,35.18,0,0,1-2.4-8.46,63.18,63.18,0,0,1-.51-12.6,22.27,22.27,0,0,1,.43-4.6,29.19,29.19,0,0,1,.2,4.61,76.16,76.16,0,0,0,1,12.4,34.86,34.86,0,0,0,2.5,8.11,24.49,24.49,0,0,0,5.53,7.83,27.84,27.84,0,0,0,9.19,5.33,103,103,0,0,0,11.24,3.22c15.68,3.92,29.86,7.55,40.1,10.26,5.12,1.35,9.26,2.47,12.11,3.28A25.67,25.67,0,0,1,123,396.88Z" stroke="#000" stroke-miterlimit="10" stroke-width="0.5"/>
      <path d="M99.33,459c-.22,0,0-3.74.72-9.72S101.82,435,103.24,426s2.9-17.24,4.09-23.14,2.07-9.52,2.29-9.48-.25,3.74-1.15,9.68-2.21,14.14-3.62,23.2-2.72,17.25-3.66,23.19S99.56,459,99.33,459Z" stroke="#000" stroke-miterlimit="10" stroke-width="0.5"/>
      <path d="M136.49,458.58c-.14.22-2-.93-5.23-2.05a29.7,29.7,0,0,0-5.83-1.36,40.34,40.34,0,0,0-7.36-.14c-2.66.15-5.18.27-7.43.55a29,29,0,0,0-5.85,1.26c-3.23,1.1-4.8,2.66-5,2.44-.06-.07.24-.55,1-1.23a13,13,0,0,1,3.59-2.28,24.49,24.49,0,0,1,6.06-1.68,74,74,0,0,1,7.56-.68,35,35,0,0,1,7.66.27,25.2,25.2,0,0,1,6,1.78C135,456.91,136.6,458.43,136.49,458.58Z" stroke="#000" stroke-miterlimit="10" stroke-width="0.5"/>
      <path d="M140,456.52a4.29,4.29,0,0,1,0-1.42c.07-.93.16-2.3.35-4.06.4-3.52,1.13-8.59,2.33-14.8s2.85-13.55,4.68-21.69,3.75-17.1,5.06-26.6c.29-2.38.61-4.72.78-7.05a47.83,47.83,0,0,0,.33-6.8,12.39,12.39,0,0,0-1.64-6,14.73,14.73,0,0,0-4.32-4.22c-1.68-1.14-3.48-2.08-5.2-3S139,359,137.3,358.23c-3.32-1.63-6.46-3.05-9.36-4.26-5.81-2.43-10.63-4.07-14-5.17a43.2,43.2,0,0,1-5.19-1.78,5,5,0,0,1,1.41.21c.91.18,2.25.51,4,1a136,136,0,0,1,14.23,4.71c2.95,1.16,6.15,2.52,9.51,4.11,1.69.8,3.41,1.66,5.18,2.57s3.58,1.86,5.37,3.05a16,16,0,0,1,4.8,4.65,13.76,13.76,0,0,1,1.91,6.74,48.45,48.45,0,0,1-.3,7c-.18,2.36-.49,4.73-.78,7.13-1.33,9.59-3.32,18.59-5.22,26.71s-3.69,15.43-5,21.59-2.23,11.18-2.82,14.65A38.69,38.69,0,0,1,140,456.52Z" stroke="#000" stroke-miterlimit="10" stroke-width="0.5"/>
      <path d="M109.3,491c-.43,0-1-8-.39-17.85s2.3-17.72,2.72-17.65-.46,8-1.09,17.76S109.77,491,109.3,491Z" stroke="#000" stroke-miterlimit="10" stroke-width="0.5"/>
      <path d="M125.21,485c-.44,0-1.24-6.18-1.09-13.87s1.15-13.87,1.59-13.82.16,6.23,0,13.85S125.67,485,125.21,485Z" stroke="#000" stroke-miterlimit="10" stroke-width="0.5"/>
      <path d="M165.16,487.73c-.1.23-2.19-.6-5.67-1.44a45.37,45.37,0,0,0-13.8-1.19c-2.7.17-5.26.67-7.65,1a34.8,34.8,0,0,1-6.45.49,14.05,14.05,0,0,1-4.33-.78c-1-.36-1.45-.7-1.41-.79.09-.27,2.2.59,5.74.41a42.84,42.84,0,0,0,6.2-.81,69.17,69.17,0,0,1,7.79-1.17,37.65,37.65,0,0,1,14.23,1.71C163.31,486.34,165.25,487.55,165.16,487.73Z" stroke="#000" stroke-miterlimit="10" stroke-width="0.5"/>
      <path d="M166.54,489.65c.06.07-.5.69-1.8,1.39a23.84,23.84,0,0,1-5.87,1.9,163.87,163.87,0,0,1-40,4.12c-5.15-.13-8.32-.5-8.31-.71s3.18-.28,8.31-.44,12.19-.5,20-1.3,14.76-1.91,19.8-2.8a32.41,32.41,0,0,0,5.84-1.35C165.8,490,166.47,489.54,166.54,489.65Z" stroke="#000" stroke-miterlimit="10" stroke-width="0.5"/>
    </g>
    <g id="PRIMARY_footright-3" data-name="PRIMARY_footright">
      <path d="M159,467.57c-.05,1.85-.09,4.64,0,8,.1,5.67.42,8.27.58,13.38.08,2.65.14,6.44,0,11.08a4.6,4.6,0,0,0,2.9,6.59,10.52,10.52,0,0,0,6.49.24c4.6-1.12-.81,1,15.84-1.72,6.06-1,11-2,15.16-2.82,17.17-3.58,17.52-4.67,17.51-5,0-1.18-4.24-1.94-7-2.43-9-1.62-14.42-.38-23.41-.51a93.33,93.33,0,0,1-12.32-1c-.22-4-.32-8.35-.23-12.93.09-5.06.4-9.81.85-14.2a42,42,0,0,0-7.77-.17A42.82,42.82,0,0,0,159,467.57Z"/>
      <path d="M176.39,489"/>
    </g>
    <g id="leg_right-3" data-name="leg right">
      <path d="M64,343.37c-3,8-.35,15.72.41,17.92a30.8,30.8,0,0,0,9.32,13.25,37.29,37.29,0,0,0,11.76,6.72c5.92,2.32,10.46,2.84,15.37,3.53,19.1,2.66,18.43,4.21,37.94,6.58,6.17.76,11.27,1.21,14.67,1.49q-.68,10.15-1.18,20.59c-.93,19.61-1.28,38.63-1.16,57a46.07,46.07,0,0,1,10.09-3.39,41.46,41.46,0,0,1,16.21-.49,40.37,40.37,0,0,1,12.36,4.35c1.64-12,2.79-22.12,3.57-29.52,1.3-12.35,2-22.65,3.28-43.26,0,0,.54-8.35.15-19.65a63.44,63.44,0,0,0-2.22-16.39c-2.13-7.48-4.65-10.32-5.37-11.1-2.69-2.91-5.59-4.23-9-5.74a51.7,51.7,0,0,0-14-4c-18.64-2.49-40.53-3.92-40.91-4-5.52-.36-13.81-1-24-2.06A15.16,15.16,0,0,0,94.83,328C85.18,322.89,68.68,331,64,343.37Z" fill="#fff"/>
      <path d="M190.1,469.69a9.43,9.43,0,0,1,.09-2.12c.11-1.38.3-3.42.56-6.05.53-5.25,1.29-12.84,2.24-22.22s1.89-20.57,2.52-33c.32-6.22.53-12.75.58-19.52A107.26,107.26,0,0,0,194.62,366a43.9,43.9,0,0,0-3-10,16.44,16.44,0,0,0-6.47-7.31,44,44,0,0,0-8.85-4.16,67.63,67.63,0,0,0-9.16-2.4c-6.07-1.15-12-1.69-17.49-2.26s-10.65-1-15.35-1.41c-9.39-.78-17-1.29-22.27-1.63l-6.06-.43a10.08,10.08,0,0,1-2.11-.25,11.16,11.16,0,0,1,2.12-.08c1.39,0,3.44,0,6.08.12,5.28.16,12.91.49,22.33,1.13,4.71.31,9.86.72,15.39,1.21s11.45,1,17.64,2.13A53.46,53.46,0,0,1,186,347.37a17.93,17.93,0,0,1,7.07,8,44.85,44.85,0,0,1,3.17,10.36,107.35,107.35,0,0,1,1.47,21.09c-.08,6.8-.32,13.35-.68,19.59-.71,12.47-1.84,23.66-2.88,33s-2,17-2.75,22.18c-.36,2.62-.65,4.65-.87,6A11.4,11.4,0,0,1,190.1,469.69Z" stroke="#000" stroke-miterlimit="10" stroke-width="0.5"/>
      <path d="M154.52,393.54a14.34,14.34,0,0,1-3.47-.13c-2.22-.2-5.43-.54-9.39-1-7.91-1-18.81-2.6-30.77-4.83-6-1.1-11.67-2.25-16.82-3.37A61.81,61.81,0,0,1,80.59,380a22.71,22.71,0,0,1-7.7-5.65,8.45,8.45,0,0,1-1.84-3c.12-.08.78,1,2.31,2.54a24.46,24.46,0,0,0,7.7,5,67.17,67.17,0,0,0,13.32,3.72c5.16,1,10.83,2.13,16.8,3.24,11.94,2.22,22.79,4,30.65,5.29,3.92.65,7.11,1.16,9.3,1.55A14.81,14.81,0,0,1,154.52,393.54Z" stroke="#000" stroke-miterlimit="10" stroke-width="0.5"/>
      <path d="M151.12,470.4a11.57,11.57,0,0,1-.33-3c-.11-2-.19-4.8-.26-8.31-.12-7-.09-16.73.23-27.44s.88-20.4,1.43-27.4c.27-3.5.53-6.33.76-8.28a11,11,0,0,1,.51-3c.23,0,.13,4.35-.12,11.36s-.58,16.7-1,27.39-.52,20.38-.7,27.39S151.36,470.39,151.12,470.4Z" stroke="#000" stroke-miterlimit="10" stroke-width="0.5"/>
      <path d="M189.76,470.9c-.13.23-2.09-.75-5.39-1.85-.83-.27-1.73-.56-2.72-.8s-2.06-.48-3.18-.72a43.49,43.49,0,0,0-14.81-.21c-1.13.2-2.21.36-3.19.62s-1.92.48-2.75.73c-3.33,1-5.32,1.92-5.44,1.68s1.73-1.46,5.07-2.77a24.37,24.37,0,0,1,2.78-.94,32.63,32.63,0,0,1,3.27-.8,37.78,37.78,0,0,1,15.37.22c1.16.29,2.26.54,3.26.89a28.62,28.62,0,0,1,2.75,1C188.08,469.39,189.85,470.74,189.76,470.9Z" stroke="#000" stroke-miterlimit="10" stroke-width="0.5"/>
      <path d="M159.48,501c-.23,0-.26-1.8-.37-4.66s-.33-6.79-.53-11.18c-.39-8.76-.33-15.88.12-15.9s1.12,7.07,1.51,15.83a106.64,106.64,0,0,1,0,11.27C160.07,499.21,159.69,501,159.48,501Z" stroke="#000" stroke-miterlimit="10" stroke-width="0.5"/>
      <path d="M173.92,496.59c-.45,0-.59-6.51-.31-14.5s.88-14.45,1.33-14.43.58,6.5.3,14.49S174.37,496.6,173.92,496.59Z" stroke="#000" stroke-miterlimit="10" stroke-width="0.5"/>
      <path d="M215.88,495.65c-.06.25-2.36-.16-6.11-.42-1.87-.15-4.11-.21-6.6-.24s-5.23,0-8.11.1a113.15,113.15,0,0,1-14.86-.34c-3.81-.42-6.09-1.09-6-1.28s2.37,0,6.13.13,9,0,14.74-.14c2.9-.06,5.67-.06,8.19,0a61.45,61.45,0,0,1,6.69.59C213.69,494.65,215.93,495.47,215.88,495.65Z" stroke="#000" stroke-miterlimit="10" stroke-width="0.5"/>
      <path d="M216.7,497.81c.07.2-3.18,1.5-8.58,3.11a166.84,166.84,0,0,1-21.5,4.8c-4.25.67-8.33,1.15-12.05,1.46-1.86.15-3.62.29-5.28.36a39,39,0,0,1-4.67.09,7.63,7.63,0,0,1-3.83-1.24,5,5,0,0,1-1.8-2.47,3.2,3.2,0,0,1,0-1.92c.14-.42.32-.59.35-.57a5,5,0,0,0,.28,2.27,4.53,4.53,0,0,0,1.71,1.94,6.83,6.83,0,0,0,3.38.83,44.74,44.74,0,0,0,4.51-.27c1.65-.14,3.4-.32,5.24-.51,3.68-.4,7.72-.92,11.94-1.58,8.44-1.31,16-3,21.45-4.3S216.63,497.59,216.7,497.81Z" stroke="#000" stroke-miterlimit="10" stroke-width="0.5"/>
    </g>
    <g id="PRIMARY_hair1">
      <path d="M51,157.84c-.41,0-3.52.26-5,2.66a6.3,6.3,0,0,0-.4,4.57,12.4,12.4,0,0,0,4.18,7,8.18,8.18,0,0,0-4.8.47,9,9,0,0,0-4.24,4.27c-.85,1.47-1.61,2.78-1.25,4.37A4.88,4.88,0,0,0,41.58,184a17.47,17.47,0,0,0-1.39,4.27,15.81,15.81,0,0,0,0,6.51c1.33,5.15,6.61,8.33,10.72,9.42a16.71,16.71,0,0,0,8.53,0,15.39,15.39,0,0,0,11.45,7.11c3.6.33,6.24-.83,10.45-2.69a39.45,39.45,0,0,0,6.35-3.49,13.19,13.19,0,0,0,5.2,1.69c1,.1,6.63.67,10.38-3.58s2.53-9.53,2.4-10.11a12.22,12.22,0,0,0,6-2.26,12.58,12.58,0,0,0,4.88-8.21,12.72,12.72,0,0,0-5.66-11.92,14.64,14.64,0,0,0,3.95-4.5,11.19,11.19,0,0,0,1.78-7.59,10.59,10.59,0,0,0-4.92-6.86,12,12,0,0,0-1.62-5.34,9.52,9.52,0,0,0-4.51-4.35,9.36,9.36,0,0,0-7.43.35,14.28,14.28,0,0,0-3.35-5.1c-1.09-1-4.34-4.19-9.11-3.85a11.68,11.68,0,0,0-8.44,5.09,16,16,0,0,0-5.47-3.23,16.66,16.66,0,0,0-21.63,12.79A17.8,17.8,0,0,0,51,157.84Z"/>
    </g>
    <g id="head-3" data-name="head">
      <path d="M64.41,209.39,63.77,215c2.52-.27,5.25-.45,8.16-.51a93.84,93.84,0,0,1,11.66.51q.47-3.69.91-7.39a21.93,21.93,0,0,1-4.31,2.27,19.32,19.32,0,0,1-8.49,1.51A18.68,18.68,0,0,1,64.41,209.39Z" fill="#fff"/>
      <path d="M77.46,138.32s-.25,0-.62-.27l-.68-.4-1-.5a18.13,18.13,0,0,0-6.46-1.86,17.49,17.49,0,0,0-9.6,1.77A15.82,15.82,0,0,0,51.59,146a17.32,17.32,0,0,0-1,6.42,16.85,16.85,0,0,0,.39,3.05c.06.25.13.49.2.73l.1.35.08.29.12.32.48,1.23.24.61.12.3a2,2,0,0,1,0,.2c-.64-.18-1.38-.37-2.09-.54a2.94,2.94,0,0,0-1.13.07,4.41,4.41,0,0,0-1.52.75,5.54,5.54,0,0,0-1.88,2.65,4.57,4.57,0,0,0-.26,1.48,6.86,6.86,0,0,0,.15,1.45,8.57,8.57,0,0,0,.94,2.46,17.37,17.37,0,0,0,2.28,3.09c.61.68,1,1,.9,1.11s-.5-.18-1.22-.76a13.05,13.05,0,0,1-2.73-3,9,9,0,0,1-1.22-2.67,7.47,7.47,0,0,1-.27-1.68,6,6,0,0,1,.24-1.86,6.71,6.71,0,0,1,2.22-3.37,5.56,5.56,0,0,1,2-1.06l.59-.13.33,0a1.06,1.06,0,0,1,.31,0h0l0-.05-.05-.11-.09-.21,0-.05,0-.09-.11-.39c-.08-.26-.17-.52-.24-.79a19.29,19.29,0,0,1-.48-3.36,18.67,18.67,0,0,1,1-7,17,17,0,0,1,8.43-9.73,18,18,0,0,1,10.41-1.57,16.23,16.23,0,0,1,6.64,2.45l.9.65c.25.2.44.39.6.54C77.35,138.1,77.5,138.28,77.46,138.32Z" stroke="#000" stroke-miterlimit="10" stroke-width="0.5"/>
      <path d="M59.41,204.17c0,.1-.66.42-2,.7a16.32,16.32,0,0,1-5.83.08,15.73,15.73,0,0,1-7.9-3.67,14.88,14.88,0,0,1-5-9.46,12.11,12.11,0,0,1,.32-4.5,9.41,9.41,0,0,1,.79-2.07c.09-.16.17-.33.27-.48l.14-.23.07-.1c.06-.1.14-.15.16-.22a.64.64,0,0,1-.26-.18,4.27,4.27,0,0,1-.75-.9,5.14,5.14,0,0,1-.7-2.08A5.58,5.58,0,0,1,38.9,179a7.71,7.71,0,0,1,.74-1.73,14,14,0,0,1,2-2.57,16.44,16.44,0,0,1,2-1.87,6.46,6.46,0,0,1,3.68-1.48c1,0,1.4.3,1.38.36s-.51,0-1.33.15a6.79,6.79,0,0,0-3.12,1.72,17.39,17.39,0,0,0-1.78,1.89,14.14,14.14,0,0,0-1.71,2.44,4.87,4.87,0,0,0-.62,3,4,4,0,0,0,.53,1.46,3,3,0,0,0,.5.57,9.77,9.77,0,0,0,1.62.81c-.3.41-.76.9-1.06,1.34l-.22.32-.11.19c-.08.13-.15.27-.22.4a9.13,9.13,0,0,0-.65,1.75,11.14,11.14,0,0,0-.25,3.92,13.91,13.91,0,0,0,4.36,8.53,15.47,15.47,0,0,0,7.12,3.65,20,20,0,0,0,5.53.42C58.64,204.16,59.38,204.05,59.41,204.17Z" stroke="#000" stroke-miterlimit="10" stroke-width="0.5"/>
      <path d="M111.71,151.73c-.11,0-.24-.53-.54-1.49a15.39,15.39,0,0,0-1.7-3.83,9.29,9.29,0,0,0-4.55-3.84,7.91,7.91,0,0,0-3.48-.45,6.24,6.24,0,0,0-1.79.43,3.12,3.12,0,0,0-.42.18l-.21.11a2.91,2.91,0,0,0-.43.28c-.55.38-1.08.78-1.6,1.19-.11-.42-.19-.88-.29-1.33s-.2-.79-.31-1.19c0-.09,0-.22-.07-.28l-.06-.17-.13-.33c-.08-.23-.2-.45-.3-.67a11.17,11.17,0,0,0-6.17-5.61,10.86,10.86,0,0,0-6.92-.07A12.4,12.4,0,0,0,78.5,137c-.89.75-1.33,1.25-1.43,1.17s.18-.69,1-1.62a10.83,10.83,0,0,1,4.29-2.95,11.54,11.54,0,0,1,7.79-.27,12.32,12.32,0,0,1,7.16,6.32c.11.26.25.5.34.77l.15.39a2.42,2.42,0,0,1,.1.3l.09.32a1.46,1.46,0,0,0,0,.17,1.64,1.64,0,0,1,.22-.14s.06,0,0,0l.27-.13a5.15,5.15,0,0,1,.54-.23,7.37,7.37,0,0,1,2.23-.48,9,9,0,0,1,4.12.65,9.94,9.94,0,0,1,5,4.64,12.38,12.38,0,0,1,1.35,4.25C111.87,151.15,111.81,151.72,111.71,151.73Z" stroke="#000" stroke-miterlimit="10" stroke-width="0.5"/>
      <path d="M87.68,205.11c.11.18-1.3,1.38-3.8,3a31.6,31.6,0,0,1-4.68,2.51,19.46,19.46,0,0,1-6.41,1.6,14.27,14.27,0,0,1-6.6-1.05,11.36,11.36,0,0,1-4.34-3.31,13.9,13.9,0,0,1-1.91-3.06c-.35-.77-.47-1.23-.37-1.28s.41.3.91.95a28.72,28.72,0,0,0,2.22,2.62,11.66,11.66,0,0,0,4.06,2.7,14,14,0,0,0,5.93.8c4.33-.28,8-2.17,10.61-3.48S87.55,204.91,87.68,205.11Z" stroke="#000" stroke-miterlimit="10" stroke-width="0.5"/>
      <path d="M104.86,193.15a13.44,13.44,0,0,1,2.12-.57,12.78,12.78,0,0,0,5-2.72,11.72,11.72,0,0,0,3.8-7.27,11.51,11.51,0,0,0-3.11-9.34,10.76,10.76,0,0,0-1.32-1.21l-.18-.13a2.5,2.5,0,0,0-.34-.24l-.73-.46c-.48-.31-1-.59-1.45-.88l2-1.1a4.06,4.06,0,0,0,.46-.3l.29-.19a5.07,5.07,0,0,0,.45-.36,9.62,9.62,0,0,0,1.59-1.6,11.69,11.69,0,0,0,2-3.77,10.7,10.7,0,0,0-.14-7.07,7.47,7.47,0,0,0-3-3.68c-1-.57-1.67-.63-1.65-.75s.71-.24,1.91.22a7.45,7.45,0,0,1,3.7,3.77,11.37,11.37,0,0,1,.53,7.92,12.53,12.53,0,0,1-2.16,4.32,12.2,12.2,0,0,1-1.8,1.87,5.3,5.3,0,0,1-.52.42l-.3.21-.26.15a2,2,0,0,1,.19.12l.1.06.25.19a13.06,13.06,0,0,1,1.51,1.37,13.31,13.31,0,0,1,3,5.14,12.6,12.6,0,0,1-4.14,13.48,12,12,0,0,1-5.64,2.45C105.66,193.41,104.86,193.25,104.86,193.15Z" stroke="#000" stroke-miterlimit="10" stroke-width="0.5"/>
      <path d="M88.24,204.8c.15-.23,1.55.83,4.14,1.29A11.89,11.89,0,0,0,96.9,206a10.32,10.32,0,0,0,4.83-2.41,11.08,11.08,0,0,0,3-4.54,11.4,11.4,0,0,0,.66-4.46,9.89,9.89,0,0,0-.61-3c-.27-.67-.54-1-.46-1.09s.51.11,1,.78a7.41,7.41,0,0,1,1.2,3.19,11.13,11.13,0,0,1-.37,5.06,11.7,11.7,0,0,1-3.32,5.28,11,11,0,0,1-5.66,2.68,11.75,11.75,0,0,1-5-.31,8.92,8.92,0,0,1-3-1.48C88.44,205.25,88.18,204.88,88.24,204.8Z" stroke="#000" stroke-miterlimit="10" stroke-width="0.5"/>
      <path d="M63.16,218c-.44-.1-.41-1.79-.09-3.8s.85-3.63,1.3-3.58.65,1.77.31,3.84S63.6,218.14,63.16,218Z" stroke="#000" stroke-miterlimit="10" stroke-width="0.5"/>
      <path d="M83.59,215c-.43.06-1-1.67-.72-3.84s1.22-3.71,1.63-3.55.22,1.8,0,3.75S84.05,214.91,83.59,215Z" stroke="#000" stroke-miterlimit="10" stroke-width="0.5"/>
    </g>
    <g id="torso-3" data-name="torso">
      <path d="M37,220.39c-.52,2.43-1.27,6-2.14,10.2-3.36,16.5-5.18,25.43-6.37,34.93a219.07,219.07,0,0,0-.33,49c.76,7.37,1.78,13.55,2.63,18.06a32.56,32.56,0,0,0,9.94,7.16c3.39,1.56,6.76,2.37,12.71,2.92,8.1.76,15.44,1.45,25.3-.47a73,73,0,0,0,23.67-9.1l-2-35.61c2.51-10.94,4.85-22.61,6.88-34.95,2.07-12.62,3.61-24.67,4.74-36.06a55.46,55.46,0,0,0-14.81-8.64C85.37,213.18,74.9,214,63.77,215A123.06,123.06,0,0,0,37,220.39Z" fill="#fff"/>
      <path d="M106.39,221.41c-.12.26-3.7-1.51-9.84-3.23a85.57,85.57,0,0,0-24.61-2.91,137.89,137.89,0,0,0-24.72,3.07c-6.27,1.3-10.12,2.28-10.19,2a9.43,9.43,0,0,1,2.6-1c1.71-.57,4.21-1.32,7.33-2.12a112.73,112.73,0,0,1,24.95-3.57,75.61,75.61,0,0,1,25,3.44A51,51,0,0,1,104,220,8.8,8.8,0,0,1,106.39,221.41Z" stroke="#000" stroke-miterlimit="10" stroke-width="0.5"/>
      <path d="M29.32,324.63a19.09,19.09,0,0,1-.8-3.92c-.22-1.27-.45-2.82-.66-4.64s-.49-3.88-.66-6.17-.42-4.81-.55-7.51-.23-5.6-.31-8.64c-.07-6.09.07-12.79.56-19.8s1.35-13.66,2.3-19.67c.52-3,1-5.85,1.56-8.5s1.09-5.11,1.63-7.35,1.07-4.25,1.55-6,.92-3.28,1.31-4.5a18.79,18.79,0,0,1,1.37-3.76,18.78,18.78,0,0,1-.76,3.92c-.3,1.25-.66,2.78-1,4.56s-.88,3.79-1.31,6-1,4.7-1.42,7.35-.93,5.49-1.4,8.48c-.86,6-1.64,12.6-2.16,19.56s-.68,13.62-.69,19.67c0,3,0,5.9.16,8.59s.21,5.19.35,7.48.29,4.35.42,6.17.26,3.38.38,4.65A17.85,17.85,0,0,1,29.32,324.63Z" stroke="#000" stroke-miterlimit="10" stroke-width="0.5"/>
      <path d="M99.79,300.38c-.22-.05.37-3.64,1.43-9.41s2.55-13.73,4.19-22.52,3-16.77,4.1-22.54,1.78-9.33,2-9.3-.1,3.66-.88,9.48-2,13.84-3.63,22.65-3.31,16.75-4.66,22.47S100,300.43,99.79,300.38Z" stroke="#000" stroke-miterlimit="10" stroke-width="0.5"/>
      <path d="M102.39,333c-.43.05-1.66-8.32-2.21-18.72s-.21-18.85.23-18.85.85,8.4,1.4,18.76S102.85,333,102.39,333Z" stroke="#000" stroke-miterlimit="10" stroke-width="0.5"/>
      <path d="M98.56,335.71a9.72,9.72,0,0,1-2.47,1.47c-.83.41-1.86.87-3.06,1.41s-2.61,1.08-4.18,1.59a76.19,76.19,0,0,1-25.49,4.14,74.72,74.72,0,0,1-14.21-1.43,40.25,40.25,0,0,1-11.08-3.77,21.72,21.72,0,0,1-6.24-4.85,7.06,7.06,0,0,1-1.57-2.43c.11-.08.73.73,2,2a24.28,24.28,0,0,0,6.31,4.27,42.75,42.75,0,0,0,10.84,3.32,81.15,81.15,0,0,0,13.93,1.27,85.14,85.14,0,0,0,25.12-3.61C94.77,337.24,98.44,335.44,98.56,335.71Z" stroke="#000" stroke-miterlimit="10" stroke-width="0.5"/>
    </g>
    <g id="hand_right" data-name="hand right">
      <path d="M105.78,221a48.42,48.42,0,0,0-9.48,14.88c-6.76,16.83-1.78,32.43,0,37.29,6.48,9.65,10.9,17.3,13.89,22.81,2.06,3.81,4.35,8.28,9.33,10.53,3.58,1.61,7,1.4,9.82,1.19,4.16-.3,6.52-1.28,15.1-4.72,14.39-5.75,15.7-6.17,19.86-8.24s7.44-3.93,9.76-5.3c1.79-.32,4.41-.84,7.52-1.7a41,41,0,0,0,10-3.7c3.74-2.12,3.78-3.27,6.46-4.81s6.67-2.8,13.31-1.69a12.72,12.72,0,0,0-3.54-4.63c-3.67-2.95-8-2.84-11.66-2.74A29,29,0,0,0,185,272.71a6.81,6.81,0,0,0-2.58-1.07c-3.4-.63-7.18,1.55-9.85,5.35l-4.71-4.91c-6.06.45-12.51,1.13-19.29,2.13-5.49.81-10.71,1.75-15.64,2.78-5.76-11.48-9.68-20-12.21-25.71-3.57-8-5.35-12-5.58-12.64-1.62-4.34-2.62-7.8-5.35-12.21A41.91,41.91,0,0,0,105.78,221Z" fill="#fff"/>
      <path d="M133.54,278.32c-.2.1-2-3-4.64-8.14s-6.14-12.33-9.71-20.4c-1.79-4-3.43-7.91-4.88-11.45s-2.65-6.76-3.85-9.35c-2.32-5.25-4.85-7.82-4.66-8s.81.47,1.89,1.7a28.41,28.41,0,0,1,3.81,5.78c1.36,2.6,2.67,5.79,4.19,9.28s3.22,7.34,5,11.37c3.56,8.05,6.87,15.3,9.25,20.56S133.74,278.22,133.54,278.32Z" stroke="#000" stroke-miterlimit="10" stroke-width="0.5"/>
      <path d="M166.62,293.62a17.42,17.42,0,0,1-3.45,2c-2.27,1.15-5.61,2.73-9.8,4.53s-9.24,3.79-14.94,5.76a58.56,58.56,0,0,1-9.18,2.63,19,19,0,0,1-5.19.22,12.88,12.88,0,0,1-5.18-1.67c-3.21-1.92-5.29-4.85-7.17-7.51s-3.64-5.34-5.22-7.91a145.06,145.06,0,0,1-7.62-14.12c-1.94-4.13-3.3-7.56-4.17-10a17.28,17.28,0,0,1-1.15-3.8,20.65,20.65,0,0,1,1.74,3.56c1,2.31,2.56,5.66,4.62,9.7s4.66,8.76,7.85,13.82c1.6,2.53,3.35,5.14,5.25,7.79s3.89,5.36,6.7,7a11.39,11.39,0,0,0,4.53,1.46,18,18,0,0,0,4.75-.19,59.82,59.82,0,0,0,9-2.47c5.69-1.89,10.76-3.76,15-5.41s7.62-3.07,10-4A20.08,20.08,0,0,1,166.62,293.62Z" stroke="#000" stroke-miterlimit="10" stroke-width="0.5"/>
      <path d="M167.85,272.08c0,.46-7.59,1.21-16.94,2.38s-16.93,2.28-17,1.83,7.4-2.29,16.82-3.45S167.83,271.64,167.85,272.08Z" stroke="#000" stroke-miterlimit="10" stroke-width="0.5"/>
      <path d="M173.31,291.14c-.23-.07-.05-1.15,0-2.86a21.23,21.23,0,0,0-3.3-12.6c-.91-1.45-1.6-2.3-1.43-2.48s1.13.41,2.35,1.79a14.25,14.25,0,0,1,1.84,2.64,17.87,17.87,0,0,1,1.46,3.68,17.51,17.51,0,0,1,.53,3.91,15.05,15.05,0,0,1-.31,3.21C174.09,290.22,173.5,291.21,173.31,291.14Z" stroke="#000" stroke-miterlimit="10" stroke-width="0.5"/>
      <path d="M185.74,272.45c0,.22-.9.27-2.26.18a20.67,20.67,0,0,0-2.22-.14,7.09,7.09,0,0,0-2.32,1c-3.52,2-6.2,3.94-6.51,3.59s2-2.94,5.72-5c.46-.25.9-.49,1.4-.72a4.25,4.25,0,0,1,1.64-.39,5.93,5.93,0,0,1,1.42.21l1.07.3C185,271.88,185.78,272.23,185.74,272.45Z" stroke="#000" stroke-miterlimit="10" stroke-width="0.5"/>
      <path d="M212.62,277.4c0,.23-2.28.63-6,1.1-1.87.27-4.13.41-6.48.92a12.64,12.64,0,0,0-3.45,1.24,14.27,14.27,0,0,0-3.08,2.49,29.21,29.21,0,0,1-3.15,2.93,16.35,16.35,0,0,1-3.56,2,22.43,22.43,0,0,1-6.62,1.53c-3.83.31-6.17,0-6.17-.22s2.35-.34,6-.92a25.09,25.09,0,0,0,6.17-1.77,15.42,15.42,0,0,0,3.18-1.91,30.67,30.67,0,0,0,3-2.81,14.68,14.68,0,0,1,3.47-2.74,13.55,13.55,0,0,1,3.91-1.31,51.48,51.48,0,0,1,6.68-.59C210.26,277.18,212.6,277.18,212.62,277.4Z" stroke="#000" stroke-miterlimit="10" stroke-width="0.5"/>
      <path d="M201.61,269.66c0,.48-4.68.69-10.14,2.27s-9.57,3.79-9.83,3.38,3.63-3.34,9.38-4.95S201.65,269.24,201.61,269.66Z" stroke="#000" stroke-miterlimit="10" stroke-width="0.5"/>
      <path d="M202.13,270.43c.07.21-.69.68-2,1.12s-3.23.82-5.24,1.26a25,25,0,0,0-4.93,1.53c-1.21.52-1.93,1-2.09.81s.32-.95,1.51-1.81a14.09,14.09,0,0,1,5.16-2.13,50.94,50.94,0,0,1,5.34-.78C201.21,270.29,202.06,270.21,202.13,270.43Z" stroke="#000" stroke-miterlimit="10" stroke-width="0.5"/>
      <path d="M207.8,272.88c0,.47-3.7.41-8.07,1.21s-7.79,2.09-8,1.66,3.06-2.45,7.7-3.26S207.87,272.46,207.8,272.88Z" stroke="#000" stroke-miterlimit="10" stroke-width="0.5"/>
      <path d="M211.24,274.85c-.05.46-2.78.52-6.07.88s-6,.84-6.11.4,2.45-1.67,5.94-2S211.3,274.42,211.24,274.85Z" stroke="#000" stroke-miterlimit="10" stroke-width="0.5"/>
    </g>
    <g id="chair_legs-2" data-name="chair legs">
      <path d="M110.35,383.33a49.15,49.15,0,0,0,18.85,1.29c4.73-.55,12.5-.94,25.78-.23.15,2.42.31,4.84.46,7.26q-14.4.45-29.52.42-7.61,0-15-.17Z" fill="#fff"/>
      <path d="M155,384.39c0,.45-10,.91-22.38,1-6.2,0-11.76,0-15.86-.14a14.62,14.62,0,0,1-4.82-1c-1.08-.45-1.57-.89-1.52-1s.64.13,1.72.37a19.32,19.32,0,0,0,4.65.41c4-.12,9.64-.3,15.81-.34C144.92,383.67,155,383.94,155,384.39Z" stroke="#000" stroke-miterlimit="10" stroke-width="0.5"/>
      <path d="M155,391.6c0,.44-9.83,1.19-22,1.27s-22-.53-22-1,9.87-.58,22-.66S155,391.14,155,391.6Z" stroke="#000" stroke-miterlimit="10" stroke-width="0.5"/>
      <path d="M155.44,391.65c-.45,0-.81-1.79-.81-4s.36-4,.81-4,.82,1.79.82,4S155.89,391.65,155.44,391.65Z" stroke="#000" stroke-miterlimit="10" stroke-width="0.5"/>
      <path d="M14.28,503.67a24.49,24.49,0,0,1,.44-4.55c.39-2.91,1-7.12,1.77-12.31,1.57-10.39,3.72-24.73,6.1-40.58l6-40.58c.78-5.2,1.43-9.4,1.9-12.3a24.81,24.81,0,0,1,.91-4.48,24.37,24.37,0,0,1-.28,4.57c-.28,2.92-.75,7.15-1.39,12.36-1.26,10.43-3.18,24.82-5.54,40.67S19.47,476.65,17.63,487c-.92,5.18-1.7,9.35-2.28,12.23A25.16,25.16,0,0,1,14.28,503.67Z" stroke="#000" stroke-miterlimit="10" stroke-width="0.5"/>
      <ellipse cx="80.64" cy="430.57" rx="39.01" ry="0.82" transform="translate(-357.38 436.71) rotate(-80.19)" stroke="#000" stroke-miterlimit="10" stroke-width="0.5"/>
      <path d="M119.83,517.24a28.45,28.45,0,0,1-.6-4.84c-.29-3.12-.63-7.64-1-13.23-.77-11.17-1.67-26.62-2.44-43.7s-1.28-32.54-1.52-43.74c-.12-5.6-.18-10.13-.18-13.27a28.66,28.66,0,0,1,.16-4.87,28.91,28.91,0,0,1,.47,4.85c.2,3.13.43,7.66.7,13.25.51,11.19,1.22,26.64,2,43.71s1.46,32.52,2,43.71c.24,5.59.41,10.12.5,13.25A27.9,27.9,0,0,1,119.83,517.24Z" stroke="#000" stroke-miterlimit="10" stroke-width="0.5"/>
      <path d="M169.38,517.75c-.45.06-4.38-28.11-8.77-62.91s-7.6-63-7.16-63.11,4.38,28.11,8.77,62.91S169.82,517.69,169.38,517.75Z" stroke="#000" stroke-miterlimit="10" stroke-width="0.5"/>
    </g>
    <g id="chair_back-2" data-name="chair back">
      <path d="M0,242.16,25.41,388.38c3,0,7.57,0,13.22.05,16.11.17,26.31.65,42.54,1.19,6.89.23,17,.54,29.5.82q-2.55-19.45-4.52-39.87c-3.54-36.87-5.12-72-5.3-105Q87.41,244,73.13,243A622.81,622.81,0,0,0,0,242.16Z" fill="#fff"/>
      <ellipse cx="12.63" cy="315.2" rx="0.82" ry="70.21" transform="translate(-53.37 6.73) rotate(-9.78)" stroke="#000" stroke-miterlimit="10" stroke-width="0.5"/>
      <path d="M98.48,244.83a15.86,15.86,0,0,1-3.79,0l-10.29-.55c-8.68-.48-20.68-1.08-33.95-1.44s-25.27-.41-34-.39H6.17a17.41,17.41,0,0,1-3.78-.19,16,16,0,0,1,3.76-.45c2.43-.18,5.95-.36,10.31-.51,8.7-.31,20.75-.45,34-.09s25.31,1.14,34,1.92c4.34.39,7.85.76,10.26,1.07A17.42,17.42,0,0,1,98.48,244.83Z" stroke="#000" stroke-miterlimit="10" stroke-width="0.5"/>
      <path d="M111.19,391.54a5.29,5.29,0,0,1-.36-1.44c-.19-1-.43-2.36-.73-4.17-.61-3.63-1.38-8.89-2.26-15.41-1.76-13-3.79-31.09-5.32-51.11s-2.25-38.17-2.48-51.32c-.12-6.58-.15-11.9-.1-15.57,0-1.84,0-3.27.09-4.24a4.68,4.68,0,0,1,.14-1.48,5.32,5.32,0,0,1,.18,1.48c.07,1,.14,2.39.22,4.23.15,3.67.36,9,.62,15.54.53,13.13,1.44,31.25,3,51.24s3.38,38,4.84,51.09c.74,6.53,1.34,11.81,1.75,15.46.2,1.83.34,3.25.42,4.21A5,5,0,0,1,111.19,391.54Z" stroke="#000" stroke-miterlimit="10" stroke-width="0.5"/>
      <path d="M110.63,390.44c0,.45-18.7.29-41.74-.35s-41.7-1.53-41.69-2,18.7-.29,41.74.35S110.64,390,110.63,390.44Z" stroke="#000" stroke-miterlimit="10" stroke-width="0.5"/>
    </g>
  </g>
</svg>
