<svg xmlns="http://www.w3.org/2000/svg" viewBox="0 0 577.65 536.62">
  <title>celebrating success</title>
  <g id="SIMPLE_BACKGROUND">
    <path d="M247.6,157.37c1.57,2.44,3.38,5,5.46,7.63a98.13,98.13,0,0,0,10.26,11.05l6.82-6.78a28.49,28.49,0,0,1-7.06-6.64,28.19,28.19,0,0,1-4.44-8.77Z" fill="#fff"/>
    <path d="M267.85,12.73a35.3,35.3,0,0,1-12.71,20l9,6.78A61.69,61.69,0,0,0,270,31.46a61.87,61.87,0,0,0,5.83-12.7Z" fill="#fff"/>
    <path d="M83,2.39l8.12-1.32A31.87,31.87,0,0,0,94.78,9a31.59,31.59,0,0,0,7.16,7.78l-5.89,4.62A21.08,21.08,0,0,1,86.7,13.9,21,21,0,0,1,83,2.39Z" fill="#fff"/>
    <path d="M86.25,81c-1.31,1.17.51,4.06.09,8-.45,4.16-3.13,7.32-5.46,9.42a7.77,7.77,0,0,0,2.57,4.27c3.43,2.8,8,1.09,8.14,1A25.64,25.64,0,0,0,94.84,95a26.06,26.06,0,0,0-.61-11.65C89,80.22,87,80.3,86.25,81Z" fill="#fff"/>
    <path d="M69.71,288.82a18.26,18.26,0,0,1,.79,8.12,18.87,18.87,0,0,1-5.41,10.77,16.73,16.73,0,0,0,4.47,2.3,17.13,17.13,0,0,0,7.77.7,21.7,21.7,0,0,0,3-6.23A22.89,22.89,0,0,0,80,291.35Z" fill="#fff"/>
    <path d="M31.58,345.29c.44,2.9,1.05,6,1.88,9.29a99.06,99.06,0,0,0,4.75,14.18l6.73-2.66q-1.9-6.68-4-13.5-1.38-4.53-2.79-9Z" fill="#fff"/>
    <path d="M235.48,483.63a42,42,0,0,0,4.85,8.27,42.93,42.93,0,0,0,14,11.94l7.93-7.74a58.82,58.82,0,0,1-17.75-17.86Z" fill="#fff"/>
    <path d="M290,387.94A29.63,29.63,0,0,1,277.66,403a11,11,0,0,0,11.59,3.93,23,23,0,0,0,4.68-5.34,23.64,23.64,0,0,0,3.56-10.84Z" fill="#fff"/>
    <path d="M483.37,480a100,100,0,0,1-8.43,25.86l9.74,10.83c.85-2.41,1.67-4.91,2.44-7.52a147.21,147.21,0,0,0,5.25-26.67Z" fill="#fff"/>
    <path d="M519.38,282.06l-8.13,18.61,8.32,3.11,7.89-20Z" fill="#fff"/>
    <path d="M540.77,181.09q1.93,9.53,3.88,19l8.21-2.11q-2.19-9.25-4.37-18.53Z" fill="#fff"/>
    <path d="M474.27,247.8q3.23,7.14,6.46,14.27l6.64-2-5-14.54Z" fill="#fff"/>
    <path d="M550.07,69a69.11,69.11,0,0,0,.8,7.76,70,70,0,0,0,5.81,18.66l8-3.1a134.89,134.89,0,0,1-4.4-15.46c-.76-3.45-1.35-6.75-1.8-9.87Z" fill="#fff"/>
    <path d="M498.86,15c-1.91,1.58-1.2,4.46-2.16,9.32a30.78,30.78,0,0,1-4.4,10.77l7.6,2.1a41,41,0,0,0,4.2-6,42.69,42.69,0,0,0,5.13-15C502.93,13.35,500.19,13.93,498.86,15Z" fill="#fff"/>
    <path d="M395.94,6.85c-.87,2.05,1.15,4.59,3.16,7.49A100.65,100.65,0,0,1,409,32.49l7.5-1.92q-2.39-5.31-4.69-11.23C409.76,14.05,408,9,406.54,4.1,404.07,4,397.24,3.77,395.94,6.85Z" fill="#fff"/>
    <path d="M290.81,233.5A62.52,62.52,0,0,0,300.12,258l10.6-5.16a69.26,69.26,0,0,1-10.05-18.68Z" fill="#fff"/>
    <path d="M254.23,292.23c-1.6,1.21-.12,4.58-.67,10.2a27.73,27.73,0,0,1-2.2,8.34l8,.06a19.53,19.53,0,0,0,2.49-16.29C257,291.45,255.11,291.57,254.23,292.23Z" fill="#fff"/>
    <path d="M251.17,308.9c-.41-.23.91-3.13,1.65-6.9s.69-6.94,1.16-7,1.27,3.24.43,7.31S251.53,309.14,251.17,308.9Z" stroke="#000" stroke-miterlimit="10" stroke-width="0.5"/>
    <path d="M259.35,310.82c-.2-.17.67-1.3,1.35-3.39a28,28,0,0,0,1-8.6c0-.85,0-1.76,0-2.48s-.23-1.2-.62-1.42a5.61,5.61,0,0,0-1.8-.42l-1.83-.24c-2.25-.25-3.67-.35-3.68-.58s1.4-.53,3.73-.57c.59,0,1.23,0,1.91,0a6.12,6.12,0,0,1,2.39.45,2.64,2.64,0,0,1,1.13,1.16,4.44,4.44,0,0,1,.37,1.44c.06.93,0,1.73.05,2.63a21.56,21.56,0,0,1-1.6,9C260.73,310,259.48,311,259.35,310.82Z" stroke="#000" stroke-miterlimit="10" stroke-width="0.5"/>
    <path d="M259.88,309.58c.13.16-.12.69-.86,1.23a5.71,5.71,0,0,1-3.38.94,5.57,5.57,0,0,1-3.29-1.19c-.71-.58-.92-1.13-.78-1.28.33-.32,1.9.8,4.13.84S259.57,309.24,259.88,309.58Z" stroke="#000" stroke-miterlimit="10" stroke-width="0.5"/>
    <path d="M289.59,388.43c.2.08,0,1.17-.66,2.8a24.55,24.55,0,0,1-8.64,10.56c-1.48,1-2.51,1.38-2.62,1.2-.26-.4,3.18-2.9,6.42-6.9S289.15,388.25,289.59,388.43Z" stroke="#000" stroke-miterlimit="10" stroke-width="0.5"/>
    <path d="M298.36,392c-.41.21-1.65-1.55-3.92-2.6s-4.38-1-4.48-1.46c0-.2.49-.54,1.47-.68a7,7,0,0,1,6.56,3.17C298.49,391.28,298.55,391.9,298.36,392Z" stroke="#000" stroke-miterlimit="10" stroke-width="0.5"/>
    <path d="M287.26,407.43c0,.22-.47.48-1.32.58a7.43,7.43,0,0,1-6-2.28c-.57-.64-.76-1.16-.61-1.31.35-.31,1.85.84,3.95,1.61S287.21,407,287.26,407.43Z" stroke="#000" stroke-miterlimit="10" stroke-width="0.5"/>
    <path d="M297.63,391.53c.21,0,.32,1.15,0,2.94a20.36,20.36,0,0,1-7,12c-1.42,1.13-2.45,1.59-2.57,1.42-.3-.39,3.12-3.09,5.72-7.62S297.15,391.47,297.63,391.53Z" stroke="#000" stroke-miterlimit="10" stroke-width="0.5"/>
    <path d="M245.13,477.59c.33.28-1.17,2.59-4,4.34s-5.56,2.12-5.65,1.7,2.2-1.45,4.78-3.08S244.78,477.29,245.13,477.59Z" stroke="#000" stroke-miterlimit="10" stroke-width="0.5"/>
    <path d="M262.23,496.1c-.09.19-1.41-.16-3.37-1.15a30.13,30.13,0,0,1-6.94-5,29.61,29.61,0,0,1-5.28-6.72c-1.08-1.91-1.48-3.21-1.3-3.31.44-.23,3,4.42,7.7,8.85S262.44,495.66,262.23,496.1Z" stroke="#000" stroke-miterlimit="10" stroke-width="0.5"/>
    <path d="M253.62,503c-.09.19-1.42-.21-3.38-1.26a30.93,30.93,0,0,1-6.94-5.22,30.55,30.55,0,0,1-5.25-6.93c-1.06-2-1.46-3.28-1.27-3.37.44-.23,3,4.54,7.67,9.14S253.84,502.59,253.62,503Z" stroke="#000" stroke-miterlimit="10" stroke-width="0.5"/>
    <path d="M261.93,496.11c.2.09.13.75-.27,1.72a11.2,11.2,0,0,1-2.3,3.36,11.37,11.37,0,0,1-3.32,2.35c-1,.42-1.63.49-1.72.29-.2-.42,1.86-1.71,3.88-3.79S261.5,495.92,261.93,496.11Z" stroke="#000" stroke-miterlimit="10" stroke-width="0.5"/>
    <path d="M301.11,258.43c0,.1-.46.26-1.15-.13a6.91,6.91,0,0,1-2-2.27,43.08,43.08,0,0,1-4.33-8.52c-2.7-7-2.94-13.2-2.52-13.21s1.43,5.83,4,12.63a88,88,0,0,0,3.81,8.52,10.2,10.2,0,0,0,1.36,2.34C300.75,258.22,301.12,258.31,301.11,258.43Z" stroke="#000" stroke-miterlimit="10" stroke-width="0.5"/>
    <path d="M300.66,234.18c.09.43-2.15,1.19-5,1s-5-1.25-4.83-1.66,2.3-.14,4.94,0S300.59,233.73,300.66,234.18Z" stroke="#000" stroke-miterlimit="10" stroke-width="0.5"/>
    <path d="M310.71,252.85c-.31.29-3.72-3.14-6.31-8.43s-3.27-10.07-2.85-10.14,1.78,4.34,4.31,9.42S311.08,252.55,310.71,252.85Z" stroke="#000" stroke-miterlimit="10" stroke-width="0.5"/>
    <path d="M311,251.74c.29.33-1.69,2.52-4.9,4.13s-6.14,1.91-6.23,1.48,2.5-1.41,5.5-2.94S310.7,251.39,311,251.74Z" stroke="#000" stroke-miterlimit="10" stroke-width="0.5"/>
    <path d="M258.24,154.75c.1.19-.29.64-1.1,1.1a9.27,9.27,0,0,1-7,.72c-.88-.28-1.36-.64-1.3-.85.14-.45,2.22-.17,4.7-.44S258,154.34,258.24,154.75Z" stroke="#000" stroke-miterlimit="10" stroke-width="0.5"/>
    <path d="M270.13,169.26c-.12.18-1.16-.27-2.62-1.32a24.53,24.53,0,0,1-8.34-11.17c-.6-1.71-.73-2.83-.52-2.9.45-.15,2,3.91,5.19,8.11S270.41,168.87,270.13,169.26Z" stroke="#000" stroke-miterlimit="10" stroke-width="0.5"/>
    <path d="M263.31,176c-.28.32-4.68-3.08-9.07-8.31s-7-10.13-6.64-10.35,3.57,4.19,7.89,9.3S263.62,175.69,263.31,176Z" stroke="#000" stroke-miterlimit="10" stroke-width="0.5"/>
    <path d="M269.22,169.86c.2.08.21.68-.15,1.54a6.92,6.92,0,0,1-2.34,2.77,6.83,6.83,0,0,1-3.41,1.23c-.93,0-1.49-.18-1.49-.39,0-.47,2-.79,4-2.18S268.79,169.7,269.22,169.86Z" stroke="#000" stroke-miterlimit="10" stroke-width="0.5"/>
    <path d="M254.3,32.88c-.29-.41,4.36-3.56,8.09-9.18s5-11.07,5.46-11c.2,0,.18,1.47-.38,3.7a27.28,27.28,0,0,1-9.89,14.69C255.73,32.49,254.41,33.05,254.3,32.88Z" stroke="#000" stroke-miterlimit="10" stroke-width="0.5"/>
    <path d="M264.87,39.75c-.05.21-.78.27-1.91,0a12.25,12.25,0,0,1-7.21-5.17c-.61-1-.79-1.7-.61-1.82.41-.24,2,1.9,4.68,3.76S265,39.29,264.87,39.75Z" stroke="#000" stroke-miterlimit="10" stroke-width="0.5"/>
    <path d="M275.81,18.76c-.31.34-2.21-.94-4.55-2.45s-4.26-2.76-4.08-3.18,2.51.2,5,1.81S276.12,18.44,275.81,18.76Z" stroke="#000" stroke-miterlimit="10" stroke-width="0.5"/>
    <path d="M262.37,41.79c-.35-.3,3.22-5.14,7.3-11.31l2.85-4.37c.88-1.35,1.64-2.54,2.18-3.59,1.1-2.1,1.3-3.58,1.54-3.57s.42,1.64-.49,4a26.62,26.62,0,0,1-1.94,3.91c-.81,1.41-1.75,2.93-2.78,4.49C266.89,37.63,262.71,42.07,262.37,41.79Z" stroke="#000" stroke-miterlimit="10" stroke-width="0.5"/>
    <path d="M94,21.52c-.1.17-1.33-.33-3-1.62a21.63,21.63,0,0,1-5.42-6.25,21.67,21.67,0,0,1-2.74-7.82c-.28-2.11-.1-3.42.11-3.43.49,0,.9,5.11,4,10.43S94.33,21.12,94,21.52Z" stroke="#000" stroke-miterlimit="10" stroke-width="0.5"/>
    <ellipse cx="88.7" cy="1.07" rx="3.79" ry="0.82" stroke="#000" stroke-miterlimit="10" stroke-width="0.5"/>
    <path d="M102.19,17.76c-.13.17-1.13-.31-2.51-1.42a22,22,0,0,1-4.56-5.19,22.11,22.11,0,0,1-2.8-6.31C91.89,3.12,91.87,2,92.08,2c.47-.11,1.61,4,4.41,8.31S102.49,17.38,102.19,17.76Z" stroke="#000" stroke-miterlimit="10" stroke-width="0.5"/>
    <path d="M101.94,16.75c.36.25-.55,2.11-2.57,3.55S95.31,22,95.19,21.61s1.45-1.34,3.23-2.63S101.57,16.48,101.94,16.75Z" stroke="#000" stroke-miterlimit="10" stroke-width="0.5"/>
    <path d="M80.89,98.44c-.16-.19.63-1,1.63-2.46a20.19,20.19,0,0,0,1.55-2.66,21,21,0,0,0,1.27-3.52,20.59,20.59,0,0,0,.55-3.7A19.79,19.79,0,0,0,85.78,83c-.19-1.75-.5-2.84-.26-2.94s.88.89,1.4,2.73a13.86,13.86,0,0,1,.47,3.31,16.61,16.61,0,0,1-.47,4.08A16,16,0,0,1,85.4,94a13.32,13.32,0,0,1-2,2.69C82.08,98.08,81,98.6,80.89,98.44Z" stroke="#000" stroke-miterlimit="10" stroke-width="0.5"/>
    <path d="M91.59,103.74c0,.21-.56.55-1.62.75a10.78,10.78,0,0,1-8-1.87c-.86-.66-1.25-1.22-1.12-1.4.28-.37,2.42.89,5.31,1.54S91.5,103.28,91.59,103.74Z" stroke="#000" stroke-miterlimit="10" stroke-width="0.5"/>
    <path d="M94.23,83.35c-.26.39-2-.34-4.06-.95s-3.91-.93-3.92-1.4,2-.87,4.38-.16S94.49,83,94.23,83.35Z" stroke="#000" stroke-miterlimit="10" stroke-width="0.5"/>
    <path d="M92.61,102.07c-.43-.21,1.23-4.15,1.73-9.3s-.25-9.34.22-9.45c.2,0,.68,1,1.07,2.69A22.61,22.61,0,0,1,96,92.94a22.24,22.24,0,0,1-1.75,6.72C93.48,101.28,92.8,102.16,92.61,102.07Z" stroke="#000" stroke-miterlimit="10" stroke-width="0.5"/>
    <path d="M77.32,310.71c.08.16-1.65,1.09-4.68.82a11.64,11.64,0,0,1-5-1.72,11.42,11.42,0,0,1-1.25-.92c-.3-.24-.62-.58-.94-.87,0-.08-.21-.14-.18-.23l.16-.29.32-.58.84-1.52c.25-.46.49-.93.73-1.4a27.75,27.75,0,0,0,2.15-5.56,17.76,17.76,0,0,0,.54-4.78c-.09-2.76-.87-4.38-.64-4.49s1.37,1.41,1.79,4.4a15.63,15.63,0,0,1-.23,5.2,24.19,24.19,0,0,1-2.15,6c-.25.5-.5,1-.76,1.46l-.7,1.22c0,.06-.13.12-.06.16a1.06,1.06,0,0,0,.15.16,11.27,11.27,0,0,0,5.39,2.67C75.5,310.92,77.26,310.45,77.32,310.71Z" stroke="#000" stroke-miterlimit="10" stroke-width="0.5"/>
    <path d="M80,291.35c-.2.41-2.45-.28-5.23-1s-5.09-1.12-5.08-1.58,2.5-.74,5.47,0S80.23,291,80,291.35Z" stroke="#000" stroke-miterlimit="10" stroke-width="0.5"/>
    <path d="M77.6,311.12c-.21-.09.1-1.23.69-3a56.29,56.29,0,0,0,2-6.84,20.36,20.36,0,0,0,.23-7c-.26-1.77-.67-2.85-.45-3s1,.83,1.57,2.7a15.5,15.5,0,0,1,.25,7.52,26.75,26.75,0,0,1-2.53,7C78.48,310.25,77.81,311.21,77.6,311.12Z" stroke="#000" stroke-miterlimit="10" stroke-width="0.5"/>
    <path d="M37.62,365.77c-.37.2-3-4.23-4.77-10.33S31,344.18,31.44,344.16s1.27,4.92,3,10.83S38.05,365.56,37.62,365.77Z" stroke="#000" stroke-miterlimit="10" stroke-width="0.5"/>
    <path d="M45.29,362.34c-.14.12-1.37-.9-2.6-3.12a37.41,37.41,0,0,1-3.24-9.15c-.46-1.82-.89-3.53-1.35-5.06a2.15,2.15,0,0,0-.32-.77.68.68,0,0,0-.51-.17c-.55,0-1.32.14-1.9.2-2.44.27-4,.34-4,.11s1.42-.68,3.81-1.25l.94-.22a6.94,6.94,0,0,1,1.13-.19,2,2,0,0,1,1.55.5,3.27,3.27,0,0,1,.74,1.33c.55,1.55,1,3.3,1.5,5.11a62.72,62.72,0,0,0,2.7,9C44.63,360.93,45.5,362.17,45.29,362.34Z" stroke="#000" stroke-miterlimit="10" stroke-width="0.5"/>
    <path d="M45.58,365.59c.32.3-1.09,2.14-3.66,3.11s-4.84.56-4.81.13,2-.78,4.22-1.65S45.26,365.25,45.58,365.59Z" stroke="#000" stroke-miterlimit="10" stroke-width="0.5"/>
    <path d="M482.49,262.36s.13.07.11.26a.5.5,0,0,1-.2.33,1,1,0,0,1-.46.15,1.92,1.92,0,0,1-1.08-.28,1.82,1.82,0,0,1-.56-.47l-.41-.5a28,28,0,0,1-3.63-6.12c-2.25-5.15-2.44-9.76-2-9.79s1.36,4.24,3.52,9.14c1.07,2.45,2.22,4.58,3.08,6.12l.31.56a1.17,1.17,0,0,0,.24.32,1.84,1.84,0,0,0,.6.39c.17,0,.23.07.31,0S482.43,262.36,482.49,262.36Z" stroke="#000" stroke-miterlimit="10" stroke-width="0.5"/>
    <path d="M487.55,258.74c-.18.12-1.06-.85-2.13-2.64a31.71,31.71,0,0,1-3.17-7.49q-.17-.57-.3-1.14c-.08-.33-.21-.88-.2-.85l0-.14s-.08,0-.11,0h-.14l-.48.07c-1.35.18-2.56.32-3.58.42-2.05.19-3.33.2-3.37,0s1.18-.63,3.18-1.12c1-.24,2.19-.5,3.52-.76l1.43-.27.46-.08c.14,0,.35-.13.34.1l.21.93c.17.75.23.93.33,1.34l.3,1.09C485.47,254.09,488,258.5,487.55,258.74Z" stroke="#000" stroke-miterlimit="10" stroke-width="0.5"/>
    <path d="M487.36,260.09c.25.37-.87,1.54-2.68,2.25s-3.43.6-3.49.17,1.27-1.05,2.9-1.69S487.11,259.71,487.36,260.09Z" stroke="#000" stroke-miterlimit="10" stroke-width="0.5"/>
    <path d="M511,298.94c-.39-.26,1.74-3.94,3.91-8.66s3.61-8.7,4.06-8.58-.32,4.41-2.58,9.27S511.31,299.2,511,298.94Z" stroke="#000" stroke-miterlimit="10" stroke-width="0.5"/>
    <path d="M520.08,302.28c.09.19-.32.64-1.19,1a6.54,6.54,0,0,1-3.62.33A6.68,6.68,0,0,1,512,302c-.68-.65-.9-1.22-.75-1.36.34-.32,2,.94,4.32,1.34S519.87,301.86,520.08,302.28Z" stroke="#000" stroke-miterlimit="10" stroke-width="0.5"/>
    <path d="M526.31,283.24c-.08.44-2,.48-4.41.09s-4.21-1.08-4.13-1.53,2-.48,4.4-.08S526.38,282.8,526.31,283.24Z" stroke="#000" stroke-miterlimit="10" stroke-width="0.5"/>
    <path d="M518.69,305.28c-.4-.25,1.9-4.55,4.22-10s3.84-10.14,4.29-10-.39,5-2.79,10.66S519.05,305.52,518.69,305.28Z" stroke="#000" stroke-miterlimit="10" stroke-width="0.5"/>
    <path d="M545.57,200.49c-.37.22-2.92-3.76-4.38-9.34a31.93,31.93,0,0,1-1.14-8.43l.05-2.15.82,1.88c.45,1.05.65,1.71.5,1.79s-.62-.41-1.31-1.33l.87-.28c.38,1.8.9,4.79,1.79,8.11C544.17,196.11,546,200.28,545.57,200.49Z" stroke="#000" stroke-miterlimit="10" stroke-width="0.5"/>
    <path d="M552.56,195.86c-.4.16-2.83-5.36-4.17-12.64-.08-.46-.16-.9-.23-1.35s-.13-.81-.19-1.21l0-.17v-.09s-.05,0-.07,0l-.16,0-.13,0-.3.06c-1.55.28-3,.51-4.15.69-2.37.34-3.87.45-3.91.23s1.36-.73,3.67-1.36c1.16-.32,2.54-.67,4.09-1l1.79-.41.27-.06.13,0h.07v.07l.09.53c0,.37.11.73.17,1.1l.47,2.7C551.3,190,553,195.7,552.56,195.86Z" stroke="#000" stroke-miterlimit="10" stroke-width="0.5"/>
    <path d="M554,197.63c.15.42-1.78,1.53-4.41,2.23s-4.85.7-4.92.26,2-1.16,4.51-1.84S553.82,197.21,554,197.63Z" stroke="#000" stroke-miterlimit="10" stroke-width="0.5"/>
    <path d="M407.84,31c-.35.25-3.85-4.34-6.94-10.71s-4.57-12-4.16-12.08,2.57,5.11,5.63,11.36S408.24,30.76,407.84,31Z" stroke="#000" stroke-miterlimit="10" stroke-width="0.5"/>
    <ellipse cx="401.88" cy="5.16" rx="4.77" ry="0.82" transform="matrix(0.98, -0.22, 0.22, 0.98, 8.81, 88.99)" stroke="#000" stroke-miterlimit="10" stroke-width="0.5"/>
    <path d="M415.35,27c-.39.2-3.19-4.47-5.67-10.68S406,4.82,406.4,4.7s2.32,4.91,4.79,11S415.76,26.82,415.35,27Z" stroke="#000" stroke-miterlimit="10" stroke-width="0.5"/>
    <path d="M418.58,30c.12.44-1.66,1.33-4,2s-4.31.86-4.44.43,1.66-1.33,4-2S418.45,29.54,418.58,30Z" stroke="#000" stroke-miterlimit="10" stroke-width="0.5"/>
    <path d="M491.71,34c-.39-.28,2.21-4.29,4.17-9.76S498.48,14,499,14.06s.56,5-1.54,10.72S492,34.26,491.71,34Z" stroke="#000" stroke-miterlimit="10" stroke-width="0.5"/>
    <path d="M509.26,15.08c-.11.44-2.23.28-4.77-.18s-4.59-1.06-4.54-1.51,2.23-.57,4.83-.09S509.37,14.65,509.26,15.08Z" stroke="#000" stroke-miterlimit="10" stroke-width="0.5"/>
    <path d="M499.91,37.22c-.37-.31,3-4.53,5.55-10.56s3.4-11.34,3.88-11.28c.21,0,.29,1.4,0,3.6a33.42,33.42,0,0,1-6.8,15.77C501.13,36.47,500.07,37.36,499.91,37.22Z" stroke="#000" stroke-miterlimit="10" stroke-width="0.5"/>
    <path d="M501.28,37.65c-.13.43-2.23.22-4.71-.48s-4.39-1.61-4.26-2,2.22-.22,4.7.47S501.4,37.21,501.28,37.65Z" stroke="#000" stroke-miterlimit="10" stroke-width="0.5"/>
    <path d="M556.1,93.13c-.36.21-3.46-4.89-5.16-12s-1.32-13.06-.9-13,.79,5.78,2.48,12.65S556.54,92.92,556.1,93.13Z" stroke="#000" stroke-miterlimit="10" stroke-width="0.5"/>
    <path d="M564.15,89.54c-.39.18-3.42-6.28-5.19-14.84-.29-1.39-.54-2.74-.73-4-.09-.65-.18-1.28-.26-1.89l0-.23v-.2c0-.09,0-.23,0-.28l-.25.11-.5.17a8.4,8.4,0,0,1-1.6.38,8.49,8.49,0,0,1-2.64,0c-1.44-.27-2.15-.76-2.09-.88s.83,0,2.17.05a10.12,10.12,0,0,0,2.34-.28,8.72,8.72,0,0,0,1.36-.46,9.34,9.34,0,0,0,1-.51l1.31-.8c.09.4.15.91.23,1.39s.14.89.21,1.35.21,1.22.32,1.85c.23,1.27.49,2.59.77,4C562.29,82.77,564.59,89.37,564.15,89.54Z" stroke="#000" stroke-miterlimit="10" stroke-width="0.5"/>
    <path d="M569.11,89.88c.24.37-2.19,2.35-5.7,3.91s-6.61,2-6.72,1.61,2.68-1.59,6.06-3.1S568.86,89.49,569.11,89.88Z" stroke="#000" stroke-miterlimit="10" stroke-width="0.5"/>
    <path d="M484.68,516.15s.05-.2.28,0a.46.46,0,0,1,.15.31.49.49,0,0,1-.21.49,1,1,0,0,1-1.16-.25l-.74-.73c-1.06-1.09-2.43-2.65-3.87-4.44-2.87-3.59-4.92-6.72-4.56-7s3,2.39,5.84,6c1.43,1.79,2.66,3.47,3.49,4.73.2.31.4.63.53.86a2,2,0,0,0,.15.21s0,0,0,0h0l0,.11h0l-.06-.05.05,0s0-.07.06-.08S484.69,516.2,484.68,516.15Z" stroke="#000" stroke-miterlimit="10" stroke-width="0.5"/>
    <path d="M483.37,480c.42,0-.1,5.84-2.29,12.62s-5.13,11.78-5.51,11.58,1.83-5.43,3.95-12.08S482.9,479.9,483.37,480Z" stroke="#000" stroke-miterlimit="10" stroke-width="0.5"/>
    <ellipse cx="487.44" cy="481.4" rx="0.82" ry="5.03" transform="translate(-85.22 857.45) rotate(-77.93)" stroke="#000" stroke-miterlimit="10" stroke-width="0.5"/>
    <path d="M484.11,515.82c-.44-.22,2.88-7,5.16-15.88s2.75-16.41,3.24-16.39.74,7.68-1.66,16.8S484.45,516,484.11,515.82Z" stroke="#000" stroke-miterlimit="10" stroke-width="0.5"/>
  </g>
  <g id="CHARACTER2">
    <g id="PRIMARY_foot_left" data-name="PRIMARY_foot left">
      <path d="M90.25,468.22a59.61,59.61,0,0,0-23.46,8.45,57.06,57.06,0,0,0-4.17,7.55c-2.41,5.25-3,8.61-4.91,16.29-2.17,8.62-1.94,6.34-5.06,18.38-1.54,5.91-2.88,11.42-4,16.44a10.29,10.29,0,0,0,6.06-.11c3.55-1.28,5.2-4.56,8.2-11.69,4.3-10.24,6.52-15.58,9.58-26.11,1-3.37,1.74-6.17,2.24-8.09l19.61-6.86Z"/>
    </g>
    <g id="leg_left" data-name="leg left">
      <path d="M194.91,347.65c0,4.05.11,10.35.17,18.07.16,21.89.27,37.22-.05,55.71-.13,7.45-.38,18.34-.92,31.64a43.47,43.47,0,0,1-6.52,7.78,46.13,46.13,0,0,1-13.37,8.7C152.84,479.13,141,482.46,141,482.46c-19.31,5.43-35.36,9.76-48.65,13.24A88.55,88.55,0,0,1,88.64,460c10.31-3.8,21-8.07,32.1-12.87q14-6.06,26.57-12.29.27-12.09,0-24.85a544.47,544.47,0,0,0-8-81.13Z" fill="#fff"/>
      <path d="M92.46,495.68a11.5,11.5,0,0,1,2.13-.62l6.18-1.53c5.35-1.32,13.09-3.3,22.54-6.12,4.73-1.4,9.88-3,15.37-4.89s11.33-4,17.4-6.32,12.4-5,18.88-7.85a104.79,104.79,0,0,0,9.67-4.67c3.08-1.8,6-4.16,7.54-7.36s1.69-6.94,1.76-10.57.11-7.28.16-10.83c.08-7.11.17-14,.24-20.49.09-13.06.17-24.81.24-34.69s.09-17.86.11-23.39c0-2.76.07-4.91.09-6.36a11.23,11.23,0,0,1,.14-2.22,11,11,0,0,1,.19,2.21c.07,1.46.14,3.6.22,6.36.15,5.53.3,13.52.4,23.4s.16,21.64.11,34.7c0,6.53-.09,13.39-.14,20.49-.05,3.56-.09,7.18-.14,10.85s-.15,7.61-1.92,11.25-5,6.17-8.18,8a102.7,102.7,0,0,1-9.84,4.74c-6.52,2.87-12.88,5.46-19,7.79s-12,4.4-17.51,6.2-10.71,3.38-15.47,4.72c-9.52,2.68-17.32,4.49-22.73,5.63-2.71.58-4.82,1-6.25,1.23A10.87,10.87,0,0,1,92.46,495.68Z" stroke="#000" stroke-miterlimit="10" stroke-width="0.5"/>
      <path d="M148,439.7c-.22,0-.57-4.19-1-11s-.92-16.19-1.44-26.57-1-19.77-1.23-26.58-.33-11-.1-11,.7,4.18,1.26,11,1.18,16.19,1.7,26.57.84,19.79,1,26.61S148.22,439.7,148,439.7Z" stroke="#000" stroke-miterlimit="10" stroke-width="0.5"/>
      <path d="M89.89,459.21c-.08-.21,3.14-1.63,8.38-3.82l20.47-8.56,20.42-8.69c5.22-2.22,8.49-3.54,8.58-3.33s-3,1.89-8.11,4.38-12.25,5.77-20.25,9.14-15.34,6.21-20.69,8.13S90,459.42,89.89,459.21Z" stroke="#000" stroke-miterlimit="10" stroke-width="0.5"/>
      <path d="M92.1,494.53c-.37.16-3.47-7.49-4.38-17.55s.64-18.16,1-18.07-.38,8.09.58,17.92S92.58,494.39,92.1,494.53Z" stroke="#000" stroke-miterlimit="10" stroke-width="0.5"/>
      <path d="M48.44,536.16a12.91,12.91,0,0,1,.38-3.36c.36-2.14,1-5.22,1.8-9,1.68-7.58,4.46-17.93,7.82-29.26.85-2.84,1.63-5.6,2.51-8.28a28.88,28.88,0,0,1,3.49-7.44,15.61,15.61,0,0,1,5.58-5,30.69,30.69,0,0,1,6-2.43c3.73-1.11,6.72-1.93,8.69-2.77a28.61,28.61,0,0,1,3.07-1.34,8.48,8.48,0,0,1-2.8,1.91,63.06,63.06,0,0,1-8.6,3.3,31.5,31.5,0,0,0-5.67,2.5,14.84,14.84,0,0,0-5,4.71c-2.75,4.11-3.93,9.71-5.67,15.34-3.36,11.32-6.31,21.59-8.27,29.07-1,3.74-1.76,6.77-2.3,8.87A14.29,14.29,0,0,1,48.44,536.16Z" stroke="#000" stroke-miterlimit="10" stroke-width="0.5"/>
      <path d="M75,488.29c.2,0-.35,3.3-1.71,8.45a170.56,170.56,0,0,1-6.56,19.73c-1.51,3.78-3.07,7.32-4.58,10.5a33.12,33.12,0,0,1-2.44,4.46,13,13,0,0,1-3.1,3.31,8,8,0,0,1-6.3,1.48c-1.54-.38-2.13-1.08-2.08-1.14s.78.37,2.19.51a7.77,7.77,0,0,0,5.5-1.77c2-1.56,3.48-4.29,4.86-7.48s2.94-6.73,4.43-10.47c3-7.49,5.36-14.42,7-19.46S74.72,488.23,75,488.29Z" stroke="#000" stroke-miterlimit="10" stroke-width="0.5"/>
      <path d="M87.87,484.63c.17.41-2.77,2-6.64,3.37s-7.15,2-7.28,1.56,2.91-1.74,6.74-3.09S87.7,484.21,87.87,484.63Z" stroke="#000" stroke-miterlimit="10" stroke-width="0.5"/>
    </g>
    <g id="PRIMARY_foot_right" data-name="PRIMARY_foot right">
      <path d="M32.74,412.79l-22.2-7.61q-1.39,4.2-2.77,8.38c-1.45,7.45-2.5,13.95-3.25,19.2-1.22,8.47-2.38,18.42-3.13,29.6C1,467.75.82,472.31.71,475.68a6.3,6.3,0,0,0,3.63-1c2.05-1.43,2.5-3.93,2.82-5.49,1.18-5.81.75.38,3.7-12.41,1.27-5.48,2-8.71,2.74-13.47a141.53,141.53,0,0,0,1.52-15.46l19.44,1.72Z"/>
    </g>
    <g id="leg_right" data-name="leg right">
      <path d="M124.2,339q-13.42,44.93-26.86,89.86-17.82-6.48-36-13.42-10.63-4.06-21.07-8.18a20.6,20.6,0,0,0-6.57,3.56c-6.29,5.1-7.69,12.69-8.63,17.76a44.12,44.12,0,0,0-.3,13.94c1.68,1,4.39,2.53,7.77,4.31,15.12,8,20.21,8.31,39.07,16.39,8.56,3.67,17.49,6.48,25.88,10.52a26.38,26.38,0,0,0,11.33,3,24.7,24.7,0,0,0,12.24-3c2.88-1.6,6.86-4.63,12-14.79,3-6,4.41-10.42,7.55-20.93,4.73-15.87,7.16-24.05,10.3-35.59,1.84-6.78,3.31-12.35,4.27-16l17.2-10,7.92-40.75Z" fill="#fff"/>
      <path d="M97.36,428.83a14.31,14.31,0,0,1,.79-3.4c.62-2.15,1.55-5.25,2.72-9.08,2.33-7.66,5.57-18.23,9-29.94s6.51-22.34,8.72-30c1.11-3.84,2-6.95,2.67-9.1a14.09,14.09,0,0,1,1.19-3.28,15.08,15.08,0,0,1-.57,3.44c-.47,2.2-1.21,5.35-2.18,9.24-1.93,7.78-4.8,18.47-8.27,30.19s-6.89,22.26-9.5,29.83c-1.31,3.79-2.41,6.84-3.21,8.93A14.5,14.5,0,0,1,97.36,428.83Z" stroke="#000" stroke-miterlimit="10" stroke-width="0.5"/>
      <path d="M40.54,406.31c.12.26-2.13,1.14-4.94,3.62A29,29,0,0,0,27.67,422a61.7,61.7,0,0,0-2.93,14.45,20.22,20.22,0,0,0-.17,4.42c.11,1,.32,1.59.21,1.64s-.51-.43-.84-1.51a15.34,15.34,0,0,1-.35-4.63,48.58,48.58,0,0,1,2.55-14.93A29.48,29.48,0,0,1,30.06,414,23.65,23.65,0,0,1,34.87,409C38,406.65,40.51,406.15,40.54,406.31Z" stroke="#000" stroke-miterlimit="10" stroke-width="0.5"/>
      <path d="M95.27,428.63c-.16.42-12.6-4-27.77-9.91s-27.35-11-27.19-11.43,12.6,4,27.78,9.91S95.43,428.21,95.27,428.63Z" stroke="#000" stroke-miterlimit="10" stroke-width="0.5"/>
      <path d="M155.43,385.59a10.2,10.2,0,0,1-.35,2c-.29,1.31-.73,3.22-1.33,5.67-1.21,4.91-3,12-5.42,20.71S143,433,139.44,444.47a99.76,99.76,0,0,1-7,17.52,39.8,39.8,0,0,1-5.85,8.22,24.15,24.15,0,0,1-8.54,6.07,20,20,0,0,1-5.19,1.3,22.36,22.36,0,0,1-5.24-.11,43.31,43.31,0,0,1-9.72-2.7c-6.07-2.41-11.83-4.83-17.37-7.09L51.21,455.55c-4.16-1.75-7.94-3.3-11.24-4.75s-6.08-2.82-8.3-4.06a52.49,52.49,0,0,1-5-3.09,8.24,8.24,0,0,1-1.58-1.29,11.63,11.63,0,0,1,1.76,1c1.14.69,2.83,1.68,5.07,2.81S37,448.6,40.33,450s7.12,2.84,11.32,4.52l29.46,11.81c5.54,2.22,11.36,4.62,17.37,7a41.89,41.89,0,0,0,9.36,2.58,20.79,20.79,0,0,0,4.86.1,17.8,17.8,0,0,0,4.75-1.19,22.75,22.75,0,0,0,8-5.67,38.57,38.57,0,0,0,5.63-7.88A101.08,101.08,0,0,0,138,444c3.6-11.37,6.67-21.68,9.21-30.35s4.52-15.7,5.91-20.56c.71-2.43,1.26-4.31,1.63-5.59A8.86,8.86,0,0,1,155.43,385.59Z" stroke="#000" stroke-miterlimit="10" stroke-width="0.5"/>
      <path d="M169.83,378.35c.25.37-2.84,2.72-6.89,5.24s-7.51,4.24-7.74,3.85,2.85-2.73,6.88-5.24S169.58,378,169.83,378.35Z" stroke="#000" stroke-miterlimit="10" stroke-width="0.5"/>
      <path d="M.47,476.63a16.89,16.89,0,0,1-.17-3.79c0-2.44.1-6,.33-10.31a329.49,329.49,0,0,1,3.59-33.86c1-6.57,2.21-12.8,3.41-18.43l.45-2.09A8.51,8.51,0,0,1,8.77,406a3,3,0,0,1,2-1.62,4.18,4.18,0,0,1,2.29.29l6.63,2.61c4.05,1.61,7.31,2.93,9.55,3.88a16.9,16.9,0,0,1,3.42,1.64,17.34,17.34,0,0,1-3.64-1c-2.31-.77-5.64-1.93-9.73-3.4L12.57,406a2.91,2.91,0,0,0-1.53-.21,1.51,1.51,0,0,0-1,.91,20.9,20.9,0,0,0-1,3.89C8,416.17,6.86,422.38,5.83,428.92c-2.07,13.09-3.31,25-4,33.69L.94,472.87A17.59,17.59,0,0,1,.47,476.63Z" stroke="#000" stroke-miterlimit="10" stroke-width="0.5"/>
      <path d="M15.12,427.57c.22,0,0,3-.53,7.82s-1.33,11.4-2.48,18.71a78.6,78.6,0,0,1-2.3,10.21,43.88,43.88,0,0,1-3.24,7.95,9.25,9.25,0,0,1-2,2.78,4,4,0,0,1-1.29.75,3.27,3.27,0,0,1-1.25.13,2.33,2.33,0,0,1-1.53-.7c-.26-.3-.29-.51-.24-.54a3,3,0,0,0,1.79.61,2.77,2.77,0,0,0,1.9-.92,8.9,8.9,0,0,0,1.58-2.62,53.2,53.2,0,0,0,2.83-7.86,96.57,96.57,0,0,0,2.13-10.06c1.14-7.24,2.1-13.86,2.95-18.61S14.9,427.54,15.12,427.57Z" stroke="#000" stroke-miterlimit="10" stroke-width="0.5"/>
      <path d="M24.28,429.18c-.06.45-2.08.55-4.52.22s-4.37-.95-4.31-1.39,2.08-.55,4.52-.22S24.34,428.73,24.28,429.18Z" stroke="#000" stroke-miterlimit="10" stroke-width="0.5"/>
    </g>
    <g id="hand_left" data-name="hand left">
      <path d="M183.52,204.41c.14-1.47,1.06-11.6,1.19-13.08,1.8-19.89,2.7-29.83,2.8-31,1.19-14.46,2.85-34.62,1.42-58.19-.32-5.2-.79-10.68-1.46-22.85-.54-9.78-.87-17.75-1.07-22.84l4.07-.53q-1.54-15.24,1-15.94c.93-.26,2.28,1,4,3.68a7.9,7.9,0,0,1,4.9.73,8,8,0,0,1,3.81,4.31,5.87,5.87,0,0,1,5.64,2.49,7.62,7.62,0,0,1,2.2,2.52,8,8,0,0,1,.75,4.84,10.1,10.1,0,0,1-3.28,6.13c.43,2.52.8,5.2,1.07,8a108.21,108.21,0,0,1,.4,14.36c1.78,10.19,4,24.45,5.7,41.63,2.18,21.84,3.67,37.4,2.15,57.39a230.59,230.59,0,0,1-7.46,43Z" fill="#fff"/>
      <path d="M211,87.18a33.83,33.83,0,0,1,1.11,5.24c.6,3.39,1.42,8.3,2.35,14.39,1.85,12.17,4.2,29.06,5.21,47.86.47,9.41.48,18.39.16,26.54-.26,4.08-.42,7.95-.85,11.56-.19,1.81-.33,3.55-.55,5.22s-.47,3.27-.68,4.8c-.39,3.06-1,5.8-1.44,8.2-.24,1.21-.45,2.33-.67,3.35l-.7,2.79a34,34,0,0,1-1.48,5.15,33.19,33.19,0,0,1,.86-5.29c.17-.84.35-1.78.56-2.8l.53-3.36c.37-2.41.88-5.14,1.19-8.2.19-1.52.38-3.12.58-4.78s.3-3.4.46-5.2c.36-3.59.47-7.45.69-11.5.24-8.11.18-17-.28-26.39-1-18.72-3.18-35.59-4.73-47.79-.78-6.1-1.41-11-1.84-14.46A34.6,34.6,0,0,1,211,87.18Z" stroke="#000" stroke-miterlimit="10" stroke-width="0.5"/>
      <path d="M188.41,85.42a23.68,23.68,0,0,1,.5,4.61c.21,3,.42,7.28.6,12.6.34,10.65.41,25.39-.29,41.64s-2.06,30.93-3.33,41.51c-.63,5.29-1.22,9.56-1.69,12.51a26,26,0,0,1-.89,4.55,23.64,23.64,0,0,1,.26-4.63l1.17-12.55c1-10.59,2.14-25.24,2.85-41.46s.82-30.91.76-41.55c0-5.32-.06-9.62-.08-12.6A26.22,26.22,0,0,1,188.41,85.42Z" stroke="#000" stroke-miterlimit="10" stroke-width="0.5"/>
      <path d="M211.2,84.94c-.16.19-1.17-.45-2.86-1.21a22.82,22.82,0,0,0-3.05-1.12,24.11,24.11,0,0,0-3.89-.7,23.45,23.45,0,0,0-4,0,22.87,22.87,0,0,0-3.2.58c-1.8.47-2.9.93-3,.72s.82-1,2.65-1.81a15.51,15.51,0,0,1,3.36-1,18.26,18.26,0,0,1,4.3-.18,18.65,18.65,0,0,1,4.2.9,15.69,15.69,0,0,1,3.15,1.53C210.56,83.8,211.33,84.79,211.2,84.94Z" stroke="#000" stroke-miterlimit="10" stroke-width="0.5"/>
      <path d="M189.08,82" fill="none" stroke="#000" stroke-miterlimit="10" stroke-width="0.5"/>
      <path d="M195.51,65.33c0-.14.63-.06,1.63-.33a5.39,5.39,0,0,0,3.27-2.49,3.25,3.25,0,0,0,.24-2.59,4.69,4.69,0,0,0-2-2.4,8.57,8.57,0,0,0-3.49-1.16,16.18,16.18,0,0,0-4.11-.13,3.65,3.65,0,0,0-3,1.7,7.69,7.69,0,0,0-.5,3.58c0,2.58,0,4.91,0,6.86,0,3.91-.2,6.33-.42,6.33s-.49-2.4-.73-6.3c-.12-2-.23-4.27-.34-6.85a8.79,8.79,0,0,1,.6-4.36,4.47,4.47,0,0,1,1.79-1.84,6.57,6.57,0,0,1,2.39-.74,16.73,16.73,0,0,1,4.56.17,9.85,9.85,0,0,1,4.09,1.49A6,6,0,0,1,202,59.53a4.43,4.43,0,0,1-.55,3.56A5.44,5.44,0,0,1,199.28,65a5.65,5.65,0,0,1-2,.62C196.08,65.72,195.48,65.41,195.51,65.33Z" stroke="#000" stroke-miterlimit="10" stroke-width="0.5"/>
      <path d="M200,53.78c-.25,0-.68-1.64-1.88-4.12a26.07,26.07,0,0,0-2.48-4.11,23.55,23.55,0,0,0-1.81-2.16,13.47,13.47,0,0,0-1-1A1.73,1.73,0,0,0,192,42c-.14,0-.19,0-.37.49s-.31.94-.43,1.41a25.56,25.56,0,0,0-.61,2.76,27.1,27.1,0,0,0-.3,4.8c.07,2.75.46,4.46.22,4.53s-1-1.57-1.37-4.44a21.36,21.36,0,0,1,0-5.09,24.36,24.36,0,0,1,.55-3c.13-.51.28-1,.45-1.54a2.78,2.78,0,0,1,.54-1,1.86,1.86,0,0,1,1.24-.6,3.08,3.08,0,0,1,2,.79A12.91,12.91,0,0,1,195,42.3a21.37,21.37,0,0,1,4.18,6.91C200.19,51.94,200.21,53.75,200,53.78Z" stroke="#000" stroke-miterlimit="10" stroke-width="0.5"/>
      <path d="M204,57.76c-.23,0-.27-1.09-.27-2.75a19.14,19.14,0,0,0-.76-6.16,8.06,8.06,0,0,0-3.77-4.4c-1.37-.68-2.42-.59-2.46-.85,0-.1.23-.26.73-.37a4.5,4.5,0,0,1,2.15.15,7.88,7.88,0,0,1,4.88,4.93,13.8,13.8,0,0,1,.38,6.8C204.54,56.79,204.18,57.78,204,57.76Z" stroke="#000" stroke-miterlimit="10" stroke-width="0.5"/>
      <path d="M208.3,57.71c-.45-.12.11-2.92-1-6a13,13,0,0,0-.95-2.12,2.7,2.7,0,0,0-1-1.19.86.86,0,0,0-.8.08c-.2.13-.27.3-.38.28s-.27-.23-.13-.64a1.47,1.47,0,0,1,1.57-.83,3.19,3.19,0,0,1,2,1.49,9.48,9.48,0,0,1,1.22,2.4,9.22,9.22,0,0,1,.35,4.77C208.94,57.13,208.5,57.77,208.3,57.71Z" stroke="#000" stroke-miterlimit="10" stroke-width="0.5"/>
      <path d="M208.9,65.22c-.19-.14.29-1,1.15-2.37a9.85,9.85,0,0,0,2-5.28,8.34,8.34,0,0,0-1.71-5.26,2.59,2.59,0,0,0-1.21-.94c-.32-.1-.57,0-.64-.11s.06-.41.65-.52a2.58,2.58,0,0,1,2,.78,8.08,8.08,0,0,1,1.54,9.7A11.94,11.94,0,0,1,211,63.56C209.84,64.73,209.08,65.34,208.9,65.22Z" stroke="#000" stroke-miterlimit="10" stroke-width="0.5"/>
      <path d="M209.61,84.43c-.21-.14.29-1.12.62-2.79a19,19,0,0,0,0-6.61c-.43-2.6-1.07-5-1.33-6.78s-.24-2.93,0-3,.59,1,1.15,2.69a46.94,46.94,0,0,1,1.82,6.79,14.36,14.36,0,0,1-.47,7.19C210.67,83.74,209.76,84.55,209.61,84.43Z" stroke="#000" stroke-miterlimit="10" stroke-width="0.5"/>
    </g>
    <g id="torso">
      <path d="M132.56,219a248,248,0,0,1,26.89-9.07,250.87,250.87,0,0,1,37.13-7.22,33.59,33.59,0,0,1,12.6,11.4c2.23,3.48,3.91,7.63,5.12,16.19,1.67,11.79.7,19.72-.26,34.5s-.3,11.57-1.21,24.88c-.86,12.7-2.39,29.18-5.25,48.59a31.24,31.24,0,0,1-5,9.27,32,32,0,0,1-17.16,11.06c-7.9,1.92-14.35.05-19.14-1.34-6.64-1.93-6.67-3.49-21.57-9.94a66.84,66.84,0,0,0-11.51-4.17c-5.5-1.36-10.06-2.49-14.87-1.29-8.52,2.12-13,10.31-14.4,13,.74-4.77,1.8-11,3.3-18.14a281.62,281.62,0,0,1,6.93-27.47c4.91-15.69,6.81-15.65,10.35-28.46,2.27-8.22,3.11-14.14,4.62-24.74C130.43,246.81,131.87,234.2,132.56,219Z" fill="#fff"/>
      <path d="M194.29,202.68c0,.24-3.61.91-9.47,2.09s-13.92,2.93-22.72,5.29-16.65,4.89-22.31,6.81-9.15,3.16-9.24,2.94,3.26-1.82,8.85-4a217.5,217.5,0,0,1,45.22-12.16C190.55,202.74,194.26,202.47,194.29,202.68Z" stroke="#000" stroke-miterlimit="10" stroke-width="0.5"/>
      <path d="M208.69,336.62a25.92,25.92,0,0,1,.2-4.62c.24-3,.59-7.26,1-12.56.85-10.6,2-25.24,2.75-41.45s1.2-30.89,1.29-41.5c0-5.31-.28-9.59-.58-12.54a38.22,38.22,0,0,1-.45-4.59,18.86,18.86,0,0,1,1.08,4.51,94.06,94.06,0,0,1,1.1,12.6c.21,10.67,0,25.37-.82,41.6s-2.08,30.9-3.23,41.48c-.58,5.29-1.12,9.57-1.54,12.52A23.29,23.29,0,0,1,208.69,336.62Z" stroke="#000" stroke-miterlimit="10" stroke-width="0.5"/>
      <path d="M103.92,354.85a17.57,17.57,0,0,1,0-4c.18-2.56.54-6.27,1.28-10.81a198.06,198.06,0,0,1,9.41-34.64c2.35-6.61,4.89-12.78,7-18.44a109.11,109.11,0,0,0,4.61-15.31c1.89-8.93,1.07-14.65,1.4-14.65.06,0,.14.34.24,1a24.38,24.38,0,0,1,.28,3,49.94,49.94,0,0,1-.79,10.9,98,98,0,0,1-4.33,15.6c-2,5.74-4.52,11.91-6.86,18.48a237.21,237.21,0,0,0-9.81,34.29c-.88,4.49-1.41,8.15-1.78,10.68A20.26,20.26,0,0,1,103.92,354.85Z" stroke="#000" stroke-miterlimit="10" stroke-width="0.5"/>
      <path d="M207.55,338.34c.06,0,0,.43-.27,1.21a23.59,23.59,0,0,1-1.28,3.31A30.67,30.67,0,0,1,197.85,353a32.07,32.07,0,0,1-7.75,4.73,30.11,30.11,0,0,1-10.17,2.4,34.81,34.81,0,0,1-11.46-1.37A71.51,71.51,0,0,1,157,354.32c-3.79-1.81-7.37-3.74-10.9-5.43a75.37,75.37,0,0,0-10.37-4.25,38.87,38.87,0,0,0-5-1.25,31.86,31.86,0,0,0-4.84-.54,25.72,25.72,0,0,0-8.6,1.2,22.62,22.62,0,0,0-6.44,3.16,19,19,0,0,0-3.93,3.75,45.44,45.44,0,0,0-2.43,4,3.68,3.68,0,0,1,.3-1.21,14.46,14.46,0,0,1,1.61-3.18,18.55,18.55,0,0,1,3.9-4.11,23.39,23.39,0,0,1,6.63-3.53,26.41,26.41,0,0,1,9-1.45A32.85,32.85,0,0,1,131,342a42.32,42.32,0,0,1,5.22,1.23c7.06,2.07,14.08,6.05,21.53,9.65a71.81,71.81,0,0,0,11.19,4.4,33.88,33.88,0,0,0,10.94,1.41,30.48,30.48,0,0,0,17.28-6.53,32.24,32.24,0,0,0,8.31-9.57c.69-1.34,1.24-2.38,1.54-3.13S207.5,338.32,207.55,338.34Z" stroke="#000" stroke-miterlimit="10" stroke-width="0.5"/>
    </g>
    <g id="hand_right" data-name="hand right">
      <path d="M136.6,217.18a29.71,29.71,0,0,1,7.15,16.17c1.14,11.44-5.11,23-15.93,30.1a71.46,71.46,0,0,0-9.14-3.8c-9.13-3.07-13.49-2.47-22.39-4.33-7-1.45-14.11-2.94-20.65-7.46-7-4.87-10.47-11.25-13.56-17.45a395.21,395.21,0,0,1-20-48.35l2.27-6A59.6,59.6,0,0,0,40.66,166a121.14,121.14,0,0,0-7-12.28c-2.71-4.32-4.59-7-5.39-11.41-.68-3.74.09-5,.65-5.65,1.94-2.14,5.85-1.11,6.18-1,1.64-.11,3-.17,3.86-.22a27.65,27.65,0,0,0,5.41-.45,13.63,13.63,0,0,0,3.34-1.28L52,140.18a20.31,20.31,0,0,1,3.3,4.7c1.57,3.12,1.81,5.66,2.35,8.71a72.59,72.59,0,0,0,2.82,10.82l1.79.32q2.55,5.81,5.27,11.68c6.37,13.71,13,26.65,19.77,38.82,2.33.26,4.68.49,7.06.71A352.9,352.9,0,0,0,136.6,217.18Z" fill="#fff"/>
      <path d="M87.53,215c0-.24,2.79,0,7.21.42s10.53.91,17.29,1.21,12.89.32,17.33.31,7.19,0,7.21.21-2.72.63-7.17.94a161.25,161.25,0,0,1-17.44.17,159,159,0,0,1-17.36-1.7C90.19,215.9,87.5,215.24,87.53,215Z" stroke="#000" stroke-miterlimit="10" stroke-width="0.5"/>
      <path d="M62.26,164.76c.21-.09,1.94,3.12,4.63,8.36s6.34,12.51,10.37,20.54,7.67,15.31,10.27,20.6,4.13,8.6,3.92,8.71-2.08-3-4.94-8.18-6.67-12.35-10.71-20.4-7.52-15.4-10-20.77S62.06,164.86,62.26,164.76Z" stroke="#000" stroke-miterlimit="10" stroke-width="0.5"/>
      <path d="M42.65,180.4c-.19,0-.23-1.53.73-3.71a17.34,17.34,0,0,1,5.95-6.9,31.4,31.4,0,0,1,8.11-3.93c2.17-.71,3.56-1,3.64-.79s-1.17.89-3.21,1.86a52.46,52.46,0,0,0-7.61,4.19,20.9,20.9,0,0,0-5.86,6.1C43.27,179.09,42.9,180.45,42.65,180.4Z" stroke="#000" stroke-miterlimit="10" stroke-width="0.5"/>
      <path d="M126.71,262.8c-.06.12-1.65-.65-4.64-1.68A79,79,0,0,0,109,258c-5.59-1-12.37-1.62-19.76-3.51a49.53,49.53,0,0,1-11.2-4.25A32.58,32.58,0,0,1,68.14,242a56,56,0,0,1-6.66-11c-1.78-3.73-3.32-7.37-4.82-10.83-3-6.93-5.56-13.21-7.66-18.51s-3.73-9.62-4.81-12.62a28.31,28.31,0,0,1-1.51-4.73,29.65,29.65,0,0,1,2.1,4.5l5.28,12.41c2.24,5.24,4.92,11.47,8,18.35,1.53,3.43,3.11,7.07,4.88,10.73A55.89,55.89,0,0,0,69.41,241a31.18,31.18,0,0,0,9.42,7.9,49,49,0,0,0,10.82,4.21c7.2,1.93,14,2.7,19.58,3.82a68.09,68.09,0,0,1,13.06,3.62,32.12,32.12,0,0,1,3.34,1.57C126.37,262.51,126.74,262.75,126.71,262.8Z" stroke="#000" stroke-miterlimit="10" stroke-width="0.5"/>
      <path d="M50.8,147.16a11.57,11.57,0,0,0-1.51.5,10.91,10.91,0,0,1-1.85.82,2.58,2.58,0,0,1-1.48,0,2.56,2.56,0,0,1-1.32-1,3.28,3.28,0,0,1-.56-1.71,4,4,0,0,1,.44-1.89,7.59,7.59,0,0,1,2.77-2.8,5.53,5.53,0,0,1,4.4-.82,4.62,4.62,0,0,1,2.11,1.37,7.93,7.93,0,0,1,1.26,2c.62,1.44,1,2.79,1.42,4.12s.76,2.62,1.07,3.85c.64,2.47,1.1,4.72,1.42,6.61.64,3.8.75,6.19.54,6.22s-.75-2.28-1.67-6c-.46-1.85-1-4-1.74-6.45-.35-1.21-.73-2.47-1.15-3.77s-.84-2.69-1.38-3.93a4.17,4.17,0,0,0-2.34-2.55,4.12,4.12,0,0,0-3.18.58,6.42,6.42,0,0,0-2.33,2.15,2.58,2.58,0,0,0-.38,1.22,2.13,2.13,0,0,0,.28,1.13,1.48,1.48,0,0,0,1.63.79,14.12,14.12,0,0,0,1.81-.51,2.93,2.93,0,0,1,1.32-.12C50.68,147,50.81,147.12,50.8,147.16Z" stroke="#000" stroke-miterlimit="10" stroke-width="0.5"/>
      <path d="M42.16,144.7c-.12,0-.42-.73-1.15-2a15.52,15.52,0,0,0-4-4.51,13.77,13.77,0,0,0-3.63-1.95,4.32,4.32,0,0,0-2-.29,2.87,2.87,0,0,0-1.73,1,4.42,4.42,0,0,0-1,2,6.74,6.74,0,0,0,.09,2.48,26.49,26.49,0,0,0,2.05,5.32c1.71,3.59,3.75,6.85,5.53,9.87a92,92,0,0,1,4.47,8.23c2.28,4.88,2.69,8.24,2.51,8.26s-1.06-3.12-3.54-7.75c-1.23-2.32-2.86-5-4.73-8a102.17,102.17,0,0,1-5.71-9.95,26.29,26.29,0,0,1-2.14-5.7,7.88,7.88,0,0,1,0-3.1A5.79,5.79,0,0,1,28.47,136a4.36,4.36,0,0,1,2.67-1.41,5.62,5.62,0,0,1,2.68.44,14.19,14.19,0,0,1,7.76,7.44A4.69,4.69,0,0,1,42.16,144.7Z" stroke="#000" stroke-miterlimit="10" stroke-width="0.5"/>
      <path d="M41.64,146.36c.06.2-.48.61-1.52.65a5.64,5.64,0,0,1-3.64-1.38,8.78,8.78,0,0,1-2.26-3c-.39-.85-.51-1.43-.32-1.55s.66.25,1.28.9a28.42,28.42,0,0,0,2.34,2.37,7.9,7.9,0,0,0,2.73,1.48C41,146.1,41.58,146.13,41.64,146.36Z" stroke="#000" stroke-miterlimit="10" stroke-width="0.5"/>
      <path d="M44.63,142.53c-.21.08-.65-.57-1.26-1.59a15.75,15.75,0,0,0-2.65-3.55,6.55,6.55,0,0,0-3.76-1.7c-1.07-.11-1.79.15-1.91-.07s.48-.86,1.87-1.08a6.13,6.13,0,0,1,4.89,1.64,9.77,9.77,0,0,1,2.61,4.29C44.79,141.67,44.84,142.45,44.63,142.53Z" stroke="#000" stroke-miterlimit="10" stroke-width="0.5"/>
      <path d="M48.43,140.4c-.43.17-1.55-1.89-3.5-3.88-1-1-1.83-1.49-2.57-1.39s-1.11.49-1.33.41-.16-.23,0-.56a1.9,1.9,0,0,1,1-1,2.86,2.86,0,0,1,2.12,0,5.49,5.49,0,0,1,1.94,1.37,9.91,9.91,0,0,1,2.16,3.32C48.61,139.67,48.64,140.32,48.43,140.4Z" stroke="#000" stroke-miterlimit="10" stroke-width="0.5"/>
      <path d="M51.84,141.86c-.46,0-1.09-2.56-2.49-5.45a5.32,5.32,0,0,0-1.11-1.67,1.87,1.87,0,0,0-.59-.39,1.54,1.54,0,0,0-.63-.1c-.86,0-1.16.58-1.38.55s-.2-.23-.08-.61a1.83,1.83,0,0,1,1.22-1.07,2.45,2.45,0,0,1,1.16-.09,2.77,2.77,0,0,1,1.23.53,5.45,5.45,0,0,1,1.64,2.14C52.36,138.9,52.28,141.83,51.84,141.86Z" stroke="#000" stroke-miterlimit="10" stroke-width="0.5"/>
    </g>
    <g id="PRIMARY_hair2">
      <path d="M181.56,141.12c3-.93,4.53,1.47,8.91.29,3.94-1.06,6.28-4,8.82-7.11s5.74-7.14,6.38-13.29a21.19,21.19,0,0,0-2.23-11.85A21.84,21.84,0,0,0,192.5,99.3a24.35,24.35,0,0,0-16.72-.43c-4.72,1.67-7.42,4.49-12.81,10.13-3.93,4.1-6.69,7.9-12.2,15.52-6.76,9.34-6.32,9.71-9.55,13-3.07,3.18-5.18,4.64-7.68,8.65-3.53,5.68-3.13,8.94-2.9,10.11a10.41,10.41,0,0,0,2.11,4.51,8.7,8.7,0,0,0-3.17,4.86c-.43,2.1.19,3.86,1.06,6.24,1.11,3,1.91,3.64,2.83,5.71s.82,2.94,1.34,12.29c.37,6.91.49,7.72,1,9s2,5.43,5.93,7.49c5.35,2.83,11.47-.14,12.87-.82,2.05-1,7-3.86,12-15.46,2.33-5.39,3.07-9,6.13-24.3C176.09,148.76,177.31,142.45,181.56,141.12Z"/>
    </g>
    <g id="head">
      <path d="M181.12,134.09a76.8,76.8,0,0,1,5.89,7.47,90.91,90.91,0,0,1,6.39,11c3.9,7.73,2.49,6.87,8.54,22.08a17.41,17.41,0,0,1,1.58,8.64,12.42,12.42,0,0,1-2.8,6.9c-.91,1-1.64,1.45-3.83,2.85-4.2,2.7-6.3,4-7.46,5-4.31,3.62-5.47,9-5.72,10.18-1.38,6.45,1.77,8.95-.5,13.2-2.18,4.09-6.86,5.07-7.13,5.13-5.05,1-10.74-2.2-13.71-8a16.42,16.42,0,0,0,2.29-8.75,16.65,16.65,0,0,0-4-10.21c.42-4.88-1.19-6.69-2-7.37s-1.55-.81-5.88-1.47c-6.53-1-6.85-1-7.65-1.42-2.73-1.57-5.13-5.53-4.06-9.12,1.14-3.85,5.6-5.07,6.88-5.42a12.55,12.55,0,0,1,8.54.83l2.09-1.87c-2.42-3.66-4.91-7.79-7.34-12.38-2.29-4.35-4.2-8.51-5.79-12.38a30.16,30.16,0,0,1,5.74-7C162.34,131.92,177.51,133.59,181.12,134.09Z" fill="#fff"/>
      <path d="M183.32,214.51a8.47,8.47,0,0,1-.35-3.45,19.71,19.71,0,0,1,2.64-9.12,20.08,20.08,0,0,1,4.19-5.15,42,42,0,0,1,6.28-4.16c2.18-1.34,4.48-2.85,5.67-5.18s1.11-5.21.52-8.07a122.65,122.65,0,0,0-10.52-28.75c-3.62-7-6.39-11-6.17-11.19a12.47,12.47,0,0,1,2.17,2.69,85.22,85.22,0,0,1,5,8,108.48,108.48,0,0,1,11.11,29,19.85,19.85,0,0,1,.45,4.62,10.14,10.14,0,0,1-1.16,4.52,11,11,0,0,1-2.88,3.41,27.14,27.14,0,0,1-3.43,2.31,43.73,43.73,0,0,0-6.17,3.89,19.71,19.71,0,0,0-4.08,4.72,21,21,0,0,0-3,8.58C183.35,213.27,183.46,214.5,183.32,214.51Z" stroke="#000" stroke-miterlimit="10" stroke-width="0.5"/>
      <path d="M163.36,218.78c-.46-.07-.18-3.91-.06-8.61s.06-8.55.52-8.6,1.24,3.81,1.11,8.64S163.79,218.86,163.36,218.78Z" stroke="#000" stroke-miterlimit="10" stroke-width="0.5"/>
      <path d="M180.4,224.51c.16.11-.44,1.27-2.25,2.12a9.56,9.56,0,0,1-7.46-.08,17,17,0,0,1-5.88-4.39c-1.23-1.38-1.85-2.34-1.69-2.5s1.08.52,2.48,1.66a24.42,24.42,0,0,0,5.71,3.72,10,10,0,0,0,6.43.51C179.38,225.1,180.22,224.33,180.4,224.51Z" stroke="#000" stroke-miterlimit="10" stroke-width="0.5"/>
      <path d="M153.51,174.51c0,.11-.56,0-1.47,0a12.71,12.71,0,0,0-3.78.22,8.9,8.9,0,0,0-4.7,2.58,7.75,7.75,0,0,0-2,6,7,7,0,0,0,3.53,5.12,14,14,0,0,0,5.26,1.77A8.15,8.15,0,0,0,154,190c.82-.27,1.15-.69,1.26-.61s-.09.65-1,1.19a7.45,7.45,0,0,1-4.08.68,13.66,13.66,0,0,1-5.9-1.62,9.25,9.25,0,0,1-2.86-2.44,7.57,7.57,0,0,1-1.54-3.8,9,9,0,0,1,2.56-7.19,9.58,9.58,0,0,1,5.58-2.68,10.16,10.16,0,0,1,4.1.29C153.09,174.12,153.54,174.41,153.51,174.51Z" stroke="#000" stroke-miterlimit="10" stroke-width="0.5"/>
      <path d="M185.82,171.66c-.11,0,0-.47.15-1.23a27.37,27.37,0,0,0,.7-3.12,6.75,6.75,0,0,0-.62-4.29,19.92,19.92,0,0,0-1.54-2.28c-.59-.79-1.21-1.6-1.86-2.42-5.16-6.59-10.26-11.15-10-11.51s5.94,3.75,11.23,10.5c.66.84,1.29,1.67,1.87,2.5a16.55,16.55,0,0,1,1.59,2.53,6.74,6.74,0,0,1,.69,2.78,9.28,9.28,0,0,1-.28,2.41,13.82,13.82,0,0,1-1.24,3.14C186.19,171.36,185.92,171.71,185.82,171.66Z" stroke="#000" stroke-miterlimit="10" stroke-width="0.5"/>
      <path d="M177.9,186.6c.07-.11.6.2,1.63.47a7.67,7.67,0,0,0,4.32-.09,6.21,6.21,0,0,0,2.47-1.49,6.54,6.54,0,0,0,1.63-2.85,5.8,5.8,0,0,0-.11-3.54,5.72,5.72,0,0,0-2.44-2.86,5.31,5.31,0,0,0-3.65-.75,24.31,24.31,0,0,1-4.14.74,4.18,4.18,0,0,1-2.16-.64,13.08,13.08,0,0,0-1.44-.89,2,2,0,0,0-2.23.59,3.44,3.44,0,0,0-1,2.05,8.21,8.21,0,0,0,0,1.9c.09,1.08.16,1.7,0,1.72s-.37-.53-.67-1.62a7.6,7.6,0,0,1-.24-2.09,4.41,4.41,0,0,1,1.05-2.75,3.85,3.85,0,0,1,1.49-1.05,3,3,0,0,1,2.09,0,13,13,0,0,1,1.66.92,2.7,2.7,0,0,0,1.45.36,28.83,28.83,0,0,0,3.87-.8,6.89,6.89,0,0,1,4.76.92,7,7,0,0,1,3.14,8.22,7.63,7.63,0,0,1-2.14,3.41,7.12,7.12,0,0,1-3.09,1.62,7.5,7.5,0,0,1-4.85-.43C178.26,187.17,177.84,186.67,177.9,186.6Z" stroke="#000" stroke-miterlimit="10" stroke-width="0.5"/>
      <path d="M169.69,158.85c-.25.05-.49-.81-1.47-1.56a4.57,4.57,0,0,0-1.91-.87,3.54,3.54,0,0,0-2.36.31,4.38,4.38,0,0,0-2,3.92c0,1.25.48,2,.28,2.16s-1-.43-1.42-2A5.11,5.11,0,0,1,161,158a4.84,4.84,0,0,1,2.2-2.74,4.61,4.61,0,0,1,3.51-.33,4.75,4.75,0,0,1,2.35,1.5,3.27,3.27,0,0,1,.8,1.68C169.88,158.59,169.79,158.84,169.69,158.85Z" stroke="#000" stroke-miterlimit="10" stroke-width="0.5"/>
      <path d="M191.38,152.49c-.21.12-.66-.39-1.49-1a4.52,4.52,0,0,0-3.35-.9,2.79,2.79,0,0,0-1.47.92,3.47,3.47,0,0,0-.71,1.37c-.21.86.1,1.47-.09,1.62s-.29,0-.53-.27a2.21,2.21,0,0,1-.52-1.43,3.72,3.72,0,0,1,.64-2.18,3.86,3.86,0,0,1,2.35-1.63,4.45,4.45,0,0,1,2.75.35,4.93,4.93,0,0,1,1.72,1.31C191.46,151.63,191.57,152.4,191.38,152.49Z" stroke="#000" stroke-miterlimit="10" stroke-width="0.5"/>
      <path d="M163.75,147.6c-.24,0-.49-.84-1.58-1.44a3.38,3.38,0,0,0-2-.43,3.75,3.75,0,0,0-2.2,1.13,6.77,6.77,0,0,0-1.72,4.58c-.06,1.37,0,2.28-.23,2.33s-.68-.76-.92-2.27a7.72,7.72,0,0,1,.07-2.73,6.09,6.09,0,0,1,1.65-3.06,4.79,4.79,0,0,1,3.27-1.48,4.12,4.12,0,0,1,2.75,1,3,3,0,0,1,1,1.64C164,147.33,163.85,147.58,163.75,147.6Z" stroke="#000" stroke-miterlimit="10" stroke-width="0.5"/>
      <path d="M184.64,140.73c-.2.13-.7-.38-1.64-.78a4.65,4.65,0,0,0-3.66-.06,4.59,4.59,0,0,0-2.28,2.86c-.29,1-.21,1.69-.45,1.76s-.72-.6-.69-1.92a4.75,4.75,0,0,1,.63-2.2,4.85,4.85,0,0,1,2.1-2,4.74,4.74,0,0,1,2.85-.36,4.62,4.62,0,0,1,2.1.91C184.64,139.79,184.82,140.64,184.64,140.73Z" stroke="#000" stroke-miterlimit="10" stroke-width="0.5"/>
      <path d="M158.59,174.21c-.37.24-4.13-5-7.76-12s-5.74-13.1-5.34-13.26,3.17,5.57,6.78,12.51S159,174,158.59,174.21Z" stroke="#000" stroke-miterlimit="10" stroke-width="0.5"/>
      <path d="M157.27,174.17c.18.12.24.44.06.85a2.47,2.47,0,0,1-2.94,1.17c-.42-.17-.6-.44-.54-.66.15-.43.88-.58,1.62-.9S156.86,174,157.27,174.17Z" stroke="#000" stroke-miterlimit="10" stroke-width="0.5"/>
      <path d="M185.75,132.8c0,.23-2.6.41-6.77.69a67.76,67.76,0,0,0-15.93,2.6,34.37,34.37,0,0,0-8,3.71,26,26,0,0,0-5.44,4.64,18,18,0,0,0-2.75,4c-.49,1-.63,1.66-.76,1.64s-.17-.69.17-1.87a14.14,14.14,0,0,1,2.45-4.46,23.93,23.93,0,0,1,5.49-5.16,32.58,32.58,0,0,1,8.29-4,54.08,54.08,0,0,1,16.39-2.2C183.15,132.36,185.74,132.58,185.75,132.8Z" stroke="#000" stroke-miterlimit="10" stroke-width="0.5"/>
      <path d="M132.71,161.45s-.12-.07-.3-.27a6,6,0,0,1-.7-1,9.66,9.66,0,0,1-1.27-4.36,15.14,15.14,0,0,1,1.4-7.06,29.83,29.83,0,0,1,5.58-7.68c1.19-1.28,2.46-2.57,3.73-4a57.33,57.33,0,0,0,3.7-4.52c2.41-3.25,4.67-7,7.07-10.87a102.43,102.43,0,0,1,8.19-12,37.3,37.3,0,0,1,12.07-10,26.16,26.16,0,0,1,15.53-2.39,22.34,22.34,0,0,1,13,6.74,21.65,21.65,0,0,1,5.78,11.93,19.31,19.31,0,0,1-.15,6.09,22.78,22.78,0,0,1-1.7,5.31,30.89,30.89,0,0,1-5.28,7.89,29.76,29.76,0,0,1-5.34,4.76,15.47,15.47,0,0,1-4.06,2,4,4,0,0,1-1.55.28,21.75,21.75,0,0,0,5.25-2.79A34.15,34.15,0,0,0,203.59,127a19.77,19.77,0,0,0,1.57-10.75,20.52,20.52,0,0,0-5.54-11.09A21,21,0,0,0,187.47,99a24.7,24.7,0,0,0-14.57,2.27,36.2,36.2,0,0,0-11.56,9.58,105.08,105.08,0,0,0-8.15,11.74c-2.43,3.89-4.76,7.61-7.26,10.89a59.45,59.45,0,0,1-3.86,4.57c-1.31,1.39-2.62,2.66-3.82,3.9a30,30,0,0,0-5.59,7.27,15,15,0,0,0-1.59,6.64,10.18,10.18,0,0,0,.94,4.23C132.43,161,132.77,161.4,132.71,161.45Z" stroke="#000" stroke-miterlimit="10" stroke-width="0.5"/>
      <path d="M157.41,202.24a4.63,4.63,0,0,1-1.11,2.51,10.56,10.56,0,0,1-6.37,3.95,11.66,11.66,0,0,1-5.31-.08,12.73,12.73,0,0,1-5.33-3,16.88,16.88,0,0,1-5.2-12.53c0-2.43.22-4.74.27-6.92a18.55,18.55,0,0,0-.66-6.11,36,36,0,0,0-2.33-5.19,23.1,23.1,0,0,1-1.93-4.82,9,9,0,0,1,1.18-7.4c1.16-1.47,2.27-1.63,2.27-1.56s-.88.51-1.75,1.91a8.83,8.83,0,0,0-.59,6.76,24,24,0,0,0,2,4.49,35.58,35.58,0,0,1,2.56,5.35,19.54,19.54,0,0,1,.83,6.6c0,2.27-.27,4.57-.24,6.87a15.69,15.69,0,0,0,4.59,11.45,11.41,11.41,0,0,0,4.67,2.76,10.82,10.82,0,0,0,4.73.26,10.6,10.6,0,0,0,6.1-3.22C156.92,203.1,157.27,202.18,157.41,202.24Z" stroke="#000" stroke-miterlimit="10" stroke-width="0.5"/>
      <path d="M160.21,200.79c-.21-.11,0-.79,0-1.82a9.08,9.08,0,0,0-2.79-7.12c-.74-.71-1.33-1.09-1.25-1.32s.84-.2,1.92.39a6.14,6.14,0,0,1,1.67,1.34,8.17,8.17,0,0,1,1.36,2.25,7.9,7.9,0,0,1,.52,2.57,6.3,6.3,0,0,1-.3,2.12C161,200.37,160.39,200.89,160.21,200.79Z" stroke="#000" stroke-miterlimit="10" stroke-width="0.5"/>
    </g>
  </g>
  <g id="CHARACTER1">
    <g id="PRIMARY_foot_right-2" data-name="PRIMARY_foot right">
      <path d="M450.37,369.86c1.64-2,3.46-4.1,5.47-6.22,2.52-2.67,5-5,7.39-7.13a52.5,52.5,0,0,1,4.9,7c1.48,2.53,3.46,6.41,6.29,16.32a199.1,199.1,0,0,1,4.52,19.7c.95,5.36,1.55,9.88,1.92,13.12-.61,4.74-3.55,8.13-6.79,8.45a7.17,7.17,0,0,1-5.24-2c-2.18-2.06-2.34-4.57-3-9.93-.94-7.36-2.31-14.66-3.35-22-.22-1.51-.39-2.74-.51-3.53a2.1,2.1,0,0,0-1.11-1c-1.1-.38-2.64.37-3.56,2Z"/>
    </g>
    <g id="leg_right-2" data-name="leg right">
      <path d="M362.56,322.54c-1.22,2.91-.75,4.85.25,15.54,1.94,20.75.36,15.18,2.44,37.28,1.11,11.83,2.12,22.53,4.55,36.91.32,1.9,1.89,11.12,4.68,23a161,161,0,0,0,5.21,18.52,132.74,132.74,0,0,0,5.11,12.31,13.22,13.22,0,0,0,7.58,5.57,13,13,0,0,0,7.39-.64,38.5,38.5,0,0,0,15.52-10.43c13-14.69,19.1-24.28,19.1-24.28a375.13,375.13,0,0,1,23.87-33.21,37.9,37.9,0,0,0,.81-12.76A35,35,0,0,0,454,375.28,34.55,34.55,0,0,0,437.88,362a77.57,77.57,0,0,1-24.09,29.28q-1.74-14-2.91-29c-1.45-18.76-2-36.55-1.86-53.22C391.88,308.62,367.78,310.14,362.56,322.54Z" fill="#fff"/>
      <path d="M456.26,405.89a14.11,14.11,0,0,1-1.33,2.13c-.91,1.37-2.29,3.37-4.07,5.93-3.56,5.13-8.76,12.52-15.21,21.63-3.24,4.54-6.7,9.58-10.65,14.85a81.85,81.85,0,0,1-14.45,15.36,45.62,45.62,0,0,1-4.68,3.23,27.83,27.83,0,0,1-5.28,2.59,17.35,17.35,0,0,1-6,1.11,11.5,11.5,0,0,1-6.08-1.72,14.81,14.81,0,0,1-4.48-4.54,30.89,30.89,0,0,1-2.82-5.67c-.78-2-1.38-4-2-6s-1.36-4-1.91-6.08c-2.48-8.18-4.36-16.31-6-24.19s-2.81-15.56-3.85-22.88c-2-14.66-3-27.94-3.74-39.08s-1.06-20.18-1.28-26.43c-.12-3.12-.18-5.54-.21-7.18a15.26,15.26,0,0,1,0-2.52,13.51,13.51,0,0,1,.29,2.5c.12,1.64.29,4.06.51,7.17.42,6.23,1,15.25,1.8,26.38s2,24.35,4.08,38.95c1.08,7.29,2.29,14.92,3.93,22.77s3.54,15.92,6,24c.55,2.05,1.27,4,1.89,6s1.25,4,2,5.88a29.28,29.28,0,0,0,2.66,5.38,13.16,13.16,0,0,0,4,4.06,10,10,0,0,0,5.25,1.5,15.48,15.48,0,0,0,5.46-1,26.34,26.34,0,0,0,5-2.43,45.49,45.49,0,0,0,4.55-3.1,81.35,81.35,0,0,0,14.29-15c4-5.19,7.49-10.2,10.8-14.7,6.57-9,11.91-16.32,15.63-21.33,1.86-2.51,3.31-4.45,4.31-5.75A14.33,14.33,0,0,1,456.26,405.89Z" stroke="#000" stroke-miterlimit="10" stroke-width="0.5"/>
      <path d="M414.4,402.89a10.58,10.58,0,0,1-.61-2.95c-.29-1.92-.65-4.69-1.05-8.12-.79-6.87-1.71-16.38-2.49-26.89s-1.27-20.06-1.5-27c-.11-3.45-.17-6.25-.16-8.19a10.82,10.82,0,0,1,.17-3c.23,0,.62,4.25,1.15,11.14s1.2,16.4,2,26.9,1.5,20,2,26.91S414.63,402.87,414.4,402.89Z" stroke="#000" stroke-miterlimit="10" stroke-width="0.5"/>
      <path d="M437.87,362c.18.12-.79,2.06-2.55,5.07a119.12,119.12,0,0,1-7.57,11.38,68.05,68.05,0,0,1-9.25,10.13,13.81,13.81,0,0,1-3.55,2.3c-.93.39-1.5.43-1.53.34s1.92-1,4.3-3.49a109.42,109.42,0,0,0,8.73-10.26c3.19-4.21,5.88-8.19,7.9-11S437.67,361.85,437.87,362Z" stroke="#000" stroke-miterlimit="10" stroke-width="0.5"/>
      <path d="M458.93,399.56c-.27,0,.05-2.59-.25-6.67a41.11,41.11,0,0,0-4.29-15.22,38.53,38.53,0,0,0-4.81-7.27c-.89-1-1.74-2-2.61-2.79a25.33,25.33,0,0,0-2.48-2.21c-3.17-2.56-5.75-3.07-5.68-3.31s.68-.12,1.84.19a14.9,14.9,0,0,1,4.52,2.19,22.57,22.57,0,0,1,2.72,2.15,33.72,33.72,0,0,1,2.82,2.8,35,35,0,0,1,5.13,7.51,37,37,0,0,1,3.11,8.55,36.38,36.38,0,0,1,.88,7.36C459.84,397.07,459.11,399.6,458.93,399.56Z" stroke="#000" stroke-miterlimit="10" stroke-width="0.5"/>
      <path d="M463.22,356.51c.3.35-2.59,3.31-6.11,7s-6.37,6.66-6.73,6.37,2-3.78,5.56-7.5S462.93,356.18,463.22,356.51Z" stroke="#000" stroke-miterlimit="10" stroke-width="0.5"/>
      <path d="M481.4,414.89c-.22,0-.91-3.29-1.92-8.68s-2.37-12.83-4.4-20.91c-1-4-2.18-7.82-3.33-11.24-.62-1.69-1.16-3.31-1.78-4.79-.3-.74-.57-1.47-.85-2.15l-.86-2c-2.21-5-3.91-7.93-3.68-8.07s2.21,2.65,4.72,7.57l1,1.95c.32.68.62,1.4,1,2.14.68,1.48,1.28,3.11,1.94,4.81,1.25,3.43,2.45,7.27,3.5,11.34A191.67,191.67,0,0,1,480.61,406C481.34,411.47,481.62,414.86,481.4,414.89Z" stroke="#000" stroke-miterlimit="10" stroke-width="0.5"/>
      <path d="M467,381.54c0,.46-2.24.81-4.83,1.65s-4.64,1.81-4.9,1.42,1.53-2.08,4.41-3S467,381.1,467,381.54Z" stroke="#000" stroke-miterlimit="10" stroke-width="0.5"/>
      <path d="M479.7,415.23c.09,0-.09.75-.67,2a12.23,12.23,0,0,1-1.31,2.07,7.43,7.43,0,0,1-2.62,2.12,5.85,5.85,0,0,1-4.17.34,4.52,4.52,0,0,1-2.06-1.36,8,8,0,0,1-1.28-2.11,45.42,45.42,0,0,1-2.87-9.79c-.66-3.55-1-6.95-1.34-10s-.61-5.83-.93-8.13c-.58-4.61-1.34-7.39-1.09-7.47s1.34,2.65,2.23,7.28c.47,2.31.88,5.08,1.28,8.14s.81,6.43,1.45,9.9a50,50,0,0,0,2.65,9.5,4.36,4.36,0,0,0,2.39,2.79,4.81,4.81,0,0,0,3.29-.13,6.9,6.9,0,0,0,2.38-1.66,14.11,14.11,0,0,0,1.45-1.8C479.21,415.8,479.59,415.17,479.7,415.23Z" stroke="#000" stroke-miterlimit="10" stroke-width="0.5"/>
    </g>
    <g id="PRIMARY_foot_left-2" data-name="PRIMARY_foot left">
      <path d="M519,348.81q8.65-12.4,17.32-24.79a17.52,17.52,0,0,1,4.44,1.31,19.87,19.87,0,0,1,6.22,4.64c3.53,3.57,5.84,6.27,7.22,7.83,4.62,5.22,5,4.53,11.27,11.15a89.47,89.47,0,0,1,7.55,8.67c4.69,6.4,4.73,8.79,4.43,10.27a7,7,0,0,1-3.64,4.84c-4,1.83-9-1.83-11-3.28-6-4.41-7.12-9.47-12.68-14.37-2.52-2.22-2.92-1.73-5.48-4.13a5.37,5.37,0,0,0-3-1.78,4.5,4.5,0,0,0-2.74.64l-7,8.44Z"/>
    </g>
    <g id="leg_left-2" data-name="leg left">
      <path d="M385.94,314.42a55.2,55.2,0,0,0,0,15.35,50.35,50.35,0,0,0,1.07,5.51l14.86,3.84c1.93,4.55,4.42,10.25,7.46,16.77,4.29,9.22,8.06,16.64,10.66,21.61,12.32,23.62,21.19,36.47,35.95,57.84a63.91,63.91,0,0,0,15.59,15.24c5.46,3.76,8.54,4.58,11.08,4.76,6.49.48,11.51-3,14.17-4.89,5.84-4.16,8.86-9.3,12.87-17.27a275.69,275.69,0,0,0,11.67-26.13c4-10.78,8.46-23.32,13.28-37.4a20.19,20.19,0,0,0-1.79-9.25,20.45,20.45,0,0,0-26.7-10q-5.43,9.33-10.86,18.72-6.39,11.06-12.73,22.08c-6.62-12.36-11.86-23-15.72-31.07-4.52-9.47-7.77-16.32-11.51-25.87-3.83-9.79-6.53-18.18-8.33-24.29Z" fill="#fff"/>
      <path d="M402.38,339c-.09.44-3.62,0-7.87-1.07s-7.61-2.22-7.5-2.65,3.65,0,7.88,1.07S402.48,338.56,402.38,339Z" stroke="#000" stroke-miterlimit="10" stroke-width="0.5"/>
      <path d="M534.56,369.78a13.89,13.89,0,0,1-.51,2.49c-.39,1.62-1,4-1.92,7-1.8,6.07-4.81,14.74-9.11,25.21-2.15,5.24-4.6,10.93-7.27,17s-5.38,12.7-9.42,19.11a44.74,44.74,0,0,1-7.39,9,25.51,25.51,0,0,1-10.66,6,17,17,0,0,1-6.4.4,19.52,19.52,0,0,1-6.19-1.95,48.38,48.38,0,0,1-10.43-7.69,119,119,0,0,1-16.51-19.17c-4.72-6.67-8.84-13.36-12.72-19.76-7.73-12.82-14.11-24.7-19.18-34.82s-8.82-18.48-11.3-24.3c-1.24-2.91-2.18-5.18-2.78-6.73a14.79,14.79,0,0,1-.85-2.4,14.75,14.75,0,0,1,1.15,2.27l3.06,6.6c2.66,5.74,6.58,14,11.75,24s11.65,21.82,19.43,34.56c3.9,6.36,8,13,12.74,19.61a118.64,118.64,0,0,0,16.31,18.89,46.4,46.4,0,0,0,10.06,7.44,17.74,17.74,0,0,0,5.67,1.82,15.72,15.72,0,0,0,5.8-.36,24.12,24.12,0,0,0,10-5.62,43.86,43.86,0,0,0,7.17-8.65c4-6.24,6.68-12.82,9.44-18.86s5.23-11.72,7.45-16.91c4.42-10.39,7.59-19,9.56-25,1-3,1.72-5.34,2.22-6.92A16.1,16.1,0,0,1,534.56,369.78Z" stroke="#000" stroke-miterlimit="10" stroke-width="0.5"/>
      <path d="M490.27,402.69a14.72,14.72,0,0,1-2-2.82c-1.24-1.87-3-4.63-5-8.07-4.11-6.87-9.51-16.55-15-27.5s-9.91-21.09-12.92-28.52c-1.51-3.71-2.67-6.74-3.42-8.85a15.11,15.11,0,0,1-1-3.34,14.19,14.19,0,0,1,1.61,3.1l3.89,8.64c3.27,7.29,7.89,17.32,13.32,28.24s10.65,20.65,14.5,27.66l4.54,8.31A14,14,0,0,1,490.27,402.69Z" stroke="#000" stroke-miterlimit="10" stroke-width="0.5"/>
      <path d="M506.09,349.41c.2.11-.93,2.51-2.91,6.3s-4.81,9-8,14.66-6.22,10.78-8.45,14.43-3.72,5.85-3.91,5.73.93-2.52,2.91-6.31,4.81-9,8-14.65,6.21-10.77,8.44-14.42S505.89,349.3,506.09,349.41Z" stroke="#000" stroke-miterlimit="10" stroke-width="0.5"/>
      <path d="M535.69,370.81c-.27,0-.43-2.33-1.63-5.83A24.76,24.76,0,0,0,526,353.42a21.63,21.63,0,0,0-7-3.49,21.38,21.38,0,0,0-6.34-.86c-3.68.07-5.88,1-6,.73s2-1.49,5.91-1.88a20,20,0,0,1,6.8.56,21.39,21.39,0,0,1,7.54,3.64,22.72,22.72,0,0,1,5.54,6.26,23.64,23.64,0,0,1,2.64,6.26C536.13,368.4,535.87,370.82,535.69,370.81Z" stroke="#000" stroke-miterlimit="10" stroke-width="0.5"/>
      <path d="M535.72,324.21c.38.22-2.78,6.26-7.59,13.13s-9.38,11.91-9.72,11.63,3.63-5.74,8.39-12.57S535.32,324,535.72,324.21Z" stroke="#000" stroke-miterlimit="10" stroke-width="0.5"/>
      <path d="M576.65,364.26c-.23.13-1.81-2.57-5-6.48-1.59-1.93-3.56-4.18-5.87-6.57s-4.93-4.95-7.69-7.64-5.38-5.28-7.66-7.75-4.15-4.9-5.83-6.69a12.18,12.18,0,0,0-4.63-3.34c-1.29-.43-2.09-.38-2.09-.52s.78-.36,2.26-.09a11.36,11.36,0,0,1,5.27,3.13c1.89,1.8,3.76,4.12,6.11,6.47s4.94,4.94,7.71,7.63,5.38,5.29,7.65,7.77a81.25,81.25,0,0,1,5.69,6.9C575.58,361.25,576.82,364.18,576.65,364.26Z" stroke="#000" stroke-miterlimit="10" stroke-width="0.5"/>
      <path d="M542.46,345.23c.33.32-1.87,3.08-4.49,6.51s-4.71,6.27-5.11,6,1.12-3.51,3.82-7S542.15,344.92,542.46,345.23Z" stroke="#000" stroke-miterlimit="10" stroke-width="0.5"/>
      <path d="M577.39,370.06c.07,0-.11.73-1,1.64a7.53,7.53,0,0,1-4.85,2,10.81,10.81,0,0,1-3.66-.41,11.77,11.77,0,0,1-3.76-1.92,36.32,36.32,0,0,1-6.43-6.74,70,70,0,0,0-11.77-11.45c-3.35-2.58-5.6-4-5.47-4.18s2.56.86,6.15,3.24A56.71,56.71,0,0,1,559,363.59a39.52,39.52,0,0,0,6.07,6.58,10.32,10.32,0,0,0,6.48,2.37,7.51,7.51,0,0,0,4.47-1.32C576.9,370.55,577.27,370,577.39,370.06Z" stroke="#000" stroke-miterlimit="10" stroke-width="0.5"/>
    </g>
    <g id="hand_right-2" data-name="hand right">
      <path d="M321.11,106.65a118,118,0,0,1,4.8,23.53c1.24,9.15,4.44,22.51,13.29,40.11,2.46,1.47,6.09,3.68,10.39,6.5,6,3.94,10.54,7.24,22.48,16.2,4.95,3.72,10.77,8.11,17.32,13.08A20.71,20.71,0,0,1,361.22,231a157.64,157.64,0,0,1-14.15-11.44,159.63,159.63,0,0,1-28-33.68q-3.54-9.46-6.86-19.7a452.39,452.39,0,0,1-12.3-46.5l4.11-7a13.88,13.88,0,0,1-5.19-5.43,31.76,31.76,0,0,1-2.31-7.71C296,96.91,296,96,295.07,94.8c-1.4-1.67-3-1.42-3.71-2.75-.47-.92-.46-2.49,1.56-5.4a6.51,6.51,0,0,1,5-5.35,3.32,3.32,0,0,1,1.31-3.17c1.17-.79,2.77,1.33,4.34.68,1.06-.44.92-1.52,1.78-1.87,1.46-.58,3.92,1.65,5.71,4,3,4,3.78,7.82,4.57,10.93C317.47,98.92,318.5,98.64,321.11,106.65Z" fill="#fff"/>
      <path d="M319.33,186.28c-.2.08-1.79-3.42-4-9.23s-5.06-13.92-7.74-23-4.67-17.48-5.92-23.57-1.81-9.9-1.6-9.95,1.18,3.68,2.72,9.69,3.71,14.29,6.37,23.37,5.3,17.22,7.26,23.1S319.55,186.2,319.33,186.28Z" stroke="#000" stroke-miterlimit="10" stroke-width="0.5"/>
      <path d="M359.11,229.92c-.12.16-2.92-1.71-7.12-5.15a150.13,150.13,0,0,1-28.47-31.28c-3-4.5-4.62-7.46-4.45-7.57s2.14,2.6,5.39,6.9S332.33,203,337.86,209s10.9,11.23,14.89,14.86S359.26,229.72,359.11,229.92Z" stroke="#000" stroke-miterlimit="10" stroke-width="0.5"/>
      <path d="M339.37,171.88c-.19.08-1.87-3.24-4.13-8.81a206.42,206.42,0,0,1-12.41-45.17c-.9-5.94-1.16-9.65-1-9.68s.91,3.62,2.09,9.48,3,13.92,5.36,22.71,5,16.62,7,22.26S339.59,171.78,339.37,171.88Z" stroke="#000" stroke-miterlimit="10" stroke-width="0.5"/>
      <path d="M384.42,202c-.13.18-2.75-1.48-6.87-4.31s-9.76-6.82-15.92-11.31-11.69-8.59-15.8-11.4-6.72-4.47-6.6-4.68,2.93,1.11,7.23,3.71,10,6.54,16.13,11,11.69,8.64,15.64,11.7S384.55,201.82,384.42,202Z" stroke="#000" stroke-miterlimit="10" stroke-width="0.5"/>
      <path d="M319.73,106c-.12.25-1.59-.53-4.05-.33a11.42,11.42,0,0,0-4.11,1.14,15.57,15.57,0,0,0-4.23,3.13,39,39,0,0,0-3.48,4.19c-1,1.38-1.9,2.61-2.55,3.68-1.33,2.14-1.57,3.72-1.81,3.7s-.37-1.77.79-4.24a31.66,31.66,0,0,1,2.34-4,30.47,30.47,0,0,1,3.55-4.48,15.19,15.19,0,0,1,4.77-3.35,11.1,11.1,0,0,1,4.71-.93,7.76,7.76,0,0,1,3.14.74C319.48,105.61,319.77,105.94,319.73,106Z" stroke="#000" stroke-miterlimit="10" stroke-width="0.5"/>
      <path d="M309.88,93.24c-.11.05-.32-.48-1.15-.66a3.8,3.8,0,0,0-1.54,0,10.58,10.58,0,0,1-2.36.39,2.85,2.85,0,0,1-1.58-.5A2.89,2.89,0,0,1,302.19,91a3.51,3.51,0,0,1-.09-1.88,3.66,3.66,0,0,1,.95-1.76,6.11,6.11,0,0,1,3.56-1.72,8.62,8.62,0,0,1,4.1.4,8.32,8.32,0,0,1,3.43,2.28,10.88,10.88,0,0,1,2,3.21,29.51,29.51,0,0,1,1.48,5.88c.58,3.34.83,5.43.61,5.48s-.87-2-1.74-5.23a36.35,36.35,0,0,0-1.73-5.54,7.91,7.91,0,0,0-4.56-4.54c-2.15-.78-4.72-.45-6,.82a2.39,2.39,0,0,0-.64,1,2.28,2.28,0,0,0,0,1.16,1.55,1.55,0,0,0,1.42,1.22,13.11,13.11,0,0,0,2.17-.14,3.94,3.94,0,0,1,1.87.29,1.79,1.79,0,0,1,.9.82C310,93.07,309.93,93.22,309.88,93.24Z" stroke="#000" stroke-miterlimit="10" stroke-width="0.5"/>
      <path d="M304.26,86.24c-.18.1-1-.94-1.44-3a11,11,0,0,1-.13-3.68,6,6,0,0,1,.68-2.28,2.53,2.53,0,0,1,1.22-1,3.09,3.09,0,0,1,1.49-.16,5.44,5.44,0,0,1,2.38.94,10.49,10.49,0,0,1,1.69,1.44,10,10,0,0,1,2,3.13c.76,2,.58,3.31.39,3.32s-.49-1.19-1.43-2.82a11.44,11.44,0,0,0-2-2.57,6.3,6.3,0,0,0-3.19-1.82,1.18,1.18,0,0,0-1.19.41,5.45,5.45,0,0,0-.53,1.64,13.12,13.12,0,0,0-.21,3.27C304.08,85,304.49,86.15,304.26,86.24Z" stroke="#000" stroke-miterlimit="10" stroke-width="0.5"/>
      <path d="M299.4,89.23c-.2.07-.72-.69-1.23-2.08a18,18,0,0,1-1-5.65,4.51,4.51,0,0,1,1-3.45,3,3,0,0,1,3-.66,2.51,2.51,0,0,1,1.56,1.21c.2.44.14.71.05.74s-.64-.73-1.85-.83a2,2,0,0,0-1.66.57,3.59,3.59,0,0,0-.44,2.38C298.86,85.69,299.84,89.07,299.4,89.23Z" stroke="#000" stroke-miterlimit="10" stroke-width="0.5"/>
      <path d="M296.49,92.25c-.15.14-.83-.22-1.57-1.19a8.14,8.14,0,0,1-1.55-4.43,8.4,8.4,0,0,1,.29-2.61,3.86,3.86,0,0,1,1.2-2,1.82,1.82,0,0,1,1.58-.49c.41.12.51.34.47.43s-.25.11-.48.2a1.66,1.66,0,0,0-.74.66,3.46,3.46,0,0,0-.56,1.51,9.76,9.76,0,0,0-.13,2.2C295.13,89.74,296.83,92,296.49,92.25Z" stroke="#000" stroke-miterlimit="10" stroke-width="0.5"/>
      <path d="M295.78,95.51c0,.2-.74.44-1.91.08a5.13,5.13,0,0,1-2.56-7.89c.73-1,1.48-1.22,1.6-1s-.26.72-.6,1.62a5.39,5.39,0,0,0-.18,3.53,5.46,5.46,0,0,0,2.22,2.75C295.15,95.08,295.8,95.26,295.78,95.51Z" stroke="#000" stroke-miterlimit="10" stroke-width="0.5"/>
      <path d="M302.86,110.79c-.08.19-1.18-.05-2.62-1.12a11.23,11.23,0,0,1-3.95-5.66,12.86,12.86,0,0,1-.51-3.78c0-1.13,0-2.09-.09-2.87-.15-1.57-.79-2.37-.61-2.55s.36,0,.71.4a4.68,4.68,0,0,1,1,1.91,15.45,15.45,0,0,1,.46,3,15,15,0,0,0,.57,3.38,13.64,13.64,0,0,0,3.15,5.28C302.11,110,303,110.58,302.86,110.79Z" stroke="#000" stroke-miterlimit="10" stroke-width="0.5"/>
    </g>
    <g id="torso-2" data-name="torso">
      <path d="M385.72,201.44a117.24,117.24,0,0,0-10.3,10.05A105.94,105.94,0,0,0,361.22,231c-3.09,5.56-4.64,8.34-5.39,12.42a30.87,30.87,0,0,0,2.05,17.25c-1.2,4.59-2.54,10.37-3.68,17.1a198.53,198.53,0,0,0-1.14,58.92,34.86,34.86,0,0,1,9.17-10.37c11-8.23,24-7.24,28.33-6.91,4.95.38,3.52,1,21.66,5.13,9.38,2.13,14.14,3.19,17.9,3.29A55.48,55.48,0,0,0,464.44,317a130.88,130.88,0,0,1-7.73-15.6c-7.78-18.72-8.85-33.61-10.64-46.9a311.07,311.07,0,0,0-11.39-50.95,92,92,0,0,0-11-2.76A96.44,96.44,0,0,0,385.72,201.44Z" fill="#fff"/>
      <path d="M358.5,262.32c-.18,0-1.36-2.82-2.59-7.73a34.78,34.78,0,0,1-1-8.88,22.23,22.23,0,0,1,.76-5.3,26.6,26.6,0,0,1,2.17-5.31,90.75,90.75,0,0,1,5.9-9.12c2-2.7,3.8-5,5.42-7,3.23-3.85,5.47-6,5.63-5.87s-1.75,2.58-4.73,6.59c-1.49,2-3.23,4.4-5.09,7.12s-3.9,5.74-5.69,9a26.42,26.42,0,0,0-2.07,5,21.65,21.65,0,0,0-.8,4.93,38.15,38.15,0,0,0,.66,8.59C358,259.23,358.75,262.25,358.5,262.32Z" stroke="#000" stroke-miterlimit="10" stroke-width="0.5"/>
      <path d="M353.16,337.49a11.16,11.16,0,0,1-.68-3c-.18-1-.36-2.16-.53-3.54s-.39-3-.54-4.71c-.36-3.49-.62-7.67-.74-12.32s0-9.76.28-15.12.91-10.44,1.57-15,1.46-8.71,2.24-12.13c.36-1.72.77-3.26,1.11-4.61s.67-2.51,1-3.45a11,11,0,0,1,1-2.87c.25.06-.73,4.28-2,11.15-.63,3.44-1.28,7.54-1.89,12.12s-1.08,9.62-1.42,14.93-.42,10.39-.41,15,.18,8.77.39,12.25C353,333.14,353.42,337.45,353.16,337.49Z" stroke="#000" stroke-miterlimit="10" stroke-width="0.5"/>
      <path d="M466.9,317.3a26.46,26.46,0,0,1-4.27,2.45,101.6,101.6,0,0,1-12.31,5.34,57.31,57.31,0,0,1-19.66,3.5,58,58,0,0,1-11.75-1.5c-4-.89-8.06-2.08-12.2-3.26s-8.17-2.29-12.12-3a48.31,48.31,0,0,0-11.47-.86,43.42,43.42,0,0,0-18.62,5.35,38.56,38.56,0,0,0-6.2,4.2,18.58,18.58,0,0,0-3.72,4.21,16.77,16.77,0,0,0-1.74,4.48,3,3,0,0,1,0-1.29A10.81,10.81,0,0,1,354,333.4a18.15,18.15,0,0,1,3.66-4.57,38,38,0,0,1,6.25-4.53A43.3,43.3,0,0,1,383,318.47a48.46,48.46,0,0,1,11.84.77,126.32,126.32,0,0,1,12.29,3c4.15,1.18,8.17,2.38,12.1,3.27a59.34,59.34,0,0,0,11.43,1.56A58.34,58.34,0,0,0,450,324a126.57,126.57,0,0,0,12.41-4.82A31.27,31.27,0,0,1,466.9,317.3Z" stroke="#000" stroke-miterlimit="10" stroke-width="0.5"/>
      <path d="M464.42,316.94c-.1.06-.68-.72-1.65-2.18l-.81-1.23q-.39-.69-.87-1.5c-.61-1.09-1.34-2.32-2-3.74L458,306.08c-.37-.78-.71-1.6-1.08-2.45-.77-1.68-1.45-3.54-2.2-5.48-1.4-3.92-2.74-8.29-3.91-12.94a218.66,218.66,0,0,1-4.34-24.1c-.78-6.21-1.1-10.07-.88-10.1s.95,3.77,2,9.93,2.52,14.65,4.79,23.88c1.15,4.6,2.43,8.93,3.74,12.83.7,1.93,1.32,3.78,2,5.46.34.85.65,1.68,1,2.46l1,2.23C462.67,313.47,464.65,316.79,464.42,316.94Z" stroke="#000" stroke-miterlimit="10" stroke-width="0.5"/>
      <path d="M434.66,203.51c-.06.23-2.78-.34-7.15-1.28a85.63,85.63,0,0,0-17.16-2.2A153.63,153.63,0,0,0,393,201c-4.45.45-7.23.67-7.26.44s2.68-.84,7.11-1.58a99.78,99.78,0,0,1,17.53-1.46,61.21,61.21,0,0,1,9.69.92c2.95.53,5.55,1.18,7.72,1.79C432.11,202.34,434.71,203.3,434.66,203.51Z" stroke="#000" stroke-miterlimit="10" stroke-width="0.5"/>
    </g>
    <g id="hand_left-2" data-name="hand left">
      <path d="M416.92,204.39c9.6-2.12,19.92-4.8,30.79-8.21,9.78-3.08,18.84-6.38,27.15-9.74,1.3-3.95,2.91-8.68,4.83-14,1.61-4.48,4.06-11.08,7.22-18.89s7.4-17.7,12.67-28.76l2.22-.15c.24-2.12.56-4.85,1-8,.93-7.39,1.34-9.66,3.2-11.52a9,9,0,0,1,4-2.26,13.53,13.53,0,0,1,1.42-6.43c.3-.58,2.62-5.13,4.95-4.67.32.06,1.33.36,2.15,2.38a10.21,10.21,0,0,1,8.27,1.64,27.29,27.29,0,0,1,3.69,3.81c1.35,1.68,2,2.54,2,3.49,0,1.63-1.46,2.31-3.73,5.37a27.56,27.56,0,0,0-2.08,3.25c-.36,2.86-.52,5.26-.59,7-.17,4.14.11,5.18-.84,6.3-1.46,1.7-3.67,1.08-5.21,3.18a5.45,5.45,0,0,0-1,2.5l2,2.13c-.71,3.17-1.69,7.46-2.93,12.54-4.19,17.26-8.16,30.78-10.37,38.09-2.47,8.16-5.57,17.86-9.38,28.74q-13.08,8.32-27.19,16.67-17.64,10.43-34.54,19.42a26.56,26.56,0,0,1-19.76-43.88Z" fill="#fff"/>
      <path d="M478.15,185.05c.08.2-3,1.74-8.15,3.9s-12.36,4.91-20.47,7.51-15.58,4.55-21,5.77-8.86,1.76-8.9,1.56,3.26-1.17,8.62-2.68S441,197.49,449,194.9s15.32-5.14,20.55-7S478.06,184.83,478.15,185.05Z" stroke="#000" stroke-miterlimit="10" stroke-width="0.5"/>
      <path d="M500.14,211c.12.18-3,2.5-8.14,6s-12.47,8.05-20.74,12.76-15.93,8.63-21.56,11.31-9.2,4.14-9.29,3.94,3.29-2,8.77-5,13-7,21.28-11.7,15.6-9.1,20.92-12.31S500,210.84,500.14,211Z" stroke="#000" stroke-miterlimit="10" stroke-width="0.5"/>
      <path d="M499.57,124.83c.21.11-1.23,3.54-3.58,9.06s-5.58,13.15-9,21.64-6.34,16.25-8.46,21.86-3.44,9.09-3.67,9,.74-3.67,2.59-9.4,4.61-13.56,8-22.08,6.84-16.11,9.46-21.52S499.37,124.74,499.57,124.83Z" stroke="#000" stroke-miterlimit="10" stroke-width="0.5"/>
      <path d="M521.08,132.8c-.19.16-1.15-.82-2.86-2.13a26.45,26.45,0,0,0-7.28-4,28.85,28.85,0,0,0-4.44-1.15,27.54,27.54,0,0,0-3.74-.35c-2.15-.06-3.51.09-3.56-.16s1.26-.75,3.52-1a19.1,19.1,0,0,1,4,0,22.42,22.42,0,0,1,4.77,1.09,23.11,23.11,0,0,1,4.4,2.16,19.31,19.31,0,0,1,3.1,2.5C520.58,131.42,521.24,132.68,521.08,132.8Z" stroke="#000" stroke-miterlimit="10" stroke-width="0.5"/>
      <path d="M499,210.19a12.69,12.69,0,0,1,.75-3.11l2.54-8.3c2.17-7,5.14-16.67,8.2-27.41s5.62-20.53,7.45-27.63l2.2-8.39a12.47,12.47,0,0,1,1-3,12.42,12.42,0,0,1-.39,3.18c-.34,2-.92,4.93-1.7,8.52-1.55,7.17-3.94,17-7,27.8s-6.21,20.42-8.66,27.33c-1.23,3.46-2.27,6.24-3,8.15A12,12,0,0,1,499,210.19Z" stroke="#000" stroke-miterlimit="10" stroke-width="0.5"/>
      <path d="M511.63,110.6c0-.12.65-.24,1.79-.44a14.09,14.09,0,0,0,2-.52,5.16,5.16,0,0,0,2.14-1.36,3.56,3.56,0,0,0,.93-2.65,2.41,2.41,0,0,0-2.09-2,17.29,17.29,0,0,0-4.09-.29,9.82,9.82,0,0,0-4.15,1,5.62,5.62,0,0,0-2.59,3.06,30.16,30.16,0,0,0-1.09,4.07c-.61,2.69-1.07,5.12-1.43,7.18-.72,4.11-1.06,6.68-1.3,6.66s-.27-2.62.16-6.82c.22-2.1.56-4.59,1.1-7.33a29.11,29.11,0,0,1,1.07-4.34,8,8,0,0,1,1.25-2.22,6.89,6.89,0,0,1,2.06-1.69,10.82,10.82,0,0,1,4.86-1.15,17.12,17.12,0,0,1,4.54.43,4.69,4.69,0,0,1,2.08,1.16,3.34,3.34,0,0,1,1,2.13,4.69,4.69,0,0,1-1.43,3.57,5.86,5.86,0,0,1-2.71,1.44,10.47,10.47,0,0,1-2.2.28C512.29,110.8,511.64,110.71,511.63,110.6Z" stroke="#000" stroke-miterlimit="10" stroke-width="0.5"/>
      <path d="M518.33,102.49c-.23,0-.29-1.41-.22-3.65a31.25,31.25,0,0,0,0-3.78,3.43,3.43,0,0,0-.66-1.75,1.78,1.78,0,0,0-1.45-.77,2.71,2.71,0,0,0-1.65.84A9.82,9.82,0,0,0,513.05,95a16.65,16.65,0,0,0-1.74,3.31c-.79,2-1,3.39-1.22,3.37s-.43-1.45.12-3.72a13.93,13.93,0,0,1,1.57-3.77,10.89,10.89,0,0,1,1.51-2,4.19,4.19,0,0,1,2.7-1.32,3.36,3.36,0,0,1,2.79,1.44,4.84,4.84,0,0,1,.88,2.56,20.64,20.64,0,0,1-.4,4C518.89,101.16,518.55,102.51,518.33,102.49Z" stroke="#000" stroke-miterlimit="10" stroke-width="0.5"/>
      <path d="M522,104.74c-.2-.15.26-.95.71-2.29a11.87,11.87,0,0,0,.58-5.31,5.13,5.13,0,0,0-1-2.52,2.45,2.45,0,0,0-.81-.69,2.78,2.78,0,0,0-.93-.29c-1.25-.15-1.85.59-2,.47s-.09-.33.21-.73a2.56,2.56,0,0,1,1.83-.89,3.44,3.44,0,0,1,1.45.19,3.64,3.64,0,0,1,1.41.94,5.85,5.85,0,0,1,1.47,3.29,9.76,9.76,0,0,1-1.15,6C523,104.3,522.16,104.87,522,104.74Z" stroke="#000" stroke-miterlimit="10" stroke-width="0.5"/>
      <path d="M524.72,106.38c-.08-.24.71-.59,1.34-1.65a10.29,10.29,0,0,0,1.25-4.77,6.58,6.58,0,0,0-.27-2.59,3.32,3.32,0,0,0-1.17-1.59c-.94-.73-1.8-.55-1.87-.78s.13-.3.57-.43a2.76,2.76,0,0,1,1.87.21,4.07,4.07,0,0,1,2,2,6.76,6.76,0,0,1,.52,3.27,8.52,8.52,0,0,1-2,5.39,3.48,3.48,0,0,1-1.54,1C525,106.54,524.75,106.48,524.72,106.38Z" stroke="#000" stroke-miterlimit="10" stroke-width="0.5"/>
      <path d="M527,110.49c-.1-.22.68-.71,1.76-1.62a8.3,8.3,0,0,0,2.94-4.2,4.77,4.77,0,0,0-.16-2.63,5.18,5.18,0,0,0-1.17-1.9c-.92-.91-1.86-1-1.85-1.24s.23-.23.69-.25a3.25,3.25,0,0,1,1.87.59,5.2,5.2,0,0,1,1.85,2.24,5.63,5.63,0,0,1,.35,3.58,6.83,6.83,0,0,1-1.69,3.07,8.76,8.76,0,0,1-2.18,1.7C528,110.57,527,110.68,527,110.49Z" stroke="#000" stroke-miterlimit="10" stroke-width="0.5"/>
      <path d="M519.11,130.67c-.09,0-.36-.31-.26-1a3.52,3.52,0,0,1,1.76-2.27c1-.63,2.35-.94,3.2-1.74a5.7,5.7,0,0,0,1.54-3.7c.14-1.53-.05-3.1-.05-4.6a17.23,17.23,0,0,1,.45-3.94c.53-2.19,1.26-3.4,1.46-3.32s-.11,1.4-.32,3.51a23.13,23.13,0,0,0-.09,3.71,32.47,32.47,0,0,1,.18,4.79,6.79,6.79,0,0,1-2.19,4.68,6.27,6.27,0,0,1-2,1.06c-.63.21-1.18.37-1.63.57a3.39,3.39,0,0,0-1.68,1.44C519.22,130.29,519.23,130.64,519.11,130.67Z" stroke="#000" stroke-miterlimit="10" stroke-width="0.5"/>
    </g>
    <g id="PRIMARY_hair1">
      <path d="M365.1,154.42a22.23,22.23,0,0,1,3.58-10.33c5.86-8.76,18.28-12.59,31.61-10.2a33.81,33.81,0,0,0,1.47,10.45A34.94,34.94,0,0,0,412.1,160.2c.4-.14,4.26-1.37,7.12.88,2.6,2.06,2.51,5.55,2.46,7.36a12.13,12.13,0,0,1-1.86,6.11,13.73,13.73,0,0,1-7.17,5.39,16.88,16.88,0,0,1-4.63,1l-1,6.72a18.32,18.32,0,0,0,6.53.7c5.7-.45,9.59-3.63,12.24-5.79a35.57,35.57,0,0,0,7.46-8.49c4.12-6.24,3.29-8.42,6.65-13.06,2.41-3.33,3.73-3.66,10.48-8.78,5-3.82,10.31-7.8,15-13.42,2.89-3.5,7.66-9.39,9.59-18.3a29.7,29.7,0,0,0-.14-15.65,25,25,0,0,0-9.65-13.79,24.57,24.57,0,0,0-14.5-4.05c-10,.21-17.19,6.1-22.24,10.34-11.1,9.34-9.84,15.28-18.69,19.18-4,1.76-4,.45-18.32,2.19-12.14,1.47-18.32,2.27-23.67,5.34C365,125.7,358,129.81,355,138a23.57,23.57,0,0,0-1.33,10.8,17.89,17.89,0,0,0,3,8.5,17.22,17.22,0,0,0,6.61,5.57Z"/>
    </g>
    <g id="head-2" data-name="head">
      <path d="M368,143.09c-1.86,3.1-2.45,5.78-3.34,10.85-1.55,8.81-2.33,13.22-2.48,18.12-.16,5.05-.22,7.65.74,11.05.79,2.77,1.91,6.71,5.26,9.73,3.51,3.17,8.37,4.31,15.29,5.94a17.09,17.09,0,0,1,5.93,2.13,15.88,15.88,0,0,1,5.35,5.89c-.11.26-1.37,3.5.47,6s5,2.33,5.93,2.29c5.44-.22,8.58-5.74,8.94-6.4a13.76,13.76,0,0,0,1.43-8.64,24.84,24.84,0,0,1-2.66-19.5,16.54,16.54,0,0,0,6.55-2.12c1.4-.81,6.31-3.65,7.15-9,.44-2.83-.06-7.81-3.66-9.56a7.65,7.65,0,0,0-6,.08,37.66,37.66,0,0,1-12.62-26.09c-12.57-2.38-23.47-.37-28.42,4.37A26.07,26.07,0,0,0,368,143.09Z" fill="#fff"/>
      <path d="M395.05,208.19a22.7,22.7,0,0,0-1.19-2.69,12.8,12.8,0,0,0-6.15-4.78c-3.07-1.36-7.19-1.66-11.73-2.78a18.4,18.4,0,0,1-6.75-3.12,18.79,18.79,0,0,1-5.09-6.16,24.16,24.16,0,0,1-2.42-7.56,37.34,37.34,0,0,1-.36-7.31,79.24,79.24,0,0,1,1.53-12.15,71.63,71.63,0,0,1,2.09-8,9.6,9.6,0,0,1,1.15-2.8c.25.08-1,4.19-2.1,11a91.51,91.51,0,0,0-1.17,12c-.09,4.47.35,9.53,2.73,14.06a16.09,16.09,0,0,0,10.79,8.59c4.31,1.16,8.54,1.58,11.8,3.17a12.64,12.64,0,0,1,6.23,5.54,7,7,0,0,1,.68,2.19C395.12,207.91,395.11,208.18,395.05,208.19Z" stroke="#000" stroke-miterlimit="10" stroke-width="0.5"/>
      <path d="M408.89,180.6c0-.28,2.15-.26,5.19-1.57a14.34,14.34,0,0,0,4.65-3.25,11.25,11.25,0,0,0,3-6.06,10.9,10.9,0,0,0-1-6.65,7.4,7.4,0,0,0-1.71-2.31,3.09,3.09,0,0,0-2.17-.63,7.22,7.22,0,0,0-3.45,1.42c-.79.52-1.24.81-1.32.72s.23-.52.92-1.21a8,8,0,0,1,1.39-1.15,5.69,5.69,0,0,1,2.33-.92,4.19,4.19,0,0,1,3.11.69,8.35,8.35,0,0,1,2.23,2.69,11.9,11.9,0,0,1,1.25,7.61,12.22,12.22,0,0,1-3.5,6.85,14.12,14.12,0,0,1-5.31,3.27,13,13,0,0,1-4.1.73C409.42,180.84,408.89,180.69,408.89,180.6Z" stroke="#000" stroke-miterlimit="10" stroke-width="0.5"/>
      <path d="M412.36,201.33c-.16.13-1.09-.71-2.16-2.41a20.46,20.46,0,0,1-2.49-15.1c.47-1.95,1.08-3,1.28-3,.47.13-.88,4.79.11,10.5S412.77,201.06,412.36,201.33Z" stroke="#000" stroke-miterlimit="10" stroke-width="0.5"/>
      <path d="M376.54,168.67c-.08.08-.41-.1-1.05-.36-.31-.13-.71-.29-1.18-.51a4.48,4.48,0,0,1-1.51-1.14,3.76,3.76,0,0,1-.78-2.28,7.44,7.44,0,0,1,.42-2.54c.55-1.65,1.25-3.3,2-5.08,3.18-7.06,7-12.1,7.33-11.86s-2.73,5.61-5.85,12.53c-.77,1.72-1.52,3.42-2.1,4.89s-.69,2.82-.13,3.66a9.2,9.2,0,0,0,2.09,1.79C376.4,168.22,376.62,168.59,376.54,168.67Z" stroke="#000" stroke-miterlimit="10" stroke-width="0.5"/>
      <path d="M386.29,184.67a17.35,17.35,0,0,0,2.48.07,7.6,7.6,0,0,0,2.67-.89,11.86,11.86,0,0,0,2.9-2.4,23.24,23.24,0,0,0,2.76-3.74,11.78,11.78,0,0,0,1.64-4.87,7.46,7.46,0,0,0-1.38-5.19,5.45,5.45,0,0,0-5-2.07c-1.89.27-3.19,2-4.24,3.71s-2.2,3.75-4.17,4.85a5.48,5.48,0,0,1-3.13.63,5.41,5.41,0,0,0-2.36.11,3.9,3.9,0,0,0-2.26,3.2,5.41,5.41,0,0,0,.75,3.46,11.74,11.74,0,0,0,1.72,2.31c1.1,1.18,1.79,1.78,1.71,1.88s-.87-.35-2.15-1.42a10.9,10.9,0,0,1-2.06-2.3,7.37,7.37,0,0,1-.87-1.78,5.55,5.55,0,0,1-.24-2.28,5.88,5.88,0,0,1,.76-2.43,4.47,4.47,0,0,1,2.15-1.9,6.45,6.45,0,0,1,2.91-.28,4,4,0,0,0,2.33-.51,6.62,6.62,0,0,0,1.93-1.82,26.82,26.82,0,0,0,1.62-2.55,13.87,13.87,0,0,1,2-2.74,6.16,6.16,0,0,1,3.32-1.75,7,7,0,0,1,6.52,2.7,8.94,8.94,0,0,1,1.61,6.31,12.83,12.83,0,0,1-2,5.42,22,22,0,0,1-3.09,3.84,11.73,11.73,0,0,1-3.32,2.42,7.45,7.45,0,0,1-3,.71C387.06,185.36,386.24,184.74,386.29,184.67Z" stroke="#000" stroke-miterlimit="10" stroke-width="0.5"/>
      <path d="M373.19,159.16c-.23-.07-.27-.58-.86-.89a2.55,2.55,0,0,0-1.13-.34,2.85,2.85,0,0,0-1.4.34,4.29,4.29,0,0,0-1.91,2.09c-.33.71-.36,1.27-.59,1.32s-.63-.5-.54-1.58a4.25,4.25,0,0,1,2.3-3.28,3.63,3.63,0,0,1,2.36-.37,3,3,0,0,1,1.7,1,1.65,1.65,0,0,1,.41,1.31C373.46,159.07,373.29,159.19,373.19,159.16Z" stroke="#000" stroke-miterlimit="10" stroke-width="0.5"/>
      <path d="M397.77,158c-.25,0-.38-.73-1-1.58a4,4,0,0,0-6.67,0c-.64.85-.78,1.58-1,1.58s-.51-.85,0-2.14a4.82,4.82,0,0,1,1.49-1.89,4.74,4.74,0,0,1,7.2,1.89C398.28,157.11,398,158,397.77,158Z" stroke="#000" stroke-miterlimit="10" stroke-width="0.5"/>
      <path d="M377.25,146.42c-.22.11-.65-.48-1.55-1a4.92,4.92,0,0,0-3.74-.62,4.75,4.75,0,0,0-2.83,2.48c-.48.94-.52,1.67-.77,1.69s-.6-.73-.33-2a5,5,0,0,1,3.49-3.69,5.09,5.09,0,0,1,4.9,1.3C377.36,145.48,377.44,146.36,377.25,146.42Z" stroke="#000" stroke-miterlimit="10" stroke-width="0.5"/>
      <path d="M401.17,149c-.23.07-.61-.71-1.36-1.8a8.16,8.16,0,0,0-3.69-3.14,5.41,5.41,0,0,0-4.52.49c-1,.65-1.4,1.45-1.64,1.37s-.15-.28,0-.7a3.38,3.38,0,0,1,1-1.57,5.76,5.76,0,0,1,5.81-1.12,7.09,7.09,0,0,1,2.73,1.89,7.9,7.9,0,0,1,1.4,2.23C401.38,148,401.37,148.92,401.17,149Z" stroke="#000" stroke-miterlimit="10" stroke-width="0.5"/>
      <path d="M413.27,115.25a10,10,0,0,1-3.33,1.68,37.22,37.22,0,0,1-10,1.88c-4.29.35-9.36.29-14.89,1A48.23,48.23,0,0,0,367.89,125a28.8,28.8,0,0,0-12.24,12.58,19.32,19.32,0,0,0-1.14,14.1A18.15,18.15,0,0,0,359.6,160c1.74,1.57,2.95,2.15,2.88,2.28s-.34-.06-.92-.32a6.89,6.89,0,0,1-1-.56,11,11,0,0,1-1.33-.91,17.71,17.71,0,0,1-5.78-8.42,20.68,20.68,0,0,1-1.05-7.07,21.29,21.29,0,0,1,1.93-8,29.68,29.68,0,0,1,12.81-13.37,47.81,47.81,0,0,1,17.76-5.26c5.67-.66,10.79-.47,15-.67a43.51,43.51,0,0,0,9.88-1.34C412,115.69,413.21,115.13,413.27,115.25Z" stroke="#000" stroke-miterlimit="10" stroke-width="0.5"/>
      <path d="M415.14,160.7c0,.09-.48.16-1.32,0a8.68,8.68,0,0,1-3.25-1.54,16.58,16.58,0,0,1-3.61-3.87,35.36,35.36,0,0,1-3.11-5.58A34.23,34.23,0,0,1,401,138.54c-.23-3,.06-4.78.26-4.77s.37,1.8.88,4.62a46.33,46.33,0,0,0,3.2,10.66c1.79,4,3.88,7.38,6,9.21S415.2,160.44,415.14,160.7Z" stroke="#000" stroke-miterlimit="10" stroke-width="0.5"/>
      <path d="M408.05,188.62c0-.21,2.91.27,7.86-1a26.46,26.46,0,0,0,8.36-3.85,27.44,27.44,0,0,0,4.34-3.75,24.69,24.69,0,0,0,3.66-5.26c1.05-2,1.92-4.25,3-6.55a28.65,28.65,0,0,1,4.25-6.77c3.58-4.25,8.42-7.63,13.26-11.27a77.19,77.19,0,0,0,13.74-12.93,41.89,41.89,0,0,0,8.8-17.89c1.4-6.7.72-13.75-2.34-19.41a24,24,0,0,0-13.84-11.56,20.33,20.33,0,0,0-8.5-.61A33,33,0,0,0,442.73,90a74.41,74.41,0,0,0-7,3.35,54.44,54.44,0,0,0-6.06,3.78,45,45,0,0,0-8.68,8.65,60,60,0,0,1-6.32,7,18.31,18.31,0,0,1-5,3.31,7.65,7.65,0,0,1-1.46.54c-.33.1-.51.14-.52.11s.15-.12.47-.26.79-.34,1.37-.68a20.38,20.38,0,0,0,4.69-3.49,64.19,64.19,0,0,0,6-7.1c1.13-1.44,2.35-3,3.77-4.53A34.68,34.68,0,0,1,429,96.18a52.69,52.69,0,0,1,6.14-4,70.7,70.7,0,0,1,7.08-3.5,34.12,34.12,0,0,1,8.21-2.38,21.63,21.63,0,0,1,9.12.59,25.38,25.38,0,0,1,14.82,12.24c3.29,6,4,13.49,2.54,20.5a43.33,43.33,0,0,1-9.16,18.56,76.88,76.88,0,0,1-14.08,13.13c-4.9,3.63-9.67,6.91-13.13,10.95a27.52,27.52,0,0,0-4.14,6.42c-1.07,2.24-2,4.5-3.1,6.56a25.32,25.32,0,0,1-3.93,5.42,27.22,27.22,0,0,1-4.58,3.81,26.65,26.65,0,0,1-8.71,3.71,23.54,23.54,0,0,1-5.95.61A8.27,8.27,0,0,1,408.05,188.62Z" stroke="#000" stroke-miterlimit="10" stroke-width="0.5"/>
      <path d="M412.21,205.28c.2.05,0,1.57-1.4,3.51a21.13,21.13,0,0,1-2.71,3,19.44,19.44,0,0,1-4,3.08A8.54,8.54,0,0,1,399,216a5.34,5.34,0,0,1-3.79-2.18,4.12,4.12,0,0,1-.8-2.81c.1-.7.35-1,.45-1s.09.4.19,1a4.19,4.19,0,0,0,1.06,2.1,4.41,4.41,0,0,0,3.05,1.4,7.67,7.67,0,0,0,4.2-1,22.34,22.34,0,0,0,3.75-2.77,28.91,28.91,0,0,0,2.82-2.65C411.4,206.47,412,205.2,412.21,205.28Z" stroke="#000" stroke-miterlimit="10" stroke-width="0.5"/>
    </g>
  </g>
</svg>
