<svg xmlns="http://www.w3.org/2000/svg" viewBox="0 0 492.12 544.27">
  <title>solving a problem</title>
  <g id="SIMPLE_BACKGROUND">
    <g id="ground">
      <path d="M316.85,472.11c0,.45-51.46.82-114.94.82S87,472.56,87,472.11s51.46-.81,114.94-.81S316.85,471.66,316.85,472.11Z" stroke="#000" stroke-miterlimit="10" stroke-width="0.5"/>
      <path d="M381.8,494.7c0,.45-45.3.82-101.19.82s-101.18-.37-101.18-.82,45.3-.81,101.18-.81S381.8,494.25,381.8,494.7Z" stroke="#000" stroke-miterlimit="10" stroke-width="0.5"/>
      <path d="M404.45,475.64c0,.45-19.26.82-43,.82s-43-.37-43-.82,19.26-.81,43-.81S404.45,475.19,404.45,475.64Z" stroke="#000" stroke-miterlimit="10" stroke-width="0.5"/>
    </g>
    <g id="PRIMARY_pot">
      <path d="M427,411.91q.61,5.54,1.28,11.11,2.7,22.71,5.92,44.68a46.76,46.76,0,0,0,8.41,4.83,47.36,47.36,0,0,0,24.19,3.81c5.72-.66,13.17-1.51,18.38-7.42a19.33,19.33,0,0,0,3.42-5.55c.51-5.11,1-10.32,1.35-15.63.9-12.42,1.36-24.38,1.47-35.83a86.28,86.28,0,0,1-24.9,5.39c-7.18.45-4.86-.64-19-.7-5.06,0-10.3.1-16.42-2.54A30.15,30.15,0,0,1,427,411.91Z"/>
    </g>
    <g id="plant">
      <path d="M436.7,415a25,25,0,0,1-4.87-7.63,18.43,18.43,0,0,1-1.43-9.84c.22-1.47.68-4.45,2.49-5a3.07,3.07,0,0,1,2.4.54l-1.55-6.25c-1-4-1.48-6-.84-7.25s1.73-1.42,2.64-3.4a9.08,9.08,0,0,0,.74-2.89,12.76,12.76,0,0,0-1.06-6c-.92-2.58-.74-5.15-.38-10.28a30.43,30.43,0,0,1,3-12.32c1.21-2.39,2.4-4.67,4.49-4.95,2.3-.3,4.38,2,5.09,2.81a12.22,12.22,0,0,1,2.68,5.4c2,7.76,2.95,11.64,3,12.16a164.54,164.54,0,0,0,4.4,21.5,5,5,0,0,1,4.09-4c2.5-.23,5.22,2.18,5.15,5.55,0-2.06.12-5,.42-8.48a99.28,99.28,0,0,1,2.15-14.09c1.87-7.95,2.87-12,6.14-14.29.44-.31,4.65-3.21,8.5-1.58,2.41,1,3.52,3.32,4.17,4.73,1.87,4,1.28,7.54,1,11.53-.38,5.62.43,3.9.53,14.89.15,15.67-1.36,33-1.75,37.27a85,85,0,0,1-8.61,2.45A92.7,92.7,0,0,1,436.7,415Z" fill="#fff"/>
      <path d="M434,464.42c-.21,0-.94-2.79-1.86-7.42s-2-11.07-2.92-18.21-1.53-13.64-1.83-18.35-.32-7.63-.1-7.65.66,2.87,1.25,7.54,1.4,11.13,2.29,18.25,1.82,13.56,2.45,18.23S434.27,464.38,434,464.42Z" stroke="#000" stroke-miterlimit="10" stroke-width="0.5"/>
      <path d="M489.46,463.89c.05,0,0,.24-.21.62a12.71,12.71,0,0,1-.95,1.58,21.75,21.75,0,0,1-4.76,4.86,30.94,30.94,0,0,1-4,2.49,34.89,34.89,0,0,1-5,2.06,41.24,41.24,0,0,1-12.18,1.91,47,47,0,0,1-12.23-1.49,45.89,45.89,0,0,1-9.38-3.61,39.59,39.59,0,0,1-5.7-3.62c-1.24-1-1.88-1.61-1.81-1.7s2.94,1.94,8,4.29a50.92,50.92,0,0,0,9.23,3.18,49.1,49.1,0,0,0,11.85,1.32,42.76,42.76,0,0,0,11.76-1.72,36.57,36.57,0,0,0,4.85-1.83,33.78,33.78,0,0,0,3.93-2.22C487.47,466.87,489.21,463.7,489.46,463.89Z" stroke="#000" stroke-miterlimit="10" stroke-width="0.5"/>
      <path d="M488.44,412.3c0,.11-.68.51-2,1.17-.67.34-1.53.65-2.53,1s-2.16.74-3.45,1.14a59.72,59.72,0,0,1-9.28,1.83,87.75,87.75,0,0,1-11.54.57,183.7,183.7,0,0,1-20.83-1.7,19.68,19.68,0,0,1-6.23-1.55c-1.38-.69-2-1.36-1.89-1.43a20.73,20.73,0,0,1,2.13.84,23.66,23.66,0,0,0,6.11,1c5.31.38,12.64,1.1,20.73,1.22A107.39,107.39,0,0,0,471,416a73.35,73.35,0,0,0,9.15-1.46C485.28,413.34,488.33,412.05,488.44,412.3Z" stroke="#000" stroke-miterlimit="10" stroke-width="0.5"/>
      <path d="M488.58,463.34c-.23,0-.15-2.74.09-7.11s.62-10.42,1-17.09.76-12.7,1-17.08.54-7.08.77-7.07.38,2.72.38,7.11-.14,10.45-.54,17.14-1,12.73-1.5,17.09S488.8,463.36,488.58,463.34Z" stroke="#000" stroke-miterlimit="10" stroke-width="0.5"/>
      <path d="M436,393.58c-.11.06-.34-.32-1-.57a2.83,2.83,0,0,0-2.59.38,5,5,0,0,0-1.5,3.74,25.39,25.39,0,0,0,.39,5.58,27.08,27.08,0,0,0,3.79,9.47c1.41,2.24,2.58,3.45,2.4,3.64s-1.6-.79-3.34-3a22.54,22.54,0,0,1-4.45-9.84,22.11,22.11,0,0,1-.29-6c.18-1.86.93-3.74,2.38-4.59a3.35,3.35,0,0,1,3.53,0C436.06,393,436.06,393.56,436,393.58Z" stroke="#000" stroke-miterlimit="10" stroke-width="0.5"/>
      <path d="M460.88,402.84a31.58,31.58,0,0,1-1-4.89c-.56-3.16-1.35-7.73-2.42-13.37s-2.4-12.33-4.05-19.72c-.83-3.7-1.74-7.57-2.73-11.58a61.54,61.54,0,0,0-1.66-6,12.61,12.61,0,0,0-3.11-5.17,6.16,6.16,0,0,0-2.43-1.47,2.7,2.7,0,0,0-2.37.45c-1.43,1.08-2.2,3.09-2.94,5a40.62,40.62,0,0,0-2.59,11.35A41.51,41.51,0,0,0,436,368a49.28,49.28,0,0,1,.87,4.88,6.52,6.52,0,0,1-.28,2.51,4.85,4.85,0,0,1-1.37,2,9.73,9.73,0,0,0-1.4,1.41,3,3,0,0,0-.54,1.59,17.05,17.05,0,0,0,.34,3.51c.35,2.24.73,4.16,1.06,5.73a43.83,43.83,0,0,1,1,4.88,22.48,22.48,0,0,1-1.63-4.73c-.43-1.55-.9-3.47-1.34-5.72a17.78,17.78,0,0,1-.48-3.73,4.09,4.09,0,0,1,.68-2.15,11.23,11.23,0,0,1,1.5-1.62,3.74,3.74,0,0,0,1-1.59,5.26,5.26,0,0,0,.16-2,47.89,47.89,0,0,0-.94-4.72,41.84,41.84,0,0,1-.62-10.92,41.31,41.31,0,0,1,2.6-11.8,28.77,28.77,0,0,1,1.28-3,8,8,0,0,1,2.19-2.74,4.3,4.3,0,0,1,3.74-.71,7.7,7.7,0,0,1,3.13,1.84,14.2,14.2,0,0,1,3.53,5.82c.74,2.08,1.19,4.15,1.69,6.15,1,4,1.84,7.92,2.63,11.64,1.58,7.43,2.81,14.17,3.73,19.84s1.54,10.29,1.91,13.48A27.06,27.06,0,0,1,460.88,402.84Z" stroke="#000" stroke-miterlimit="10" stroke-width="0.5"/>
      <path d="M471.38,414.4c-.23,0-.63-2.65-1.24-7s-1.46-10.25-2.58-16.78c-.59-3.27-1-6.41-2.18-8.86a8.05,8.05,0,0,0-2.27-2.95,2.37,2.37,0,0,0-1.27-.64,1.59,1.59,0,0,0-1.06.55,9.94,9.94,0,0,0-2.55,4.14c-.36,1.13-.43,1.81-.56,1.8s-.24-.69-.05-1.94A9.29,9.29,0,0,1,460,378a2.75,2.75,0,0,1,1.88-1,3.51,3.51,0,0,1,2.08.82,9.09,9.09,0,0,1,2.8,3.36c1.41,2.75,1.85,6,2.44,9.25,1.13,6.58,1.8,12.58,2.12,16.94S471.59,414.39,471.38,414.4Z" stroke="#000" stroke-miterlimit="10" stroke-width="0.5"/>
      <path d="M481.81,413.84c-.23,0-.34-2-.47-5.33-.07-1.64-.15-3.59-.24-5.75-.06-1.09-.12-2.22-.18-3.4a23.12,23.12,0,0,0-.39-3.52,8.55,8.55,0,0,0-1.16-3.1,3.58,3.58,0,0,0-2.22-1.6,4,4,0,0,0-2.54.39,6,6,0,0,0-1.92,1.47,16.18,16.18,0,0,0-2,3.16c-.42.81-.7,1.26-.8,1.22s0-.56.21-1.46a11.82,11.82,0,0,1,1.71-3.65,7.12,7.12,0,0,1,2.2-1.94,5.18,5.18,0,0,1,3.43-.66,5,5,0,0,1,3.26,2.16,9.8,9.8,0,0,1,1.45,3.69,22,22,0,0,1,.38,3.76c.05,1.19.08,2.34.09,3.43,0,2.19,0,4.16-.1,5.81C482.33,411.82,482,413.85,481.81,413.84Z" stroke="#000" stroke-miterlimit="10" stroke-width="0.5"/>
      <path d="M487.84,413.81A29,29,0,0,1,488,409c.2-3.11.48-7.61.69-13.17a346.54,346.54,0,0,0-1-43.4,12.5,12.5,0,0,0-1.42-5.67,5.2,5.2,0,0,0-4.54-2.29,8.08,8.08,0,0,0-5,1.73,12.92,12.92,0,0,0-3.28,4.17,31.07,31.07,0,0,0-1.94,4.87c-.52,1.65-1,3.26-1.39,4.84a88.46,88.46,0,0,0-1.81,8.86,95.68,95.68,0,0,0-1,13.08,41.79,41.79,0,0,1-.1,4.84,20.71,20.71,0,0,1-.53-4.83,77.53,77.53,0,0,1,.53-13.24,80.61,80.61,0,0,1,1.64-9c.37-1.61.83-3.26,1.33-5a32,32,0,0,1,2-5.13,14.25,14.25,0,0,1,3.63-4.69,9.64,9.64,0,0,1,6-2.12,7.62,7.62,0,0,1,3.29.71,6.24,6.24,0,0,1,2.61,2.3,13.72,13.72,0,0,1,1.68,6.41,289.66,289.66,0,0,1,.53,43.6c-.36,5.57-.81,10.07-1.21,13.17A27.49,27.49,0,0,1,487.84,413.81Z" stroke="#000" stroke-miterlimit="10" stroke-width="0.5"/>
      <path d="M452.15,415.47c-.22,0-1.17-4-2.43-10.55s-2.81-15.66-4.22-25.76-2.42-19.27-3-25.93-.78-10.78-.56-10.8.82,4.06,1.71,10.68,2.12,15.74,3.47,25.83,2.79,19.18,3.75,25.79S452.38,415.43,452.15,415.47Z" stroke="#000" stroke-miterlimit="10" stroke-width="0.5"/>
      <path d="M451.22,404.9c-.32.28-4.84-4.62-9.1-11.61s-6.58-13.23-6.18-13.4,3.36,5.68,7.58,12.55S451.59,404.61,451.22,404.9Z" stroke="#000" stroke-miterlimit="10" stroke-width="0.5"/>
      <path d="M448.82,388.54c-.43,0-1-5.93-.5-13.27s2-13.15,2.39-13.06-.25,5.94-.76,13.18S449.29,388.53,448.82,388.54Z" stroke="#000" stroke-miterlimit="10" stroke-width="0.5"/>
      <path d="M446.09,369.3c-.39.23-3-3.51-5.73-8.34s-4.7-8.93-4.31-9.15,2.95,3.51,5.72,8.34S446.48,369.08,446.09,369.3Z" stroke="#000" stroke-miterlimit="10" stroke-width="0.5"/>
      <ellipse cx="479.53" cy="366.27" rx="21.76" ry="0.82" transform="translate(71.67 810.96) rotate(-84.85)" stroke="#000" stroke-miterlimit="10" stroke-width="0.5"/>
      <path d="M478,384.13c-.44.17-2.44-4.18-5.33-9.28s-5.56-9.07-5.19-9.36,3.67,3.32,6.61,8.56S478.45,384,478,384.13Z" stroke="#000" stroke-miterlimit="10" stroke-width="0.5"/>
      <path d="M480.17,368.74c-.43,0-.3-3.5,1.47-7.31s4.29-6.17,4.6-5.87-1.49,3-3.12,6.55S480.63,368.82,480.17,368.74Z" stroke="#000" stroke-miterlimit="10" stroke-width="0.5"/>
    </g>
    <g id="board">
      <path d="M125.53,2.29V241.51c-.46,2.21-.92,4.41-1.39,6.62l-5.42,11.1c.64,2,1.29,4.06,1.93,6.09H465.46l.93-9.68-6.33-11.76L461.68,1.19q-82.49-.7-165-.46Q211.12,1,125.53,2.29Z" fill="#fff"/>
      <path d="M125.53,241.39c-.45,0-.81-53.5-.81-119.49s.36-119.49.81-119.49.82,53.5.82,119.49S126,241.39,125.53,241.39Z" stroke="#000" stroke-miterlimit="10" stroke-width="0.5"/>
      <ellipse cx="295.49" cy="1.07" rx="163.08" ry="0.82" stroke="#000" stroke-miterlimit="10" stroke-width="0.5"/>
      <path d="M461.18,237.73c-.45,0-.81-51.59-.81-115.22s.36-115.22.81-115.22.82,51.59.82,115.22S461.63,237.73,461.18,237.73Z" stroke="#000" stroke-miterlimit="10" stroke-width="0.5"/>
      <ellipse cx="294.58" cy="243.96" rx="161.55" ry="0.82" stroke="#000" stroke-miterlimit="10" stroke-width="0.5"/>
      <path d="M119.36,256.11c-.39-.23.37-2.2,1.69-4.41s2.7-3.8,3.09-3.57-.37,2.21-1.69,4.41S119.74,256.34,119.36,256.11Z" stroke="#000" stroke-miterlimit="10" stroke-width="0.5"/>
      <path d="M463.44,259.21c0,.45-76.56.82-171,.82s-171-.37-171-.82,76.56-.81,171-.81S463.44,258.76,463.44,259.21Z" stroke="#000" stroke-miterlimit="10" stroke-width="0.5"/>
      <path d="M466.38,255.64c-.44.13-1.6-2.61-3.32-5.79s-3.35-5.67-3-6,2.63,1.83,4.43,5.19S466.8,255.53,466.38,255.64Z" stroke="#000" stroke-miterlimit="10" stroke-width="0.5"/>
      <path d="M119.44,264.09c-.44.07-1-1-1.16-2.31s0-2.49.44-2.55,1,1,1.17,2.31S119.89,264,119.44,264.09Z" stroke="#000" stroke-miterlimit="10" stroke-width="0.5"/>
      <ellipse cx="293.05" cy="265.32" rx="172.22" ry="0.82" stroke="#000" stroke-miterlimit="10" stroke-width="0.5"/>
      <path d="M465.46,263.48c-.45,0-.82-.68-.82-1.52s.37-1.53.82-1.53.81.69.81,1.53S465.91,263.48,465.46,263.48Z" stroke="#000" stroke-miterlimit="10" stroke-width="0.5"/>
      <path d="M150.68,82.61c-.45,0-.82-13.28-.82-29.66s.37-29.65.82-29.65.81,13.28.81,29.65S151.13,82.61,150.68,82.61Z" stroke="#000" stroke-miterlimit="10" stroke-width="0.5"/>
      <ellipse cx="183.16" cy="23.67" rx="30.85" ry="0.82" stroke="#000" stroke-miterlimit="10" stroke-width="0.5"/>
      <path d="M214,77c-.45,0-.82-11.23-.82-25.08s.37-25.08.82-25.08.81,11.23.81,25.08S214.49,77,214,77Z" stroke="#000" stroke-miterlimit="10" stroke-width="0.5"/>
      <ellipse cx="182.76" cy="84.63" rx="30.45" ry="0.82" stroke="#000" stroke-miterlimit="10" stroke-width="0.5"/>
      <path d="M176.83,61.08c-.45,0-.81-11.12-.81-24.83s.36-24.83.81-24.83.82,11.12.82,24.83S177.28,61.08,176.83,61.08Z" stroke="#000" stroke-miterlimit="10" stroke-width="0.5"/>
      <ellipse cx="206.45" cy="60.48" rx="27.4" ry="0.82" stroke="#000" stroke-miterlimit="10" stroke-width="0.5"/>
      <ellipse cx="207" cy="10.46" rx="27.95" ry="0.82" stroke="#000" stroke-miterlimit="10" stroke-width="0.5"/>
      <ellipse cx="234.98" cy="35.31" rx="0.82" ry="23.89" stroke="#000" stroke-miterlimit="10" stroke-width="0.5"/>
      <path d="M156.87,79.62c.27.36-.49,1.4-1.72,2.33s-2.43,1.39-2.7,1,.49-1.4,1.72-2.33S156.6,79.26,156.87,79.62Z" stroke="#000" stroke-miterlimit="10" stroke-width="0.5"/>
      <path d="M162.81,74.62c.25.37-.24,1.15-1.11,1.75s-1.78.78-2,.41.24-1.16,1.11-1.76S162.55,74.25,162.81,74.62Z" stroke="#000" stroke-miterlimit="10" stroke-width="0.5"/>
      <path d="M168.7,68.3c.32.31,0,1.13-.67,1.82s-1.51,1-1.83.67,0-1.13.68-1.82S168.39,68,168.7,68.3Z" stroke="#000" stroke-miterlimit="10" stroke-width="0.5"/>
      <ellipse cx="174.68" cy="63.8" rx="2.1" ry="0.82" transform="translate(2.45 133.94) rotate(-42.22)" stroke="#000" stroke-miterlimit="10" stroke-width="0.5"/>
      <ellipse cx="223.41" cy="71.57" rx="15.39" ry="0.82" transform="translate(25.55 197.62) rotate(-50.26)" stroke="#000" stroke-miterlimit="10" stroke-width="0.5"/>
      <path d="M178,9.92c.21.4-5.39,3.68-12.49,7.31s-13,6.26-13.24,5.86,5.39-3.68,12.49-7.31S177.75,9.52,178,9.92Z" stroke="#000" stroke-miterlimit="10" stroke-width="0.5"/>
      <ellipse cx="223.3" cy="17.71" rx="11.92" ry="0.82" transform="translate(23.73 119.43) rotate(-31.54)" stroke="#000" stroke-miterlimit="10" stroke-width="0.5"/>
      <path d="M144.57,95.19c-.43.11-1.46-2.47-2.28-5.75s-1.14-6-.7-6.15,1.46,2.46,2.28,5.75S145,95.08,144.57,95.19Z" stroke="#000" stroke-miterlimit="10" stroke-width="0.5"/>
      <path d="M148,92.53c-.46.07-1.26-3-2.76-6.53A3.38,3.38,0,0,0,144,84.22a1.5,1.5,0,0,0-1.45.15,2.29,2.29,0,0,0-.84.88c-.14.27-.19.49-.31.51s-.28-.17-.32-.62a2.29,2.29,0,0,1,.74-1.67,3,3,0,0,1,1.14-.68,2.42,2.42,0,0,1,1.65.06,4.28,4.28,0,0,1,2.11,2.52C148.31,89.13,148.41,92.48,148,92.53Z" stroke="#000" stroke-miterlimit="10" stroke-width="0.5"/>
      <path d="M146.21,87.09c.2.41-.7,1.26-1.85,2.15s-2.2,1.54-2.55,1.24.26-1.53,1.56-2.53S146,86.69,146.21,87.09Z" stroke="#000" stroke-miterlimit="10" stroke-width="0.5"/>
      <path d="M142.37,27.36c-.44.12-1.33-1.77-2.17-4.16s-1.31-4.43-.89-4.61,1.58,1.62,2.43,4.07S142.8,27.24,142.37,27.36Z" stroke="#000" stroke-miterlimit="10" stroke-width="0.5"/>
      <path d="M143.29,20.05c-.2-.13,0-.75.24-1.65A2.92,2.92,0,0,0,143.6,17a1,1,0,0,0-.84-.77,2.12,2.12,0,0,0-1.42.3,4.45,4.45,0,0,0-1,1.05c-.54.76-.88,1.33-1.11,1.25s-.27-.72.08-1.78a4.09,4.09,0,0,1,1.14-1.7,3.23,3.23,0,0,1,2.65-.72,2.51,2.51,0,0,1,1.4.77,2.48,2.48,0,0,1,.61,1.34,3.43,3.43,0,0,1-.48,2.07C144,19.8,143.46,20.16,143.29,20.05Z" stroke="#000" stroke-miterlimit="10" stroke-width="0.5"/>
      <path d="M144.48,24.77c-.14-.18.21-.65.65-1.32a2.84,2.84,0,0,0,.54-2.48c-.32-.91-.95-1-1.57-.74s-.64.73-.85.81-.27-.09-.34-.42a1.54,1.54,0,0,1,.46-1.28,2.18,2.18,0,0,1,2-.66,2.6,2.6,0,0,1,1.86,1.77,3.27,3.27,0,0,1-.13,2.38,3.82,3.82,0,0,1-1.11,1.4C145.2,24.83,144.61,24.94,144.48,24.77Z" stroke="#000" stroke-miterlimit="10" stroke-width="0.5"/>
      <path d="M204.86,32.29c.13.15-.09.81-1,1.64a3.08,3.08,0,0,1-2.21.74,2.44,2.44,0,0,1-1.48-.64,2.66,2.66,0,0,1-.74-1.52,4.79,4.79,0,0,1,1.72-4.43,2.29,2.29,0,0,1,1.44-.47c.36,0,.53.15.53.25s-.66.37-1.2,1.08a4.68,4.68,0,0,0-.88,3.32c.12.6.32.79.8.92a2.24,2.24,0,0,0,1.39-.21C204.09,32.54,204.7,32.11,204.86,32.29Z" stroke="#000" stroke-miterlimit="10" stroke-width="0.5"/>
      <path d="M218.58,92.72c-.42.15-1.48-1.83-1.87-4.53s.06-4.91.5-4.88.74,2.11,1.11,4.64S219,92.58,218.58,92.72Z" stroke="#000" stroke-miterlimit="10" stroke-width="0.5"/>
      <path d="M218.41,92.29c0-.26,1.24-.29,2.7-1.33a6.77,6.77,0,0,0,2-2.27,5.37,5.37,0,0,0,.63-3.47,3.8,3.8,0,0,0-2-2.63,2.09,2.09,0,0,0-2.37.52,8.87,8.87,0,0,0-1.29,1.71c-.29.46-.49.71-.6.67s-.11-.36,0-.91a5.89,5.89,0,0,1,1-2.24,3.57,3.57,0,0,1,1.51-1.15,3.17,3.17,0,0,1,2.27,0,5.07,5.07,0,0,1,3,3.7,6.34,6.34,0,0,1-.92,4.56A7.05,7.05,0,0,1,221.7,92a5.09,5.09,0,0,1-2.4.58C218.72,92.53,218.41,92.4,218.41,92.29Z" stroke="#000" stroke-miterlimit="10" stroke-width="0.5"/>
      <path d="M266.87,25.38c0-.12.37-.2,1-.29a8.5,8.5,0,0,0,2.52-.65,2.71,2.71,0,0,0,1.69-2.54,2.3,2.3,0,0,0-1-1.46,4,4,0,0,0-2-.72,16.1,16.1,0,0,0-2.51,0,3,3,0,0,1-1.88-.3,1,1,0,0,1-.41-.72,1.6,1.6,0,0,1,.15-.8,8.68,8.68,0,0,1,.46-.85l.32-.53c.21-.32.42-.63.65-.92a7.11,7.11,0,0,1,1.47-1.48,4.4,4.4,0,0,1,2.89-.92c.73.08,1.06.34,1,.43s-.41.08-1,.21A4.63,4.63,0,0,0,268,15a7.23,7.23,0,0,0-1.1,1.37c-.18.27-.35.56-.52.87l-.23.45-.07.16c-.05.08-.1.24,0,.27a2.1,2.1,0,0,0,.35,0,16.55,16.55,0,0,1,2.73,0,5.48,5.48,0,0,1,2.82,1.06,3.78,3.78,0,0,1,1.53,2.57,3.37,3.37,0,0,1-.9,2.56,4.42,4.42,0,0,1-1.85,1.22,6.32,6.32,0,0,1-2.95.21C267.22,25.62,266.86,25.49,266.87,25.38Z" stroke="#000" stroke-miterlimit="10" stroke-width="0.5"/>
      <ellipse cx="276.94" cy="21.24" rx="0.82" ry="2.36" transform="translate(-0.33 37.65) rotate(-7.77)" stroke="#000" stroke-miterlimit="10" stroke-width="0.5"/>
      <path d="M275.94,15.46" fill="none" stroke="#000" stroke-miterlimit="10" stroke-width="0.5"/>
      <path d="M277.81,13.58c-.08.45-.73.72-1.41,1s-1.34.52-1.71.25c-.17-.14-.2-.44,0-.8a2.21,2.21,0,0,1,1.13-1,2.11,2.11,0,0,1,1.47-.08C277.65,13.13,277.84,13.36,277.81,13.58Z" stroke="#000" stroke-miterlimit="10" stroke-width="0.5"/>
      <path d="M284,21.64c-.44.13-1.4-1.77-2.16-4.24a11.56,11.56,0,0,1-.66-3.36c0-1,.46-1.51.66-1.43s.25.58.49,1.29.7,1.77,1.07,3C284.11,19.4,284.38,21.51,284,21.64Z" stroke="#000" stroke-miterlimit="10" stroke-width="0.5"/>
      <path d="M291.83,19.78c.07.06,0,.4-.5.62a2.15,2.15,0,0,1-2.09-.4A4,4,0,0,1,288,17.23a6,6,0,0,0-.67-2.71,1.1,1.1,0,0,0-.8-.51,2.12,2.12,0,0,0-1.1.2,4.75,4.75,0,0,0-1.76,1.41c-.82,1.08-1,2-1.21,2s-.51-1.05.23-2.6a5.09,5.09,0,0,1,2.07-2.15,3.42,3.42,0,0,1,1.92-.45,2.66,2.66,0,0,1,2,1.16,6.26,6.26,0,0,1,.84,3.51,3.31,3.31,0,0,0,.55,2.05,1.77,1.77,0,0,0,1.18.64C291.53,19.82,291.75,19.69,291.83,19.78Z" stroke="#000" stroke-miterlimit="10" stroke-width="0.5"/>
      <path d="M296.51,20.94c.13.41-7.05,3.1-16.23,5.33s-16.8,3.14-16.87,2.71,7.37-2.07,16.48-4.3S296.36,20.49,296.51,20.94Z" stroke="#000" stroke-miterlimit="10" stroke-width="0.5"/>
      <path d="M271.78,35.56c.1,0,.17.32.06.85a4.08,4.08,0,0,1-1.14,2,4.75,4.75,0,0,1-3.23,1.41,5.2,5.2,0,0,1-4-1.71,2.67,2.67,0,0,1-.7-1.25,2.08,2.08,0,0,1,.36-1.48,8.74,8.74,0,0,1,1.3-1.55,8.5,8.5,0,0,1,2.85-1.76c1.82-.62,3-.38,3-.19s-1.07.44-2.54,1.25a9.59,9.59,0,0,0-2.26,1.76,8.41,8.41,0,0,0-1,1.33c-.14.25-.13.26-.12.35a1.53,1.53,0,0,0,.32.45,3.9,3.9,0,0,0,5.25.52C271.23,36.6,271.54,35.49,271.78,35.56Z" stroke="#000" stroke-miterlimit="10" stroke-width="0.5"/>
      <path d="M277.15,35c0-.11.33-.16.84-.17a8,8,0,0,0,2-.23c.71-.19,1.53-.89,1.49-1.61a2.15,2.15,0,0,0-.54-1.25,3.41,3.41,0,0,0-1.29-1,2.65,2.65,0,0,0-2.86.43,2.31,2.31,0,0,0-.8,2.25,3,3,0,0,0,.92,1.58c.35.3.62.43.59.55s-.34.19-.9,0a3,3,0,0,1-1.71-1.79,3.17,3.17,0,0,1-.15-1.83,3.68,3.68,0,0,1,1-1.84,4,4,0,0,1,2-1.12,4.23,4.23,0,0,1,2.48.27,4.68,4.68,0,0,1,1.93,1.51A3.53,3.53,0,0,1,283,33a2.77,2.77,0,0,1-1.09,2,3.56,3.56,0,0,1-1.67.71,5,5,0,0,1-2.34-.28C277.39,35.26,277.14,35.1,277.15,35Z" stroke="#000" stroke-miterlimit="10" stroke-width="0.5"/>
      <path d="M286,36.35c-.06-.22,1.16-.79,3.2-1.54l1.66-.6a5,5,0,0,0,1.56-.81,1.43,1.43,0,0,0,.44-.53.51.51,0,0,0-.05-.43c-.09-.25-.73-.5-1.45-.53s-1.6,0-2.35,0l-.58,0a3.71,3.71,0,0,1-.67-.06,3.42,3.42,0,0,1-.71-.19,2.12,2.12,0,0,1-.76-.51,1.61,1.61,0,0,1-.3-1.62,3.27,3.27,0,0,1,.28-.61c.09-.16.2-.31.3-.46A5.58,5.58,0,0,1,288,27a5,5,0,0,1,2.62-.85c.66,0,1,.14,1,.24,0,.26-1.41.25-2.92,1.54a4.81,4.81,0,0,0-1,1.18,2.58,2.58,0,0,0-.19.37,1.36,1.36,0,0,0-.13.31.29.29,0,0,0,.09.29.61.61,0,0,0,.14.07,2.23,2.23,0,0,0,.37.07,3.44,3.44,0,0,0,.46,0H289c.8,0,1.52,0,2.46,0a5,5,0,0,1,1.42.3,2.37,2.37,0,0,1,1.32,1.1,2.1,2.1,0,0,1,.08,1.78,2.88,2.88,0,0,1-1,1.13,6,6,0,0,1-2.09.92l-1.73.4C287.36,36.38,286,36.57,286,36.35Z" stroke="#000" stroke-miterlimit="10" stroke-width="0.5"/>
      <path d="M259.63,85.19c-.05.08-.74-.25-1.6-1.27a11.42,11.42,0,0,1-2.26-5.09,48.3,48.3,0,0,1-.56-8.09,21.39,21.39,0,0,0-.59-4.52,4,4,0,0,0-.35-1,.61.61,0,0,0-.42-.36,1.4,1.4,0,0,0-.75.16,4.68,4.68,0,0,0-.9.6,9,9,0,0,0-2.55,3.84,20.83,20.83,0,0,0-1.06,4.43,65.39,65.39,0,0,0-.57,7.91c0,4.53.31,7.35.06,7.38s-1-2.73-1.21-7.35a51.12,51.12,0,0,1,.23-8.12,21.28,21.28,0,0,1,1.05-4.8,10.3,10.3,0,0,1,3-4.54,3.77,3.77,0,0,1,3-1.1,2.22,2.22,0,0,1,1.5,1.15,5.43,5.43,0,0,1,.49,1.37,21.2,21.2,0,0,1,.56,4.88,59.42,59.42,0,0,0,.19,7.93,12.78,12.78,0,0,0,1.63,4.92C259.19,84.61,259.72,85.09,259.63,85.19Z" stroke="#000" stroke-miterlimit="10" stroke-width="0.5"/>
      <path d="M260.3,77.64c0,.47-3.47.84-7.64,1.68s-7.54,1.8-7.71,1.37,3-2.11,7.39-3S260.3,77.21,260.3,77.64Z" stroke="#000" stroke-miterlimit="10" stroke-width="0.5"/>
      <ellipse cx="270" cy="76.26" rx="4.37" ry="0.82" transform="translate(-3.08 11.88) rotate(-2.51)" stroke="#000" stroke-miterlimit="10" stroke-width="0.5"/>
      <ellipse cx="269.21" cy="80" rx="4.29" ry="0.82" transform="translate(-9.99 49.63) rotate(-10.34)" stroke="#000" stroke-miterlimit="10" stroke-width="0.5"/>
      <path d="M290.37,76.16c.1,0,0,.57-.44,1.43a7.12,7.12,0,0,1-2.78,3.08,5.25,5.25,0,0,1-3,.69A4.47,4.47,0,0,1,281,79.62a5.75,5.75,0,0,1-1.2-3.72A8,8,0,0,1,281.07,72a9.44,9.44,0,0,1,2.73-3,4.86,4.86,0,0,1,3.89-.8,4.94,4.94,0,0,1,2.85,2.15,6,6,0,0,1,.95,2.83,6.5,6.5,0,0,1-1,4c-.54.83-1,1.13-1.08,1.06s.2-.51.52-1.35a6.86,6.86,0,0,0,.38-3.6,5.09,5.09,0,0,0-.92-2.22,3.63,3.63,0,0,0-2.09-1.45,3.41,3.41,0,0,0-2.65.67,8.1,8.1,0,0,0-2.23,2.47,6.65,6.65,0,0,0-1,3.1,4.33,4.33,0,0,0,.79,2.75,3.18,3.18,0,0,0,2.1,1.31,4.24,4.24,0,0,0,2.3-.38,7.76,7.76,0,0,0,2.77-2.39C290,76.53,290.27,76.11,290.37,76.16Z" stroke="#000" stroke-miterlimit="10" stroke-width="0.5"/>
      <path d="M295.66,81.36c0,.1-.23.23-.69.26a3.8,3.8,0,0,1-1.9-.4,6.92,6.92,0,0,1-3.62-5.08,11.93,11.93,0,0,1,.77-6c.54-1.43,1-2.23,1.24-2.16s.11,1-.13,2.46a17,17,0,0,0-.27,5.47,7,7,0,0,0,2.59,4.36C294.73,81,295.66,81.1,295.66,81.36Z" stroke="#000" stroke-miterlimit="10" stroke-width="0.5"/>
      <path d="M300,90.77c0,.23-3.07.44-8,.63s-11.84.37-19.43.53-14.45.27-19.42.29-8.06-.07-8.07-.29,3.06-.55,8-.86,11.84-.61,19.43-.77,14.47-.16,19.45,0S300,90.55,300,90.77Z" stroke="#000" stroke-miterlimit="10" stroke-width="0.5"/>
      <path d="M265.61,97.47c0,.45-4.68.83-10.46.85s-10.46-.33-10.47-.78,4.69-.83,10.46-.85S265.61,97,265.61,97.47Z" stroke="#000" stroke-miterlimit="10" stroke-width="0.5"/>
      <path d="M255.61,112.37c-.45,0-.9-3.12-1-7s.17-7,.62-7.05.9,3.12,1,7S256.06,112.36,255.61,112.37Z" stroke="#000" stroke-miterlimit="10" stroke-width="0.5"/>
      <path d="M274.35,102.91c.1.43-1.52,1.15-3.64,1.36s-3.84-.17-3.83-.62,1.65-.8,3.67-1S274.26,102.46,274.35,102.91Z" stroke="#000" stroke-miterlimit="10" stroke-width="0.5"/>
      <path d="M292.19,99.19c0,.46-2.13.94-4.76,1.35s-4.83.6-4.95.16,2-1.35,4.7-1.77S292.16,98.75,292.19,99.19Z" stroke="#000" stroke-miterlimit="10" stroke-width="0.5"/>
      <path d="M294.39,105.14c.1,0,.19.31,0,.83a2.91,2.91,0,0,1-1.57,1.59,3.7,3.7,0,0,1-3.37-.2,5.67,5.67,0,0,1-2.51-3.14,10.76,10.76,0,0,1-.51-3.75,21.86,21.86,0,0,1,.25-3c.28-1.68.68-2.66.89-2.62s.24,1.07.26,2.7c0,.82,0,1.78.1,2.84a12.21,12.21,0,0,0,.54,3.25,4.74,4.74,0,0,0,1.75,2.39,2.72,2.72,0,0,0,2.21.41C293.83,106.13,294.17,105.07,294.39,105.14Z" stroke="#000" stroke-miterlimit="10" stroke-width="0.5"/>
      <path d="M151,129.24c-.45,0-1.15-5-1.92-11.16s-1.33-11.21-.88-11.29,1.72,4.86,2.49,11.09S151.47,129.21,151,129.24Z" stroke="#000" stroke-miterlimit="10" stroke-width="0.5"/>
      <path d="M149.9,128.94c.07.08-.11.38-.53.85a8.24,8.24,0,0,1-2.12,1.68,4.82,4.82,0,0,1-4.28.27,3.87,3.87,0,0,1-1.89-2,5.86,5.86,0,0,1-.36-2.77,8.45,8.45,0,0,1,.67-2.57,9.08,9.08,0,0,1,1.22-2.13,5.53,5.53,0,0,1,3.59-2.21,4,4,0,0,1,2.78.58c.55.4.69.76.62.83s-.38-.1-.91-.27a4.18,4.18,0,0,0-2.27,0,4.7,4.7,0,0,0-2.6,2,8.8,8.8,0,0,0-1.48,4,3.18,3.18,0,0,0,1.3,3.29,3.92,3.92,0,0,0,3.13,0,14.1,14.1,0,0,0,2.2-1.13C149.5,129,149.83,128.85,149.9,128.94Z" stroke="#000" stroke-miterlimit="10" stroke-width="0.5"/>
      <path d="M160.55,110.07c0,.22-.93.66-2.56,1.18-.82.26-1.78.54-2.89.83a3.14,3.14,0,0,1-2.26-.1,2.08,2.08,0,0,1-1-1.14,1.66,1.66,0,0,1-.06-.83,2.08,2.08,0,0,1,.11-.41,2.87,2.87,0,0,1,.14-.3l.34-.63c.1-.2.19-.39.27-.59a6.64,6.64,0,0,0,.36-1.18c.21-.81.16-1.52,0-1.64a.45.45,0,0,0-.33-.12,1.27,1.27,0,0,0-.49.15,2,2,0,0,0-.64.78c-.29.59-.45,1-.6,1s-.24-.43-.14-1.22a2.43,2.43,0,0,1,.7-1.39,2.28,2.28,0,0,1,.95-.51,1.76,1.76,0,0,1,1.35.24,1.83,1.83,0,0,1,.6.72,2.45,2.45,0,0,1,.22.81,5.22,5.22,0,0,1-.07,1.49,8,8,0,0,1-.39,1.47,6.66,6.66,0,0,1-.31.73c-.11.24-.27.5-.36.66a1.63,1.63,0,0,0-.08.19.45.45,0,0,0,0,.11c0,.07.06.13.21.22a1.93,1.93,0,0,0,1.19.05c1.08-.21,2.1-.38,2.94-.5C159.43,109.89,160.5,109.85,160.55,110.07Z" stroke="#000" stroke-miterlimit="10" stroke-width="0.5"/>
      <path d="M172.15,120.41c0,.44-1.47.69-3.2.54s-3.09-.63-3.06-1.08,1.47-.69,3.2-.54S172.19,120,172.15,120.41Z" stroke="#000" stroke-miterlimit="10" stroke-width="0.5"/>
      <path d="M182.4,124.42c.06-.12.76.27,2.09.36a7.16,7.16,0,0,0,5.07-1.86,10,10,0,0,0,2.8-7.47,12.14,12.14,0,0,0-1-4.73,7.68,7.68,0,0,0-3.28-3.69,5.67,5.67,0,0,0-4.72-.35,7.28,7.28,0,0,0-3.61,2.84,10.2,10.2,0,0,0-1.07,7.91,18.24,18.24,0,0,0,2.32,5.24c.73,1.17,1.18,1.8,1.09,1.88s-.69-.42-1.61-1.51a15.7,15.7,0,0,1-2.91-5.31,11.9,11.9,0,0,1-.53-4.24,10.07,10.07,0,0,1,1.45-4.78,8.57,8.57,0,0,1,4.33-3.53,7.22,7.22,0,0,1,6,.42,9.06,9.06,0,0,1,4,4.49,13.28,13.28,0,0,1,1,5.37,10.92,10.92,0,0,1-3.55,8.34,7.42,7.42,0,0,1-5.9,1.61C183,125.1,182.35,124.49,182.4,124.42Z" stroke="#000" stroke-miterlimit="10" stroke-width="0.5"/>
      <path d="M193.37,103.56c0,.1-.1.27-.42.39a2.38,2.38,0,0,1-1.47,0,3.35,3.35,0,0,1-1.83-1.31,3.19,3.19,0,0,1-.53-1.32,5.52,5.52,0,0,1,0-1.35,8.15,8.15,0,0,0,.06-1.12c0-.07,0-.14,0-.18a.19.19,0,0,0,0-.07.36.36,0,0,0-.1-.14.41.41,0,0,0-.49,0,2.58,2.58,0,0,0-.55.6c-.27.43-.37.76-.54.78s-.39-.35-.3-1.05a2.48,2.48,0,0,1,.53-1.2,1.69,1.69,0,0,1,2-.5,1.87,1.87,0,0,1,.76.62,1.78,1.78,0,0,1,.23.48,2.47,2.47,0,0,1,.11.43,6.64,6.64,0,0,1,0,1.48,2.64,2.64,0,0,0,.17,1.73,2.76,2.76,0,0,0,1,1C192.65,103.37,193.31,103.33,193.37,103.56Z" stroke="#000" stroke-miterlimit="10" stroke-width="0.5"/>
      <path d="M208.09,110.83c-.15.18-.68,0-1.5,0a18.68,18.68,0,0,0-3.42.88c-2.84.81-5.24,1.12-5.36.69s2.08-1.45,4.91-2.26a8.36,8.36,0,0,1,4-.46C207.84,110,208.24,110.69,208.09,110.83Z" stroke="#000" stroke-miterlimit="10" stroke-width="0.5"/>
      <path d="M209.05,114.11c.06.46-2.27,1.09-5.07,2s-5.08,1.64-5.29,1.23,1.85-1.88,4.81-2.79S209,113.68,209.05,114.11Z" stroke="#000" stroke-miterlimit="10" stroke-width="0.5"/>
      <path d="M225.08,122.44c-.43.15-2.2-4-4.47-9.09s-4.18-9.16-3.78-9.39,3,3.57,5.27,8.73S225.5,122.31,225.08,122.44Z" stroke="#000" stroke-miterlimit="10" stroke-width="0.5"/>
      <path d="M221.82,110.29c0-.1.17-.33.58-.67a13.26,13.26,0,0,0,1.62-1.41,3.35,3.35,0,0,0,1-2.47c-.06-.9-.92-1.63-2.18-2.15a14.2,14.2,0,0,0-1.84-.65,1.79,1.79,0,0,0-1.35.19,2.93,2.93,0,0,0-1,1,4,4,0,0,0-.51,1.23,12,12,0,0,0-.24,2.11c0,.53-.08.84-.19.86s-.27-.25-.44-.78a6.47,6.47,0,0,1-.27-2.37,4.34,4.34,0,0,1,1.88-3.31,3.31,3.31,0,0,1,2.44-.47,12.84,12.84,0,0,1,2.17.72,6.26,6.26,0,0,1,2,1.3,3.37,3.37,0,0,1,1,2.26,4.32,4.32,0,0,1-1.71,3.41,7,7,0,0,1-2.09,1.12C222.19,110.35,221.88,110.39,221.82,110.29Z" stroke="#000" stroke-miterlimit="10" stroke-width="0.5"/>
      <path d="M143.56,219.89c-.45,0-1.16-8.56-1.59-19.16s-.42-19.22,0-19.24,1.16,8.57,1.59,19.17S144,219.88,143.56,219.89Z" stroke="#000" stroke-miterlimit="10" stroke-width="0.5"/>
      <path d="M145.54,197.64c-.12-.25,1.45-.84,2.85-2.86a12.32,12.32,0,0,0,1.76-3.89,16,16,0,0,0,.45-2.51,12.1,12.1,0,0,0,0-2.69,3.83,3.83,0,0,0-.84-2.18,2.86,2.86,0,0,0-1.85-.9,4.42,4.42,0,0,0-2,.28,5.63,5.63,0,0,0-1.6,1,13,13,0,0,0-1.89,2.23c-.41.59-.66.91-.76.87s0-.46.2-1.16a8.53,8.53,0,0,1,1.64-2.76,5.66,5.66,0,0,1,4.56-1.95,4.3,4.3,0,0,1,2.91,1.31,5.31,5.31,0,0,1,1.28,3.07,13.75,13.75,0,0,1-3,10,7.06,7.06,0,0,1-2.58,1.92C146,197.72,145.57,197.73,145.54,197.64Z" stroke="#000" stroke-miterlimit="10" stroke-width="0.5"/>
      <path d="M161.19,220.22c0,.09-.65,0-1.6-.52a9,9,0,0,1-3.11-3.35,18.2,18.2,0,0,1-1.3-2.87c-.19-.53-.34-1.09-.51-1.66s-.32-1.16-.44-1.78a32.46,32.46,0,0,1-.71-8.13,32.94,32.94,0,0,1,3.81-14.22c1.83-3.33,3.51-5,3.65-4.88s-1.12,2.05-2.62,5.39A38,38,0,0,0,155.15,202a35.69,35.69,0,0,0,.55,7.77,24.48,24.48,0,0,0,1.8,6.07,10,10,0,0,0,2.46,3.37C160.72,219.83,161.24,220.1,161.19,220.22Z" stroke="#000" stroke-miterlimit="10" stroke-width="0.5"/>
      <path d="M176,219.14c-.06.06-.89-.61-1.71-2.3a19,19,0,0,1-1.49-7.66c-.06-1.64,0-3.41-.17-5.27a21.48,21.48,0,0,0-.38-2.84c-.1-.47-.23-.95-.38-1.42-.07-.24-.17-.46-.25-.7a2.94,2.94,0,0,0-.29-.59,1.76,1.76,0,0,0-.79-.76c-.22-.06-.33,0-.6.27a14.85,14.85,0,0,0-.83,1.33c-.26.48-.52,1-.75,1.49a23.51,23.51,0,0,0-1.79,6.72,48.07,48.07,0,0,0,.13,11.08l-1.54.1c-.07-7.13-.07-13.28,0-17.63s.18-6.94.36-6.94.39,2.56.6,6.92.41,10.49.59,17.63l-1.55.1a47.29,47.29,0,0,1-.21-11.46,24.53,24.53,0,0,1,2-7.18c.25-.56.54-1.09.82-1.61a15,15,0,0,1,1-1.54,2.3,2.3,0,0,1,1-.73,1.87,1.87,0,0,1,1.34,0,3.15,3.15,0,0,1,1.55,1.42,5.33,5.33,0,0,1,.4.84c.09.27.19.53.26.8a12.8,12.8,0,0,1,.38,1.57,20.59,20.59,0,0,1,.33,3c.07,1.95,0,3.73,0,5.34a21,21,0,0,0,.93,7.42C175.5,218.26,176.14,219.06,176,219.14Z" stroke="#000" stroke-miterlimit="10" stroke-width="0.5"/>
      <path d="M174.64,207.78c0,.47-2.56.71-5.61,1.25s-5.52,1.17-5.69.74,2.16-1.78,5.41-2.34S174.67,207.35,174.64,207.78Z" stroke="#000" stroke-miterlimit="10" stroke-width="0.5"/>
      <path d="M182.88,219c-.23-.11.55-1.87,1.23-4.82a28.22,28.22,0,0,0-4.06-22.45c-1.67-2.52-3-3.89-2.84-4.08s1.78.94,3.77,3.4a25.16,25.16,0,0,1,4.24,23.44C184.22,217.52,183.05,219.11,182.88,219Z" stroke="#000" stroke-miterlimit="10" stroke-width="0.5"/>
      <path d="M200.91,202c0,.45-2.5.54-5.49.44s-5.42-.35-5.44-.8,2.44-.93,5.5-.83S201,201.56,200.91,202Z" stroke="#000" stroke-miterlimit="10" stroke-width="0.5"/>
      <path d="M202.77,205.54c.1.44-2.61,1.43-6.06,2.2s-6.33,1-6.43.62,2.62-1.43,6.07-2.21S202.68,205.1,202.77,205.54Z" stroke="#000" stroke-miterlimit="10" stroke-width="0.5"/>
      <path d="M223.4,200.32c0,.21-2.15.31-5.57,0-1.71-.16-3.74-.43-6-.85-1.13-.21-2.25-.43-3.53-.76a4.92,4.92,0,0,1-2-1.06,2.36,2.36,0,0,1-.71-1.26,2.11,2.11,0,0,1,.33-1.5,6.18,6.18,0,0,1,.72-.85l.69-.71c.47-.45.94-.89,1.42-1.29a26.89,26.89,0,0,1,8.39-4.88c3.3-1.15,5.48-1.21,5.5-1s-2,.71-5.07,2.09a32.56,32.56,0,0,0-5.07,2.89,29.77,29.77,0,0,0-2.7,2.12c-.45.4-.89.81-1.33,1.25-.22.21-.42.44-.64.66a5,5,0,0,0-.54.62c-.15.3-.15.39.14.71a3.31,3.31,0,0,0,1.3.7c1.09.3,2.29.58,3.36.82,2.18.5,4.16.87,5.83,1.18C221.32,199.77,223.41,200.08,223.4,200.32Z" stroke="#000" stroke-miterlimit="10" stroke-width="0.5"/>
      <path d="M232.17,210.36c0,.21-2.38.65-6.31,1a115.19,115.19,0,0,1-15.41.15,6.38,6.38,0,0,1-2.44-.67,3.7,3.7,0,0,1-1.77-2,3,3,0,0,1,.46-2.67,5.82,5.82,0,0,1,1.72-1.5,35.08,35.08,0,0,1,6.47-2.76c3.8-1.18,6.27-1.32,6.31-1.12s-2.33.78-5.93,2.21a44,44,0,0,0-6.05,2.94A4.53,4.53,0,0,0,208,207a1.41,1.41,0,0,0-.22,1.27,2.15,2.15,0,0,0,1,1.11,4.81,4.81,0,0,0,1.81.46C222.42,210.53,232.15,209.88,232.17,210.36Z" stroke="#000" stroke-miterlimit="10" stroke-width="0.5"/>
      <ellipse cx="347.56" cy="56.05" rx="0.82" ry="35.04" stroke="#000" stroke-miterlimit="10" stroke-width="0.5"/>
      <ellipse cx="387.55" cy="83.77" rx="55.62" ry="0.82" stroke="#000" stroke-miterlimit="10" stroke-width="0.5"/>
      <path d="M429.45,28.67a3.89,3.89,0,0,1,.65,1.23,13.1,13.1,0,0,1,.81,3.91,15.81,15.81,0,0,1-1,6.25A16.51,16.51,0,0,1,425,46.9a17.26,17.26,0,0,1-9.55,3.62A20.77,20.77,0,0,1,404,48c-3.71-2-6.51-5.5-10.37-7a7.86,7.86,0,0,0-5.91-.09,5,5,0,0,0-2.17,1.94,10.11,10.11,0,0,0-1.15,3c-.54,2.17-.79,4.61-1.94,6.79a13.21,13.21,0,0,1-2,3,13.77,13.77,0,0,1-2.64,2.31,14.71,14.71,0,0,1-6.31,2.46,13.51,13.51,0,0,1-6.47-.74,23.44,23.44,0,0,1-9.35-7c-1.19-1.4-2.19-2.8-3.33-3.91a6.92,6.92,0,0,0-3.83-2.06,7.28,7.28,0,0,0-3.94.63,10,10,0,0,0-3,2.12,15.28,15.28,0,0,0-3.07,5.18c-1.12,3.18-1.48,5.06-1.62,5A3.91,3.91,0,0,1,337,58.2a30.39,30.39,0,0,1,.89-3.86,15.08,15.08,0,0,1,3-5.59,10.66,10.66,0,0,1,3.23-2.44,8.38,8.38,0,0,1,4.53-.83,7.16,7.16,0,0,1,2.43.76,9.55,9.55,0,0,1,2.11,1.53c1.28,1.19,2.33,2.62,3.49,3.93a22.29,22.29,0,0,0,8.84,6.52,12.11,12.11,0,0,0,5.74.61,13.08,13.08,0,0,0,5.62-2.24,12.11,12.11,0,0,0,2.35-2.06A11.69,11.69,0,0,0,381,51.92c1-1.86,1.24-4.11,1.8-6.45A11.93,11.93,0,0,1,384.13,42,6.71,6.71,0,0,1,387,39.45a9.45,9.45,0,0,1,7.15.07,21.58,21.58,0,0,1,5.66,3.58,36.43,36.43,0,0,0,4.89,3.6,19.54,19.54,0,0,0,10.62,2.48A16.22,16.22,0,0,0,424.24,46a15.89,15.89,0,0,0,6-12.18A21.07,21.07,0,0,0,429.45,28.67Z" stroke="#000" stroke-miterlimit="10" stroke-width="0.5"/>
      <path d="M434.21,33.08c-.2.11-1-.91-2.07-2.65-.55-.86-1.17-1.91-1.84-3.08-.34-.59-.68-1.21-1.05-1.85l-.53-1-.26-.47a1.4,1.4,0,0,0-.12-.18l0-.06a.21.21,0,0,0-.25,0,.87.87,0,0,0-.24.17c-.11.08-.25.22-.38.33-.51.48-1,1-1.41,1.46A21,21,0,0,0,424,28.5c-1,1.69-1.55,2.86-1.78,2.78s-.09-1.37.76-3.31a15.36,15.36,0,0,1,1.91-3.2,16.92,16.92,0,0,1,1.47-1.65,3.83,3.83,0,0,1,1.13-.87,1.68,1.68,0,0,1,1.87.29,2.33,2.33,0,0,1,.34.37l.2.31.29.53.51,1,1,1.89c.6,1.21,1.12,2.31,1.54,3.25C434,31.76,434.41,33,434.21,33.08Z" stroke="#000" stroke-miterlimit="10" stroke-width="0.5"/>
      <path d="M350.1,36.52c-.24.4-2.3-.5-4.93-.4s-4.64,1-4.91.64c-.11-.18.26-.7,1.12-1.23a8,8,0,0,1,7.55-.18C349.81,35.84,350.21,36.34,350.1,36.52Z" stroke="#000" stroke-miterlimit="10" stroke-width="0.5"/>
      <path d="M364.63,45.08c-.41.24-1.91-1.62-4.12-3.48s-4.26-3.06-4.09-3.5,2.72.19,5.15,2.26S365,44.88,364.63,45.08Z" stroke="#000" stroke-miterlimit="10" stroke-width="0.5"/>
      <path d="M374.54,55.32c-.3.32-1.8-.6-3.07-2.3s-1.73-3.39-1.34-3.59,1.46,1,2.65,2.62S374.86,55,374.54,55.32Z" stroke="#000" stroke-miterlimit="10" stroke-width="0.5"/>
      <path d="M387.77,65.73c0,.22-.6.36-1.52.26a8.4,8.4,0,0,1-5.86-3.81c-.47-.8-.57-1.39-.38-1.5.4-.24,1.71,1.36,3.78,2.68S387.82,65.27,387.77,65.73Z" stroke="#000" stroke-miterlimit="10" stroke-width="0.5"/>
      <path d="M405.33,63.05c.33.27-.92,2.22-3.41,3.44s-4.79,1-4.8.59,1.92-1,4.08-2.06S405,62.73,405.33,63.05Z" stroke="#000" stroke-miterlimit="10" stroke-width="0.5"/>
      <path d="M411.81,48.47c.19-.1.67.36,1.11,1.29a8.66,8.66,0,0,1,.75,4,8.57,8.57,0,0,1-1.05,3.87c-.51.9-1,1.32-1.21,1.21-.4-.25.56-2.38.64-5.15S411.39,48.68,411.81,48.47Z" stroke="#000" stroke-miterlimit="10" stroke-width="0.5"/>
      <path d="M411.37,27.89c.31.35-.76,1.74-1.53,3.65s-1,3.63-1.5,3.66c-.22,0-.46-.45-.53-1.25a6.94,6.94,0,0,1,2.3-5.55C410.73,27.89,411.23,27.73,411.37,27.89Z" stroke="#000" stroke-miterlimit="10" stroke-width="0.5"/>
      <path d="M419.18,19c0,.46-1.05.88-2.28,1.41s-2.28,1-2.59.63.44-1.5,2-2.14S419.17,18.52,419.18,19Z" stroke="#000" stroke-miterlimit="10" stroke-width="0.5"/>
      <path d="M402.62,126.42c-.45.07-1.45-4.09-2.68-9.2s-2.24-9.27-1.81-9.41,2.15,3.84,3.39,9S403.06,126.36,402.62,126.42Z" stroke="#000" stroke-miterlimit="10" stroke-width="0.5"/>
      <path d="M407.4,107.18c0,.45-2.14.95-4.85,1.11s-4.92-.06-4.94-.51,2.14-1,4.84-1.12S407.37,106.73,407.4,107.18Z" stroke="#000" stroke-miterlimit="10" stroke-width="0.5"/>
      <path d="M411.86,115.8c.13.42-2.28,1.54-5.46,2.13s-5.83.46-5.86,0,2.47-1,5.56-1.62S411.73,115.36,411.86,115.8Z" stroke="#000" stroke-miterlimit="10" stroke-width="0.5"/>
      <path d="M415.11,120.86c.28.32-2.13,2.63-5.94,4s-7.13,1-7.12.63,3.05-.91,6.58-2.17S414.84,120.48,415.11,120.86Z" stroke="#000" stroke-miterlimit="10" stroke-width="0.5"/>
      <path d="M423.59,109.25c.07.44-1.41,1-3.3,1.32s-3.48.16-3.55-.28,1.41-1,3.31-1.33S423.53,108.8,423.59,109.25Z" stroke="#000" stroke-miterlimit="10" stroke-width="0.5"/>
      <path d="M428,112.73c.1.44-2,1.33-4.71,2s-5,.85-5.1.42,2-1.34,4.71-2S427.91,112.29,428,112.73Z" stroke="#000" stroke-miterlimit="10" stroke-width="0.5"/>
      <path d="M432.37,110.79c-.38.23-1.58-1-2.66-2.75s-1.66-3.38-1.28-3.61,1.58,1,2.66,2.75S432.75,110.55,432.37,110.79Z" stroke="#000" stroke-miterlimit="10" stroke-width="0.5"/>
      <path d="M436.35,107.81c-.24,0-.47-.42-1-.89a4.2,4.2,0,0,0-2.33-1.08,3.39,3.39,0,0,0-.71,0c-.19,0-.49.1-.52.1l-.13,0-.07.1-.24.58c-.35.76-.67,1.21-.89,1.16s-.29-.6-.23-1.44a6.63,6.63,0,0,1,.08-.73c0-.2.07-.41.12-.62a2.53,2.53,0,0,1,.54-.36,3.57,3.57,0,0,1,1.1-.41,3.88,3.88,0,0,1,1.13,0,4,4,0,0,1,3.09,2C436.75,107.16,436.55,107.79,436.35,107.81Z" stroke="#000" stroke-miterlimit="10" stroke-width="0.5"/>
      <path d="M441.77,107.32c-.24-.06-.24-.69-.63-1.47a3,3,0,0,0-5.19-.75c-.6.64-.77,1.25-1,1.23s-.47-.75.05-1.86a4,4,0,0,1,4-2.15,4,4,0,0,1,3.24,3.19C442.44,106.73,442,107.39,441.77,107.32Z" stroke="#000" stroke-miterlimit="10" stroke-width="0.5"/>
      <path d="M448.91,102.33c.1,0,.13.26,0,.61a2.52,2.52,0,0,1-1.05,1.17,3.78,3.78,0,0,1-2.31.52,3.44,3.44,0,0,1-2.63-1.52,3.48,3.48,0,0,1-.27-3,3.78,3.78,0,0,1,1.45-1.87,2.46,2.46,0,0,1,1.51-.45c.37,0,.55.15.55.25s-.7.37-1.33,1.09a2.36,2.36,0,0,0,2.53,4C448.28,102.81,448.68,102.22,448.91,102.33Z" stroke="#000" stroke-miterlimit="10" stroke-width="0.5"/>
      <path d="M454.75,89.7c.19,0,.43.77.16,2.12a3.18,3.18,0,0,1-1.54,2.08,2.5,2.5,0,0,1-1.76.26,2.73,2.73,0,0,1-1.52-1.08,6,6,0,0,1-.71-1.37,9.16,9.16,0,0,0-.45-1c-.31-.59-.68-.86-.93-.84a1,1,0,0,0-.77.48c-.12.24,0,.4-.15.44s-.41-.06-.48-.53a1.57,1.57,0,0,1,1.1-1.5,1.77,1.77,0,0,1,1.45.15,3.11,3.11,0,0,1,1.06,1,6.8,6.8,0,0,1,.64,1.22,6.18,6.18,0,0,0,.55,1,1,1,0,0,0,1.3.43,2.22,2.22,0,0,0,1.12-1.12C454.29,90.46,454.5,89.65,454.75,89.7Z" stroke="#000" stroke-miterlimit="10" stroke-width="0.5"/>
      <path d="M403.35,160.78c-.45,0-.7-4-.55-8.85s.64-8.81,1.09-8.79.69,4,.54,8.84S403.8,160.79,403.35,160.78Z" stroke="#000" stroke-miterlimit="10" stroke-width="0.5"/>
      <path d="M419.48,162.3c-.19.07-1.15-2.09-2.35-5.75a119.24,119.24,0,0,1-3.75-14.67l1.61-.24a12.17,12.17,0,0,1,.06,1.71,12.95,12.95,0,0,1-2.87,7.8,8.86,8.86,0,0,1-.89,1,2.66,2.66,0,0,1-.66.47,1.77,1.77,0,0,1-.95.19,1.81,1.81,0,0,1-1-.46,3.17,3.17,0,0,1-.55-.65c-.27-.43-.47-.79-.68-1.17-.43-.76-.8-1.49-1.13-2.19a32.44,32.44,0,0,1-1.5-3.71c-.7-2.12-.89-3.4-.75-3.44s.64,1.14,1.55,3.12c.46,1,1,2.17,1.77,3.48.37.66.77,1.35,1.21,2.06.21.34.46.74.68,1a1.78,1.78,0,0,0,.33.37.31.31,0,0,0,.21.08.37.37,0,0,0,.18-.05,1.35,1.35,0,0,0,.3-.24,10.73,10.73,0,0,0,.71-.84,12,12,0,0,0,1.25-2,12,12,0,0,0,1.14-6.37l1.61-.23C417.12,153.21,419.92,162.16,419.48,162.3Z" stroke="#000" stroke-miterlimit="10" stroke-width="0.5"/>
      <path d="M429,145.57c.11.24-1.25.76-2.38,2.55a7.57,7.57,0,0,0-1.15,3.42,6.11,6.11,0,0,0,1,4.09l-1.47.58-.07-.47c-.94-7-3.45-12.3-3-12.5.19-.1,1.07,1.11,2.06,3.29a33.12,33.12,0,0,1,2.57,9l.07.49.45,3.29-1.92-2.71a7.27,7.27,0,0,1-1.2-5.22,7.88,7.88,0,0,1,1.71-3.92,5.78,5.78,0,0,1,2.26-1.72C428.57,145.49,429,145.48,429,145.57Z" stroke="#000" stroke-miterlimit="10" stroke-width="0.5"/>
      <path d="M441.22,139.74c-.05.11-.28.09-.46.23a6.35,6.35,0,0,0-.83,1,3.66,3.66,0,0,1-.89.85,2,2,0,0,1-1.76.15,2.85,2.85,0,0,1-1.36-1.16,4.09,4.09,0,0,1-.5-1.68,21.08,21.08,0,0,0-.17-2.24,1.67,1.67,0,0,0-.7-1.15c-.27-.2-.87.05-1,.28s-.17.51-.29.54-.48-.17-.38-.81a1.61,1.61,0,0,1,.61-.9,1.72,1.72,0,0,1,1.5-.3,2.75,2.75,0,0,1,1.75,1.92A11.19,11.19,0,0,1,437,139a2.56,2.56,0,0,0,.26,1,1.4,1.4,0,0,0,.56.59.55.55,0,0,0,.54,0,3.34,3.34,0,0,0,.71-.47,2.91,2.91,0,0,1,1.51-.82C441.16,139.37,441.28,139.68,441.22,139.74Z" stroke="#000" stroke-miterlimit="10" stroke-width="0.5"/>
      <path d="M428.36,205c-.43.13-2-3.92-3.17-9.09s-1.64-9.47-1.2-9.55,1.59,4,2.79,9.18S428.8,204.85,428.36,205Z" stroke="#000" stroke-miterlimit="10" stroke-width="0.5"/>
      <ellipse cx="252.81" cy="138.99" rx="0.82" ry="6.6" transform="translate(-33.63 104.61) rotate(-21.96)" stroke="#000" stroke-miterlimit="10" stroke-width="0.5"/>
      <path d="M257.78,129.82c0,.46-1.65.85-3.56,1.54s-3.46,1.41-3.74,1,1-1.81,3.2-2.58S257.79,129.38,257.78,129.82Z" stroke="#000" stroke-miterlimit="10" stroke-width="0.5"/>
      <path d="M258.73,134.75c.29.34-.8,1.69-2.61,2.72s-3.53,1.28-3.68.86,1.19-1.32,2.87-2.28S258.45,134.39,258.73,134.75Z" stroke="#000" stroke-miterlimit="10" stroke-width="0.5"/>
      <path d="M268.06,130.32c.24.38-.85,1.47-2.62,1.94s-3.25.08-3.23-.36,1.3-.79,2.81-1.21S267.82,129.93,268.06,130.32Z" stroke="#000" stroke-miterlimit="10" stroke-width="0.5"/>
      <path d="M269.08,134.35c.14.43-1.17,1.23-2.92,1.79s-3.29.66-3.43.23,1.18-1.23,2.93-1.78S269,133.92,269.08,134.35Z" stroke="#000" stroke-miterlimit="10" stroke-width="0.5"/>
      <path d="M276,134.29c-.36.27-1.65-.82-2.87-2.44s-1.94-3.14-1.58-3.42,1.65.82,2.87,2.44S276.31,134,276,134.29Z" stroke="#000" stroke-miterlimit="10" stroke-width="0.5"/>
      <path d="M279.49,132.31c-.22.08-.59-.52-1.13-1.38s-1.35-2-2.51-1.85a1.48,1.48,0,0,0-1.23.58,1.87,1.87,0,0,0,0,1.31,3.65,3.65,0,0,1,.16,1.36c0,.35-.19.52-.29.51s-.2-.18-.34-.42l-.6-1a4.15,4.15,0,0,1-.38-.93,2.29,2.29,0,0,1,.08-1.4,2.37,2.37,0,0,1,1.05-1.18,3.15,3.15,0,0,1,1.49-.41,3.28,3.28,0,0,1,1.52.3,3.47,3.47,0,0,1,1.1.84,5,5,0,0,1,1,1.86C279.73,131.56,279.69,132.24,279.49,132.31Z" stroke="#000" stroke-miterlimit="10" stroke-width="0.5"/>
      <path d="M283.77,132.7c-.23.05-.52-.6-.93-1.55a4.46,4.46,0,0,0-2.22-2.61,1.76,1.76,0,0,0-1.51,0,1.84,1.84,0,0,0-.8,1c-.27.82,0,1.42-.16,1.57s-.29,0-.53-.27a2.18,2.18,0,0,1-.45-1.47,2.75,2.75,0,0,1,1.1-2.12,3.09,3.09,0,0,1,3-.27,4.12,4.12,0,0,1,2.07,1.83,5.78,5.78,0,0,1,.66,2C284.1,132,284,132.66,283.77,132.7Z" stroke="#000" stroke-miterlimit="10" stroke-width="0.5"/>
      <path d="M289.11,128.41c.1,0,.26.2.23.65a2.1,2.1,0,0,1-1,1.49,2.49,2.49,0,0,1-1.3.37,3.23,3.23,0,0,1-1.46-.37,4.43,4.43,0,0,1-2.07-2.46,3.72,3.72,0,0,1,.31-3.3,2.43,2.43,0,0,1,1.29-1,2.73,2.73,0,0,1,1.32-.06,1.92,1.92,0,0,1,1.47,1.09c.16.43,0,.67-.05.68s-.53-.69-1.55-.63a1.33,1.33,0,0,0-1.21.71,2.41,2.41,0,0,0,0,2,3.44,3.44,0,0,0,1.27,1.7,2.13,2.13,0,0,0,.8.32,1.39,1.39,0,0,0,.7,0,2,2,0,0,0,.95-.66C288.91,128.62,289,128.42,289.11,128.41Z" stroke="#000" stroke-miterlimit="10" stroke-width="0.5"/>
      <path d="M294.09,127.44c.07.19-.32.58-1.14.74a4.48,4.48,0,0,1-4.91-3.34c-.16-.83.06-1.33.27-1.34s.44.4.8.92a6.53,6.53,0,0,0,1.66,1.68,6.7,6.7,0,0,0,2.17.93C293.56,127.17,294,127.21,294.09,127.44Z" stroke="#000" stroke-miterlimit="10" stroke-width="0.5"/>
    </g>
  </g>
  <g id="CHARACTER2">
    <g id="PRIMARY_footleft">
      <path d="M97.34,499.76c.26,2.59.48,5.23.68,7.9.5,6.62.79,13,.91,19.2a19,19,0,0,0,5.35,1.89,21.8,21.8,0,0,0,9.07-.46c7.67-1.5,6.44-.07,18.13-1.83,7.38-1.12,6.13-1.36,11.35-2,9-1.06,14.78-.51,15.11-2.07,0-.15.11-.81-2.32-2.44a25.63,25.63,0,0,0-13.11-4,100,100,0,0,0-13,.31c-4.12.27-10,.51-17.28.32q-.08-9.27-.16-18.54Z"/>
    </g>
    <g id="leg_left" data-name="leg left">
      <path d="M110.86,270.15c.48,3.4,1.13,8.18,1.88,13.88,1.92,14.63,4.52,36.25,6.8,62.19,3.63,41.32,4.86,75.65,5.33,97.84.38,18.34.37,34,.25,45.89a25.85,25.85,0,0,1-4.77,5.36A26.17,26.17,0,0,1,89.8,497.6c-.57-5.73-1.45-14.62-2.46-25.49-4.38-46.75-5-61.73-7.76-87-1.49-13.63-4-33.53-8.11-57.81a74.48,74.48,0,0,1-8.68-25.24c-1.48-10-3.44-23.05,3.42-31C74.18,261.82,92.6,261.14,110.86,270.15Z" fill="#fff"/>
      <path d="M125.12,489.83a10.79,10.79,0,0,1-.15-2.23c0-1.47-.09-3.64-.12-6.42s-.08-6.19-.13-10.15-.1-8.46-.22-13.44c-.17-10-.51-21.81-1-35s-1.24-27.62-2.21-42.78-2.16-29.6-3.34-42.71-2.41-24.91-3.52-34.81c-.53-4.95-1.08-9.42-1.52-13.35s-.86-7.32-1.19-10.09-.56-4.91-.71-6.37a13,13,0,0,1-.14-2.24,10.56,10.56,0,0,1,.47,2.19c.25,1.45.59,3.58,1,6.34s.93,6.13,1.46,10.05,1.16,8.39,1.76,13.34c1.26,9.88,2.58,21.68,3.88,34.8s2.47,27.56,3.47,42.74,1.64,29.66,2.08,42.83.63,25.05.65,35c0,5,0,9.49,0,13.45s-.07,7.37-.15,10.15-.12,4.95-.18,6.42A10.86,10.86,0,0,1,125.12,489.83Z" stroke="#000" stroke-miterlimit="10" stroke-width="0.5"/>
      <path d="M88.93,494.56a7.84,7.84,0,0,1-.3-1.89c-.14-1.24-.31-3.07-.53-5.44-.4-4.73-1-11.57-1.72-20-1.43-16.91-3.47-40.26-6-66s-5.08-49.07-7-65.93c-.93-8.43-1.69-15.25-2.21-20-.25-2.36-.43-4.2-.54-5.44a9.49,9.49,0,0,1-.08-1.91,7.69,7.69,0,0,1,.41,1.87c.21,1.23.49,3.05.84,5.4.7,4.69,1.64,11.5,2.73,19.91C76.74,352,79.47,375.25,82,401s4.38,49.16,5.52,66.09c.57,8.47,1,15.33,1.21,20.07.11,2.37.19,4.21.22,5.46A9.31,9.31,0,0,1,88.93,494.56Z" stroke="#000" stroke-miterlimit="10" stroke-width="0.5"/>
      <path d="M124,491.65c.15.1-.92,2-3.54,4.36a25.11,25.11,0,0,1-25.78,4.51c-3.26-1.31-4.92-2.76-4.82-2.91s2,.84,5.2,1.82a27.23,27.23,0,0,0,24.67-4.31C122.37,493.11,123.75,491.48,124,491.65Z" stroke="#000" stroke-miterlimit="10" stroke-width="0.5"/>
      <path d="M98.59,523.83c-.46,0-.84-5.05-1.12-11.26s-.36-11.28.09-11.32,1.26,5,1.54,11.24S99,523.83,98.59,523.83Z" stroke="#000" stroke-miterlimit="10" stroke-width="0.5"/>
      <ellipse cx="112.14" cy="511.37" rx="0.82" ry="9.17" transform="translate(-15 3.52) rotate(-1.69)" stroke="#000" stroke-miterlimit="10" stroke-width="0.5"/>
      <path d="M157,520.82c-.15.23-2.27-1.22-6.15-2.35a36.41,36.41,0,0,0-7-1.27,65.39,65.39,0,0,0-8.71-.13l-8.82.47a69.7,69.7,0,0,1-7.27,0c-4.15-.27-6.65-.92-6.61-1.12s2.56,0,6.64,0c2,0,4.46-.13,7.16-.33s5.67-.46,8.83-.6a54.26,54.26,0,0,1,8.94.26,31.72,31.72,0,0,1,7.16,1.68C155.16,518.85,157.1,520.69,157,520.82Z" stroke="#000" stroke-miterlimit="10" stroke-width="0.5"/>
      <path d="M155.62,523.61c0,.22-3.05.76-8.05,1.46s-11.93,1.55-19.59,2.39-14.59,1.57-19.66,1.86a19,19,0,0,1-6.06-.54c-1.39-.41-2.06-.9-2-1a12.73,12.73,0,0,1,2.15.36,23.68,23.68,0,0,0,5.84,0c5-.58,11.92-1.52,19.57-2.33s14.59-1.51,19.62-1.91S155.59,523.38,155.62,523.61Z" stroke="#000" stroke-miterlimit="10" stroke-width="0.5"/>
    </g>
    <g id="PRIMARY_footright">
      <path d="M35.91,493.58a80.43,80.43,0,0,1,1.44,9.6,80.76,80.76,0,0,1-.08,15,62.59,62.59,0,0,0-11.64,3.73,54.23,54.23,0,0,0-15,9.15,51.87,51.87,0,0,0-9.5,11.09c3.48-.85,8-2,13.29-3.51,8-2.27,14-4.26,18.67-5.83,5.5-1.85,12.28-4.22,20-7.17q-.65-5.83-1.06-12.15c-.39-6.11-.54-11.93-.51-17.43a40.81,40.81,0,0,1-6.27-.25A40,40,0,0,1,35.91,493.58Z"/>
    </g>
    <g id="leg_right" data-name="leg right">
      <path d="M41.79,266.86c-1.25,4.17-3.12,10.81-4.85,19.08a231.14,231.14,0,0,0-4.28,30.8c-3.52,46.08-5.28,69.12-5.92,86-.85,22.52-1.59,50.87-1.69,83.84a26.17,26.17,0,0,0,6.23,5.08c6.18,3.63,12.16,3.7,15.76,3.7a37.89,37.89,0,0,0,16.48-3.85c-.05-6.85-.06-15.57.11-25.68C64,446.25,64.78,431.5,65,428.27c.48-8.39,1.93-31.64,5.83-61.82,2-15.32,4.73-33.45,8.62-53.78L98.09,299c6.37-12.75,6.61-27.2-.37-36.06C87.45,250,60.79,248,41.79,266.86Z" fill="#fff"/>
      <path d="M25.64,484.18a10.89,10.89,0,0,1-.16-2.21c0-1.46-.08-3.61-.12-6.37-.06-5.53-.12-13.52-.1-23.4s.09-21.66.35-34.72S26.28,390,27.08,375s1.87-29.4,3.16-42.42,2.86-24.69,4.26-34.47c.8-4.88,1.52-9.3,2.15-13.18s1.37-7.19,2.1-9.87a51.25,51.25,0,0,1,2-6.06,9.27,9.27,0,0,1,1-2,14.3,14.3,0,0,1-.67,2.11c-.46,1.38-1.09,3.42-1.72,6.1s-1.22,6-1.81,9.87-1.2,8.3-1.91,13.19c-1.26,9.79-2.75,21.45-3.91,34.46s-2.24,27.31-3,42.36-1.26,29.39-1.59,42.45-.54,24.82-.7,34.7-.32,17.87-.41,23.39c-.07,2.77-.13,4.91-.19,6.37A12.33,12.33,0,0,1,25.64,484.18Z" stroke="#000" stroke-miterlimit="10" stroke-width="0.5"/>
      <path d="M65.82,489.83c.13.11-1.54,2.14-5.3,3.91a26.16,26.16,0,0,1-6.91,2.06,36.91,36.91,0,0,1-8.8.25,46.42,46.42,0,0,1-8.64-1.6,22.11,22.11,0,0,1-6.54-3.09c-3.38-2.4-4.71-4.65-4.57-4.75s1.83,1.75,5.2,3.78A23.53,23.53,0,0,0,36.58,493,53.75,53.75,0,0,0,45,494.43a42,42,0,0,0,8.44-.11,29.26,29.26,0,0,0,6.68-1.64C63.75,491.27,65.65,489.61,65.82,489.83Z" stroke="#000" stroke-miterlimit="10" stroke-width="0.5"/>
      <path d="M78.09,313.92c-.32-.29,2.17-3.41,6.18-6.19s7.79-4,8-3.63-3.17,2.28-7,5S78.42,314.25,78.09,313.92Z" stroke="#000" stroke-miterlimit="10" stroke-width="0.5"/>
      <path d="M63.59,484.69a6.9,6.9,0,0,1-.17-1.73c-.06-1.14-.11-2.82-.17-5s-.1-4.8-.11-7.87,0-6.57,0-10.44c.07-7.73.34-16.93.81-27.15s1.26-21.43,2.33-33.18,2.4-22.92,3.75-33,2.81-19.23,4.15-26.84c.64-3.82,1.31-7.25,1.87-10.27s1.09-5.61,1.54-7.72.81-3.76,1.07-4.86a7,7,0,0,1,.49-1.68,8.07,8.07,0,0,1-.16,1.74c-.16,1.13-.42,2.78-.77,4.91s-.8,4.74-1.27,7.77-1.07,6.47-1.63,10.29c-1.2,7.63-2.49,16.73-3.8,26.86s-2.53,21.27-3.62,33-1.85,22.92-2.45,33.11-.94,19.38-1.15,27.1c-.15,3.86-.19,7.35-.27,10.41s-.14,5.71-.17,7.87-.09,3.84-.14,5A6.78,6.78,0,0,1,63.59,484.69Z" stroke="#000" stroke-miterlimit="10" stroke-width="0.5"/>
      <path d="M37.62,518.18c-.46,0-.59-5.17-.89-11.5s-.61-11.46-.15-11.52,1.5,5,1.78,11.45S38.06,518.2,37.62,518.18Z" stroke="#000" stroke-miterlimit="10" stroke-width="0.5"/>
      <path d="M54.31,525.18a17.09,17.09,0,0,1-3.55,1.69c-2.32,1-5.72,2.33-9.95,3.9-8.47,3.15-20.31,7.13-33.6,10.77l-2.48.67a8.56,8.56,0,0,1-1.36.29,3.84,3.84,0,0,1-.76,0,2.93,2.93,0,0,1-1-.2A2.2,2.2,0,0,1,.27,541a3.8,3.8,0,0,1,.36-.81l.63-.76c.53-.65,1.05-1.3,1.61-1.9a58.13,58.13,0,0,1,6.81-6.57,61.41,61.41,0,0,1,13.51-8.5,54.9,54.9,0,0,1,10.14-3.56,14.48,14.48,0,0,1,3.89-.65,24.83,24.83,0,0,1-3.71,1.26,67.78,67.78,0,0,0-9.82,4,64.3,64.3,0,0,0-13,8.61,59.75,59.75,0,0,0-6.57,6.48c-.54.59-1.05,1.22-1.56,1.85l-.25.31a.34.34,0,0,0,.23.19.62.62,0,0,0,.18,0,4.43,4.43,0,0,0,.51,0,6.75,6.75,0,0,0,1.12-.25L6.77,540c13.26-3.63,25.11-7.42,33.66-10.28l10.11-3.41A19.32,19.32,0,0,1,54.31,525.18Z" stroke="#000" stroke-miterlimit="10" stroke-width="0.5"/>
      <path d="M52.82,520.51c-.44.07-1.62-5.34-2-12.14s.23-12.31.67-12.29.59,5.49,1,12.2S53.27,520.45,52.82,520.51Z" stroke="#000" stroke-miterlimit="10" stroke-width="0.5"/>
    </g>
    <g id="arm_left" data-name="arm left">
      <path d="M100.81,150.71a53.07,53.07,0,0,0-4.64,8.88c-6.81,16.73-3.31,32.81-1,40.61a123,123,0,0,0,5.42,16.26,48.12,48.12,0,0,0,3.84,8c2.9,4.59,6,7.27,11.33,11.77a128.22,128.22,0,0,0,10.81,8.2c-1.12.95-2.78,2.43-4.65,4.37-2.7,2.8-5.2,5.38-4.66,6.27.16.25,1,1.07,7.79-1.6a33.13,33.13,0,0,1-1.48,5.65,28.15,28.15,0,0,1-3,6.16,25.33,25.33,0,0,1-6.11,6.42,12,12,0,0,0,4.41-.29c5.15-1.32,7.72-5.72,8.32-6.81-.79,2-1.57,4-2.34,6.11q-1.7,4.56-3.21,9a16.39,16.39,0,0,0,7.64-2.78,16.16,16.16,0,0,0,4.1-4.09l4.92-6.51q-.56,5.79-1.12,11.6a21.63,21.63,0,0,0,4.3-4.93,23.45,23.45,0,0,0,3-7.7c.92-4.49.38-8-.39-12.71a64.6,64.6,0,0,0-3-11.54,77.66,77.66,0,0,0-6.54-13.22,76.07,76.07,0,0,0-4.86-7c-.79-3.39-2-8.41-3.34-14.54-1.6-7.08-1.69-7.61-2.88-12.84-4-17.7-2.4-8.87-5.4-21.59a40.32,40.32,0,0,0-3.13-9.26,22.55,22.55,0,0,0-4.71-7A19.45,19.45,0,0,0,100.81,150.71Z" fill="#fff"/>
      <path d="M136.29,278.14c-.22-.05-.16-1.19.1-3s.68-4.21,1-6.88a44.75,44.75,0,0,0,.31-6.86c0-1.76-.17-2.88.07-2.94s.72,1,1.08,2.81a23.67,23.67,0,0,1,.16,7.17,39.08,39.08,0,0,1-1.5,7C137,277.16,136.5,278.19,136.29,278.14Z" stroke="#000" stroke-miterlimit="10" stroke-width="0.5"/>
      <path d="M143,269.67c.43.1.06,2.79-1.77,5.5a8.24,8.24,0,0,1-3.05,2.95c-1.07.49-1.83.3-1.83.09s.55-.46,1.22-1.07a15.26,15.26,0,0,0,2.3-2.88C141.53,271.8,142.55,269.54,143,269.67Z" stroke="#000" stroke-miterlimit="10" stroke-width="0.5"/>
      <path d="M114.54,271.73c-.15-.17.57-1.07,1.78-2.41a48.1,48.1,0,0,0,4.4-5.4,17.37,17.37,0,0,0,1.71-3.3,22.4,22.4,0,0,0,.86-3,5.42,5.42,0,0,1,.95-2.1c.37-.43.67-.55.75-.48s0,.35-.2.8a9.08,9.08,0,0,0-.37,2,13.64,13.64,0,0,1-.57,3.26,14.41,14.41,0,0,1-1.77,3.71,24.27,24.27,0,0,1-5,5.34C115.68,271.31,114.69,271.9,114.54,271.73Z" stroke="#000" stroke-miterlimit="10" stroke-width="0.5"/>
      <path d="M127.26,264.65c.34.27-1.55,3.13-4.91,5.61a11.43,11.43,0,0,1-4.88,2.36c-1.45.22-2.32-.2-2.27-.4s.85-.26,2-.71a18.61,18.61,0,0,0,4.19-2.56C124.56,266.61,126.91,264.35,127.26,264.65Z" stroke="#000" stroke-miterlimit="10" stroke-width="0.5"/>
      <path d="M120.75,278.81c-.39-.25,1.36-3.58,3.19-7.8s3.09-7.76,3.54-7.64-.14,3.94-2,8.29S121.11,279.05,120.75,278.81Z" stroke="#000" stroke-miterlimit="10" stroke-width="0.5"/>
      <path d="M137,267.81c.18.12-.25,1.18-1.17,2.79a24.21,24.21,0,0,1-4.48,5.77,13.88,13.88,0,0,1-6.53,3.51c-1.9.36-3.09.05-3.08-.15s1.13-.36,2.77-1a17.32,17.32,0,0,0,5.74-3.59,47.2,47.2,0,0,0,4.63-5.22C136,268.53,136.8,267.68,137,267.81Z" stroke="#000" stroke-miterlimit="10" stroke-width="0.5"/>
      <path d="M132.48,264.3c.4.19-1.08,3.92-3.92,7.93a33.29,33.29,0,0,1-4,4.81,4.33,4.33,0,0,1-1.76,1c-.48.11-.77,0-.78-.08s.83-.53,1.7-1.75l3.56-5C130,267.39,132.07,264.09,132.48,264.3Z" stroke="#000" stroke-miterlimit="10" stroke-width="0.5"/>
      <path d="M129,219c-.23,0-1.24-4.18-2.85-11s-3.81-16.24-6.43-26.6c-.66-2.59-1.3-5.12-1.93-7.56s-1.24-4.77-2-6.94a28.7,28.7,0,0,0-5.64-10.53,17.41,17.41,0,0,0-6.52-4.66c-1.78-.71-2.88-.81-2.86-.95a6.11,6.11,0,0,1,3.07.35,16.53,16.53,0,0,1,7.15,4.47,28.6,28.6,0,0,1,6.23,10.83c.77,2.22,1.43,4.59,2.08,7l2,7.56c2.62,10.39,4.67,19.87,6,26.76.66,3.45,1.14,6.25,1.44,8.19A11.4,11.4,0,0,1,129,219Z" stroke="#000" stroke-miterlimit="10" stroke-width="0.5"/>
      <path d="M142.09,243.14c-.21.1-1.09-1.42-2.39-3.91s-3.06-5.94-5.24-9.58c-1.09-1.82-2.2-3.51-3.26-5s-2.09-2.79-3-3.85c-1.79-2.11-3-3.34-2.87-3.53S127,218,129,220a36,36,0,0,1,3.36,3.72,53.21,53.21,0,0,1,3.46,5.07,71.05,71.05,0,0,1,4.88,9.94C141.79,241.37,142.29,243.05,142.09,243.14Z" stroke="#000" stroke-miterlimit="10" stroke-width="0.5"/>
      <path d="M126.49,244.55c-.14.18-2.78-1.61-6.92-4.64-2.08-1.52-4.53-3.31-7.24-5.4a43.51,43.51,0,0,1-4.07-3.57,26.9,26.9,0,0,1-3.64-4.61,67.06,67.06,0,0,1-4.88-10c-1.28-3.17-2.25-6.09-3-8.57-1.44-5-1.91-8.12-1.71-8.17s1.1,3,2.81,7.82c.86,2.4,1.93,5.25,3.27,8.34a75,75,0,0,0,4.87,9.75,31.77,31.77,0,0,0,7.28,7.88l7,5.66C124.24,242.27,126.62,244.37,126.49,244.55Z" stroke="#000" stroke-miterlimit="10" stroke-width="0.5"/>
      <path d="M144.42,244.26c-.23.11-.85-1-2.3-2.21a9.75,9.75,0,0,0-13.25.15c-1.43,1.26-2,2.37-2.26,2.26s0-1.41,1.43-3.06a9.82,9.82,0,0,1,14.89-.17C144.34,242.85,144.6,244.2,144.42,244.26Z" stroke="#000" stroke-miterlimit="10" stroke-width="0.5"/>
      <path d="M129.85,252.58c0,.21-1.2.52-3.18,1.09-1,.29-2.16.65-3.46,1.12-.65.24-1.31.49-2,.78a4.75,4.75,0,0,1-1.36.34,2.44,2.44,0,0,1-.9-.09,1.83,1.83,0,0,1-.87-.6,1.92,1.92,0,0,1-.39-.86,2.44,2.44,0,0,1,0-.81,4.48,4.48,0,0,1,.4-1.28,10.68,10.68,0,0,1,3.8-4.3c1.39-1,2.67-1.74,3.7-2.43,2.08-1.33,3.08-2.46,3.29-2.32s-.6,1.6-2.6,3.24c-1,.83-2.22,1.7-3.48,2.7a10.18,10.18,0,0,0-3.21,3.76c-.34.62-.36,1.25-.25,1.29s.12.12.41.12a3.54,3.54,0,0,0,.93-.2c.71-.26,1.45-.5,2.13-.69a30.13,30.13,0,0,1,3.67-.81C128.55,252.33,129.83,252.39,129.85,252.58Z" stroke="#000" stroke-miterlimit="10" stroke-width="0.5"/>
      <path d="M144.46,269.18c-.22,0-.38-1.53-.48-4s-.15-5.81-.37-9.5a82.12,82.12,0,0,0-1.08-9.38c-.42-2.38-.75-3.86-.52-3.94s.92,1.29,1.64,3.67a43,43,0,0,1,1.59,9.55,72.13,72.13,0,0,1-.1,9.62C144.94,267.68,144.69,269.18,144.46,269.18Z" stroke="#000" stroke-miterlimit="10" stroke-width="0.5"/>
    </g>
    <g id="torso">
      <path d="M29.73,155.7,27.6,185.06q2,10.74,3.94,21.48l4.62,25.19c-.89,5.14-1.66,10.61-2.25,16.39-.84,8.19-1.19,15.86-1.23,22.93a38.42,38.42,0,0,1,14-4.63,44.07,44.07,0,0,1,11.06.2c6.62.71,8.17,1.74,18.63,4,11.07,2.43,14.88,2.49,16.21,2.5,3.81,0,8,0,12.91-1.91a29.54,29.54,0,0,0,11-7.47c-.35-5.5-.95-11.35-1.89-17.5a200.11,200.11,0,0,0-8.28-34.08,52.28,52.28,0,0,0,4.42-12,44.49,44.49,0,0,0,1.36-12.88c-.28-5.11-1.55-8.79-4.42-16-2.4-6-5.55-13.54-9.51-22.21a222.25,222.25,0,0,0-22.26-1.57c-8.11-.16-14-.28-21.52.82A90.51,90.51,0,0,0,29.73,155.7Z" fill="#fff"/>
      <path d="M98.1,149.11c0,.26-3.89-.48-10.14-1.11-1.56-.15-3.27-.31-5.11-.4s-3.81-.16-5.88-.22c-4.15,0-8.7.11-13.47.55a134.19,134.19,0,0,0-13.31,2c-2,.45-4,.85-5.73,1.34s-3.45.92-5,1.37c-6,1.81-9.64,3.27-9.74,3a8.9,8.9,0,0,1,2.42-1.33c.8-.38,1.79-.83,3-1.28s2.5-1,4-1.51,3.15-1.08,5-1.57,3.73-1,5.77-1.51a114.49,114.49,0,0,1,13.48-2.18A113,113,0,0,1,77,145.88c2.1.1,4.09.17,6,.37s3.58.38,5.15.61,3,.48,4.22.71,2.3.47,3.15.7A8.67,8.67,0,0,1,98.1,149.11Z" stroke="#000" stroke-miterlimit="10" stroke-width="0.5"/>
      <path d="M106.31,212.16c-.24-.1.92-3.13,2.54-8.06a55.81,55.81,0,0,0,2.18-8.77,31.31,31.31,0,0,0-.2-10.89,78,78,0,0,0-3.09-10.66c-1.12-3.27-2.13-6.18-3.16-8.54-2-4.76-4.22-7.17-4-7.34s2.69,2.07,5.06,6.85a84.83,84.83,0,0,1,3.53,8.52,68,68,0,0,1,3.28,10.86,30.82,30.82,0,0,1,.08,11.44,48,48,0,0,1-2.57,8.92C108,209.38,106.49,212.23,106.31,212.16Z" stroke="#000" stroke-miterlimit="10" stroke-width="0.5"/>
      <path d="M116.34,256.66c-.46.07-2.29-9.69-4.8-21.67s-4.7-21.66-4.25-21.78c.21-.06,1,2.29,2.14,6.17s2.45,9.26,3.71,15.28,2.17,11.5,2.71,15.48S116.56,256.62,116.34,256.66Z" stroke="#000" stroke-miterlimit="10" stroke-width="0.5"/>
      <ellipse cx="31.73" cy="207.61" rx="0.82" ry="24.5" transform="translate(-36.93 9.13) rotate(-10.39)" stroke="#000" stroke-miterlimit="10" stroke-width="0.5"/>
      <path d="M32.68,271c-.44,0-.72-9.18.2-20.44S35.54,230.3,36,230.37s-.57,9.14-1.46,20.35S33.14,271,32.68,271Z" stroke="#000" stroke-miterlimit="10" stroke-width="0.5"/>
      <path d="M115.37,265s-.13.29-.51.74a15.55,15.55,0,0,1-1.8,1.82,24.56,24.56,0,0,1-8.26,4.56,38.84,38.84,0,0,1-13.87,1.75,87.24,87.24,0,0,1-16.8-2.9,155.36,155.36,0,0,0-16.45-3.57,46.91,46.91,0,0,0-13.57,0,30.69,30.69,0,0,0-8.72,2.72c-1,.5-1.72.9-2.21,1.2s-.78.41-.82.37.18-.26.63-.64a16.86,16.86,0,0,1,2.09-1.49,27.57,27.57,0,0,1,8.83-3.3,45.15,45.15,0,0,1,14-.34,135.19,135.19,0,0,1,16.65,3.48,93.79,93.79,0,0,0,16.48,3A39.78,39.78,0,0,0,104.45,271a27.13,27.13,0,0,0,8.21-3.95c.87-.66,1.54-1.17,2-1.56S115.33,264.93,115.37,265Z" stroke="#000" stroke-miterlimit="10" stroke-width="0.5"/>
    </g>
    <g id="arm_right" data-name="arm right">
      <path d="M28.34,156.42A122.4,122.4,0,0,0,21.56,168,144,144,0,0,0,10,201.29a151.16,151.16,0,0,0-3.17,43c1.61,1.66,3.83,3.86,6.57,6.33a136.72,136.72,0,0,0,40.13,25.14,25.84,25.84,0,0,1-.51-3.7,25.31,25.31,0,0,1,.29-5.74,50.08,50.08,0,0,0,5.59,6.63c4.78,4.77,9.28,7.34,14.21,10.11a103,103,0,0,0,15.48,7.07q3.06,4.74,6.56,9.62A244.13,244.13,0,0,0,112,320.56a51.33,51.33,0,0,0,8.94-2.05,54.91,54.91,0,0,0,16.4-8.93,77.1,77.1,0,0,0,10-9.06,117.91,117.91,0,0,0,11.87-14.35q-4.22-4.82-8.54-9.64Q136.42,260.69,122.28,246a94.2,94.2,0,0,0-14.49,3.22,95.45,95.45,0,0,0-29.58,15.22l-16.48-4.23c-1.41-1.35-3.65-3.55-6.34-6.34-4.46-4.61-7.13-7.71-16.91-18.81l-6.34-7.18c.57-2.39,1.42-5.92,2.45-10.21,1.89-7.92,2.55-10.71,2.91-12.18,1.25-5.19,3.29-12.71,6.69-22.62a17.87,17.87,0,0,0-.85-19.23C38,156.25,29.08,156.4,28.34,156.42Z" fill="#fff"/>
      <path d="M6.62,237.1a13.89,13.89,0,0,1-.35-3.38c-.08-1.09-.09-2.42-.1-4s0-3.32.1-5.27a138.56,138.56,0,0,1,4.63-30.13A137.13,137.13,0,0,1,22,166,48.11,48.11,0,0,1,26.81,158a8.57,8.57,0,0,1,2.43-2.39c.09.09-.72,1-1.91,2.77A61.33,61.33,0,0,0,23,166.47a162,162,0,0,0-10.53,28.3,164,164,0,0,0-5.05,29.78C6.83,232.28,6.89,237.09,6.62,237.1Z" stroke="#000" stroke-miterlimit="10" stroke-width="0.5"/>
      <path d="M32.42,228c-.22,0,0-2.53.74-6.52s1.83-9.45,3.34-15.43,3.11-11.33,4.4-15.16,2.24-6.15,2.45-6.09c.45.15-2.27,9.74-5.27,21.65S32.88,228.12,32.42,228Z" stroke="#000" stroke-miterlimit="10" stroke-width="0.5"/>
      <path d="M62.3,259c-.1.17-2.3-.92-5.5-3.24a64.36,64.36,0,0,1-5.36-4.4c-1.93-1.76-4-3.79-6-6a135.25,135.25,0,0,1-9.58-12c-2.27-3.19-3.56-5.25-3.39-5.39s1.8,1.68,4.31,4.69,5.89,7.2,9.87,11.62c2,2.19,4,4.22,5.8,6s3.56,3.33,5.05,4.58C60.48,257.37,62.44,258.79,62.3,259Z" stroke="#000" stroke-miterlimit="10" stroke-width="0.5"/>
      <path d="M56.9,277.08c-.07.18-3.42-.79-8.62-3-2.6-1.09-5.63-2.53-8.93-4.27s-6.84-3.84-10.43-6.22-6.86-4.86-9.76-7.21-5.39-4.61-7.4-6.59c-4-3.94-6.22-6.66-6.08-6.8s2.67,2.26,6.87,6c2.09,1.85,4.65,4,7.55,6.27s6.18,4.66,9.72,7,7,4.44,10.25,6.26,6.17,3.33,8.69,4.54C53.79,275.49,57,276.84,56.9,277.08Z" stroke="#000" stroke-miterlimit="10" stroke-width="0.5"/>
      <path d="M60.48,258.78c-.08.24-1.3-.19-3,.48a4.52,4.52,0,0,0-2.26,1.89,11.44,11.44,0,0,0-.92,3.81,49.18,49.18,0,0,0-.74,7.54c0,1.93.22,3.13,0,3.2s-.82-1.07-1.14-3.11a26.92,26.92,0,0,1,.28-7.87A10.92,10.92,0,0,1,54,260.35a5.31,5.31,0,0,1,3.19-2.2,4.65,4.65,0,0,1,2.55.08C60.27,258.45,60.52,258.69,60.48,258.78Z" stroke="#000" stroke-miterlimit="10" stroke-width="0.5"/>
      <path d="M76.42,270.82c0-.16,1.11-.08,3-.19a23.81,23.81,0,0,0,3.29-.46c.62-.14,1.27-.31,2-.53l.5-.17.26-.09.1-.05.34-.16a1.6,1.6,0,0,0-.23-.3l-.2-.18-.42-.37a10.66,10.66,0,0,0-2-1.24,35.63,35.63,0,0,0-4.92-1.81c-5.55-1.75-10.49-3.47-14.16-4.25s-6-.92-6-1.17,2.4-.53,6.23,0,8.92,2.09,14.44,3.84a30.92,30.92,0,0,1,5.15,2A11.72,11.72,0,0,1,86,267.17l.48.45.28.3c.12.12.22.25.32.37.37.5.75,1,1,1.51-.62.25-1.23.49-1.82.7-.14.05-.29.11-.44.15l-.28.09c-.19.06-.37.11-.56.15a16.14,16.14,0,0,1-2.11.43,17.24,17.24,0,0,1-3.49.14C77.45,271.33,76.4,271,76.42,270.82Z" stroke="#000" stroke-miterlimit="10" stroke-width="0.5"/>
      <path d="M88.6,290.07c-.08.21-2.4-.49-6.06-1.91a89.1,89.1,0,0,1-13.78-6.74,61.34,61.34,0,0,1-6.92-4.94c-1-.87-1.93-1.67-2.74-2.51-.41-.41-.81-.8-1.18-1.2l-1-1.16c-2.57-3-3.68-5.22-3.53-5.32s1.66,1.8,4.38,4.53l1.07,1.07L60,273c.82.78,1.78,1.52,2.76,2.34A80.53,80.53,0,0,0,69.61,280c5,3.07,9.89,5.38,13.39,7.08S88.69,289.86,88.6,290.07Z" stroke="#000" stroke-miterlimit="10" stroke-width="0.5"/>
      <path d="M84.13,284.94c-.31.33-3.09-1.89-6.19-4.94s-5.37-5.78-5.06-6.1,3.09,1.89,6.2,4.94S84.45,284.62,84.13,284.94Z" stroke="#000" stroke-miterlimit="10" stroke-width="0.5"/>
      <path d="M111,320.59c-.17.13-2.43-2.34-5.86-6.54s-8-10.13-12.77-16.88-8.85-13-11.67-17.67-4.39-7.58-4.21-7.7,2.12,2.62,5.18,7.08,7.27,10.62,12,17.35,9.17,12.75,12.35,17.12S111.19,320.44,111,320.59Z" stroke="#000" stroke-miterlimit="10" stroke-width="0.5"/>
      <path d="M122.25,246c0,.25-2.66.82-6.93,2.05-2.14.61-4.65,1.43-7.42,2.4S102.13,252.61,99,254c-6.23,2.69-11.75,5.41-15.79,7.34s-6.56,3-6.67,2.85,2.24-1.68,6.14-3.88a174,174,0,0,1,15.68-7.81c3.15-1.35,6.22-2.5,9-3.44s5.42-1.62,7.62-2.09C119.44,246,122.22,245.78,122.25,246Z" stroke="#000" stroke-miterlimit="10" stroke-width="0.5"/>
      <path d="M158.27,285.37c-.17.15-2.18-1.91-5.33-5.31l-12.29-13.3-12.38-13.23c-3.16-3.4-5.07-5.55-4.91-5.71s2.36,1.7,5.73,4.9,7.92,7.73,12.75,12.93,9,10.05,12,13.65S158.44,285.23,158.27,285.37Z" stroke="#000" stroke-miterlimit="10" stroke-width="0.5"/>
      <path d="M157,289.82c.17.14-1.72,2.65-5,6.51a101.49,101.49,0,0,1-14.2,13.9,52,52,0,0,1-17.64,9.24c-5,1.37-8.18,1.26-8.18,1.09s3.1-.57,7.84-2.19a59,59,0,0,0,17-9.43,140.13,140.13,0,0,0,14.35-13.39C154.65,291.91,156.85,289.66,157,289.82Z" stroke="#000" stroke-miterlimit="10" stroke-width="0.5"/>
      <path d="M114.46,312.44c-.17.13-2-1.87-4.79-5.28s-6.46-8.23-10.3-13.72-7.13-10.6-9.38-14.37-3.51-6.19-3.32-6.3,1.79,2.08,4.29,5.68l9.74,14.06,9.89,14C113.12,310,114.64,312.29,114.46,312.44Z" stroke="#000" stroke-miterlimit="10" stroke-width="0.5"/>
      <path d="M150.89,290c.13.17-1.59,1.83-4.59,4.26a133.17,133.17,0,0,1-25.49,16c-3.49,1.64-5.73,2.46-5.83,2.26-.2-.43,8.28-4.69,18.16-10.9S150.58,289.59,150.89,290Z" stroke="#000" stroke-miterlimit="10" stroke-width="0.5"/>
      <path d="M118.85,252.4c.18.41-7,4.16-16,8.36s-16.52,7.29-16.72,6.88,7-4.14,16-8.36S118.67,252,118.85,252.4Z" stroke="#000" stroke-miterlimit="10" stroke-width="0.5"/>
      <path d="M150.09,287.84c-.34.3-7.37-7.29-15.71-16.95s-14.83-17.72-14.49-18,7.38,7.3,15.72,17S150.43,287.55,150.09,287.84Z" stroke="#000" stroke-miterlimit="10" stroke-width="0.5"/>
      <path d="M104.12,295.12c-.43,0-.17-8.75,1.53-19.36s4.15-19,4.56-18.88-1.28,8.6-2.95,19.14S104.59,295.16,104.12,295.12Z" stroke="#000" stroke-miterlimit="10" stroke-width="0.5"/>
      <path d="M115.19,312c-.22,0-.39-2.94-.34-7.67s.35-11.27,1-18.46,1.65-13.66,2.51-18.32,1.58-7.49,1.79-7.46-.09,2.95-.65,7.63-1.33,11.15-2,18.31S116.35,299.7,116,304.4,115.42,312,115.19,312Z" stroke="#000" stroke-miterlimit="10" stroke-width="0.5"/>
      <path d="M127.28,287.6c-.46-.1.34-5.42,1.09-12s1.19-12,1.65-11.94.74,5.46,0,12.13S127.7,287.7,127.28,287.6Z" stroke="#000" stroke-miterlimit="10" stroke-width="0.5"/>
    </g>
    <g id="PRIMARY_hair2">
      <path d="M65.58,103.58a25.37,25.37,0,0,0,8.14-7.12,25.85,25.85,0,0,0,4.9-14.83,16.76,16.76,0,0,1,5.26-2.55,18,18,0,0,1,13.91,2.11,17.79,17.79,0,0,1,6.48,7.44c.24,2,.52,5,.69,8.46a87.33,87.33,0,0,1-.26,15.5c-.81,6.94-1.3,11.07-4.3,15.49a20.22,20.22,0,0,1-7.72,7,19.8,19.8,0,0,1-8.3,2.11l-.46,2.3a39.18,39.18,0,0,0,5.21.69,31.33,31.33,0,0,0,11-.87,21.12,21.12,0,0,0,9.61-5c3.93-3.82,4.91-8.41,5.69-12a34.08,34.08,0,0,0-.66-16.42,37.3,37.3,0,0,0-7-13.6,21.82,21.82,0,0,0,2.45-7.58,21.42,21.42,0,0,0-2-12.07c-3.76-7.14-11.71-9.3-18.94-11.27C85,60.11,79.39,58.6,72.13,59.8,69,60.31,59.65,62,52.69,70.22A30.84,30.84,0,0,0,45.86,86a34,34,0,0,0,1.44,15.73c-.33.17-5.38,2.8-6,8.51a11.08,11.08,0,0,0,3.12,8.61,33.66,33.66,0,0,0-7.16,4.41A34.25,34.25,0,0,0,26.42,138.8a33.27,33.27,0,0,0,5,30.34,29.86,29.86,0,0,0,13.14,10,25.1,25.1,0,0,0,14.31,1.5,25.05,25.05,0,0,0,12.53-7,29.92,29.92,0,0,0,8.18-15,36.74,36.74,0,0,0-.08-16.6c-.77-4-2.06-10.74-7.16-17.33a34.8,34.8,0,0,0-6.11-6.11,7.65,7.65,0,1,1-.68-15Z"/>
    </g>
    <g id="head">
      <path d="M66.9,103.68c-.41-.11-4-1-6.69,1.29-2.17,1.82-2.38,4.48-2.49,5.87s-.27,3.42,1,5.13c1.62,2.22,5.11,3,8.66,2,1.12,1.41,2.58,3.35,4.16,5.73a65.36,65.36,0,0,1,4.88,8.43,43.74,43.74,0,0,1,3.86,14.63l1.93-.48,2.2-9.09a21.31,21.31,0,0,0,6.23-1.3,18.29,18.29,0,0,0,6.93-4.31c2.07-2.12,2.89-4.33,4.52-8.74a50.08,50.08,0,0,0,2.64-10.23,62.58,62.58,0,0,0,.4-9.65c0-3.35-.08-7.93-.31-13.46a20.62,20.62,0,0,0-4.66-6.26c-1.47-1.33-5.71-5.17-12-5.06a16.33,16.33,0,0,0-9.54,3.47,17.61,17.61,0,0,1,0,3.86,18.74,18.74,0,0,1-2,6.5C73.73,97.76,68.25,102.53,66.9,103.68Z" fill="#fff"/>
      <path d="M82.05,146.35a9.45,9.45,0,0,1,.26-2.79c.15-.88.33-2,.54-3.22.11-.63.22-1.28.37-2a3.16,3.16,0,0,1,.49-1.22,2.31,2.31,0,0,1,1.24-.87,6.13,6.13,0,0,1,1.34-.2c.41,0,.82-.07,1.24-.13a17.57,17.57,0,0,0,2.55-.58,17.21,17.21,0,0,0,5.12-2.6,20.56,20.56,0,0,0,7.06-11,58.82,58.82,0,0,0,2-13.41c.23-4.2.24-8,.17-11.19-.16-6.38-.59-10.32-.34-10.35a9,9,0,0,1,.64,2.73c.3,1.77.62,4.35.85,7.57a109.85,109.85,0,0,1,.18,11.31,55.53,55.53,0,0,1-1.9,13.81c-1.37,4.8-4.09,9.14-7.73,11.7a17.81,17.81,0,0,1-5.63,2.69,16.53,16.53,0,0,1-2.78.52c-.89.12-1.82.06-2.41.2a1.23,1.23,0,0,0-.68.41,2.39,2.39,0,0,0-.37.82l-.48,2c-.31,1.23-.58,2.29-.81,3.16A9.08,9.08,0,0,1,82.05,146.35Z" stroke="#000" stroke-miterlimit="10" stroke-width="0.5"/>
      <path d="M90.41,115.61c0-.11.28-.25.79-.46a6.82,6.82,0,0,0,1.9-1,2.33,2.33,0,0,0,.72-1,4,4,0,0,0,.08-1.55c-.13-1.28-.27-2.74-.38-4.25-.47-6.07-.48-11,0-11s1.19,4.86,1.65,10.92c.12,1.53.21,2.95.26,4.3a4.79,4.79,0,0,1-.33,2.13,3.3,3.3,0,0,1-1.29,1.47,5.13,5.13,0,0,1-2.45.72C90.75,115.8,90.43,115.72,90.41,115.61Z" stroke="#000" stroke-miterlimit="10" stroke-width="0.5"/>
      <path d="M88.47,125.34c0-.11.43-.18,1.18-.25a9.11,9.11,0,0,0,2.92-.63,3.16,3.16,0,0,0,1.87-3.16,2.77,2.77,0,0,0-1-1.9,3.11,3.11,0,0,0-2.17-.77c-.77,0-1.65.56-2.88.7a3.11,3.11,0,0,1-1.8-.35c-.5-.26-.88-.55-1.23-.76-.62-.44-1.3-.55-1.55-.34a1.42,1.42,0,0,0-.42.64,3.55,3.55,0,0,0-.22.88,4.62,4.62,0,0,0,.57,2.77c.34.62.65.92.57,1s-.51,0-1.07-.64a4.65,4.65,0,0,1-1.22-3.23,4.31,4.31,0,0,1,.18-1.2,2.52,2.52,0,0,1,.76-1.29,2.19,2.19,0,0,1,1.7-.44,4.16,4.16,0,0,1,1.49.54,10.85,10.85,0,0,0,1.12.65,1.63,1.63,0,0,0,1,.17,28.09,28.09,0,0,1,2.94-.75,4.6,4.6,0,0,1,3.34,1.22,4.2,4.2,0,0,1,1.38,3,4.53,4.53,0,0,1-.88,2.81A4.34,4.34,0,0,1,93,125.53a7.22,7.22,0,0,1-3.37.19C88.86,125.6,88.46,125.45,88.47,125.34Z" stroke="#000" stroke-miterlimit="10" stroke-width="0.5"/>
      <path d="M86.94,105.52c-.45-.06-.59-1.75-.53-3.78s.3-3.71.75-3.75.94,1.67.88,3.8S87.38,105.58,86.94,105.52Z" stroke="#000" stroke-miterlimit="10" stroke-width="0.5"/>
      <path d="M99.25,105.27c-.44.06-1-1.66-1.1-3.86s.42-4,.87-3.92.7,1.76.76,3.87S99.7,105.21,99.25,105.27Z" stroke="#000" stroke-miterlimit="10" stroke-width="0.5"/>
      <path d="M88.83,90.55c-.17.17-.73-.19-1.66-.46a5.53,5.53,0,0,0-3.52.07A5.47,5.47,0,0,0,81,92.5c-.5.83-.67,1.48-.91,1.47s-.47-.73-.16-1.9a5.19,5.19,0,0,1,7.71-3C88.68,89.7,89,90.42,88.83,90.55Z" stroke="#000" stroke-miterlimit="10" stroke-width="0.5"/>
      <path d="M103.26,91c-.22.1-.63-.39-1.37-1a5.49,5.49,0,0,0-6.48-.36c-.8.47-1.26.91-1.46.79s0-.83.73-1.68a5.31,5.31,0,0,1,8,.45C103.4,90.13,103.45,90.87,103.26,91Z" stroke="#000" stroke-miterlimit="10" stroke-width="0.5"/>
      <path d="M68.22,117.24c.08.07-.13.5-.8,1a5.77,5.77,0,0,1-3.4,1.18,6.08,6.08,0,0,1-2.54-.45,6.2,6.2,0,0,1-2.4-1.77,12.32,12.32,0,0,1-1.71-2.64,10.78,10.78,0,0,1-1.11-3.24,6.68,6.68,0,0,1,.42-3.54,7.61,7.61,0,0,1,1.86-2.7,8.51,8.51,0,0,1,4.87-2.23,7.1,7.1,0,0,1,3.54.47c.78.32,1.11.68,1.06.75-.09.26-1.76-.63-4.42-.08a7.94,7.94,0,0,0-4,2.16,5.88,5.88,0,0,0-1.72,4.93,10.05,10.05,0,0,0,.93,2.77,12.49,12.49,0,0,0,1.43,2.39,5.14,5.14,0,0,0,3.8,2,6.18,6.18,0,0,0,3-.57C67.77,117.42,68.14,117.15,68.22,117.24Z" stroke="#000" stroke-miterlimit="10" stroke-width="0.5"/>
      <path d="M57.35,180.85s.25-.16.76-.3l.92-.24c.37-.1.78-.25,1.25-.4a26.44,26.44,0,0,0,7.29-3.77,30.88,30.88,0,0,0,4.18-3.82,30.52,30.52,0,0,0,3.79-5.27,31.51,31.51,0,0,0,4-14.19,45.09,45.09,0,0,0-1.83-14.8,55,55,0,0,0-4.7-11.34,25.91,25.91,0,0,0-5-6.48c-1.46-1.3-2.41-1.85-2.35-2a7,7,0,0,1,2.75,1.48A22.93,22.93,0,0,1,74,126.13a51.35,51.35,0,0,1,5.15,11.5,44.14,44.14,0,0,1,2,15.32,32,32,0,0,1-4.36,14.86,31.38,31.38,0,0,1-4.1,5.43,29.17,29.17,0,0,1-4.51,3.84,23.33,23.33,0,0,1-7.78,3.44c-.5.11-.93.21-1.31.26l-1,.1C57.63,180.91,57.36,180.91,57.35,180.85Z" stroke="#000" stroke-miterlimit="10" stroke-width="0.5"/>
      <path d="M48.85,100.73c.12.22-.9.91-2.22,2.28a16.74,16.74,0,0,0-3.84,6.2,11.49,11.49,0,0,0-.61,3.89,8.38,8.38,0,0,0,.69,3.09c.74,1.7,1.73,2.46,1.58,2.67s-1.43-.29-2.6-2.12a8.09,8.09,0,0,1-1.17-3.55,10.93,10.93,0,0,1,.57-4.49,13.9,13.9,0,0,1,4.61-6.55C47.51,100.9,48.76,100.55,48.85,100.73Z" stroke="#000" stroke-miterlimit="10" stroke-width="0.5"/>
      <path d="M107.78,92.14c-.13-.06.54-1.53,1.32-4.3a26.2,26.2,0,0,0,.88-5.13,17.4,17.4,0,0,0-.8-6.71,17.12,17.12,0,0,0-4.46-6.79,24.67,24.67,0,0,0-8-5,50.35,50.35,0,0,0-10.26-2.68,65,65,0,0,0-11.36-1.1,28.28,28.28,0,0,0-11,2.16,29.09,29.09,0,0,0-8.71,5.75,30.27,30.27,0,0,0-8.57,15.37,35.82,35.82,0,0,0-.59,12.07c.35,2.87.77,4.42.64,4.46s-.21-.36-.46-1.09a28,28,0,0,1-.81-3.27,33.54,33.54,0,0,1,.09-12.41,32.19,32.19,0,0,1,2.78-8.18,30.8,30.8,0,0,1,5.88-8,30,30,0,0,1,9.13-6.15,29.28,29.28,0,0,1,11.58-2.32A64.43,64.43,0,0,1,86.74,60a50.85,50.85,0,0,1,10.54,2.85,25.56,25.56,0,0,1,8.38,5.41,18,18,0,0,1,4.61,7.39,17.76,17.76,0,0,1,.62,7.15A23.89,23.89,0,0,1,109.7,88a25.33,25.33,0,0,1-1.3,3.11A3.39,3.39,0,0,1,107.78,92.14Z" stroke="#000" stroke-miterlimit="10" stroke-width="0.5"/>
      <path d="M79.17,81.93c.21,0,.2,1.56-.29,4a34.71,34.71,0,0,1-3.31,9,27.86,27.86,0,0,1-2.89,4.46,13.58,13.58,0,0,1-3.31,2.92c-2.15,1.32-3.72,1.52-3.78,1.33s1.3-.82,3.12-2.27a15.65,15.65,0,0,0,2.79-2.91,35.91,35.91,0,0,0,2.63-4.3C77.57,87.72,78.7,81.84,79.17,81.93Z" stroke="#000" stroke-miterlimit="10" stroke-width="0.5"/>
      <path d="M105.53,90.78c-.22.12-1.22-1.44-3-3.77A21.81,21.81,0,0,0,94,79.93a12.79,12.79,0,0,0-5.89-1,23.75,23.75,0,0,0-5,1c-2.8.83-4.32,1.86-4.47,1.67s1.22-1.59,4.08-2.75a20,20,0,0,1,5.21-1.44,13.33,13.33,0,0,1,6.65,1,17.68,17.68,0,0,1,5.54,3.73,23.57,23.57,0,0,1,3.35,4.19C105.07,88.92,105.71,90.68,105.53,90.78Z" stroke="#000" stroke-miterlimit="10" stroke-width="0.5"/>
      <path d="M50.41,179.67a6.54,6.54,0,0,1-3.24.29,18.43,18.43,0,0,1-8.36-3A28.28,28.28,0,0,1,34,173.12a31,31,0,0,1-4.48-5.48,34.38,34.38,0,0,1-5.4-15.18,32.14,32.14,0,0,1,2.36-15.94,34.4,34.4,0,0,1,7.39-10.89,30.65,30.65,0,0,1,7.1-5.28,16.63,16.63,0,0,1,2.18-1c.51-.2.79-.27.81-.22s-.2.23-.66.52-1.16.68-2,1.26a36.22,36.22,0,0,0-6.6,5.53,35,35,0,0,0-6.82,10.66,31.69,31.69,0,0,0-2.13,15.2,34.23,34.23,0,0,0,5,14.54A31,31,0,0,0,35,172.16,29,29,0,0,0,39.44,176a19.62,19.62,0,0,0,7.81,3.32C49.25,179.68,50.4,179.52,50.41,179.67Z" stroke="#000" stroke-miterlimit="10" stroke-width="0.5"/>
      <path d="M91.74,140.48a8.94,8.94,0,0,1,2.57-.58,54,54,0,0,0,6.9-1.48,17.77,17.77,0,0,0,8.56-5.29,22.16,22.16,0,0,0,4.91-11.32,47.5,47.5,0,0,0-.1-12.69,37,37,0,0,0-2.61-10,22.72,22.72,0,0,0-3.7-5.89c-.56-.61-1-1.08-1.32-1.39s-.46-.5-.42-.55.24.06.62.3a10.76,10.76,0,0,1,1.57,1.2,19.56,19.56,0,0,1,4.3,5.84,35.11,35.11,0,0,1,3,10.3,45.52,45.52,0,0,1,.22,13.15,22.9,22.9,0,0,1-5.4,12.07,16.87,16.87,0,0,1-4.63,3.61,22,22,0,0,1-4.74,1.79,37.51,37.51,0,0,1-7.14,1A7.82,7.82,0,0,1,91.74,140.48Z" stroke="#000" stroke-miterlimit="10" stroke-width="0.5"/>
      <path d="M90.68,139.88c.14.42-1.37,1.25-3.41,1.18s-3.5-1-3.33-1.39,1.63-.29,3.38-.24S90.56,139.44,90.68,139.88Z" stroke="#000" stroke-miterlimit="10" stroke-width="0.5"/>
    </g>
  </g>
  <g id="CHARACTER1">
    <g id="PRIMARY_footleft-2" data-name="PRIMARY_footleft">
      <path d="M383.12,515.7a34.28,34.28,0,0,1,2,13.4,45.16,45.16,0,0,1-7.81,2.5c-4.61,1-7.22.83-11.11,1.31a47.65,47.65,0,0,0-12.67,3.46,132.82,132.82,0,0,0,14.35,3c2.34.36,5,.7,16,1.65,3.88.34,9.09.77,15.29,1.25l-.47-5.57q-1-11.09-2-22.18a19.13,19.13,0,0,1-13.61,1.17Z"/>
    </g>
    <g id="leg_left-2" data-name="leg left">
      <path d="M391.6,292.18c.32,2.55.8,6.49,1.31,11.31,1.48,13.87,2.1,24.27,2.27,27,1.23,19.89,4.15,50.26,5.91,73.24,1.78,23.24,3.86,58.35,4.81,108.12a64.68,64.68,0,0,1-10.95,3c-4.48.82-7.73,1.42-11.83.84a26.59,26.59,0,0,1-11.74-4.8c-.88-7-2.06-16.64-3.35-28.2-2-17.65-4.21-39.8-6.24-65.54-.94-11.79-1.84-23.28-2.69-38.84-1.21-22.05-1.66-40.6-1.83-54.21Z" fill="#fff"/>
      <path d="M406.65,510.84a11.82,11.82,0,0,1-.22-2.19c-.09-1.44-.2-3.56-.32-6.29-.25-5.47-.62-13.38-1.08-23.15-1-19.54-2.6-46.52-4.82-76.3s-4.41-56.72-5.93-76.23c-.74-9.76-1.32-17.66-1.68-23.12-.18-2.73-.31-4.85-.37-6.29a10.66,10.66,0,0,1,0-2.21,12.2,12.2,0,0,1,.34,2.18c.18,1.43.41,3.54.68,6.27.56,5.44,1.31,13.33,2.2,23.07,1.78,19.49,4.19,46.42,6.4,76.21s3.69,56.8,4.35,76.37c.34,9.78.51,17.7.57,23.18,0,2.74,0,4.86,0,6.3A10.14,10.14,0,0,1,406.65,510.84Z" stroke="#000" stroke-miterlimit="10" stroke-width="0.5"/>
      <path d="M371.37,510.81A7.27,7.27,0,0,1,371,509c-.2-1.16-.47-2.89-.79-5.12-.65-4.45-1.5-10.91-2.48-18.9-2-16-4.33-38.08-6.33-62.56s-3.24-46.69-3.89-62.77c-.33-8-.53-14.55-.61-19.05,0-2.25-.06-4-.06-5.18a8.5,8.5,0,0,1,.09-1.81,7.26,7.26,0,0,1,.24,1.8c.1,1.18.22,2.92.36,5.17.27,4.49.65,11,1.13,19,1,16.06,2.38,38.24,4.37,62.7s4.18,46.57,5.84,62.57c.83,8,1.51,14.47,2,18.94.23,2.24.39,4,.48,5.16A7.62,7.62,0,0,1,371.37,510.81Z" stroke="#000" stroke-miterlimit="10" stroke-width="0.5"/>
      <path d="M405.88,511.87c.08.19-1.76,1.18-4.95,2.24a50.82,50.82,0,0,1-12.9,2.37,34.67,34.67,0,0,1-7.29-.29,17.81,17.81,0,0,1-5.72-1.86,10.36,10.36,0,0,1-3.17-2.56c-.61-.75-.8-1.25-.73-1.31s1.45,1.55,4.41,2.83A19.22,19.22,0,0,0,381,514.7a38.88,38.88,0,0,0,7,.15C398,514.37,405.72,511.4,405.88,511.87Z" stroke="#000" stroke-miterlimit="10" stroke-width="0.5"/>
      <path d="M386.3,532.09c-.46,0-1.16-3.62-2-8.1s-1.58-8.15-1.14-8.28,1.86,3.39,2.74,8S386.74,532.05,386.3,532.09Z" stroke="#000" stroke-miterlimit="10" stroke-width="0.5"/>
      <path d="M397.89,541.81a11.76,11.76,0,0,1-3.15.2c-2,0-5,0-8.58-.23a262.23,262.23,0,0,1-28.16-3l-2-.33-1.51-.26-1.66-.32-1.64-.31-.81-.16-.4-.08-.21,0c-.05,0,0,0,0,0l.1,0,3-1.37c.48-.22,1-.44,1.51-.65l.73-.29.58-.22c.61-.23,1.22-.43,1.82-.63,1.22-.38,2.42-.7,3.61-1a100.13,100.13,0,0,1,12.69-1.53,42.89,42.89,0,0,0,8.33-1.47,22.55,22.55,0,0,1,3-.94,8.1,8.1,0,0,1-2.78,1.53,34.57,34.57,0,0,1-8.41,2c-3.6.53-7.91.75-12.48,1.85-1.14.28-2.3.61-3.47,1-.58.2-1.17.4-1.75.63l-.48.19-.23.09-.42.2a2.79,2.79,0,0,0,.44.09l2.77.46c10.87,1.75,20.79,2.81,28,3.46S397.9,541.57,397.89,541.81Z" stroke="#000" stroke-miterlimit="10" stroke-width="0.5"/>
      <path d="M399.29,540.81c-.45,0-1.38-5.8-2.09-13.06s-.92-13.16-.47-13.2,1.38,5.79,2.09,13.05S399.74,540.76,399.29,540.81Z" stroke="#000" stroke-miterlimit="10" stroke-width="0.5"/>
    </g>
    <g id="PRIMARY_footleft-3" data-name="PRIMARY_footleft">
      <path d="M318.1,510.25c.32,2.65.59,5.43.78,8.33.26,3.94.36,7.68.33,11.19-2.33.31-5.55.81-9.37,1.64a91.84,91.84,0,0,0-10.54,2.91,33.4,33.4,0,0,0-9.18,4.42c-1.78,1.27-3.64,2.6-3.37,3.47s2.64,1.1,11.84.12c12-1.27,21.33-3,23.75-3.51,4.69-.9,8.5-1.71,10.92-2.24-.29-2.45-.54-5-.72-7.63a148.53,148.53,0,0,1-.09-19.18,13.64,13.64,0,0,1-5.88,2.21A14,14,0,0,1,318.1,510.25Z"/>
    </g>
    <g id="leg_right-2" data-name="leg right">
      <path d="M317.77,291.23c-.29,3.22-.84,9.21-1.53,16.7-6.56,71.41-8.72,89.34-10.21,120.28-.73,15.29-1.13,30.42-1.19,32.68-.38,14.28-.53,27.07-.56,38a21.62,21.62,0,0,0,4,5.62,22.48,22.48,0,0,0,11.92,6.19,24.13,24.13,0,0,0,12.25-1,27.34,27.34,0,0,0,12.38-8.43q3.68-47.41,8.22-96,3.1-33.08,6.53-65.52a82.62,82.62,0,0,0,6.66-6.85,81.37,81.37,0,0,0,12.51-19.62c4.6-14.71,1.28-30-8.1-37.53C357.4,265.18,331.1,269.19,317.77,291.23Z" fill="#fff"/>
      <path d="M304.28,498.81a11.13,11.13,0,0,1-.15-2.07c0-1.35-.08-3.35-.11-5.93s-.06-5.73,0-9.39,0-7.82.1-12.43c.1-9.21.38-20.18.83-32.35s1.15-25.55,2.07-39.58,2-27.38,3.19-39.51,2.34-23,3.45-32.18c.53-4.58,1.08-8.71,1.55-12.34s.91-6.75,1.28-9.3.68-4.52.9-5.86a9.65,9.65,0,0,1,.43-2,10.41,10.41,0,0,1-.1,2.07c-.12,1.35-.32,3.34-.6,5.9-.54,5.13-1.33,12.53-2.31,21.69s-2,20.06-3.1,32.19-2.12,25.46-3.06,39.47-1.63,27.38-2.2,39.54-.93,23.11-1.18,32.32-.44,16.65-.58,21.8c-.06,2.57-.13,4.57-.19,5.92A9.33,9.33,0,0,1,304.28,498.81Z" stroke="#000" stroke-miterlimit="10" stroke-width="0.5"/>
      <path d="M344.81,501.35c.15.08-1.09,2.51-4.42,5.25a24.12,24.12,0,0,1-6.51,3.78,23.75,23.75,0,0,1-18.14-.22,24.1,24.1,0,0,1-6.41-4c-3.26-2.82-4.43-5.27-4.29-5.35s1.72,2,5,4.45a26.3,26.3,0,0,0,6.26,3.45,23.86,23.86,0,0,0,17.05.21,26.12,26.12,0,0,0,6.33-3.29C343,503.3,344.59,501.17,344.81,501.35Z" stroke="#000" stroke-miterlimit="10" stroke-width="0.5"/>
      <path d="M359.59,339.82c-.34-.3,2.11-3.61,5.47-7.4s6.35-6.61,6.69-6.31-2.12,3.61-5.47,7.4S359.92,340.12,359.59,339.82Z" stroke="#000" stroke-miterlimit="10" stroke-width="0.5"/>
      <path d="M345.1,498.34a5.38,5.38,0,0,1,0-1.58c0-1,.12-2.55.25-4.51.25-3.91.66-9.56,1.21-16.55,1.1-14,2.72-33.25,4.62-54.55s3.71-40.56,5.1-54.51c.69-7,1.28-12.6,1.73-16.5.22-1.94.4-3.45.55-4.48a5.56,5.56,0,0,1,.3-1.55,5.74,5.74,0,0,1,0,1.59c0,1-.12,2.55-.24,4.5-.25,3.91-.67,9.57-1.22,16.55-1.09,14-2.72,33.26-4.62,54.55s-3.7,40.56-5.09,54.5c-.69,7-1.28,12.61-1.73,16.5-.22,1.95-.41,3.46-.55,4.48A6.7,6.7,0,0,1,345.1,498.34Z" stroke="#000" stroke-miterlimit="10" stroke-width="0.5"/>
      <path d="M319.21,529.76c-.46,0-.82-4.17-1-9.29s-.24-9.31.22-9.35,1.18,4.1,1.41,9.27S319.66,529.76,319.21,529.76Z" stroke="#000" stroke-miterlimit="10" stroke-width="0.5"/>
      <path d="M333.22,536.59a11.94,11.94,0,0,1-3.09,1c-2,.53-5,1.22-8.62,2a264,264,0,0,1-28.88,4.19l-2.12.18-1.06.08a5.06,5.06,0,0,1-1.23-.07,4.25,4.25,0,0,1-1.22-.4,2.08,2.08,0,0,1-1.07-1.23,1.93,1.93,0,0,1,.34-1.66,4.17,4.17,0,0,1,.91-.83,37.83,37.83,0,0,1,6.74-4.06,59.7,59.7,0,0,1,12.54-4.16c3.66-.82,6.65-1.27,8.72-1.56a12.14,12.14,0,0,1,3.24-.26,13.12,13.12,0,0,1-3.13.88c-2,.48-5,1.11-8.56,2.06a64.3,64.3,0,0,0-12.15,4.39,38,38,0,0,0-6.43,4,2.72,2.72,0,0,0-.59.52.46.46,0,0,0-.08.16c0,.05,0,.08,0,.1s.47.41,1,.47a3.47,3.47,0,0,0,.85,0l1-.08,2.1-.19c11.3-1,21.48-2.49,28.82-3.69L330,537A13.08,13.08,0,0,1,333.22,536.59Z" stroke="#000" stroke-miterlimit="10" stroke-width="0.5"/>
      <ellipse cx="332.51" cy="522.17" rx="0.82" ry="12.38" transform="translate(-2.35 1.5) rotate(-0.26)" stroke="#000" stroke-miterlimit="10" stroke-width="0.5"/>
    </g>
    <g id="arm_right-2" data-name="arm right">
      <path d="M394.34,158.93A33.15,33.15,0,0,1,400.4,164c4.17,4.46,6,8.91,7.53,12.64,1,2.47,6.73,15.47,8,19.15,3.9,11.66,9.57,27.75,16.75,48.13-2.94,6.68-6.46,13.86-10.69,21.36a242.18,242.18,0,0,1-15.67,24.23,30,30,0,0,1,3.9,6.24A30.81,30.81,0,0,1,412.85,311a8.48,8.48,0,0,1-3.73,6.49,7.47,7.47,0,0,1-8.4-.17,7.58,7.58,0,0,1-2.61-6,19.29,19.29,0,0,0-.41-6.46c-1-4.1-2.81-5.3-4.73-10.42a27.15,27.15,0,0,1-1.82-7,22.9,22.9,0,0,1,1.78-11.18q1.24-3.5,2.52-7,4.71-13,9.55-25.55c-3.75-8.33-8.08-17.16-13.1-26.33s-10-17.45-15-25a40.5,40.5,0,0,1,7.3-23.59A38.81,38.81,0,0,1,394.34,158.93Z" fill="#fff"/>
      <path d="M429.47,235.82c-.25.07-1.5-4.56-4-11.9s-6.14-17.37-10.59-28.32c-2.24-5.47-4.37-10.69-6.3-15.43a78,78,0,0,0-5.92-12.12,31.61,31.61,0,0,0-5.75-6.94,24.17,24.17,0,0,1-2.57-2.16,9.18,9.18,0,0,1,3,1.67,28,28,0,0,1,6.33,6.8A70.54,70.54,0,0,1,410,179.59c2,4.72,4.21,9.9,6.43,15.4a299.64,299.64,0,0,1,10.18,28.59c1.1,3.72,1.85,6.78,2.32,8.9A13.63,13.63,0,0,1,429.47,235.82Z" stroke="#000" stroke-miterlimit="10" stroke-width="0.5"/>
      <path d="M405.46,244.06c-.43.19-4.78-9-10.75-20s-11.25-19.7-10.85-20c.18-.12,1.75,1.9,4,5.34s5.26,8.31,8.26,13.85,5.43,10.7,7.05,14.49S405.66,244,405.46,244.06Z" stroke="#000" stroke-miterlimit="10" stroke-width="0.5"/>
      <path d="M393.2,276.92c-.41-.12,1.83-9.07,5.82-19.72s8.15-18.89,8.54-18.7-3.07,8.68-7,19.27S393.65,277.05,393.2,276.92Z" stroke="#000" stroke-miterlimit="10" stroke-width="0.5"/>
      <path d="M406.28,289.54c-.25,0-.54-1-1.25-2.62a18.83,18.83,0,0,0-1.45-2.63,20,20,0,0,0-2.32-2.83,20.47,20.47,0,0,0-2.84-2.3,19.13,19.13,0,0,0-2.65-1.43c-1.58-.7-2.65-1-2.62-1.23s1.18-.32,3,.14a12.65,12.65,0,0,1,3,1.24,14.81,14.81,0,0,1,5.67,5.62,13.21,13.21,0,0,1,1.26,3C406.59,288.35,406.47,289.52,406.28,289.54Z" stroke="#000" stroke-miterlimit="10" stroke-width="0.5"/>
      <path d="M407.31,289c-.19-.13,1.37-2.71,3.9-6.87s6-9.91,9.6-16.38,6.69-12.44,8.9-16.78,3.59-7,3.81-6.92-.81,2.94-2.76,7.42-4.9,10.56-8.53,17.07S415,278.7,412.17,282.71,407.49,289.07,407.31,289Z" stroke="#000" stroke-miterlimit="10" stroke-width="0.5"/>
      <path d="M411.55,312.35c-.24.08-.93-1.62-2.17-4.24a20.88,20.88,0,0,0-2.63-4.22,12.1,12.1,0,0,0-2.07-2c-.79-.59-1.75-1.13-2.7-1.84a10.1,10.1,0,0,1-3.71-5.59,14.1,14.1,0,0,1-.34-5.37c.41-3,1.2-4.69,1.38-4.64s-.13,1.86-.23,4.72a15.06,15.06,0,0,0,.63,4.87,9.15,9.15,0,0,0,3.24,4.7c.85.64,1.8,1.19,2.69,1.87a12.7,12.7,0,0,1,2.28,2.3,18.22,18.22,0,0,1,2.52,4.71C411.44,310.48,411.74,312.28,411.55,312.35Z" stroke="#000" stroke-miterlimit="10" stroke-width="0.5"/>
      <path d="M412.62,313.23c-.48-.07.12-5.05-1.18-11S407.62,292,408,291.78c.18-.11,1.07.82,2.12,2.6A26.38,26.38,0,0,1,413.49,310C413.26,312.05,412.83,313.26,412.62,313.23Z" stroke="#000" stroke-miterlimit="10" stroke-width="0.5"/>
      <path d="M398.11,311.3c-.25-.07.52-2-.2-5a19.44,19.44,0,0,0-2.08-5c-1-1.82-2.32-3.77-3.41-6.06a21.79,21.79,0,0,1-1.93-6.87,21.31,21.31,0,0,1,.17-5.8c.57-3.27,1.64-5,1.8-5s-.41,2-.66,5.12a23.53,23.53,0,0,0,2.09,11.83c1,2.15,2.29,4.12,3.27,6.06a17.57,17.57,0,0,1,1.88,5.51,9.06,9.06,0,0,1-.23,4C398.52,310.92,398.2,311.34,398.11,311.3Z" stroke="#000" stroke-miterlimit="10" stroke-width="0.5"/>
      <path d="M400.72,317.35c-.45-.1.13-3.67.44-8a14.3,14.3,0,0,0-.5-5.31c-.42-1.28-1-2-.84-2.16s1.07.28,1.89,1.68a10.57,10.57,0,0,1,1.07,5.88C402.45,314,401.14,317.46,400.72,317.35Z" stroke="#000" stroke-miterlimit="10" stroke-width="0.5"/>
      <path d="M402.26,318c-.42-.23,1-3.23,1.3-7.2s-.61-7.15-.16-7.32c.19-.07.71.65,1.16,2a14.45,14.45,0,0,1-.84,10.75C403.07,317.43,402.45,318.06,402.26,318Z" stroke="#000" stroke-miterlimit="10" stroke-width="0.5"/>
      <path d="M405.49,318.31c-.41-.24,1.13-3.23,1.37-7.21s-.8-7.15-.36-7.34c.19-.08.75.62,1.25,2a13.85,13.85,0,0,1-.75,10.83C406.32,317.8,405.67,318.42,405.49,318.31Z" stroke="#000" stroke-miterlimit="10" stroke-width="0.5"/>
      <path d="M408.26,319.54c-.41-.23.27-2.17.73-4.6s.6-4.48,1.06-4.53,1.08,2.14.54,4.84S408.63,319.76,408.26,319.54Z" stroke="#000" stroke-miterlimit="10" stroke-width="0.5"/>
    </g>
    <g id="torso-2" data-name="torso">
      <path d="M312.86,159.57a111.15,111.15,0,0,0,1.24,31.76c-.32,5.8-.66,12.79-1,20.71-.21,5.7-.55,16.26-.68,29.18-.13,13.13-.05,29.81.61,49.44a33.32,33.32,0,0,0,4.71,5.07c6.58,5.77,13.69,7.4,20.72,8.92A83.35,83.35,0,0,0,361,306.31c9.65-.57,19.52-1.15,28.58-7.92a35.89,35.89,0,0,0,7.29-7.29c-.35-5.18-.79-13.25-.8-23.16,0-8.35.29-15.06,1.94-39.4,2-29.45,2.5-33.33,1.76-41.84a134.22,134.22,0,0,0-5.43-27.77,89.62,89.62,0,0,0-25.72-7.35c-13.76-1.75-24.63.19-33.36,1.81A135.83,135.83,0,0,0,312.86,159.57Z" fill="#fff"/>
      <path d="M393.7,158.66c-.12.27-4.29-1.83-11.49-3.78a93.59,93.59,0,0,0-28.81-3,144.62,144.62,0,0,0-28.74,4.6c-7.25,1.86-11.68,3.28-11.76,3a11.9,11.9,0,0,1,3-1.33c2-.75,4.84-1.75,8.45-2.82a123.35,123.35,0,0,1,29-5.12,85,85,0,0,1,29.21,3.48,60.9,60.9,0,0,1,8.33,3.25A11.7,11.7,0,0,1,393.7,158.66Z" stroke="#000" stroke-miterlimit="10" stroke-width="0.5"/>
      <path d="M395.94,283.49a17.94,17.94,0,0,1-.3-4c-.09-2.59-.14-6.32-.15-10.94,0-9.23.18-22,.76-36.07s1.45-26.81,2.23-36c.39-4.6.76-8.32,1.06-10.89a19,19,0,0,1,.62-4,18.39,18.39,0,0,1,0,4c-.13,2.58-.31,6.31-.54,10.92-.49,9.21-1.16,21.94-1.75,36s-1,26.8-1.24,36c-.15,4.61-.28,8.34-.37,10.92A19.71,19.71,0,0,1,395.94,283.49Z" stroke="#000" stroke-miterlimit="10" stroke-width="0.5"/>
      <path d="M313.08,290.6a19.29,19.29,0,0,1-.44-4c-.19-2.58-.38-6.31-.55-10.92-.35-9.22-.57-22-.41-36.06s.68-26.84,1.24-36c.28-4.61.55-8.33.79-10.9a19.39,19.39,0,0,1,.54-4,19.5,19.5,0,0,1,.1,4c-.07,2.58-.16,6.31-.28,10.92-.26,9.22-.6,22-.76,36s-.12,26.8-.07,36c0,4.61,0,8.34,0,10.92A19.55,19.55,0,0,1,313.08,290.6Z" stroke="#000" stroke-miterlimit="10" stroke-width="0.5"/>
      <path d="M395.1,292.71s-.1.31-.42.82l-.61.92c-.24.36-.59.73-.95,1.17a26.22,26.22,0,0,1-7.57,5.94A45.94,45.94,0,0,1,372,306a92.94,92.94,0,0,1-17.36,1.19,80.82,80.82,0,0,1-17.3-2.05A54.06,54.06,0,0,1,324,300.22a43,43,0,0,1-7.9-5.45,13.57,13.57,0,0,1-2.41-2.57,15.27,15.27,0,0,1,2.81,2.08,54,54,0,0,0,8,4.92c7.1,3.58,18,6.23,30.17,6.36a99.34,99.34,0,0,0,17.08-1,48,48,0,0,0,13.28-4,29.2,29.2,0,0,0,7.64-5.35c.38-.4.76-.72,1-1.05l.72-.81C394.82,292.89,395.05,292.68,395.1,292.71Z" stroke="#000" stroke-miterlimit="10" stroke-width="0.5"/>
    </g>
    <g id="arm_left-2" data-name="arm left">
      <path d="M315.68,158.21c-2.33,1.3-4.66,2.62-7,4-13,7.53-25.18,15.35-36.57,23.31q-7.85-8-15.72-16.24-8.77-9.13-17.33-18.21l-2.24,1.69a92.37,92.37,0,0,0-5.1-8.67c-5.48-8.26-7.34-8.25-7.94-8.17s-2.23.55-3.73,4.42l2.62-11.65a6.36,6.36,0,0,0-4.68-1.81,6.18,6.18,0,0,0-3.55,1.41q-.88,3.19-1.79,6.38l-2.81,1.21a9,9,0,0,0-4.61,4.42c-.72,1.67-.28,2.53-1,7.19-.34,2.27-.49,2.38-.69,4a28.26,28.26,0,0,0,0,6.77,21.56,21.56,0,0,0,5.38,6.43,12.11,12.11,0,0,0,4.57,2.56c2.23.59,3.77.14,5.7,0a21.74,21.74,0,0,1,9.3,1.31q.34,3,.68,5.93c1.18,1.45,2.87,3.5,5,5.88,1.26,1.43,3.73,4.18,10.54,11,2.3,2.29,6.56,6.5,12.2,11.84,11.21,10.61,8.23,7.09,10.64,9.66A23.12,23.12,0,0,0,274.2,218a21.14,21.14,0,0,0,4.68,1.71c1.7-.7,4-1.68,6.73-2.89,0,0,8.65-3.84,16.24-7.78,20.33-10.53,30.76-15.94,32.94-25.86,1.75-7.94-2.67-14.76-3.19-15.54C326.29,159.72,317.23,158.41,315.68,158.21Z" fill="#fff"/>
      <path d="M315.65,158.22c.11.21-2.35,1.79-6.36,4.28s-9.56,5.92-15.63,9.79-11.5,7.47-15.45,10.06-6.42,4.16-6.55,4,2.1-2.08,5.89-4.92,9.15-6.6,15.24-10.49,11.75-7.17,15.92-9.42S315.55,158,315.65,158.22Z" stroke="#000" stroke-miterlimit="10" stroke-width="0.5"/>
      <path d="M327.49,194.32c.11.18-2.35,2-6.53,4.73s-10.1,6.23-16.83,9.75-13,6.37-17.61,8.26-7.53,2.86-7.61,2.66,2.67-1.56,7.14-3.71,10.62-5.15,17.32-8.65,12.67-6.85,17-9.3S327.36,194.12,327.49,194.32Z" stroke="#000" stroke-miterlimit="10" stroke-width="0.5"/>
      <path d="M272.09,185.48c-.16.16-2.19-1.66-5.34-4.73s-7.44-7.39-12.09-12.23-8.82-9.28-11.74-12.57-4.65-5.4-4.49-5.56,2.19,1.68,5.33,4.77,7.42,7.39,12.07,12.23,8.8,9.28,11.74,12.56S272.25,185.33,272.09,185.48Z" stroke="#000" stroke-miterlimit="10" stroke-width="0.5"/>
      <path d="M229.57,173.37c-.19,0-.81-1.27-1.06-3.6a17.66,17.66,0,0,1,.05-4.09,20,20,0,0,1,3.75-9.24,17.8,17.8,0,0,1,2.82-3c1.8-1.49,3.17-2,3.26-1.84s-1,1.07-2.47,2.68a24,24,0,0,0-2.38,3,25.8,25.8,0,0,0-2.18,4.13,25.08,25.08,0,0,0-1.31,4.48,23.76,23.76,0,0,0-.39,3.82C229.61,171.92,229.82,173.31,229.57,173.37Z" stroke="#000" stroke-miterlimit="10" stroke-width="0.5"/>
      <path d="M278.64,219.61a4.47,4.47,0,0,1-2.56-.33,19.07,19.07,0,0,1-6-3.58c-4.53-3.71-10.59-9-17-15.17s-12-12-15.94-16.3-6.17-7.15-6-7.29,2.73,2.38,6.85,6.5,9.8,9.79,16.22,15.92,12.35,11.56,16.65,15.46a22.39,22.39,0,0,0,5.51,3.87C277.76,219.35,278.66,219.48,278.64,219.61Z" stroke="#000" stroke-miterlimit="10" stroke-width="0.5"/>
      <path d="M220.75,140.05c-.19,0-.18-1.61,1-3.85a3.47,3.47,0,0,1,.69-.86,2.21,2.21,0,0,1,1.26-.58,2.51,2.51,0,0,1,1.44.32,4.86,4.86,0,0,1,1.07.81c1.16,1.23,2.21,2.52,3.36,4,4.51,5.78,7.17,11.11,6.79,11.32s-3.65-4.64-8.08-10.32c-1.09-1.39-2.2-2.81-3.14-3.92a2.06,2.06,0,0,0-1.34-.83,1.5,1.5,0,0,0-1.09.74C221.43,138.67,221,140.12,220.75,140.05Z" stroke="#000" stroke-miterlimit="10" stroke-width="0.5"/>
      <path d="M209.69,145.92c-.43-.12.28-4.28,1.6-9.31s2.74-9,3.18-8.9-.28,4.28-1.6,9.31S210.13,146,209.69,145.92Z" stroke="#000" stroke-miterlimit="10" stroke-width="0.5"/>
      <path d="M222.56,130.18c-.24,0-.42-.59-.93-1.32A4.63,4.63,0,0,0,219,127a4.58,4.58,0,0,0-3.17.53c-.78.42-1.21.88-1.42.77s-.1-.84.71-1.68a4.62,4.62,0,0,1,4.25-1.2,4.57,4.57,0,0,1,3.26,3C223,129.48,222.76,130.19,222.56,130.18Z" stroke="#000" stroke-miterlimit="10" stroke-width="0.5"/>
      <path d="M219.44,144.05c-.44-.06-.31-3.63.59-7.9s2.21-7.59,2.63-7.47-.16,3.58-1,7.8S219.89,144.11,219.44,144.05Z" stroke="#000" stroke-miterlimit="10" stroke-width="0.5"/>
      <path d="M218.58,145.94c-.22-.08-.13-.75-.62-1.52a2.86,2.86,0,0,0-1.09-1,3.4,3.4,0,0,0-1.8-.32,7.72,7.72,0,0,0-3.51,1.43c-.89.57-1.51.93-1.67.77s.16-.79.93-1.65a7.31,7.31,0,0,1,1.58-1.33,5.84,5.84,0,0,1,2.54-.85,4.27,4.27,0,0,1,2.73.68A3.45,3.45,0,0,1,219,144a2.41,2.41,0,0,1,0,1.53C218.86,145.85,218.68,146,218.58,145.94Z" stroke="#000" stroke-miterlimit="10" stroke-width="0.5"/>
      <path d="M218.91,145c.18-.06.66.85.23,2.33a5,5,0,0,1-1.4,2.22,5.13,5.13,0,0,1-3,1.38,5.39,5.39,0,0,1-3.18-.72,5.55,5.55,0,0,1-1.9-1.77c-.81-1.25-.75-2.21-.56-2.24s.58.68,1.45,1.52a5.36,5.36,0,0,0,4,1.59,4.75,4.75,0,0,0,3.48-2.42C218.66,145.84,218.66,145,218.91,145Z" stroke="#000" stroke-miterlimit="10" stroke-width="0.5"/>
      <path d="M208.66,149.94c-.16.12-.91-.53-1.59-1.95a9.84,9.84,0,0,1-.81-2.63,12.66,12.66,0,0,1,0-3.38,12.8,12.8,0,0,1,.95-3.24,10.57,10.57,0,0,1,1.49-2.32c1-1.18,1.94-1.6,2.06-1.45s-.42.9-1.12,2.12a15.5,15.5,0,0,0-1,2.22,15.86,15.86,0,0,0-.72,2.89,15.14,15.14,0,0,0-.09,3,15.84,15.84,0,0,0,.4,2.42C208.5,149,208.87,149.81,208.66,149.94Z" stroke="#000" stroke-miterlimit="10" stroke-width="0.5"/>
      <path d="M208.68,155c-.16.14-1-.47-2.11-1.76a14,14,0,0,1-2.94-6,10.09,10.09,0,0,1,.81-6.68c.83-1.56,1.79-2.16,1.93-2s-.4,1-.87,2.47a11.85,11.85,0,0,0-.28,5.9,19.86,19.86,0,0,0,2.3,5.64C208.32,154,208.86,154.86,208.68,155Z" stroke="#000" stroke-miterlimit="10" stroke-width="0.5"/>
      <path d="M209.34,160.72c-.15.15-.92-.28-2-1.18a14.26,14.26,0,0,1-3.51-4.35,8.61,8.61,0,0,1-.81-5.67c.35-1.47,1.06-2.15,1.22-2s-.06.92-.08,2.2a10.39,10.39,0,0,0,1.13,4.78,26.09,26.09,0,0,0,2.89,4.28C209,159.82,209.5,160.55,209.34,160.72Z" stroke="#000" stroke-miterlimit="10" stroke-width="0.5"/>
      <path d="M228.51,168.47c-.13.23-1.74-.75-4.56-1a12.47,12.47,0,0,0-2.28,0A21.94,21.94,0,0,0,219,168a13.32,13.32,0,0,1-3.22.4,10.83,10.83,0,0,1-3.46-.7,16.6,16.6,0,0,1-5.54-3.62,14.72,14.72,0,0,1-3.28-4.28,5.5,5.5,0,0,1-.4-3.7c.25-.86.63-1.21.71-1.16s-.06.49-.09,1.26a5.72,5.72,0,0,0,.81,3.08,15.73,15.73,0,0,0,3.27,3.69,16.54,16.54,0,0,0,5.09,3.21,9.79,9.79,0,0,0,2.95.62,12.6,12.6,0,0,0,2.86-.27,18.85,18.85,0,0,1,2.83-.39,11.31,11.31,0,0,1,2.54.19,10.09,10.09,0,0,1,3.4,1.27C228.24,168,228.56,168.38,228.51,168.47Z" stroke="#000" stroke-miterlimit="10" stroke-width="0.5"/>
    </g>
    <g id="PRIMARY_hair1">
      <path d="M324.86,92.15c-3-1.42-4.87-.77-8.28-3.25-6.13-4.47-7.5-12-7.85-13.89a26.62,26.62,0,0,1,2.66-16.78c1.23-2.46,4.87-9.72,13.27-12.82a20.75,20.75,0,0,1,13.86-.47c6.24,2.14,9.53,7.07,12.24,11.14,3.91,5.86,2.33,6.84,7.37,15.36,3.21,5.42,6.63,10.08,6.63,10.08,2.39,3.25,3.88,4.92,5.74,8.39a26.3,26.3,0,0,1,2.9,7.16,21.93,21.93,0,0,1-.08,9.42,8.53,8.53,0,0,1,4.39,2.65c.84,1,2.18,3.1,1.7,9.61-.19,2.59-.54,4.12-2,10.42-2.57,10.82-2.73,11.38-2.49,13,.41,2.68,1.4,4.46.8,7.63a10.3,10.3,0,0,1-1.83,4.45c-2.77,3.57-8,3.61-10.71,3.63-1.61,0-9.81.07-15.2-5.71-3.48-3.73-4.23-8.22-4.63-10.5C339.3,118.41,335.62,97.23,324.86,92.15Z"/>
    </g>
    <g id="head-2" data-name="head">
      <path d="M328.84,86.51c-1.86.68-2.38,1.74-6.16,6.78-2.9,3.87-5.41,8-8.59,11.69-1.48,1.69-3.29,3.58-2.75,5.26.14.46.44.83,2.17,2.23,1.43,1.17,2.68,2.09,3.59,2.74.12,3.36.06,6.08,0,7.89-.23,5.88-.87,9.53.4,14.4a8.42,8.42,0,0,0,2,4.05c1.48,1.5,3.31,1.95,5.48,2.44,3.32.76,4.34.18,6.93,1a10.26,10.26,0,0,1,4.32,2.31A9.45,9.45,0,0,1,339,152.7l8.45-1.16a20.67,20.67,0,0,1-3.74-7.94,23.28,23.28,0,0,1,.28-10.44,30.44,30.44,0,0,1,1.93-6,8.6,8.6,0,0,0,5.14-1.19c3.13-1.93,3.79-5.38,4.06-6.79s.92-4.83-1.22-7.59c-.41-.54-2.11-2.74-4.75-2.68a6.25,6.25,0,0,0-5.44,4.6l-8.57-2.3-1.88-1.46c.44-3.64,1-7.5,1.82-11.55.71-3.68,1.51-7.15,2.36-10.41C335.41,86.7,332,85.33,328.84,86.51Z" fill="#fff"/>
      <path d="M317.71,116.06c-.14.17-1.85-1-4.49-3.07l-1-.82a6.64,6.64,0,0,1-1.17-1.06,2,2,0,0,1-.41-1,2.46,2.46,0,0,1,.15-1.07,8.91,8.91,0,0,1,.83-1.55c1.14-1.9,2.47-4,3.94-6.06,5.87-8.44,11.88-14.27,12.18-14s-5,6.57-10.85,14.9c-1.45,2.08-2.8,4.09-4,5.93a8.94,8.94,0,0,0-.76,1.26.74.74,0,0,0,0,.79,5.73,5.73,0,0,0,.89.9l1,.89C316.42,114.39,317.86,115.89,317.71,116.06Z" stroke="#000" stroke-miterlimit="10" stroke-width="0.5"/>
      <path d="M338.41,150.72c-.11.06-.51-.51-1.2-1.53a8.77,8.77,0,0,0-1.37-1.67,7.31,7.31,0,0,0-2.36-1.43,15.59,15.59,0,0,0-3.38-.77c-1.27-.16-2.65-.25-4.14-.42a15.65,15.65,0,0,1-4.67-1.18,7.77,7.77,0,0,1-3.84-3.77,13.79,13.79,0,0,1-1.11-5.09c-.08-1.65,0-3.19,0-4.65.05-2.94.11-5.58.19-7.79.15-4.44.36-7.18.58-7.18s.43,2.74.57,7.18c.07,2.22.12,4.86.16,7.79,0,1.47,0,3,.11,4.55a12.28,12.28,0,0,0,1,4.49,6.22,6.22,0,0,0,3,3,15,15,0,0,0,4.19,1.13c1.43.21,2.82.35,4.14.58a15,15,0,0,1,3.62,1,8,8,0,0,1,2.58,1.87,8.38,8.38,0,0,1,1.27,2C338.29,150,338.5,150.67,338.41,150.72Z" stroke="#000" stroke-miterlimit="10" stroke-width="0.5"/>
      <path d="M344.4,126.69c0-.12.52-.17,1.43-.23a14.75,14.75,0,0,0,3.67-.53,6.08,6.08,0,0,0,2.09-1.17,7.08,7.08,0,0,0,1.64-2.2,14.92,14.92,0,0,0,1.28-6.45,7.26,7.26,0,0,0-.67-3.16,5.07,5.07,0,0,0-2-2.11,5.19,5.19,0,0,0-4.85-.34,6.23,6.23,0,0,0-2.68,2.3c-.48.73-.65,1.21-.77,1.18s-.14-.56.2-1.47a6.17,6.17,0,0,1,2.73-3,6,6,0,0,1,2.84-.77,6.65,6.65,0,0,1,3.28.84,6.48,6.48,0,0,1,2.66,2.68,8.54,8.54,0,0,1,.88,3.87,15.26,15.26,0,0,1-1.57,7.16,8.26,8.26,0,0,1-2.13,2.56A6.78,6.78,0,0,1,349.8,127a11,11,0,0,1-4,.06C344.88,127,344.39,126.8,344.4,126.69Z" stroke="#000" stroke-miterlimit="10" stroke-width="0.5"/>
      <path d="M343.21,112.72c0,.19-1.79.55-4.69.07a18.57,18.57,0,0,1-2.34-.55q-.62-.19-1.26-.45a4.31,4.31,0,0,1-1.43-.79,2.56,2.56,0,0,1-.77-1.84,12.74,12.74,0,0,1,.12-1.6c.1-1,.23-2.09.38-3.17,1.18-8.67,3.42-15.42,3.84-15.3s-1.06,7-2.23,15.53c-.14,1.06-.27,2.11-.41,3.12-.05.5-.14,1-.14,1.39a1,1,0,0,0,.25.78,3.1,3.1,0,0,0,.94.56c.39.18.78.34,1.16.49.75.29,1.47.52,2.14.71C341.44,112.4,343.21,112.46,343.21,112.72Z" stroke="#000" stroke-miterlimit="10" stroke-width="0.5"/>
      <path d="M373.34,106.41a7.92,7.92,0,0,1,.2-1.48,16.54,16.54,0,0,0,.11-4.22A23,23,0,0,0,372,94.25a37.78,37.78,0,0,0-4.34-7.71c-1.89-2.71-4.21-5.53-6.5-8.75a49.15,49.15,0,0,1-3.27-5.21c-1-1.85-1.95-3.81-2.87-5.82a94.63,94.63,0,0,0-6.17-12.22,25.77,25.77,0,0,0-4.59-5.37c-.47-.36-.91-.76-1.4-1.1l-1.51-1a18.38,18.38,0,0,0-3.31-1.43,20.55,20.55,0,0,0-14,.82A23,23,0,0,0,314.06,55a29.79,29.79,0,0,0-4.48,11.26,28.29,28.29,0,0,0,.06,10.6,20.33,20.33,0,0,0,3.45,8,18.23,18.23,0,0,0,4.8,4.54,24,24,0,0,0,5.23,2.28,4,4,0,0,1-1.51-.16,14.51,14.51,0,0,1-4.05-1.58,18.07,18.07,0,0,1-5.2-4.53,20.9,20.9,0,0,1-3.85-8.29A29.12,29.12,0,0,1,308.25,66a30.51,30.51,0,0,1,4.56-11.87A24.32,24.32,0,0,1,323.5,45a22,22,0,0,1,15.07-.9,18.87,18.87,0,0,1,3.63,1.57l1.64,1.06c.53.38,1,.81,1.52,1.21a26.5,26.5,0,0,1,4.86,5.72,92.68,92.68,0,0,1,6.21,12.47A62.09,62.09,0,0,0,362.31,77c2.2,3.19,4.48,6.07,6.34,8.87a37.17,37.17,0,0,1,4.24,8,22.4,22.4,0,0,1,1.4,6.74,14.33,14.33,0,0,1-.43,4.32A4,4,0,0,1,373.34,106.41Z" stroke="#000" stroke-miterlimit="10" stroke-width="0.5"/>
      <path d="M375.43,149c-.13.07-1.23-2.48-1.11-6.82a40.62,40.62,0,0,1,.93-7.46c.57-2.77,1.37-5.74,2.1-8.86a53.1,53.1,0,0,0,1.43-8.81,13.49,13.49,0,0,0-1.09-6.89,7.57,7.57,0,0,0-3.23-3.32c-1-.51-1.67-.59-1.65-.72s.69-.24,1.89.13a7.54,7.54,0,0,1,4,3.34,13.89,13.89,0,0,1,1.58,7.52,45.64,45.64,0,0,1-1.35,9.12c-.74,3.17-1.58,6.11-2.21,8.81a48.2,48.2,0,0,0-1.24,7.2C375.06,146.38,375.73,148.94,375.43,149Z" stroke="#000" stroke-miterlimit="10" stroke-width="0.5"/>
      <path d="M375.69,149.78c.08,0,.29.88-.22,2.4a9.2,9.2,0,0,1-4.36,4.92c-2.52,1.43-6,1.79-9.65,1.31a48.37,48.37,0,0,1-5.6-1.09,19.93,19.93,0,0,1-5.77-2.38,15.17,15.17,0,0,1-4.47-4.45,18.61,18.61,0,0,1-2.38-5.32,22.25,22.25,0,0,1-.31-9.7,29.66,29.66,0,0,1,1.82-6.22c.6-1.4,1-2.13,1.13-2.09a8,8,0,0,1-.53,2.3,42.39,42.39,0,0,0-1.28,6.18,22.41,22.41,0,0,0,.62,9.12,15.57,15.57,0,0,0,6.28,8.81,19.34,19.34,0,0,0,5.3,2.21,50.55,50.55,0,0,0,5.39,1.14,15.28,15.28,0,0,0,8.92-.85,9.22,9.22,0,0,0,4.31-4.13C375.53,150.63,375.55,149.77,375.69,149.78Z" stroke="#000" stroke-miterlimit="10" stroke-width="0.5"/>
      <path d="M325.75,104.2c-.44-.06-.51-2.14.24-4.55s2-4.08,2.37-3.88-.11,2.09-.81,4.37S326.2,104.27,325.75,104.2Z" stroke="#000" stroke-miterlimit="10" stroke-width="0.5"/>
      <path d="M326.51,118.16c.2,0,.31.72-.08,1.74a6.25,6.25,0,0,1-6.91,3.59c-1-.26-1.55-.75-1.46-.93s.7-.16,1.57-.22a8.15,8.15,0,0,0,3.22-.88,8.44,8.44,0,0,0,2.58-2.13C326,118.64,326.27,118.11,326.51,118.16Z" stroke="#000" stroke-miterlimit="10" stroke-width="0.5"/>
    </g>
  </g>
</svg>
