<svg xmlns="http://www.w3.org/2000/svg" viewBox="0 0 539.01 563.03">
  <title>Admin</title>
  <g id="Layer_Lines">
    <path d="M285.18,416.83a3,3,0,0,1-.8,0l-2.35-.11c-2.06-.12-5.1-.3-9-.46-7.83-.34-19.17-.64-33.16-.08-7,.29-14.65.79-22.84,1.61s-16.9,2-26,3.51-18.73,3.17-28.71,4.72-20.37,2.95-31.09,3.59c-5.36.33-10.67.45-15.9.34s-10.39-.49-15.42-1.1a121.2,121.2,0,0,1-14.7-2.67,102.65,102.65,0,0,1-13.66-4.31A87.85,87.85,0,0,1,59.2,416a102.74,102.74,0,0,1-10.74-7.06,136.51,136.51,0,0,1-17-15.51A258.56,258.56,0,0,1,10.64,367.5c-2.29-3.19-4-5.69-5.19-7.4l-1.3-2a2.62,2.62,0,0,1-.4-.69s.2.18.53.6l1.44,1.86,5.43,7.21a285.89,285.89,0,0,0,21.14,25.51,137,137,0,0,0,17,15.22,103,103,0,0,0,10.64,6.9A88.5,88.5,0,0,0,72,420.49a101.92,101.92,0,0,0,13.49,4.2,120.16,120.16,0,0,0,14.52,2.59c5,.6,10.08,1,15.26,1.07s10.45,0,15.77-.34c10.65-.64,21-2,30.95-3.54s19.54-3.21,28.71-4.63,17.93-2.59,26.15-3.37,15.91-1.21,22.93-1.42c14-.41,25.41.06,33.23.6,3.92.26,7,.54,9,.76l2.33.27A2.64,2.64,0,0,1,285.18,416.83Z" stroke="#000" stroke-miterlimit="10" stroke-width="0.5"/>
    <path d="M451.3,391.57a2.86,2.86,0,0,1-.69-.25l-1.95-.87L445.51,389l-2-.94-2.35-.92L435.63,385c-2.06-.68-4.32-1.35-6.73-2.12a144.78,144.78,0,0,0-16.74-3.79c-12.54-2.19-27.78-2.81-44.6-1.86-8.4.55-17.21,1.37-26.3,2.64s-18.47,2.79-28.06,4.52c-19.17,3.5-37.47,6.88-54.28,8.84l-6.23.68c-2.05.23-4.09.35-6.08.53-4,.38-7.89.51-11.65.7-1.88.12-3.74.08-5.55.12s-3.6.08-5.35,0l-5.14-.15-2.48-.07c-.82,0-1.63-.12-2.43-.18a164.13,164.13,0,0,1-17.17-2c-2.5-.48-4.83-.89-7-1.34l-5.77-1.47-2.46-.64-2.11-.69-3.3-1.11-2-.72a3,3,0,0,1-.67-.29,2.44,2.44,0,0,1,.72.13l2.07.56,3.34,1,2.12.62,2.46.57,5.79,1.32c2.13.4,4.45.77,7,1.2,5,.76,10.73,1.4,17.09,1.73.79.05,1.59.12,2.41.15l2.47,0,5.11.1c1.74,0,3.51-.05,5.32-.08s3.64,0,5.51-.16c3.74-.22,7.62-.38,11.59-.78,2-.19,4-.32,6-.56l6.2-.71c16.74-2,35-5.45,54.17-8.95,9.6-1.74,19-3.27,28.14-4.5s18-2.05,26.43-2.56c16.91-.88,32.26-.12,44.88,2.23A138.33,138.33,0,0,1,429.17,382c2.41.81,4.67,1.53,6.72,2.26l5.51,2.3,2.33,1,2,1,3.09,1.61,1.89,1C451.11,391.41,451.32,391.54,451.3,391.57Z" stroke="#000" stroke-miterlimit="10" stroke-width="0.5"/>
    <path d="M223.69,262.06a12.29,12.29,0,0,1-2.42-.09l-6.93-.53c-6-.45-14.71-1.07-25.47-1.48s-23.6-.6-37.83-.18c-7.12.2-14.58.56-22.32,1.08s-15.74,1.16-24,1.64c-16.44,1-32.3.89-46.43-1.75a95.47,95.47,0,0,1-35.28-13.84c-1.11-.78-2.25-1.47-3.26-2.27l-3-2.31c-1.83-1.63-3.6-3.11-5.07-4.69a59.94,59.94,0,0,1-4-4.47c-.62-.68-1.1-1.43-1.61-2.1l-1.4-1.94a50.43,50.43,0,0,1-3.48-6,12.11,12.11,0,0,1-1-2.22,14.33,14.33,0,0,1,1.26,2.07,64.6,64.6,0,0,0,3.71,5.83l1.45,1.88c.52.65,1,1.38,1.64,2,1.22,1.35,2.49,2.87,4.06,4.31s3.26,3,5.08,4.53l3,2.23c1,.78,2.14,1.44,3.24,2.2a96.13,96.13,0,0,0,34.91,13.32c14,2.52,29.69,2.57,46.07,1.6,8.2-.47,16.21-1.11,24-1.61s15.24-.82,22.38-1c14.28-.34,27.14,0,37.92.53s19.48,1.36,25.48,2c3,.32,5.33.61,6.9.84A15,15,0,0,1,223.69,262.06Z" stroke="#000" stroke-miterlimit="10" stroke-width="0.5"/>
    <path d="M302.21,233.18a12.73,12.73,0,0,1-2.27-.24l-6.43-1c-5.59-.76-13.7-1.79-23.76-2.43a344.66,344.66,0,0,0-35.42-.31c-13.32.51-27.94,1.86-43.2,3.91-7.62,1.06-15,2.2-22.22,3.42s-14.1,2.36-20.75,3.17a150.17,150.17,0,0,1-19,1.18,92.26,92.26,0,0,1-16.54-1.55,73.5,73.5,0,0,1-13.18-3.79A60.23,60.23,0,0,1,90.16,231a50.66,50.66,0,0,1-5.3-3.82,12.66,12.66,0,0,1-1.67-1.56,12.36,12.36,0,0,1,1.87,1.3c1.2.87,3,2.1,5.42,3.53a68.81,68.81,0,0,0,22.33,7.82,93.71,93.71,0,0,0,16.34,1.34A154.15,154.15,0,0,0,148,238.25c6.61-.84,13.51-2,20.68-3.25s14.62-2.4,22.26-3.46a433.85,433.85,0,0,1,43.37-3.8,320.26,320.26,0,0,1,35.55.66c10.09.79,18.2,2,23.78,2.95,2.79.49,4.94,1,6.39,1.27A11.14,11.14,0,0,1,302.21,233.18Z" stroke="#000" stroke-miterlimit="10" stroke-width="0.5"/>
    <path d="M489.31,97.31a2.65,2.65,0,0,1-.77,0l-2.24-.13-3.64-.26-2.31-.19-2.65-.07-6.22-.17c-2.28,0-4.75.09-7.4.13l-2,0L460,96.8l-4.37.29c-3,.13-6.17.58-9.49.91l-2.52.27-2.57.38-5.31.78c-1.8.25-3.63.64-5.49,1s-3.78.65-5.7,1.07c-7.7,1.58-15.88,3.49-24.42,5.82-17.08,4.61-35.57,10.72-55,17-9.74,3.15-19.29,6.09-28.58,8.72s-18.35,4.85-27,6.72L283,141c-2.12.44-4.24.73-6.31,1.1-4.14.76-8.2,1.21-12.11,1.74-2,.28-3.9.39-5.8.58s-3.76.39-5.59.47l-5.38.26-2.61.12c-.86,0-1.71,0-2.55,0-3.36,0-6.56.08-9.58-.15l-4.41-.24-2.1-.11-2-.23c-2.65-.3-5.13-.55-7.39-.84L211,142.68l-2.61-.47-2.27-.55-3.55-.89-2.17-.58a3.1,3.1,0,0,1-.72-.25,2.43,2.43,0,0,1,.76.09l2.21.42,3.57.73,2.27.48,2.62.4,6.15.93c2.26.25,4.73.45,7.37.7l2,.2,2.09.08,4.38.17c3,.2,6.19,0,9.53,0,.84,0,1.68,0,2.54,0l2.59-.14,5.34-.31c1.82-.1,3.67-.35,5.56-.52s3.81-.33,5.75-.62c3.89-.56,7.93-1,12-1.82,2.06-.37,4.17-.68,6.27-1.12l6.41-1.32c8.64-1.9,17.65-4.12,26.91-6.78s18.78-5.6,28.5-8.74c19.45-6.31,38-12.38,55.14-16.93,8.58-2.29,16.8-4.17,24.55-5.7,1.93-.4,3.85-.69,5.73-1s3.71-.68,5.53-.91l5.34-.73,2.58-.36,2.54-.25c3.34-.29,6.52-.7,9.55-.79l4.4-.23,2.1-.1h2c2.67,0,5.16,0,7.44,0l6.24.32,2.65.15,2.32.25,3.63.42,2.23.29A2.71,2.71,0,0,1,489.31,97.31Z" stroke="#000" stroke-miterlimit="10" stroke-width="0.5"/>
    <path d="M519.29,67.75a13.69,13.69,0,0,1-2.5.07c-1.63,0-4,0-7.13-.11-1.55-.06-3.27,0-5.15,0l-6.13.1c-2.2,0-4.55.16-7,.28s-5.12.22-7.88.43c-11,.78-24.14,2.29-38.6,4.6s-30.25,5.46-46.78,9-32.26,7.1-46.63,10c-3.59.76-7.09,1.45-10.51,2.1s-6.72,1.32-9.93,1.89c-6.43,1.14-12.46,2-18,2.53a113.77,113.77,0,0,1-15,.41,75.59,75.59,0,0,1-11.27-1.31c-1.52-.3-2.88-.59-4-.92s-2.14-.57-2.9-.85a13,13,0,0,1-2.34-.89,15.35,15.35,0,0,1,2.43.57c.78.24,1.76.44,2.93.7s2.5.51,4,.77a97.3,97.3,0,0,0,26.05.37c5.49-.57,11.48-1.52,17.87-2.71,3.2-.6,6.5-1.27,9.9-2s6.9-1.4,10.49-2.17c14.33-3,30-6.61,46.59-10.16s32.38-6.68,46.89-8.91S472.3,68,483.39,67.38c2.77-.17,5.41-.21,7.91-.32s4.86-.2,7.07-.15l6.14,0c1.89,0,3.62,0,5.17.13,3.1.16,5.5.3,7.13.41A15.73,15.73,0,0,1,519.29,67.75Z" stroke="#000" stroke-miterlimit="10" stroke-width="0.5"/>
  </g>
  <g id="Layer_Character1">
    <g id="PRIMARY_foot_right" data-name="PRIMARY_foot right">
      <path d="M186.74,488l18.15,19c-.82,1.58-2.18,4-4,7-3.25,5.19-4.71,6.51-11.14,15.34a110,110,0,0,0-7.51,11.33c-.21.38-1.56,2.77-3,6.1-2.36,5.32-2.72,7.75-2.84,9.06-.22,2.42-.45,5,1,6,2,1.34,5.89-1.36,7.25-2.31,3.25-2.24,5-4.84,7-7.77,3.42-5.17,5.12-7.75,6.94-11,4.64-8.16,4.54-6.82,12.39-19.68,2.3-3.77,5.5-9.13,9.24-15.72-2.64-3.44-4.84-6.28-6.39-8.27-6.71-8.66-8.66-11-10-12.64-2.66-3.14-4.9-5.6-6.3-7.12Z"/>
    </g>
    <g id="Leg_right" data-name="Leg right">
      <path d="M257.23,236.54C241.85,250,228.57,261,218.39,269.32,199.66,284.6,187.7,294.37,170.46,307c-12.09,8.84-23.55,18.56-35.92,27-5.46,3.75-13.57,9.13-21.24,19-7.11,9.15-9.26,16.25-9.76,18-2.21,7.73-1.75,13.9-1.24,20.81.75,10.27,3,17.78,5.31,25.06A124.56,124.56,0,0,0,117.94,442a96.13,96.13,0,0,0,18.74,24.81,85.93,85.93,0,0,0,19.4,13.85,74.42,74.42,0,0,0,26,7.82c1.6.14,3,.21,3.9.24a42,42,0,0,0,15.7-17.8c3.84-8.41,3.6-16,3.39-21.12-.1-2.32-.6-10.72-5.71-23.48a110.8,110.8,0,0,0-18.78-30.86l-1.24-3.85c-.59-1.85-1.19-3.7-1.78-5.55,3.16-2.09,8-5.3,13.74-9.29,14.26-9.86,20-14.5,38.77-28.36,20.58-15.22,23.44-16.88,32.54-24.53,9.28-7.79,15.94-14.16,22.2-23.32a84.44,84.44,0,0,0,9-16.4,81.14,81.14,0,0,0,5.52-36.3Z" fill="#fff"/>
      <path d="M185.79,488.73a3.46,3.46,0,0,1-.9,0l-2.65-.09c-1.16-.09-2.59-.26-4.28-.45s-3.63-.56-5.77-1.12A72.37,72.37,0,0,1,157,481.65a82.13,82.13,0,0,1-8.78-5,92,92,0,0,1-9-6.8c-12.14-10.24-23.21-26.32-30.14-46.11a155.32,155.32,0,0,1-4.57-15.41,129.2,129.2,0,0,1-3-16.51,60.66,60.66,0,0,1,.43-17.46c.12-.73.29-1.46.47-2.19s.37-1.45.58-2.17.46-1.43.71-2.14.48-1.44.79-2.12a51.25,51.25,0,0,1,4.28-8,73.25,73.25,0,0,1,11.87-13.49,172.06,172.06,0,0,1,13.49-10.93c9.11-6.76,17.88-13.28,26.19-19.56,16.63-12.56,31.45-24.06,43.84-33.8s22.34-17.71,29.22-23.22l7.94-6.32,2.09-1.62a3.45,3.45,0,0,1,.75-.51,4.08,4.08,0,0,1-.65.64l-2,1.74c-1.76,1.52-4.36,3.74-7.75,6.56-6.76,5.66-16.6,13.78-28.9,23.64S177.81,302.33,161.22,315c-8.29,6.32-17.06,12.88-26.15,19.64-4.52,3.41-9.07,6.93-13.35,10.86a72.4,72.4,0,0,0-11.6,13.18A50,50,0,0,0,106,366.4c-.31.66-.51,1.36-.77,2s-.51,1.36-.69,2.06-.4,1.38-.55,2.09-.34,1.4-.45,2.11a59.18,59.18,0,0,0-.45,17A130.4,130.4,0,0,0,106,408a155.94,155.94,0,0,0,4.48,15.27c6.78,19.6,17.6,35.52,29.47,45.74a92,92,0,0,0,8.85,6.8,83,83,0,0,0,8.61,5,74,74,0,0,0,14.91,5.65c2.11.61,4,.9,5.69,1.26s3.09.46,4.24.6l2.62.25A4,4,0,0,1,185.79,488.73Z" stroke="#000" stroke-miterlimit="10" stroke-width="0.5"/>
      <path d="M176.23,387.81a7.35,7.35,0,0,1,1.36-1.21c.93-.74,2.31-1.82,4.11-3.19,3.58-2.74,8.8-6.67,15.27-11.49,12.94-9.66,30.91-22.88,50.76-37.45,9.89-7.3,19-14.63,26.42-22.26a105.35,105.35,0,0,0,9.72-11.48,86.4,86.4,0,0,0,6.86-11.15,72.44,72.44,0,0,0,4.21-9.94,65,65,0,0,0,2.1-7.9c.85-4.41,1-6.91,1.12-6.9a8.17,8.17,0,0,1,0,1.82,19.6,19.6,0,0,1-.15,2.2c-.09.87-.16,1.88-.37,3a59,59,0,0,1-1.85,8.07,70.1,70.1,0,0,1-4.05,10.18A85,85,0,0,1,285,301.52a105.21,105.21,0,0,1-9.73,11.73c-7.42,7.78-16.63,15.21-26.54,22.53-19.87,14.58-37.93,27.65-51,37.07-6.55,4.7-11.88,8.49-15.58,11.07-1.85,1.3-3.29,2.29-4.28,2.95A8.13,8.13,0,0,1,176.23,387.81Z" stroke="#000" stroke-miterlimit="10" stroke-width="0.5"/>
      <path d="M178.79,397.53c-.17-.18.21-.76.55-1.73a8.18,8.18,0,0,0,.4-1.73,9.3,9.3,0,0,0-.05-2.16,9.47,9.47,0,0,0-.61-2.07,8.47,8.47,0,0,0-.91-1.52c-.62-.82-1.17-1.26-1.06-1.48s.88-.1,1.87.66a5.93,5.93,0,0,1,1.43,1.65,7.24,7.24,0,0,1,.81,5.18,6.06,6.06,0,0,1-.85,2C179.65,397.36,178.92,397.68,178.79,397.53Z" stroke="#000" stroke-miterlimit="10" stroke-width="0.5"/>
      <path d="M184.24,488.63c0-.05.3-.26.93-.6l1.18-.62,1.53-1a32.84,32.84,0,0,0,8.38-7.7,40.29,40.29,0,0,0,7.14-15.21,48.7,48.7,0,0,0,.16-20.58,83,83,0,0,0-6.72-19.7,160.8,160.8,0,0,0-8.25-15c-2.56-4.15-4.8-7.42-6.36-9.67A25.72,25.72,0,0,1,179.9,395a18.63,18.63,0,0,1,2.84,3.19c1.72,2.15,4.11,5.33,6.82,9.43a139.27,139.27,0,0,1,8.63,15,80.85,80.85,0,0,1,7,20.05,48.87,48.87,0,0,1-.3,21.25,40.08,40.08,0,0,1-7.7,15.56,30.49,30.49,0,0,1-8.95,7.54c-.62.31-1.16.61-1.64.83l-1.26.49C184.63,488.58,184.26,488.68,184.24,488.63Z" stroke="#000" stroke-miterlimit="10" stroke-width="0.5"/>
      <path d="M178.13,478.9c-.2.17-2.36-2.34-6.41-5.74a63.17,63.17,0,0,0-7.52-5.4c-.74-.46-1.52-.9-2.31-1.34-.4-.22-.8-.45-1.22-.66l-.28-.14-.08,0-.07.06a1.19,1.19,0,0,0-.09.15.31.31,0,0,0,0,.11.88.88,0,0,0,0,.24,3.1,3.1,0,0,0,.22,1.14,7.65,7.65,0,0,0,1.42,2.32A89,89,0,0,0,176.45,484c4.19,3.25,7,5,6.88,5.2S180.2,488,175.77,485a73.66,73.66,0,0,1-15.3-14.35,9,9,0,0,1-1.68-2.8,4.7,4.7,0,0,1-.3-1.75,2.74,2.74,0,0,1,.06-.48,2.8,2.8,0,0,1,.19-.58,3.5,3.5,0,0,1,.31-.53c.13-.16.27-.28.41-.43s.3-.27.45-.36l.53.18c.17.06.37.19.55.27l.42.23c.43.22.83.46,1.24.69.81.47,1.6.94,2.35,1.43a53.34,53.34,0,0,1,7.48,5.8C176.41,476,178.28,478.79,178.13,478.9Z" stroke="#000" stroke-miterlimit="10" stroke-width="0.5"/>
      <path d="M184.57,473.16c-.23.12-1-1.54-3-3.55a19.66,19.66,0,0,0-1.75-1.5q-.5-.37-1.05-.72l-.19-.11-.09,0-.19-.08c-.11,0-.29-.17-.2.06s.05.29.08.41c.16.9.44,2,.73,3a31.55,31.55,0,0,0,5.1,9.86c1.74,2.3,3.09,3.52,2.93,3.72s-1.76-.77-3.81-3a25.86,25.86,0,0,1-6.54-13.47,25.94,25.94,0,0,1-.3-2.58l-.06-.61v-.15c0-.05,0-.13,0-.08l.28.14,1.09.55c.35.18.69.36,1,.57l.51.3.39.27a10.88,10.88,0,0,1,1.11.86,15.29,15.29,0,0,1,1.75,1.77C184.32,471.21,184.75,473.11,184.57,473.16Z" stroke="#000" stroke-miterlimit="10" stroke-width="0.5"/>
      <path d="M195.79,475.27c-.24.07-1.19-2.61-3-6.82-.9-2.1-2-4.58-3.4-7.27-.68-1.35-1.43-2.75-2.23-4.18l-1.25-2.17-.65-1.1a2.5,2.5,0,0,0-.58-.75.33.33,0,0,0-.37,0,1.7,1.7,0,0,0-.52.64,3.68,3.68,0,0,0-.32,1c-.06.3-.07.78-.1,1.15a25.1,25.1,0,0,0,.16,4.62,42.83,42.83,0,0,0,1.83,7.72c1.43,4.33,2.47,7,2.24,7.1s-1.59-2.41-3.33-6.71a36.85,36.85,0,0,1-2.22-7.9,24.59,24.59,0,0,1-.28-4.91c0-.45,0-.82.11-1.34a5.4,5.4,0,0,1,.47-1.44,3.18,3.18,0,0,1,1.13-1.3,2,2,0,0,1,2.1.05,3.77,3.77,0,0,1,1.07,1.27l.66,1.12c.43.75.85,1.48,1.25,2.22.79,1.47,1.53,2.9,2.18,4.29,1.31,2.77,2.35,5.33,3.13,7.51C195.41,472.4,196,475.21,195.79,475.27Z" stroke="#000" stroke-miterlimit="10" stroke-width="0.5"/>
      <path d="M205.92,508.23c-.36.29-4.49-4.39-9.77-10s-9.7-10-9.39-10.31,5.25,3.55,10.58,9.19S206.27,508,205.92,508.23Z" stroke="#000" stroke-miterlimit="10" stroke-width="0.5"/>
      <path d="M217.76,502.7c-.38.27-4.78-5.53-10.4-12.51s-10.31-12.53-10-12.84,5.6,4.78,11.25,11.82S218.12,502.46,217.76,502.7Z" stroke="#000" stroke-miterlimit="10" stroke-width="0.5"/>
      <path d="M220.05,506.47a32,32,0,0,1-2.52,4.61c-1.72,2.91-4.25,7.1-7.41,12.25L199,541.39c-2.13,3.39-4.29,7-6.68,10.64a41,41,0,0,1-4.13,5.35,19.14,19.14,0,0,1-5.65,4.28,15.31,15.31,0,0,1-1.7.66,8.12,8.12,0,0,1-1.84.43,4.4,4.4,0,0,1-2.06-.24,2.82,2.82,0,0,1-1.6-1.63,4.6,4.6,0,0,1-.23-2c.05-.62.15-1.15.23-1.72s.18-1.11.29-1.66.22-1.09.36-1.63a50.56,50.56,0,0,1,4.65-11.81c3.83-7.13,8.38-12.8,12-17.6s6.61-8.68,8.49-11.47a50.58,50.58,0,0,1,3-4.35,4.23,4.23,0,0,1-.53,1.27c-.39.8-1,2-1.89,3.42-1.72,2.92-4.51,7-8.1,11.83s-8,10.59-11.63,17.6a49.21,49.21,0,0,0-4.42,11.49c-.14.51-.25,1-.34,1.56s-.21,1.06-.28,1.6a6.5,6.5,0,0,0-.08,2.89,1.21,1.21,0,0,0,.7.7,2.8,2.8,0,0,0,1.29.13,6.79,6.79,0,0,0,1.5-.36,12.6,12.6,0,0,0,1.5-.59,17.49,17.49,0,0,0,5.17-3.91,39.82,39.82,0,0,0,4-5.13c2.36-3.6,4.58-7.19,6.74-10.55l11.45-17.87c3.29-5.07,6-9.17,7.85-12A33.59,33.59,0,0,1,220.05,506.47Z" stroke="#000" stroke-miterlimit="10" stroke-width="0.5"/>
    </g>
    <g id="PRIMARY_foot_right-2" data-name="PRIMARY_foot right">
      <path d="M268.89,489l21.65,12.84c.67,9,1.63,16.16,2.44,21.32,1.21,7.72,1.47,6.87,2,11.65.57,5.06.52,8,2.25,11.91a22.17,22.17,0,0,0,3.83,5.84,24,24,0,0,0,2.28-6,29.42,29.42,0,0,0,.47-8.51c-.25-6.07-.37-9.11-.59-11-.56-5-1.23-14-1.76-31.93q-4.92-3.3-10-6.59Q283.14,483.05,275,478Z"/>
    </g>
    <g id="Leg_left" data-name="Leg left">
      <path d="M281.45,230l-43.24,45.31,10.57,7.83c-4.65,4.13-11.24,10.09-18.92,17.51-10.84,10.45-19.46,18.76-29.16,30.4-9.87,11.82-16.91,20.27-23.31,33.74-4.5,9.48-9,19.29-9.18,32.85a71.3,71.3,0,0,0,4.88,25.84c3.44,9.43,7.71,15.72,11.6,21.36,7.79,11.29,16.5,18.93,33.94,34.22,5.21,4.57,11.56,9.92,21.1,13.51a32.63,32.63,0,0,0,13.16,2.48c3.42-.13,9.7-.37,14.92-5,5.58-4.95,6.39-11.76,6.72-14.51.48-4,0-7.75-1.57-13-2.73-9-6-13.09-11.8-23.21-8.9-15.45-8.49-17.77-15-26.36a102.58,102.58,0,0,0-11.11-12.46q-.25-3.82-.5-7.65c4.62-3.53,11.18-8.62,19-14.91,10.09-8.18,14.25-11.93,43.11-37.33,9.78-8.6,19.12-16.81,30.32-28.76,5.19-5.53,10.56-11.63,14.7-20.93,2-4.55,3.67-9.67,5.18-18.73a179.68,179.68,0,0,0,1.84-42.77Z" fill="#fff"/>
      <path d="M234,394.05a6.41,6.41,0,0,1,1.23-1.21c.84-.75,2.1-1.84,3.72-3.23l13.82-11.74c11.66-9.93,27.68-23.74,45-39.36l12.63-11.45c4.06-3.71,7.93-7.34,11.47-10.93s6.78-7.12,9.59-10.61a93.62,93.62,0,0,0,7.15-10.15,59.58,59.58,0,0,0,6.89-16.55c.23-1,.47-2,.62-2.76s.23-1.5.31-2.05a7.89,7.89,0,0,1,.36-1.69,6.24,6.24,0,0,1,0,1.72l-.16,2.09c-.11.83-.3,1.76-.48,2.82a56.12,56.12,0,0,1-6.51,17,92.46,92.46,0,0,1-7.1,10.42A134.86,134.86,0,0,1,323,317.18c-3.54,3.65-7.41,7.32-11.46,11.05s-8.28,7.58-12.62,11.49c-17.39,15.64-33.54,29.33-45.4,39-5.92,4.86-10.78,8.71-14.15,11.35-1.7,1.32-3,2.33-3.93,3A6.62,6.62,0,0,1,234,394.05Z" stroke="#000" stroke-miterlimit="10" stroke-width="0.5"/>
      <path d="M232.14,400.57c-.09-.23.3-.56.72-1.12a5.82,5.82,0,0,0,.94-5.1c-.2-.68-.44-1.13-.28-1.31s.72,0,1.3.77a4.74,4.74,0,0,1-1.2,6.5C232.81,400.81,232.2,400.76,232.14,400.57Z" stroke="#000" stroke-miterlimit="10" stroke-width="0.5"/>
      <path d="M275.65,473.41c-.28.06-1.21-4.63-3.78-11.87a127.65,127.65,0,0,0-5.22-12.43c-2.2-4.57-4.86-9.48-7.87-14.52-6-10.06-12.13-18.81-16.39-25.24a42,42,0,0,0-5.59-7.09c-1.54-1.47-2.56-2.11-2.49-2.22a7.79,7.79,0,0,1,2.91,1.74,35.11,35.11,0,0,1,6.11,6.91c4.51,6.26,10.77,14.92,16.85,25.07A159.65,159.65,0,0,1,268,448.47a107.53,107.53,0,0,1,4.95,12.7c.56,1.86,1.09,3.53,1.42,5s.7,2.78.85,3.86A13.11,13.11,0,0,1,275.65,473.41Z" stroke="#000" stroke-miterlimit="10" stroke-width="0.5"/>
      <path d="M248.79,284.26c-.37.28-2.51-1.93-5.39-4.34s-5.4-4.17-5.19-4.58,3.23.77,6.24,3.33S249.14,284,248.79,284.26Z" stroke="#000" stroke-miterlimit="10" stroke-width="0.5"/>
      <path d="M274.73,471.88a3.19,3.19,0,0,1,.25.79,12.46,12.46,0,0,1,.34,2.4,17.53,17.53,0,0,1-2.15,9,21,21,0,0,1-10.91,9.7c-5.41,2.18-12.36,2.44-19.38.46a47.27,47.27,0,0,1-10.47-4.5,88,88,0,0,1-10.17-6.93c-6.66-5.23-13.64-11-20.56-17.56a138,138,0,0,1-19.53-22.67,87.64,87.64,0,0,1-13-29.36,63.48,63.48,0,0,1,.65-32.05c2.91-10.08,7.81-19,12.93-27,10.24-16.12,21.8-28.95,31.84-39.23s18.71-18.08,24.67-23.48c3-2.68,5.32-4.75,6.92-6.14l1.84-1.56a2.68,2.68,0,0,1,.66-.49,3.07,3.07,0,0,1-.55.61l-1.72,1.68-6.72,6.37c-5.82,5.53-14.33,13.46-24.28,23.81S194.08,339,184,355c-5,8-9.84,16.78-12.66,26.62a62,62,0,0,0-.6,31.26,86.23,86.23,0,0,0,12.74,28.83,137.3,137.3,0,0,0,19.24,22.47c6.83,6.55,13.77,12.34,20.35,17.59a88.41,88.41,0,0,0,10,6.9,46.09,46.09,0,0,0,10.16,4.48c6.79,2,13.5,1.82,18.73-.2a19.84,19.84,0,0,0,6.61-4,20.63,20.63,0,0,0,4.08-5.11,17.92,17.92,0,0,0,2.37-8.71C275,473,274.64,471.9,274.73,471.88Z" stroke="#000" stroke-miterlimit="10" stroke-width="0.5"/>
      <path d="M266.42,489c-.17.2-1.76-1.15-4.66-2.7a30.16,30.16,0,0,0-5.3-2.2,26.22,26.22,0,0,0-3.28-.8c-.58-.12-1.17-.19-1.77-.27l-.51-.05h-.22c-.12,0,0,.08,0,.14a1.13,1.13,0,0,0,.09.2l.11.24a2.82,2.82,0,0,0,.21.38l.44.75a17.85,17.85,0,0,0,2.05,2.59,17.3,17.3,0,0,0,4.53,3.33c2.9,1.47,5,1.61,5,1.89s-2.2.46-5.46-.84a16.34,16.34,0,0,1-5.11-3.31,17.62,17.62,0,0,1-2.34-2.8l-.49-.82a2.86,2.86,0,0,1-.24-.42l-.3-.6c-.24-.48-.42-1-.63-1.49l-.31-.76c0-.1-.21-.33,0-.26l.42,0,1.64.09c.27,0,.54,0,.82.07l.53.05c.63.09,1.26.18,1.87.31a26.29,26.29,0,0,1,3.45.94,24.8,24.8,0,0,1,5.41,2.64C265.22,487.14,266.55,488.82,266.42,489Z" stroke="#000" stroke-miterlimit="10" stroke-width="0.5"/>
      <path d="M266.37,481.52c-.19.11-1.09-1.25-2.81-3.27a37.64,37.64,0,0,0-3.24-3.37c-.65-.6-1.35-1.21-2.12-1.81l-.25-.2-.1-.07-.17-.11-.31-.2a2.83,2.83,0,0,0,.06.37l.05.19c0,.07,0,.06.13.38a20,20,0,0,0,3.29,5.93,47,47,0,0,0,3.8,4.23c2.33,2.3,3.83,3.71,3.68,3.9s-1.88-.92-4.45-3.05a33,33,0,0,1-4.2-4.14,19.53,19.53,0,0,1-3.67-6.35,6,6,0,0,1-.31-1.16l-.27-1.31c-.16-.86-.28-1.76-.38-2.57l2.19,1.53c.35.24.7.52,1,.78l.51.39.33.27c.78.65,1.49,1.33,2.14,2a28.73,28.73,0,0,1,3.09,3.74C265.94,479.88,266.52,481.43,266.37,481.52Z" stroke="#000" stroke-miterlimit="10" stroke-width="0.5"/>
      <path d="M271.51,481.49c-.23.09-.92-1.27-2.16-3.36-.62-1-1.38-2.27-2.31-3.56-.46-.66-1-1.32-1.5-2l-.41-.51-.18-.21-.24-.27-.07-.08c-.09.09-.1.37-.11.56l0,.51.09.56a9.64,9.64,0,0,0,.27,1.09,18.55,18.55,0,0,0,1.65,3.65c1.16,2,2,3.25,1.8,3.4s-1.29-.84-2.75-2.78a15.21,15.21,0,0,1-2.11-3.8,10.79,10.79,0,0,1-.37-1.25l-.13-.66-.08-.77a13.85,13.85,0,0,1,.68-4.13l.51.57c.54.6,1.1,1.2,1.57,1.77l.69.82.42.55c.54.72,1,1.43,1.49,2.14a30.48,30.48,0,0,1,2.09,3.87C271.39,479.89,271.7,481.42,271.51,481.49Z" stroke="#000" stroke-miterlimit="10" stroke-width="0.5"/>
      <ellipse cx="280.59" cy="495.83" rx="0.82" ry="11.62" transform="translate(-288.89 479.3) rotate(-58.83)" stroke="#000" stroke-miterlimit="10" stroke-width="0.5"/>
      <path d="M297.53,492.5c-.25.38-5.19-2.47-11-6.36s-10.38-7.35-10.13-7.73,5.19,2.48,11,6.37S297.78,492.13,297.53,492.5Z" stroke="#000" stroke-miterlimit="10" stroke-width="0.5"/>
      <path d="M301.34,493.56a21.87,21.87,0,0,1,.68,4.35c.33,2.81.72,6.88,1.08,11.93s.7,11.06.89,17.74c.11,3.35.17,6.86.19,10.5,0,1.82,0,3.67,0,5.55l0,2.84a15.62,15.62,0,0,1-.28,3,6.27,6.27,0,0,1-1.36,3,3,3,0,0,1-.31.31,3.19,3.19,0,0,1-.47.35,9.08,9.08,0,0,1-1.07.56l-.14.07s-.07-.07-.1-.1l-.2-.22-.39-.43-.4-.43a3.78,3.78,0,0,1-.24-.32,18.51,18.51,0,0,1-2.67-5.11,53.74,53.74,0,0,1-2.13-10.4c-.89-6.62-1.69-12.59-2.37-17.59s-1.15-9.07-1.46-11.88a23.47,23.47,0,0,1-.31-4.39,22.69,22.69,0,0,1,.94,4.3c.5,2.78,1.18,6.81,2,11.8s1.69,10.94,2.72,17.54A53.66,53.66,0,0,0,298,546.59a17.41,17.41,0,0,0,2.46,4.67c.46.57.3.59.82.1a4.78,4.78,0,0,0,1-2.21,14.9,14.9,0,0,0,.25-2.7l0-2.83c0-1.87,0-3.72,0-5.54,0-3.62,0-7.13-.1-10.46-.11-6.67-.32-12.68-.54-17.72s-.43-9.12-.56-11.94A22.86,22.86,0,0,1,301.34,493.56Z" stroke="#000" stroke-miterlimit="10" stroke-width="0.5"/>
    </g>
    <g id="Arm_right" data-name="Arm right">
      <path d="M238.43,133.77a99.07,99.07,0,0,0-6.82,10.88A103.45,103.45,0,0,0,224.27,162c-6.12,18.42-12.06,42.53-13.05,46.56a35.55,35.55,0,0,1-2.37,4.43,41.3,41.3,0,0,1-11.93,12.07c-6.22,4.4-18.55,12.75-35.26,22.91l2.27,2.07a141,141,0,0,0-16.15,9.08,106.86,106.86,0,0,0-18.06,14.06,92.58,92.58,0,0,0-14.49,18.47,42.48,42.48,0,0,0-5,11c-1,3.61-2.32,10-.74,10.69,1.25.56,3.82-2.7,4.36-3.39,2.13-2.7,2.15-4.39,4.6-9.36,1.06-2.15,2.5-4.76,2.75-4.66.43.19-3.69,8.25-4.76,19.27-.19,1.94-.87,8.94.95,9.51.94.29,2.26-1.24,3.24-2.61.51,2,1.67,3.46,2.85,3.51,1.52.07,2.61-2.13,3.11-3.15,1.72-3.47.58-5.68,1.59-10a19,19,0,0,1,2.12-5.29,27.11,27.11,0,0,0-.2,11.19c.28,1.4,1.1,5.51,2.55,5.6,1.24.07,2.37-2.85,2.94-4.31,1.19-3.08.94-4.39,1.69-8.67,1.26-7.27,3-9.47,3.59-10.16a12.82,12.82,0,0,1,3.29-2.72,5.44,5.44,0,0,0,3.1.46c2.23-.39,3.56-2.35,4.61-4,3.62-5.51,6.13-10,8-13a61.32,61.32,0,0,1,4.33-6,71.22,71.22,0,0,0,.39,8.17,76.12,76.12,0,0,0,2,10.77,83.86,83.86,0,0,0,6.61,17.34c2.78-1.77,6.63-4.31,11.05-7.58A202.53,202.53,0,0,0,215,275.92a256.58,256.58,0,0,0,20.46-25.51c14.35-20.51,21-36.78,33.84-68.5,11.41-28.3,11.66-33.81,8.88-38.51C270.11,129.78,242.51,133.22,238.43,133.77Z" fill="#fff"/>
      <path d="M210.81,209.84a12.68,12.68,0,0,1,.51-3.23c.44-2.06,1.13-5,2-8.66,1.8-7.29,4.17-17.39,7.58-28.37a142.86,142.86,0,0,1,11.24-27.18c.89-1.66,1.83-3.09,2.59-4.38s1.55-2.32,2.14-3.19a3.57,3.57,0,0,1,1-1.1.92.92,0,0,1,1.14.06.75.75,0,0,1,.26.67.35.35,0,0,1-.18.23.42.42,0,0,0,.05-.17.53.53,0,0,0-.25-.44.59.59,0,0,0-.75,0,3.3,3.3,0,0,0-.74,1.05l-1.89,3.31c-.69,1.32-1.55,2.77-2.36,4.45a172.76,172.76,0,0,0-10.71,27.13c-3.38,10.9-5.93,21-8,28.17-1,3.61-1.88,6.52-2.5,8.53A12.73,12.73,0,0,1,210.81,209.84Z" stroke="#000" stroke-miterlimit="10" stroke-width="0.5"/>
      <path d="M208.75,217.65c-.21,0-.55-.45-.77-1.37a7.79,7.79,0,0,1,.13-3.68,7.67,7.67,0,0,1,1.75-3.23c.65-.69,1.2-1,1.36-.8.33.33-.91,2-1.54,4.46S209.21,217.54,208.75,217.65Z" stroke="#000" stroke-miterlimit="10" stroke-width="0.5"/>
      <path d="M162.53,248.08c-.12-.2,2.46-2,6.65-4.76s10-6.65,16.29-11,11.94-8.46,16-11.41,6.64-4.75,6.78-4.57-2.16,2.29-6.08,5.49-9.46,7.43-15.79,11.83-12.25,8.12-16.61,10.67S162.64,248.27,162.53,248.08Z" stroke="#000" stroke-miterlimit="10" stroke-width="0.5"/>
      <path d="M171.89,299.73c-.23,0-.31-3.08-.26-8.05.05-2.48.11-5.43.17-8.71s.1-6.85-.15-10.58a48.17,48.17,0,0,0-1.75-10.32,33.82,33.82,0,0,0-3.38-7.81c-2.52-4.18-5-6.06-4.84-6.28.06-.07.76.29,1.84,1.2a22.11,22.11,0,0,1,4,4.46,31,31,0,0,1,3.84,8,44.4,44.4,0,0,1,1.94,10.65,96.43,96.43,0,0,1,0,10.74c-.16,3.29-.35,6.23-.51,8.71C172.44,296.68,172.11,299.74,171.89,299.73Z" stroke="#000" stroke-miterlimit="10" stroke-width="0.5"/>
      <path d="M131.49,271.05c-.16-.11.93-2,3.44-4.28a61.55,61.55,0,0,1,10.87-7.45c8.86-5.16,16.47-8.53,16.66-8.14s-7,4.42-15.84,9.55a99.51,99.51,0,0,0-10.94,6.92C133.06,269.66,131.69,271.21,131.49,271.05Z" stroke="#000" stroke-miterlimit="10" stroke-width="0.5"/>
      <path d="M128.26,285.66c.21.19-3.27,3.33-6.66,9.95-1.75,3.26-3.48,7.34-5.63,11.82-.54,1.11-1.1,2.26-1.72,3.41a15.26,15.26,0,0,1-1,1.79,5.14,5.14,0,0,1-1.76,1.55,2.34,2.34,0,0,1-1.45.26,2.24,2.24,0,0,1-1.37-.82,4,4,0,0,1-.58-2.49,30,30,0,0,1,.39-4.31,42.68,42.68,0,0,1,5.91-15.16A92.78,92.78,0,0,1,122.13,281c2.41-2.86,4.33-5.2,5.88-6.66a7.42,7.42,0,0,1,2.66-1.92c.07.1-.84.81-2.2,2.36s-3.15,4-5.44,6.94a107.22,107.22,0,0,0-7.4,10.7A42.9,42.9,0,0,0,110,307.08a28.38,28.38,0,0,0-.37,4.08,2.53,2.53,0,0,0,.23,1.48c.23.23.4.3.84.11a3.74,3.74,0,0,0,1.2-1.07,15,15,0,0,0,.94-1.58c.62-1.12,1.19-2.24,1.75-3.34,2.19-4.39,4.05-8.46,6-11.71a39.45,39.45,0,0,1,5.21-7.24l1-1,.78-.67C128,285.78,128.22,285.62,128.26,285.66Z" stroke="#000" stroke-miterlimit="10" stroke-width="0.5"/>
      <path d="M161.09,264.56a5.23,5.23,0,0,1-.37,2.45,14.59,14.59,0,0,1-3.38,5.88,11.4,11.4,0,0,1-3.94,2.74,9.88,9.88,0,0,1-2.64.71,16.26,16.26,0,0,0-2.55.34,2.24,2.24,0,0,0-1.53,1.42,13.31,13.31,0,0,0-.65,2.71c-.36,2-.69,4.05-1.23,6.17a21.62,21.62,0,0,1-2.38,6,13.92,13.92,0,0,1-2,2.47,7.89,7.89,0,0,1-2.58,1.79,3.27,3.27,0,0,1-3.26-.51,5.28,5.28,0,0,1-1.54-2.47,8.76,8.76,0,0,1-.43-2.51c0-.78,0-1.53,0-2.25a23.12,23.12,0,0,1,1.22-6.62c.51-1.51,1-2.27,1.06-2.23a10.36,10.36,0,0,1-.45,2.4,29.14,29.14,0,0,0-.68,6.47c0,.69,0,1.4.1,2.15a8.19,8.19,0,0,0,.46,2.15,3.88,3.88,0,0,0,1.16,1.79,1.79,1.79,0,0,0,1.83.23,6.91,6.91,0,0,0,2-1.5,12.37,12.37,0,0,0,1.69-2.19,21.1,21.1,0,0,0,2.16-5.57c.52-2,.86-4.08,1.24-6.06a13.93,13.93,0,0,1,.79-3,3.9,3.9,0,0,1,1-1.43,3.75,3.75,0,0,1,1.53-.82,16.45,16.45,0,0,1,2.82-.31,9.46,9.46,0,0,0,2.29-.54,10.57,10.57,0,0,0,3.62-2.31,16,16,0,0,0,3.61-5.28A12.41,12.41,0,0,1,161.09,264.56Z" stroke="#000" stroke-miterlimit="10" stroke-width="0.5"/>
      <path d="M129.3,297c.23.13-1.56,3.18-3.49,8.47a62.56,62.56,0,0,0-2.63,9.51,53,53,0,0,1-1.23,5.85,12.51,12.51,0,0,1-1.35,3,9.21,9.21,0,0,1-1.09,1.41,1.94,1.94,0,0,1-1.2.59,2.06,2.06,0,0,1-1.29-.39,3.82,3.82,0,0,1-1.25-1.63,6.34,6.34,0,0,1-.41-1.78,29,29,0,0,1,0-3.23,51.75,51.75,0,0,1,3.21-15.71,42.71,42.71,0,0,1,2.87-6.16c.8-1.39,1.34-2.1,1.43-2,.25.13-1.48,3.22-3.21,8.59a57.11,57.11,0,0,0-2.2,9.6,55,55,0,0,0-.5,5.79,27.39,27.39,0,0,0,0,3,3,3,0,0,0,1,2.23c.19.13.24.12.41,0a7.59,7.59,0,0,0,.86-1.11,10.87,10.87,0,0,0,1.2-2.64c.6-1.86.87-3.81,1.28-5.67a53.62,53.62,0,0,1,3-9.63,44.92,44.92,0,0,1,3.08-6.05C128.65,297.64,129.21,296.94,129.3,297Z" stroke="#000" stroke-miterlimit="10" stroke-width="0.5"/>
      <path d="M133.43,302.33c.19.2-1,1.36-2.14,3.71a35.11,35.11,0,0,0-2.75,9.81c-.34,2-.64,3.92-1,5.68a10.17,10.17,0,0,1-.8,2.56,4.06,4.06,0,0,1-1.74,1.85,2.5,2.5,0,0,1-2.2,0,2.3,2.3,0,0,1-1.16-1.09,1.29,1.29,0,0,1-.06-1c.1-.21.19-.29.24-.27s0,.49.37.95a1.84,1.84,0,0,0,.94.57,1.61,1.61,0,0,0,1.31-.13c.92-.56,1.39-2,1.62-3.67s.52-3.66.87-5.69a40.45,40.45,0,0,1,1.33-5.7,19.22,19.22,0,0,1,2-4.4C131.77,303.1,133.33,302.2,133.43,302.33Z" stroke="#000" stroke-miterlimit="10" stroke-width="0.5"/>
      <path d="M145.64,297.4c.05.12-.57.4-1.52,1.09a12.24,12.24,0,0,0-3.27,3.66,21.24,21.24,0,0,0-2.53,6.89c-.57,2.75-.85,5.9-1.62,9.2A21.29,21.29,0,0,1,135,323a4.14,4.14,0,0,1-.88,1.12,2.39,2.39,0,0,1-1.53.61,2.22,2.22,0,0,1-1.53-.58,3.47,3.47,0,0,1-.82-1.11,7.19,7.19,0,0,1-.59-2.23c-.11-.69-.17-1.36-.23-2a29.77,29.77,0,0,1-.06-3.62c.22-4.42,1.23-7,1.4-6.95s-.33,2.7-.25,7c0,1.07.11,2.23.26,3.47.08.62.17,1.26.29,1.91a5.76,5.76,0,0,0,.53,1.79c.59,1.11,1.31,1.1,2-.15a21.55,21.55,0,0,0,1.47-4.35c.74-3.14,1.07-6.3,1.74-9.14a20.65,20.65,0,0,1,3-7.2,11.06,11.06,0,0,1,3.9-3.57C144.91,297.39,145.61,297.31,145.64,297.4Z" stroke="#000" stroke-miterlimit="10" stroke-width="0.5"/>
      <path d="M171.09,271.67c.09.25-2.11,1-5,3.12a20.59,20.59,0,0,0-4.3,4.48,51.92,51.92,0,0,0-3.9,6.71,63.53,63.53,0,0,1-3.92,6.94,19.67,19.67,0,0,1-4.53,4.83,7.39,7.39,0,0,1-4.18,1.74c-1.14,0-1.65-.45-1.6-.52s.6.08,1.54-.11a7.8,7.8,0,0,0,3.52-2,20.9,20.9,0,0,0,4-4.75c1.28-2,2.44-4.37,3.72-6.86a42.9,42.9,0,0,1,4.15-6.86,19.4,19.4,0,0,1,4.83-4.53C168.68,271.8,171.06,271.5,171.09,271.67Z" stroke="#000" stroke-miterlimit="10" stroke-width="0.5"/>
      <path d="M264.15,196.1a7.54,7.54,0,0,1-.53,1.79c-.4,1.15-1,2.84-1.83,5-1.67,4.33-4.29,10.52-8,18a254.65,254.65,0,0,1-14.56,25.28,248.4,248.4,0,0,1-21.86,28.26,252.06,252.06,0,0,1-22.29,21.89l-5.49,4.6c-1.81,1.48-3.65,2.84-5.4,4.22l-2.61,2L179,309l-5.56,4-1.25-2.33-.84-1.69c-.53-1.12-1.05-2.22-1.5-3.31-.92-2.16-1.69-4.25-2.32-6.24A70.22,70.22,0,0,1,165,289a63.1,63.1,0,0,1-.74-6.78,10.65,10.65,0,0,1,0-2.39,12.41,12.41,0,0,1,.36,2.36c.2,1.54.5,3.81,1.07,6.69a78.29,78.29,0,0,0,2.76,10.23c.67,1.94,1.47,4,2.41,6.11.47,1.06,1,2.13,1.53,3.23l.86,1.64.57,1,4.35-3.18,2.57-1.88,2.57-2c1.73-1.38,3.54-2.75,5.33-4.23l5.43-4.62a265.45,265.45,0,0,0,22.08-21.81,261.71,261.71,0,0,0,21.82-28,278.79,278.79,0,0,0,14.79-25c3.77-7.35,6.55-13.45,8.39-17.7.9-2.13,1.61-3.78,2.11-4.89A8.44,8.44,0,0,1,264.15,196.1Z" stroke="#000" stroke-miterlimit="10" stroke-width="0.5"/>
    </g>
    <g id="Torso">
      <path d="M240.2,134.58a17,17,0,0,0-2.64,8.53c-.25,9.28,7.7,15.06,8.52,15.63a52.18,52.18,0,0,0-4.61,12.81,56.7,56.7,0,0,0-.92,16.41,64.52,64.52,0,0,0,8.57,26.81,48.62,48.62,0,0,1-7.22,13.5c-3.19,4.17-5.25,5.35-12.25,13.49a67.29,67.29,0,0,0-5.52,7,45.3,45.3,0,0,0-5.75,12.8,63.15,63.15,0,0,1,19.75-9.18,66.86,66.86,0,0,1,25.68-1.42,72.37,72.37,0,0,1,22.8,7.26,94.21,94.21,0,0,1,14.19,8.6c8.81,6.26,8.42,7.83,16.27,13.24a75.38,75.38,0,0,0,18,9.37,71.27,71.27,0,0,0,13.18,3.1,76.36,76.36,0,0,0,25.6-.85,114.85,114.85,0,0,0-.77-22.19c-.87-6.54-1.93-10.21-5.88-26-3.43-13.72-5.15-20.58-5.92-24.22-2.66-12.67-3.42-22.29-4.25-33.68-2-27.07-3.44-50.86-4.47-69.41a220.62,220.62,0,0,0-39.19-.33A223.86,223.86,0,0,0,240.2,134.58Z" fill="#fff"/>
      <path d="M352.47,116.11a24.2,24.2,0,0,1-4.53,0l-2.41-.13-2.88-.08c-2.06,0-4.41-.16-7-.13h-4.07c-1.42,0-2.89.07-4.42.1-3.05,0-6.3.26-9.72.45-6.84.5-14.34,1.3-22.15,2.56s-15.16,3-21.8,4.66c-3.3.92-6.46,1.75-9.36,2.69-1.45.46-2.87.86-4.21,1.32l-3.86,1.31c-2.47.8-4.65,1.67-6.59,2.37l-2.7,1-2.25.89a24.43,24.43,0,0,1-4.27,1.5,23.38,23.38,0,0,1,4-2.09l2.19-1,2.66-1.13c1.92-.78,4.08-1.73,6.54-2.6l3.84-1.43c1.34-.48,2.76-.92,4.21-1.41,2.9-1,6.06-1.88,9.38-2.85,6.66-1.8,14.06-3.5,21.93-4.82s15.42-2,22.31-2.45c3.45-.15,6.73-.32,9.8-.3,1.53,0,3,0,4.44,0l4.09.12c2.61,0,5,.24,7,.37l2.88.22,2.41.27A24,24,0,0,1,352.47,116.11Z" stroke="#000" stroke-miterlimit="10" stroke-width="0.5"/>
      <path d="M246.08,158.74c-.29.33-2.56-1.25-4.48-4s-2.65-5.41-2.24-5.57,1.75,2.05,3.57,4.63S246.39,158.4,246.08,158.74Z" stroke="#000" stroke-miterlimit="10" stroke-width="0.5"/>
      <path d="M251,219.76c-.2.08-1.82-3.27-4.26-8.77-1.21-2.75-2.71-6-4.08-9.79a49.61,49.61,0,0,1-2.85-12.78,56.71,56.71,0,0,1,.34-13.07,64.85,64.85,0,0,1,2.33-10.4,62.53,62.53,0,0,1,2.52-6.71,8.22,8.22,0,0,1,1.28-2.3c.26.1-1.19,3.54-2.69,9.33a67.34,67.34,0,0,0-2.15,23c.67,9.08,4.25,16.65,6.36,22.28S251.18,219.67,251,219.76Z" stroke="#000" stroke-miterlimit="10" stroke-width="0.5"/>
      <path d="M218.39,261.49a5.45,5.45,0,0,1,.23-2.25,26.58,26.58,0,0,1,2-5.81,44.76,44.76,0,0,1,4.78-7.77,98.14,98.14,0,0,1,7.26-8.41c2.69-2.85,5.27-5.52,7.47-8.06a63,63,0,0,0,5.41-7.06,31.3,31.3,0,0,0,2.87-5.24c.5-1.3.55-2.1.68-2.09s.27.83-.07,2.28a23.68,23.68,0,0,1-2.49,5.64,52.8,52.8,0,0,1-5.25,7.44c-2.18,2.64-4.75,5.37-7.43,8.21s-5.18,5.57-7.26,8.21a51.62,51.62,0,0,0-5,7.37C219.25,258.4,218.68,261.56,218.39,261.49Z" stroke="#000" stroke-miterlimit="10" stroke-width="0.5"/>
      <path d="M373.74,291.65a6.37,6.37,0,0,1-1.66.47c-.55.12-1.23.28-2,.44l-2.82.44a71.59,71.59,0,0,1-18.15.16,72.69,72.69,0,0,1-12.34-2.51A67.34,67.34,0,0,1,323.41,285c-1.13-.61-2.21-1.33-3.33-2s-2.17-1.49-3.28-2.24c-2.16-1.58-4.23-3.34-6.32-5.13a125.82,125.82,0,0,0-13.31-10.42,84.76,84.76,0,0,0-29.67-12.89,64.64,64.64,0,0,0-26.37-.14,60.31,60.31,0,0,0-9.77,2.92c-1.39.58-2.69,1.11-3.83,1.7s-2.2,1.14-3.13,1.65c-3.68,2.12-5.52,3.62-5.61,3.49a6.72,6.72,0,0,1,1.27-1.16,36.59,36.59,0,0,1,4-2.88c.91-.56,1.92-1.2,3.09-1.79s2.44-1.23,3.84-1.86a58.3,58.3,0,0,1,9.88-3.19,64.11,64.11,0,0,1,26.91-.21,84.4,84.4,0,0,1,30.27,13,122.78,122.78,0,0,1,13.45,10.56c2.08,1.79,4.11,3.54,6.21,5.09,1.07.74,2.11,1.52,3.18,2.21s2.14,1.37,3.23,2a67.83,67.83,0,0,0,13,5.64A74.62,74.62,0,0,0,349.21,292a77.91,77.91,0,0,0,17.94.35l2.81-.29,2.06-.28A7.35,7.35,0,0,1,373.74,291.65Z" stroke="#000" stroke-miterlimit="10" stroke-width="0.5"/>
      <path d="M373.84,291.33a5.71,5.71,0,0,1,0-1.5c0-1,.12-2.42.06-4.28a96,96,0,0,0-1.32-15.61,222.19,222.19,0,0,0-5.14-22.72c-2.26-8.48-5-17.8-6.92-27.82-3.88-20-4.59-38.53-5-51.82-.17-6.66-.2-12-.19-15.77,0-1.86,0-3.3.06-4.28a5.08,5.08,0,0,1,.13-1.5,5.24,5.24,0,0,1,.2,1.49c.07,1,.15,2.42.24,4.28.17,3.72.41,9.1.71,15.74.68,13.26,1.58,31.67,5.43,51.55,1.93,9.93,4.58,19.22,6.78,27.75a200.18,200.18,0,0,1,4.82,22.93,82.81,82.81,0,0,1,.81,15.8,40.8,40.8,0,0,1-.37,4.28A5,5,0,0,1,373.84,291.33Z" stroke="#000" stroke-miterlimit="10" stroke-width="0.5"/>
      <path d="M312.26,217.06c-.09.19-1.64-.31-3.91-1.61a33.55,33.55,0,0,1-13.5-15c-1.05-2.4-1.37-4-1.18-4.07.46-.19,2.78,5.8,8,11.54S312.51,216.62,312.26,217.06Z" stroke="#000" stroke-miterlimit="10" stroke-width="0.5"/>
    </g>
    <g id="Arm_left" data-name="Arm left">
      <path d="M328.91,152.65a99.5,99.5,0,0,1,23.62-36.53,58.75,58.75,0,0,1,7.69,6.14,63.58,63.58,0,0,1,8.9,10.65c1.26,1.83,3.93,5.87,9,16.34,5.35,11,6.07,14.16,10.72,22.63,2.07,3.77,3.92,6.78,5.17,8.75,2-4.31,4.82-10.62,8.37-18.29,2.92-6.31,4.41-9.53,5.76-12.28A237.48,237.48,0,0,1,421,127.33a38.18,38.18,0,0,1,9.44,1.6A39,39,0,0,1,446,138.14c-1.09,3-2.59,7-4.46,11.68-3.95,9.8-7.89,18.3-11.38,25.31-3.1,6.21-5.4,10.37-9.28,17.38-1.51,2.72-1.18,2.08-16.27,25.69a24.08,24.08,0,0,1-8.08,8.37,22.4,22.4,0,0,1-8.95,2.92c-1.89-1.8-4.57-4.4-7.66-7.66a190.52,190.52,0,0,1-25.07-32.37c-4.7-7.74-7-11.6-9.49-16.57s-4-9-7.91-13.28A36.15,36.15,0,0,0,328.91,152.65Z" fill="#fff"/>
      <path d="M394.53,181.39a10.32,10.32,0,0,1-2-2.45,81.21,81.21,0,0,1-4.48-7.3c-1.76-3.16-3.66-7-5.68-11.35s-4.17-9.08-6.6-14a118.19,118.19,0,0,0-7.58-13.37,68.45,68.45,0,0,0-7.84-9.73c-5.07-5-9.05-7.15-8.88-7.43a11,11,0,0,1,2.82,1.41,44.45,44.45,0,0,1,6.86,5.19,61.75,61.75,0,0,1,8.28,9.72,104.6,104.6,0,0,1,7.8,13.49c2.45,4.95,4.56,9.75,6.5,14.09s3.73,8.23,5.34,11.43C392.28,177.53,394.73,181.25,394.53,181.39Z" stroke="#000" stroke-miterlimit="10" stroke-width="0.5"/>
      <path d="M335.7,156.54c-.28.36-1.51-.13-3-.66s-2.7-1-2.68-1.43,1.53-.73,3.24-.09S336,156.2,335.7,156.54Z" stroke="#000" stroke-miterlimit="10" stroke-width="0.5"/>
      <path d="M387.53,229.45a15.86,15.86,0,0,1-2.8-2.26c-1.71-1.56-4.14-3.87-7-6.86a183.79,183.79,0,0,1-20.22-25.27c-3.51-5.26-6.6-10.45-9.2-15.28s-4.73-9.24-6.81-12.78a63.13,63.13,0,0,0-5.44-8,23,23,0,0,1-2.25-2.79,11.58,11.58,0,0,1,2.73,2.37,49.34,49.34,0,0,1,5.94,7.86c2.24,3.51,4.5,7.9,7.15,12.65s5.75,9.88,9.24,15.1a223.77,223.77,0,0,0,19.71,25.38c2.74,3.08,5,5.5,6.61,7.19A15.29,15.29,0,0,1,387.53,229.45Z" stroke="#000" stroke-miterlimit="10" stroke-width="0.5"/>
      <path d="M421,127.37c.22.15-2.27,4-5.82,10.6s-8,15.84-12.7,26.23-9.07,19.78-12.65,26.37a49.44,49.44,0,0,1-4.65,7.61c-1.38,1.64-2.47,2.2-2.52,2.12s.84-.82,2-2.51a64.78,64.78,0,0,0,4.13-7.75c3.31-6.69,7.5-16.11,12.19-26.51a268.78,268.78,0,0,1,13.19-26.13c.95-1.62,1.84-3.06,2.66-4.3s1.51-2.33,2.13-3.18A12.93,12.93,0,0,1,421,127.37Z" stroke="#000" stroke-miterlimit="10" stroke-width="0.5"/>
      <path d="M446,138.2a25,25,0,0,1-1.33,4.5c-1,2.86-2.47,7-4.49,12a313.71,313.71,0,0,1-18.42,38c-4.08,7.16-8.25,13.83-12.22,19.76a99.21,99.21,0,0,1-6,8.27,34.59,34.59,0,0,1-6.46,6.19,19.93,19.93,0,0,1-12.2,4,13.22,13.22,0,0,1-3.47-.6,3.07,3.07,0,0,1-1.12-.51,29.58,29.58,0,0,0,4.6.47,20,20,0,0,0,11.51-4.27,34.92,34.92,0,0,0,6.09-6.12c1.95-2.45,3.82-5.26,5.75-8.24,3.89-6,8-12.62,12.06-19.75a387.53,387.53,0,0,0,18.78-37.59c2.15-4.93,3.8-9,5-11.75A24.88,24.88,0,0,1,446,138.2Z" stroke="#000" stroke-miterlimit="10" stroke-width="0.5"/>
    </g>
    <g id="Keys">
      <path d="M421.76,126a37,37,0,0,1,4.92,3.4c2.54,2.06,3.06,3,4.34,3.74,1.77,1,4.83,1.47,10.46-1.23a21.47,21.47,0,0,1,3.93,4.87,22,22,0,0,1,2.46,6.34,21.36,21.36,0,0,1,.44,2.93,19.16,19.16,0,0,0-7.53,1.63,19.88,19.88,0,0,0-9.2,8.6,25.49,25.49,0,0,0-7.57-5.78,26.17,26.17,0,0,0-14.88-2.46l-6-.91a22.72,22.72,0,0,1,.13-11.44A24.41,24.41,0,0,1,411.1,124a32.14,32.14,0,0,1,15.44-7.66,34.47,34.47,0,0,1,6.48-.74c3.72-3.28,6-3.09,7-2.81.48.14.59.28,3.73,2.29a31.38,31.38,0,0,1,3.51,2.3c1.5,1.45,1.07,2,3.23,5a30.17,30.17,0,0,1,1.94,2.6,10.78,10.78,0,0,1,1.51,3.73c.44,3.09-1.79,5.7-2.41,6.38a14,14,0,0,1,2.34,4.31,13.85,13.85,0,0,1,.6,5.71,35.48,35.48,0,0,1,8.18,1.4,36.81,36.81,0,0,1,11,5.42,45.52,45.52,0,0,1,15,18.52c4.31,9.89,3.82,18.56,3.49,23.5a61.86,61.86,0,0,1-6.28,22.41c-1,2-1.89,3.55-2.57,4.65a12.41,12.41,0,0,0,.68,4.17,19.54,19.54,0,0,0,2.18,4,15.87,15.87,0,0,1,2,6.66,9,9,0,0,1,3,1.12,8.81,8.81,0,0,1,3.24,3.34,8.72,8.72,0,0,1,.9,5.48,9,9,0,0,1,2.88,1.32,7.08,7.08,0,0,1,2.68,3,6.54,6.54,0,0,1,.42,3.53,12.28,12.28,0,0,1,2.21,2.24,13.19,13.19,0,0,1,1.8,3.35c1.58,4.07,1.06,5.73,2.58,9a16.55,16.55,0,0,0,1.48,2.55,4,4,0,0,1,2.9.92c.77.72.69,1.41,1.6,3.52a24.6,24.6,0,0,0,1.46,2.8,20.65,20.65,0,0,0,2.82,3.46c1,1.23,2.16,3.36,2.2,7.26.86,1,2.08,2.43,3.52,4.15,2.19,2.61,2.43,2.94,2.69,3.32,1.74,2.61,1.32,3.26,2.91,5.23.91,1.13,1.12,1,2.7,2.83s1.9,2.6,2.07,3.26a11.41,11.41,0,0,1,.12,2.77,22.34,22.34,0,0,0,.38,3.69,9.67,9.67,0,0,1,2.32,2.84c.4.76,1.09,2.34,1,5.78a26.33,26.33,0,0,1-1.71,8.77Q523,312.68,509.38,293.89,487,263,464.75,233.08a26.54,26.54,0,0,1-8.12,2.42c-8.65,1.11-15.36-2.46-18.39-4.12a35.52,35.52,0,0,1-12-10.81,29.39,29.39,0,0,1-8.82,4.28,51.64,51.64,0,0,1-9.36,1.71c-2.13.14-3.34.06-5.07.8a11.38,11.38,0,0,0-4.51,3.69c-1.47,1.93-2.1,3.86-3.23,7.32-1,2.91-1.1,4.17-2.39,5.22a6,6,0,0,1-3.62,1.2,4.16,4.16,0,0,0-.19,3c.4,1.06,1.14,1.2,1.5,2.19s0,1.9-.73,3.7c-.88,2.18-1.49,3.67-3.07,4.57a5.56,5.56,0,0,1-2.73.7,15,15,0,0,1-.35,7.3,9.73,9.73,0,0,1-2.37,4.52c-1.44,1.42-2.41,1.23-3.12,2.56s.07,2.2-.5,4.35c-.14.54-.26.75-2,3.59l-3.13,5.08c-1.38,2.23-2.07,3.35-2.18,3.58-1.35,2.88-.68,3.65-2,6.36a17,17,0,0,1-2.71,4,22.2,22.2,0,0,1-4.17,3.8c-1,3.35-1.58,6.05-1.94,7.92a17.12,17.12,0,0,1-1.72,5.75c-.77,1.41-1,1.2-2,3-1.19,2.09-1.2,2.94-2.43,5.2a25.65,25.65,0,0,1-1.79,2.84c-2.39,3.27-3.56,3.13-5.08,5.71-1.13,1.91-.69,2.34-1.8,3.68-.43.53-1.54,1.72-4.56,2.83a23.05,23.05,0,0,1-9.23,1.29q9-21.91,18-44.41Q364.61,258.44,378.8,220A31.82,31.82,0,0,1,368,208.78,33.08,33.08,0,0,1,364.19,197a36.62,36.62,0,0,1,1.11-14.06,53.74,53.74,0,0,1,14.44-25c3.07-3,7.14-6.87,13.73-8.83a28.08,28.08,0,0,1,6-1.1,16.21,16.21,0,0,1,2.74-.54,17.25,17.25,0,0,1,6.91.62,16.07,16.07,0,0,1,.06-9.37c1.26-3.88,3.81-6.19,6-8.21A28.67,28.67,0,0,1,421.76,126Z" fill="#fff"/>
      <path d="M431,130c-.36-.32,2.34-3.6,4.36-8.31.51-1.17.94-2.31,1.29-3.37a6.41,6.41,0,0,0,.36-2.66,2.3,2.3,0,0,0-.61-1.53c-.29-.28-.56-.38-.55-.51s.31-.23.87,0a2.62,2.62,0,0,1,1.42,1.86,6.32,6.32,0,0,1,0,3.31,24,24,0,0,1-1.24,3.59,22.69,22.69,0,0,1-3.63,5.83C432.07,129.48,431.17,130.12,431,130Z" stroke="#000" stroke-miterlimit="10" stroke-width="0.5"/>
      <path d="M431.53,130.47c.06-.27,1.72.29,4.17-.47a10,10,0,0,0,3.76-2.23,12,12,0,0,0,2.87-4.54,18.7,18.7,0,0,0,1.06-5.41,5.15,5.15,0,0,0-1.09-3.89,3,3,0,0,0-2.52-.79c-.65.13-.95.44-1,.36s0-.56.85-1a3.43,3.43,0,0,1,3.46.51,6,6,0,0,1,1.85,4.8,17.41,17.41,0,0,1-1,5.94,12.3,12.3,0,0,1-3.39,5.09,9.85,9.85,0,0,1-4.49,2.23,7.3,7.3,0,0,1-3.36-.06C431.86,130.83,431.5,130.56,431.53,130.47Z" stroke="#000" stroke-miterlimit="10" stroke-width="0.5"/>
      <path d="M438.5,131.51c0-.28,1.38-.11,3.29-.82a10.4,10.4,0,0,0,5.71-5,8.4,8.4,0,0,0,.86-4,7.25,7.25,0,0,0-1-3.24c-1-1.7-2.41-2-2.34-2.28,0-.09.39-.16,1,0a4.75,4.75,0,0,1,2.25,1.58,7.48,7.48,0,0,1,1.57,3.77,9.1,9.1,0,0,1-.88,4.93,10.29,10.29,0,0,1-6.87,5.41C439.83,132.29,438.44,131.67,438.5,131.51Z" stroke="#000" stroke-miterlimit="10" stroke-width="0.5"/>
      <path d="M442.4,133.75c0-.23,1.05-.43,2.64-.9a14.25,14.25,0,0,0,2.64-1.09,7,7,0,0,0,2.46-2.14,6.65,6.65,0,0,0,.42-5.77c-.5-1.56-1-2.5-.83-2.64s1,.58,1.9,2.2a8.29,8.29,0,0,1,.9,3.12,6.37,6.37,0,0,1-1,4,7.38,7.38,0,0,1-3.14,2.58,10.23,10.23,0,0,1-3.07.87C443.5,134.19,442.4,134,442.4,133.75Z" stroke="#000" stroke-miterlimit="10" stroke-width="0.5"/>
      <path d="M445.42,136.82c0-.24,1-.18,2.46-.62a7.21,7.21,0,0,0,5.17-8.78c-.31-1.46-.84-2.3-.65-2.46s1.07.5,1.75,2.11a7.46,7.46,0,0,1-6,10.26C446.37,137.52,445.36,137,445.42,136.82Z" stroke="#000" stroke-miterlimit="10" stroke-width="0.5"/>
      <path d="M413.4,154.32s-.19,0-.47-.18a5.9,5.9,0,0,1-1.14-.83,11.56,11.56,0,0,1-2.94-4.28,15.44,15.44,0,0,1-1-7.66,17.14,17.14,0,0,1,3.78-8.67,24.68,24.68,0,0,1,7.23-6,27.72,27.72,0,0,1,7.1-2.82,14.39,14.39,0,0,1,5.15-.33c1.22.17,1.84.45,1.82.55,0,.26-2.69-.35-6.68.9a30.87,30.87,0,0,0-6.64,3,25,25,0,0,0-6.7,5.72,16.52,16.52,0,0,0-3.58,7.86,15.39,15.39,0,0,0,.58,7.06,13.42,13.42,0,0,0,2.32,4.24,13.08,13.08,0,0,0,.89,1C413.34,154.12,413.43,154.27,413.4,154.32Z" stroke="#000" stroke-miterlimit="10" stroke-width="0.5"/>
      <path d="M433.31,116.94s-.24,0-.62,0l-.71-.13-1-.1a17.35,17.35,0,0,0-6.11.48,28.85,28.85,0,0,0-8.33,3.78,48.44,48.44,0,0,0-4.43,3.19,32.31,32.31,0,0,0-4.23,4,18.25,18.25,0,0,0-4.27,10,37.64,37.64,0,0,0,.11,9.2,16,16,0,0,0,1.63,5.91c.7,1.26,1.34,1.81,1.25,1.91s-.86-.31-1.79-1.57a14.59,14.59,0,0,1-2.23-6.08,34.78,34.78,0,0,1-.46-9.55,21.17,21.17,0,0,1,1.31-5.58,17.82,17.82,0,0,1,3.22-5.31,31.57,31.57,0,0,1,4.47-4.16,45.51,45.51,0,0,1,4.63-3.22,27.56,27.56,0,0,1,8.87-3.62,15.34,15.34,0,0,1,6.47,0c.37.1.7.17,1,.26l.69.28C433.15,116.78,433.33,116.89,433.31,116.94Z" stroke="#000" stroke-miterlimit="10" stroke-width="0.5"/>
      <path d="M441.47,132c.1.17-.81,1-2.61,1.83a11.57,11.57,0,0,1-3.4,1,8.17,8.17,0,0,1-4.42-.64,11.75,11.75,0,0,1-3.42-2.7c-.87-.93-1.61-1.74-2.29-2.33-1.34-1.21-2.51-1.34-2.49-1.6,0-.1.31-.21.89-.17a5,5,0,0,1,2.28.84,19.1,19.1,0,0,1,2.67,2.19,12.44,12.44,0,0,0,3.05,2.29c2.36,1.1,5,.55,6.73.08S441.35,131.74,441.47,132Z" stroke="#000" stroke-miterlimit="10" stroke-width="0.5"/>
      <path d="M447.4,154.51c-.47-.14.73-4.37,0-9.57s-3-9-2.57-9.22c.17-.11,1,.68,1.92,2.26a19.18,19.18,0,0,1,1.91,13.84C448.17,153.59,447.59,154.58,447.4,154.51Z" stroke="#000" stroke-miterlimit="10" stroke-width="0.5"/>
      <path d="M451.75,155.52c-.22-.08,0-1.29.5-3.17a41.34,41.34,0,0,0,1.37-7.33,16.83,16.83,0,0,0-1-7.15c-.67-1.75-1.4-2.72-1.22-2.88s1.23.58,2.26,2.39a13.93,13.93,0,0,1,1.56,7.75,24.67,24.67,0,0,1-1.9,7.58C452.58,154.53,452,155.59,451.75,155.52Z" stroke="#000" stroke-miterlimit="10" stroke-width="0.5"/>
      <path d="M414.48,152.83c.07-.07.36.06.71.47a3.73,3.73,0,0,1,.8,2.19,5.68,5.68,0,0,1-.92,3.34,5.84,5.84,0,0,1-1.45,1.54,5.07,5.07,0,0,1-2.16.88,5.77,5.77,0,0,1-4.16-1.09,6.65,6.65,0,0,1-2.16-2.64c-.8-1.81-.42-3.06-.24-3s.34,1.11,1.25,2.48a6.6,6.6,0,0,0,2,1.94,4.64,4.64,0,0,0,3.09.73,4.07,4.07,0,0,0,2.6-1.66,5.07,5.07,0,0,0,1-2.51C415,153.89,414.27,153,414.48,152.83Z" stroke="#000" stroke-miterlimit="10" stroke-width="0.5"/>
      <path d="M414.23,154.52c.18.11,0,.79-.72,1.55a4.84,4.84,0,0,1-7.4-.87c-.57-.92-.54-1.61-.34-1.67s.57.39,1.22.93a5,5,0,0,0,5.83.69C413.58,154.77,414,154.39,414.23,154.52Z" stroke="#000" stroke-miterlimit="10" stroke-width="0.5"/>
      <path d="M401.67,148s-.33.11-1,.17l-1.17.1-1.57.24a28.1,28.1,0,0,0-9.39,3.44,42.23,42.23,0,0,0-11.24,9.68A61,61,0,0,0,368,177.31a42,42,0,0,0-3.23,17.78,32,32,0,0,0,4.18,14.1,26.35,26.35,0,0,0,3.34,4.63,27,27,0,0,0,3.12,3c1.87,1.48,3.05,2.12,3,2.25s-.34-.06-.93-.34a16.74,16.74,0,0,1-2.43-1.4,23.21,23.21,0,0,1-3.41-2.88,25.54,25.54,0,0,1-3.66-4.66,31.88,31.88,0,0,1-4.68-14.6,42,42,0,0,1,3.21-18.48,59.53,59.53,0,0,1,9.69-16A41.63,41.63,0,0,1,388,150.93a25.81,25.81,0,0,1,9.86-3.06c.61,0,1.16-.08,1.62-.09l1.19.06C401.34,147.88,401.68,147.93,401.67,148Z" stroke="#000" stroke-miterlimit="10" stroke-width="0.5"/>
      <path d="M405.78,226.47a3.3,3.3,0,0,1,1.21-.12l1.45,0,2-.2A30.44,30.44,0,0,0,422.12,222a41,41,0,0,0,13.24-12.7,47.39,47.39,0,0,0,7.6-21.11,44,44,0,0,0-.31-11.67,37.06,37.06,0,0,0-3.35-10.3A34.14,34.14,0,0,0,427,152.79a31.48,31.48,0,0,0-11.6-4.44c-1.47-.18-2.61-.33-3.4-.34a3.68,3.68,0,0,1-1.2-.16c0-.06.41-.12,1.2-.17a21.72,21.72,0,0,1,3.48,0,29.76,29.76,0,0,1,12.11,4.09,34.36,34.36,0,0,1,13,13.74,37.71,37.71,0,0,1,3.59,10.72,44.4,44.4,0,0,1,.36,12.11,48.07,48.07,0,0,1-8,21.79A41.06,41.06,0,0,1,422.68,223a29,29,0,0,1-12.22,3.71l-2,.06-1.47-.12C406.19,226.6,405.78,226.53,405.78,226.47Z" stroke="#000" stroke-miterlimit="10" stroke-width="0.5"/>
      <path d="M415.32,153.53c.06-.06.53.2,1.11.95a7.48,7.48,0,0,1,1.4,3.74,8.36,8.36,0,0,1-1.58,5.79A8.41,8.41,0,0,1,403,163.7a8.37,8.37,0,0,1-1.3-5.85,7.58,7.58,0,0,1,1.57-3.68c.62-.72,1.09-1,1.15-.89s-.22.49-.62,1.25a8.3,8.3,0,0,0-.95,3.43,7.6,7.6,0,0,0,1.37,4.87,7.14,7.14,0,0,0,10.84.25,7.62,7.62,0,0,0,1.61-4.8,8.54,8.54,0,0,0-.79-3.47C415.52,154,415.22,153.62,415.32,153.53Z" stroke="#000" stroke-miterlimit="10" stroke-width="0.5"/>
      <path d="M331.15,341.57a32,32,0,0,1,1.69-4.9c1.19-3.11,3-7.6,5.14-13.14,4.37-11.09,10.41-26.39,17.09-43.3s12.55-32.28,16.87-43.39c2.15-5.55,3.92-10,5.16-13.13a30,30,0,0,1,2.09-4.75,33.27,33.27,0,0,1-1.5,5c-1.06,3.17-2.65,7.72-4.67,13.32-4,11.22-9.8,26.64-16.44,43.58S343.7,313,339,324c-2.32,5.49-4.24,9.92-5.61,13A31.09,31.09,0,0,1,331.15,341.57Z" stroke="#000" stroke-miterlimit="10" stroke-width="0.5"/>
      <path d="M390.11,245.17c-.1,0,.08-.53.77-.87.32-.17.73-.31,1.08-.52a2,2,0,0,0,.78-1c.83-2.23,2.09-5.4,3.57-8.8.37-.86.72-1.67,1.11-2.5a9.38,9.38,0,0,1,1.47-2.3,8.35,8.35,0,0,1,3.95-2.34c2.52-.63,4.09-.18,4.07,0s-1.55.26-3.71,1.1a7.77,7.77,0,0,0-3.17,2.22,20.2,20.2,0,0,0-2.23,4.47c-1.49,3.42-2.88,6.44-4,8.67a2.83,2.83,0,0,1-1.41,1.33,7.49,7.49,0,0,1-1.26.3C390.47,245,390.21,245.23,390.11,245.17Z" stroke="#000" stroke-miterlimit="10" stroke-width="0.5"/>
      <path d="M384.06,259c0-.24,1.06-.23,2.27-1.1a6.3,6.3,0,0,0,1.72-1.9,11.77,11.77,0,0,0,1.18-3.06c.15-.58.27-1.17.4-1.75a4.09,4.09,0,0,0,.18-1.33c0-.21-.3-.5-.69-.89a3.06,3.06,0,0,1-.81-1.43,2.9,2.9,0,0,1,.31-2.21c.29-.45.57-.57.65-.5s0,.32-.06.73a2.86,2.86,0,0,0,.2,1.62,2.07,2.07,0,0,0,.63.8c.16.14.37.29.61.51a2.13,2.13,0,0,1,.61,1,4.57,4.57,0,0,1-.06,2c-.11.58-.23,1.2-.39,1.83a10.49,10.49,0,0,1-1.5,3.48,6.34,6.34,0,0,1-2.41,2.08,4,4,0,0,1-2.09.42C384.3,259.23,384.05,259.08,384.06,259Z" stroke="#000" stroke-miterlimit="10" stroke-width="0.5"/>
      <path d="M377.48,278.14c-.1-.07,0-.36,0-.87s-.15-1.23-.25-2.31a3.37,3.37,0,0,1,.36-1.94,4.6,4.6,0,0,1,1.61-1.49,8.66,8.66,0,0,0,2.68-2.85,9.19,9.19,0,0,0,1.22-3.74,23.62,23.62,0,0,0-.13-3.41,4.1,4.1,0,0,1,.56-2.54c.39-.53.76-.62.81-.54s-.11.35-.25.82a4.8,4.8,0,0,0,0,2.14c.09.49.2,1,.31,1.6a9.17,9.17,0,0,1,.17,2,9.42,9.42,0,0,1-1.32,4.47,9.13,9.13,0,0,1-3.28,3.31,3.74,3.74,0,0,0-1.26.92,2.38,2.38,0,0,0-.36,1.23,8.8,8.8,0,0,1-.28,2.44C377.89,278,377.56,278.21,377.48,278.14Z" stroke="#000" stroke-miterlimit="10" stroke-width="0.5"/>
      <path d="M362.85,302.86c-.16-.21,1.23-1.29,2.87-3.48a19.73,19.73,0,0,0,2.36-4.13,18.17,18.17,0,0,0,.9-2.64c.24-.93.35-1.94.66-3.08a7.61,7.61,0,0,1,1.7-3c.72-.81,1.45-1.46,2.09-2.1a10.41,10.41,0,0,0,2.55-3.84c.94-2.51.7-4.3,1-4.32.1,0,.29.4.4,1.22a9,9,0,0,1-.27,3.46,10.66,10.66,0,0,1-2.56,4.52c-1.3,1.41-2.84,2.69-3.31,4.52-.26.93-.4,2-.69,3a16.83,16.83,0,0,1-1.07,2.85,17.08,17.08,0,0,1-2.84,4.24C364.62,302.26,363,303,362.85,302.86Z" stroke="#000" stroke-miterlimit="10" stroke-width="0.5"/>
      <path d="M348.77,332.35c-.09,0-.11-.53.29-1.33a13.89,13.89,0,0,1,2.27-2.75,6.14,6.14,0,0,0,1.21-1.79c.29-.7.4-1.6.73-2.62.66-2.05,2.14-3.79,3.33-5.59a13.93,13.93,0,0,0,2.12-5.57c.35-1.88.59-3.64,1-5.11a11.16,11.16,0,0,1,1.38-3.33c.48-.71.86-1,.94-.95s-.79,1.66-1.19,4.52c-.23,1.42-.35,3.15-.63,5.12a18.21,18.21,0,0,1-.7,3.1,12.76,12.76,0,0,1-1.54,3.12c-1.3,1.93-2.67,3.51-3.27,5.19-.32.82-.49,1.78-.91,2.67a6.9,6.9,0,0,1-1.64,2.06,28.12,28.12,0,0,0-2.55,2.28C349.08,332,348.9,332.38,348.77,332.35Z" stroke="#000" stroke-miterlimit="10" stroke-width="0.5"/>
      <path d="M349.89,330c.18.15-.49,1.27-1.33,3.23a32.06,32.06,0,0,1-1.68,3.44,10.49,10.49,0,0,1-3.33,3.61,13.35,13.35,0,0,1-4.49,1.89,22.49,22.49,0,0,1-3.84.51c-2.18.09-3.52-.07-3.53-.29s1.31-.48,3.4-.85a20.33,20.33,0,0,0,7.55-2.61c2.56-1.65,3.73-4.42,4.91-6.24S349.73,329.8,349.89,330Z" stroke="#000" stroke-miterlimit="10" stroke-width="0.5"/>
      <path d="M380.77,258.21c-.2-.14.6-1.58,1.37-4.11.39-1.26.78-2.79,1.22-4.52a40,40,0,0,1,1.79-5.61,23.44,23.44,0,0,1,3.06-5.11c1.09-1.43,2.09-2.66,2.87-3.73,1.58-2.12,2.22-3.64,2.46-3.56s-.09,1.8-1.5,4.19c-.68,1.19-1.61,2.52-2.61,4a26.23,26.23,0,0,0-2.78,4.87,54.51,54.51,0,0,0-1.84,5.38,43.52,43.52,0,0,1-1.59,4.51C382.13,257.05,380.93,258.34,380.77,258.21Z" stroke="#000" stroke-miterlimit="10" stroke-width="0.5"/>
      <path d="M340.09,335.35c-.19-.15,2.44-3.68,5.71-10s7.65-15.13,12.69-24.75,9.64-18.32,13.06-24.57c1.71-3.12,3.12-5.63,4.13-7.35a11.08,11.08,0,0,1,1.71-2.6,11.73,11.73,0,0,1-1.15,2.89c-.83,1.81-2.09,4.41-3.67,7.6-3.15,6.38-7.62,15.15-12.64,24.78s-9.58,18.34-13.12,24.56a68.21,68.21,0,0,1-4.64,7.09A10,10,0,0,1,340.09,335.35Z" stroke="#000" stroke-miterlimit="10" stroke-width="0.5"/>
      <path d="M449.45,146.13c0,.25-1.24.3-3.11.65a22.54,22.54,0,0,0-6.91,2.53,24.48,24.48,0,0,0-3.32,2.32,24,24,0,0,0-2.37,2.34c-1.26,1.43-1.93,2.45-2.16,2.34s.13-1.32,1.24-3a16,16,0,0,1,2.28-2.75,18.88,18.88,0,0,1,3.52-2.63,18.66,18.66,0,0,1,4.06-1.69,16.21,16.21,0,0,1,3.53-.56C448.25,145.57,449.47,145.93,449.45,146.13Z" stroke="#000" stroke-miterlimit="10" stroke-width="0.5"/>
      <path d="M483.59,220a16.88,16.88,0,0,1,1.73-3.37c.52-1.1,1.18-2.43,1.87-4a56.9,56.9,0,0,0,1.95-5.49,54.19,54.19,0,0,0,2.24-14.91A53.23,53.23,0,0,0,488.46,174a48.64,48.64,0,0,0-9.14-15.9,39.28,39.28,0,0,0-11.8-9.21,33,33,0,0,0-5.39-2.09c-.83-.19-1.6-.4-2.31-.53s-1.39-.25-2-.31l-1.6-.15c-.47,0-.86,0-1.18,0a2.58,2.58,0,0,1-1-.13c0-.06.33-.13,1-.2.32,0,.72-.09,1.19-.11h1.64c.62,0,1.3.11,2.06.17s1.55.26,2.41.42a32.16,32.16,0,0,1,5.67,1.92,39,39,0,0,1,12.42,9.25A48.58,48.58,0,0,1,490,173.48a52.87,52.87,0,0,1,2.88,18.72,52.21,52.21,0,0,1-2.64,15.24A49.52,49.52,0,0,1,488,213c-.78,1.57-1.54,2.87-2.15,3.94A16.41,16.41,0,0,1,483.59,220Z" stroke="#000" stroke-miterlimit="10" stroke-width="0.5"/>
      <path d="M468,231.48c.09.15-2.12,1.75-6.3,3a31.2,31.2,0,0,1-31.42-8.2c-3-3.16-4.16-5.64-4-5.72s1.71,2.06,4.82,4.89a33.16,33.16,0,0,0,30.32,7.91C465.51,232.44,467.89,231.23,468,231.48Z" stroke="#000" stroke-miterlimit="10" stroke-width="0.5"/>
      <path d="M453.6,150.73c0-.07.61.13,1.37.87a7.69,7.69,0,0,1,2,4,8.48,8.48,0,0,1-1.32,6.51,7.3,7.3,0,0,1-3.2,2.54,9.06,9.06,0,0,1-8.39-.83,7.33,7.33,0,0,1-2.65-3.11,8.53,8.53,0,0,1,0-6.65,7.7,7.7,0,0,1,2.76-3.48c.89-.57,1.48-.66,1.51-.58s-.42.41-1.12,1.08a8.31,8.31,0,0,0-2.07,3.38,7.65,7.65,0,0,0,.3,5.61,7.2,7.2,0,0,0,11.67,1.15,7.64,7.64,0,0,0,1.39-5.44,8.21,8.21,0,0,0-1.37-3.72C453.93,151.21,453.52,150.84,453.6,150.73Z" stroke="#000" stroke-miterlimit="10" stroke-width="0.5"/>
      <path d="M441.58,154.64c.11-.21.55-.19,1.15-.24a6,6,0,0,0,4-1.87c.42-.43.69-.79.92-.73s.34.54.08,1.31a4.12,4.12,0,0,1-2.12,2.21,4.07,4.07,0,0,1-3.06.22C441.78,155.26,441.48,154.82,441.58,154.64Z" stroke="#000" stroke-miterlimit="10" stroke-width="0.5"/>
      <path d="M452.47,153.68c.21,0,.47.8.22,2.1a6.73,6.73,0,0,1-7.91,5.19c-1.3-.28-1.93-.85-1.84-1s.83-.08,1.95-.11a7.85,7.85,0,0,0,4-1.2,7.69,7.69,0,0,0,2.69-3.2C452.07,154.41,452.23,153.68,452.47,153.68Z" stroke="#000" stroke-miterlimit="10" stroke-width="0.5"/>
      <path d="M536.26,331.32a27.75,27.75,0,0,1-3.07-3.68c-1.89-2.42-4.57-6-7.87-10.37-6.58-8.79-15.59-21-25.45-34.57s-18.73-25.88-25.08-34.85c-3.17-4.48-5.71-8.13-7.44-10.67a27,27,0,0,1-2.56-4.05,26.3,26.3,0,0,1,3.07,3.67c1.88,2.43,4.57,6,7.86,10.37,6.59,8.8,15.6,21,25.46,34.58s18.73,25.88,25.08,34.85c3.17,4.49,5.72,8.13,7.45,10.68A26.58,26.58,0,0,1,536.26,331.32Z" stroke="#000" stroke-miterlimit="10" stroke-width="0.5"/>
      <path d="M488.09,235.83c-.24-.05-.19-1-.69-2.45a28.82,28.82,0,0,0-2.89-5.31,10.81,10.81,0,0,1-1.89-6.29,4.28,4.28,0,0,1,.63-2c.27-.41.5-.57.59-.52s-.21,1-.07,2.49a13.53,13.53,0,0,0,2.13,5.44,16.75,16.75,0,0,1,2.63,5.88C488.79,234.85,488.28,235.88,488.09,235.83Z" stroke="#000" stroke-miterlimit="10" stroke-width="0.5"/>
      <path d="M495.67,246c-.09.06-.3,0-.56-.34a3.82,3.82,0,0,1-.66-1.47c-.16-.65-.23-1.41-.38-2.14a6,6,0,0,0-.88-2.15,7.58,7.58,0,0,0-3.26-2.77c-1-.49-1.8-.58-1.81-.83s.81-.54,2.15-.27a6.77,6.77,0,0,1,4.3,3,6.47,6.47,0,0,1,1,2.81c.08.89,0,1.61,0,2.2C495.57,245.17,495.85,245.82,495.67,246Z" stroke="#000" stroke-miterlimit="10" stroke-width="0.5"/>
      <path d="M509.06,270.46c-.09.06-.42-.22-.91-.83a12.62,12.62,0,0,1-1.51-2.92c-.49-1.29-.9-2.87-1.36-4.57a17.19,17.19,0,0,0-2-5.09,7.49,7.49,0,0,0-.85-1.08c-.35-.31-.6-.59-1-.91a3.35,3.35,0,0,1-.65-.69,2.13,2.13,0,0,1-.36-1c-.05-.66.09-1.08.06-1.43a5.08,5.08,0,0,0-1.72-3.66c-1.85-1.75-3.53-2.22-3.43-2.48,0-.1.46-.1,1.22.1a8.4,8.4,0,0,1,3,1.52,7.13,7.13,0,0,1,1.62,1.76,5.51,5.51,0,0,1,.85,2.74c0,.54-.07,1,0,1.3a.54.54,0,0,0,.11.29,1.9,1.9,0,0,0,.35.34,12.56,12.56,0,0,1,1.19,1,9.47,9.47,0,0,1,1.05,1.3,16.58,16.58,0,0,1,2.14,5.64c.39,1.76.67,3.31,1,4.59a25.73,25.73,0,0,0,1,2.95C509,270,509.15,270.39,509.06,270.46Z" stroke="#000" stroke-miterlimit="10" stroke-width="0.5"/>
      <path d="M520.27,288.72c-.24,0-.58-1.19-1.15-3.09a15.53,15.53,0,0,0-1.31-3.11,22,22,0,0,0-2.6-3.27,11.65,11.65,0,0,1-1.41-1.93,6.72,6.72,0,0,1-.8-2.23,12.75,12.75,0,0,0-.25-1.75,2.22,2.22,0,0,0-.71-1.06,7.71,7.71,0,0,0-1.94-1c-.52-.22-.82-.37-.8-.48s.35-.17.93-.14a5.29,5.29,0,0,1,2.48.72,3.28,3.28,0,0,1,1.31,1.51,11.26,11.26,0,0,1,.46,2,7.7,7.7,0,0,0,2,3.36,17.58,17.58,0,0,1,2.68,3.62,12.17,12.17,0,0,1,1.11,3.56C520.55,287.43,520.47,288.69,520.27,288.72Z" stroke="#000" stroke-miterlimit="10" stroke-width="0.5"/>
      <path d="M537.12,331.13c-.22,0-.15-2.62.14-6.81a32.69,32.69,0,0,0,.14-3.36,6.89,6.89,0,0,0-.84-3.41,8.69,8.69,0,0,0-1.28-1.48,6.56,6.56,0,0,1-1.47-2c-.7-1.75-.29-3.47-.3-4.94a5,5,0,0,0-1.45-3.7c-.92-1.07-2.07-2-3-3.18a16.7,16.7,0,0,1-2-3.57,17.63,17.63,0,0,0-1.58-2.92,39,39,0,0,0-3.07-3.8c-.78-.88-1.18-1.4-1.1-1.48s.62.28,1.54,1a23.78,23.78,0,0,1,3.56,3.58,18.49,18.49,0,0,1,1.87,3,16.47,16.47,0,0,0,2,3.21c.83,1,2,1.89,3,3.09a7.39,7.39,0,0,1,1.41,2.13,6.54,6.54,0,0,1,.47,2.63c0,1.7-.31,3.21.15,4.32s1.74,1.92,2.56,3.35a8.13,8.13,0,0,1,.91,4.17,30.27,30.27,0,0,1-.35,3.48C537.82,328.6,537.35,331.16,537.12,331.13Z" stroke="#000" stroke-miterlimit="10" stroke-width="0.5"/>
      <path d="M490.05,243.31c-.22.1-.79-.71-2.06-1.67-.63-.49-1.43-1-2.33-1.7a10.79,10.79,0,0,1-2.68-2.71,9.43,9.43,0,0,1-1.22-3.64c-.18-1.11-.27-2.07-.42-2.85-.25-1.56-.77-2.41-.58-2.57s1.1.57,1.69,2.26a25.26,25.26,0,0,1,.78,2.86,9.71,9.71,0,0,0,1.13,3.07,11.21,11.21,0,0,0,2.25,2.41,25.69,25.69,0,0,1,2.16,2C490,242.09,490.25,243.24,490.05,243.31Z" stroke="#000" stroke-miterlimit="10" stroke-width="0.5"/>
      <path d="M503,267.35c-.26,0-.34-1.41-1.54-3.2a26.74,26.74,0,0,0-2.43-3,24.35,24.35,0,0,1-3.05-4,20.12,20.12,0,0,1-1.75-4.73,28.16,28.16,0,0,0-1.16-3.69c-.82-2-2-2.77-1.87-3,.05-.08.42,0,1,.36a6.19,6.19,0,0,1,1.91,2.11,19.48,19.48,0,0,1,1.57,3.79,23.83,23.83,0,0,0,1.73,4.36,31.88,31.88,0,0,0,2.78,3.83,17.92,17.92,0,0,1,2.28,3.41,6.7,6.7,0,0,1,.75,2.73C503.17,267,503.05,267.35,503,267.35Z" stroke="#000" stroke-miterlimit="10" stroke-width="0.5"/>
      <path d="M523.4,299.77c-.38.25-4.34-5.22-8.85-12.22s-7.86-12.86-7.49-13.11,4.35,5.23,8.86,12.23S523.78,299.53,523.4,299.77Z" stroke="#000" stroke-miterlimit="10" stroke-width="0.5"/>
      <path d="M532.85,315.92c-.43.17-2.1-3.2-4.43-7.16s-4.4-7.09-4-7.38,3.07,2.46,5.45,6.56S533.26,315.77,532.85,315.92Z" stroke="#000" stroke-miterlimit="10" stroke-width="0.5"/>
    </g>
    <g id="PRIMARY_hair">
      <path d="M217.06,70.21a24.66,24.66,0,0,1-8.64-8.36,26.36,26.36,0,0,1-3.6-14.78c.06-5.85,1.69-10,3.69-15A69.63,69.63,0,0,1,224.9,8.93a24.15,24.15,0,0,1,7.79-5.12,17.74,17.74,0,0,1,10.45-1.22,16.44,16.44,0,0,1,6.7,3.13c10.65.32,19.15,0,25.07-.36,5.33-.32,8.24-.67,12.42.47,8.48,2.31,13.63,8.38,15.2,10.28,4.51,5.47,6.39,11.35,8.43,17.77,1.84,5.81,1.88,8.31,4.48,13.09a35.13,35.13,0,0,0,6.61,8.82c3.62,3.47,7.8,5.41,16,9.14,7.27,3.3,8.29,3.23,12.29,5.49a56,56,0,0,1,11.19,8.3,20,20,0,0,1,6,1.07,22.42,22.42,0,0,1,9.76,7.07,34.08,34.08,0,0,1,8.08,18.42c.45,3.42.87,6.66-.39,10.63-2,6.24-6.66,9.71-9.28,11.65-1.59,1.18-5.84,4.1-14.43,6.13a62.36,62.36,0,0,1-28,.51c-10.07-2.15-16.77-6.23-26.84-12.36A152.17,152.17,0,0,1,289,109.38c-.62,1.67-5.46,14.13-16.13,16.13-1.58.3-5.54.79-13.08-2.56-8.37-3.71-15.21-9.52-23-19.26A140.86,140.86,0,0,1,217.06,70.21Z"/>
    </g>
    <g id="head">
      <path d="M246.46,9.14a48.43,48.43,0,0,0-13.94,9.34c-7.05,6.77-10.15,13.93-12.18,18.72a66.17,66.17,0,0,0-5,20.54l1.68,12.47-6.44-4.62a127.08,127.08,0,0,0,2.09,13.71,101.32,101.32,0,0,0,3.61,13.5c1.63,4.7,2.56,6.15,3.85,7.33a13.26,13.26,0,0,0,8.77,3.14q4.67,7.11,9.34,14.23a46.8,46.8,0,0,0,8,1.29,49.11,49.11,0,0,0,21.11-3.17,11.2,11.2,0,0,1,4.08,3.57c1.48,2.21,1.22,3.74,2.68,5.7a9.39,9.39,0,0,0,4.86,3.33c2,.55,4.54.29,14.38-6,3.15-2,5.72-3.79,7.53-5.08a27.68,27.68,0,0,1-6-5.27,24.38,24.38,0,0,1-6.09-13.39,21.39,21.39,0,0,1,.07-4.93L291,84.32a24.87,24.87,0,0,1,5.2-1.4c2.11-.32,2.89-.15,3.88-.85,1.52-1.06,1.86-3,2.1-4.45a13,13,0,0,0-.75-6.85,24.68,24.68,0,0,0,.93-4.85c.27-3.1-.21-4.44-1.35-10.91-1.29-7.28-1.39-9.57-3.5-11a6.08,6.08,0,0,0-2.93-1,85.85,85.85,0,0,0-2.8-10.63,63.22,63.22,0,0,0-6-13.72c-2.2-3.63-4.5-7.44-9-11.08A28.12,28.12,0,0,0,263.1,1.17,23.49,23.49,0,0,0,256.57,1a18.86,18.86,0,0,0-8.34,3.52l1.71.76A15.66,15.66,0,0,1,254.88,4a16.87,16.87,0,0,1,8.55,1.52c5.39,2.25,8.42,6.17,10.26,8.55a31.58,31.58,0,0,1,6.65,18.81,10.47,10.47,0,0,1,2.47,2.66,9.87,9.87,0,0,1,.95,1.9L279,40.06a67.3,67.3,0,0,1-6.84-3c-4.48-2.3-11.33-5.9-17.29-12.92A45.81,45.81,0,0,1,246.46,9.14Z" fill="#fff"/>
      <path d="M238.69,117.24c-.09.07-.73-.59-1.8-1.85-.54-.63-1.18-1.41-1.88-2.36s-1.53-2-2.34-3.24-1.75-2.56-2.64-4.06-1.83-3.1-2.79-4.81a112.93,112.93,0,0,1-5.38-11.56,110.78,110.78,0,0,1-3.92-12.14c-.46-1.9-.92-3.71-1.23-5.42s-.61-3.31-.82-4.78-.36-2.79-.49-4-.2-2.18-.22-3a8.17,8.17,0,0,1,0-2.58c.26,0,.67,3.6,1.79,9.36.29,1.44.6,3,1,4.68s.87,3.45,1.36,5.32c1.06,3.72,2.37,7.77,4,11.93s3.43,8,5.18,11.46c.91,1.7,1.75,3.34,2.63,4.82s1.68,2.88,2.44,4.12C236.73,114.14,238.89,117.08,238.69,117.24Z" stroke="#000" stroke-miterlimit="10" stroke-width="0.5"/>
      <path d="M289.61,88.45a7.4,7.4,0,0,1-.5,2.55,35.65,35.65,0,0,1-2.7,6.52,41.46,41.46,0,0,1-6.06,8.58,40.83,40.83,0,0,1-22.14,12.54,41.39,41.39,0,0,1-10.48.79,35.42,35.42,0,0,1-7-1,7.22,7.22,0,0,1-2.44-.88c.07-.29,3.62.72,9.46.77a45.14,45.14,0,0,0,10.12-1.11,41.85,41.85,0,0,0,21.36-12.1A44.38,44.38,0,0,0,285.4,97C288.37,91.93,289.32,88.36,289.61,88.45Z" stroke="#000" stroke-miterlimit="10" stroke-width="0.5"/>
      <path d="M289.74,125.12c.1.17-1.13,1.27-3.52,2.53a13.6,13.6,0,0,1-4.59,1.49,7.64,7.64,0,0,1-5.87-1.66,10.17,10.17,0,0,1-2.08-2.36,25.21,25.21,0,0,1-1.42-2.42,43.87,43.87,0,0,0-2.17-4,10.26,10.26,0,0,0-1.91-2.26c-.54-.45-.87-.71-.82-.82s.46,0,1.17.29A8,8,0,0,1,271,118a29.42,29.42,0,0,1,2.56,4c.44.74.89,1.52,1.41,2.24a9.3,9.3,0,0,0,1.8,2,6.42,6.42,0,0,0,4.71,1.43,15,15,0,0,0,4.25-1C288.15,125.66,289.62,124.9,289.74,125.12Z" stroke="#000" stroke-miterlimit="10" stroke-width="0.5"/>
      <path d="M298.55,115.87c-.3.29-4.31-3.8-7.27-10.13a32.33,32.33,0,0,1-2.79-8.45c-.33-2.33.16-3.77.36-3.72s.19,1.41.77,3.49a56.44,56.44,0,0,0,3.14,8C295.6,111.15,298.92,115.57,298.55,115.87Z" stroke="#000" stroke-miterlimit="10" stroke-width="0.5"/>
      <path d="M237.37,43.78c-.21.12-.8-.85-2.29-1.53a6.48,6.48,0,0,0-2.73-.55,7.64,7.64,0,0,0-3.29.93,13.68,13.68,0,0,0-4.7,4.49c-1,1.44-1.39,2.46-1.62,2.39s-.16-1.22.61-2.94a11.59,11.59,0,0,1,4.94-5.37,8.05,8.05,0,0,1,4.08-1,6.4,6.4,0,0,1,3.27,1,4.66,4.66,0,0,1,1.57,1.68C237.45,43.42,237.47,43.73,237.37,43.78Z" stroke="#000" stroke-miterlimit="10" stroke-width="0.5"/>
      <path d="M235.55,70.69c-.18-.18,1.07-1.5,2.38-4A36.37,36.37,0,0,0,241.2,56a19.2,19.2,0,0,0,0-6,12.55,12.55,0,0,0-1.76-4.49c-1.53-2.36-3.25-3.13-3.12-3.37,0-.09.52,0,1.29.36a8.77,8.77,0,0,1,2.76,2.33,12.12,12.12,0,0,1,2.3,4.88,18,18,0,0,1,.14,6.53,28.94,28.94,0,0,1-3.88,11C237.27,69.77,235.67,70.84,235.55,70.69Z" stroke="#000" stroke-miterlimit="10" stroke-width="0.5"/>
      <path d="M241.07,82.6c-.25,0-.22-.81-.75-1.78a16.62,16.62,0,0,0-3-3.48A7.34,7.34,0,0,1,235,72.69a2.81,2.81,0,0,1,.44-1.63c.23-.33.44-.44.53-.38s-.1.84.18,1.87a9,9,0,0,0,2.38,3.65,10.16,10.16,0,0,1,2.88,4.22,3.18,3.18,0,0,1,0,1.65C241.32,82.45,241.17,82.62,241.07,82.6Z" stroke="#000" stroke-miterlimit="10" stroke-width="0.5"/>
      <path d="M266,37.21c-.1.21-1.47-.29-3.64-1.06a30.43,30.43,0,0,0-3.82-1.08,12.3,12.3,0,0,0-4.66-.14,9.45,9.45,0,0,0-4.13,1.92,16.37,16.37,0,0,0-2.71,2.8c-1.39,1.8-2.11,3.07-2.34,3s.17-1.52,1.39-3.6a13.89,13.89,0,0,1,2.69-3.3,10.11,10.11,0,0,1,4.8-2.37,12.31,12.31,0,0,1,5.29.27,20.28,20.28,0,0,1,3.93,1.49C264.91,36.15,266.09,37,266,37.21Z" stroke="#000" stroke-miterlimit="10" stroke-width="0.5"/>
      <path d="M234.59,64.88c-.32.3-2.19-1.27-3.63-3.86s-1.82-5-1.4-5.1,1.46,1.9,2.82,4.31S234.94,64.58,234.59,64.88Z" stroke="#000" stroke-miterlimit="10" stroke-width="0.5"/>
      <path d="M255.73,58.71c-.38.24-1.82-1.38-3-3.74s-1.58-4.49-1.17-4.64,1.5,1.64,2.63,3.92S256.12,58.47,255.73,58.71Z" stroke="#000" stroke-miterlimit="10" stroke-width="0.5"/>
      <path d="M253,93.27c0,.21-1.12.44-2.94.42a25.6,25.6,0,0,1-7-1.16,25.93,25.93,0,0,1-6.45-3c-1.52-1-2.31-1.82-2.19-2,.26-.4,4,1.87,9.11,3.41S253,92.79,253,93.27Z" stroke="#000" stroke-miterlimit="10" stroke-width="0.5"/>
      <path d="M247.75,8.63c.11.27-3.19,1.42-7.77,4.55a51.12,51.12,0,0,0-14.59,15.66,72.18,72.18,0,0,0-8,20c-1.31,5.41-1.77,8.86-2,8.82s-.13-3.51.91-9.07A63.11,63.11,0,0,1,224,28a46.91,46.91,0,0,1,15.37-15.78,33.49,33.49,0,0,1,6-3A6.77,6.77,0,0,1,247.75,8.63Z" stroke="#000" stroke-miterlimit="10" stroke-width="0.5"/>
      <path d="M277.43,39.06c-.05.19-2.51-.26-6.26-1.72a43.7,43.7,0,0,1-13.36-8.25,34.3,34.3,0,0,1-8.93-12.94c-1.42-3.81-1.51-6.36-1.33-6.38s.75,2.38,2.39,5.93a38.74,38.74,0,0,0,9,12.18,52.29,52.29,0,0,0,12.73,8.4C275.19,38,277.51,38.82,277.43,39.06Z" stroke="#000" stroke-miterlimit="10" stroke-width="0.5"/>
      <path d="M249.8,5.68c-.1.13-1.11-.85-3.36-1.76a17,17,0,0,0-10-.64c-4.23.87-8.76,3.66-12.7,7.85a70.19,70.19,0,0,0-5.76,7c-1.86,2.56-3.74,5.24-5.44,8.12a47.75,47.75,0,0,0-6.66,17.37,29.52,29.52,0,0,0,1.61,14.94,23.69,23.69,0,0,0,5.59,8.52c1.78,1.66,3,2.36,2.9,2.49s-.35-.09-.93-.4a15,15,0,0,1-2.39-1.62A22.49,22.49,0,0,1,206.39,59a29.94,29.94,0,0,1-2-15.58,47.63,47.63,0,0,1,6.75-18,98.46,98.46,0,0,1,5.56-8.23,67.25,67.25,0,0,1,6-7.11,33.07,33.07,0,0,1,6.62-5.28,21.32,21.32,0,0,1,6.93-2.65A16.77,16.77,0,0,1,246.7,3.34a12,12,0,0,1,2.42,1.59C249.6,5.39,249.83,5.64,249.8,5.68Z" stroke="#000" stroke-miterlimit="10" stroke-width="0.5"/>
      <path d="M280.83,33.13c-.27,0-.18-2.72-1.52-6.79a39.19,39.19,0,0,0-3.08-6.82A43.61,43.61,0,0,0,271,12a24.53,24.53,0,0,0-7-5.6,18.77,18.77,0,0,0-7-2c-4.24-.3-6.73,1-6.82.77-.05-.08.5-.52,1.66-1a13.8,13.8,0,0,1,5.2-.92,18.5,18.5,0,0,1,7.66,1.79,24.3,24.3,0,0,1,7.6,5.86,39.12,39.12,0,0,1,5.37,7.86A33.4,33.4,0,0,1,280.42,26C281.52,30.36,281,33.16,280.83,33.13Z" stroke="#000" stroke-miterlimit="10" stroke-width="0.5"/>
      <path d="M247.55,3.25" fill="none" stroke="#000" stroke-miterlimit="10" stroke-width="0.5"/>
      <path d="M294.34,42.89c-.26,0-1-3.86-3-9.86a82.21,82.21,0,0,0-4.29-10.24,51.9,51.9,0,0,0-7.48-11.21,31.14,31.14,0,0,0-10.64-7.95,25.5,25.5,0,0,0-10.61-2.18,21.61,21.61,0,0,0-7.24,1.33L250,3.19l-.79.36c-.43.18-.67.25-.7.21s.15-.22.54-.5l.73-.5,1.06-.57A19.32,19.32,0,0,1,258.29.3a25.39,25.39,0,0,1,11.24,2,31.44,31.44,0,0,1,11.27,8.24,50.13,50.13,0,0,1,7.6,11.63,70.6,70.6,0,0,1,4.05,10.56,60.45,60.45,0,0,1,1.68,7.42A8.57,8.57,0,0,1,294.34,42.89Z" stroke="#000" stroke-miterlimit="10" stroke-width="0.5"/>
      <path d="M296.82,83.25c.05.06-.57.73-2.08,1.25a9.66,9.66,0,0,1-6.62-.46,11.75,11.75,0,0,1-3.87-2.62,17.43,17.43,0,0,1-3.07-4.34,45.59,45.59,0,0,1-3.55-11.37,73,73,0,0,1-1.33-11.77,36,36,0,0,1,.7-9.71,10.13,10.13,0,0,1,3.54-5.6c1.29-1,2.21-1,2.23-1s-.76.43-1.82,1.45a10.22,10.22,0,0,0-2.83,5.39,39.3,39.3,0,0,0-.32,9.37,81.92,81.92,0,0,0,1.43,11.51,48.73,48.73,0,0,0,3.29,11A13.19,13.19,0,0,0,288.59,83a9.73,9.73,0,0,0,6,.91C296,83.6,296.74,83.12,296.82,83.25Z" stroke="#000" stroke-miterlimit="10" stroke-width="0.5"/>
      <path d="M299.71,72.57c-.21-.18,1.26-1.46,1.74-4.29a18.78,18.78,0,0,0,.08-5c-.2-1.9-.57-4-1-6.25-.83-4.42-1.84-8.45-2.66-11.21a4.47,4.47,0,0,0-.85-1.57,2.9,2.9,0,0,0-1.09-.71c-.7-.23-1.15,0-1.2-.16s.34-.54,1.32-.46a3,3,0,0,1,1.58.66,5,5,0,0,1,1.31,1.8,61,61,0,0,1,3.2,11.35,56.94,56.94,0,0,1,.86,6.44,16.35,16.35,0,0,1-.45,5.4,7.72,7.72,0,0,1-1.74,3.26C300.23,72.44,299.77,72.64,299.71,72.57Z" stroke="#000" stroke-miterlimit="10" stroke-width="0.5"/>
      <path d="M296.19,82.92c.05-.24,1-.1,2.17-.6a4,4,0,0,0,1.7-1.3,6.45,6.45,0,0,0,1.11-2.51,17.86,17.86,0,0,0,.3-5.35c-.12-1.4-.28-2.3-.06-2.38s.76.7,1.19,2.16a12.18,12.18,0,0,1,.16,6A6.89,6.89,0,0,1,301.2,82a4.63,4.63,0,0,1-2.52,1.43C297,83.72,296.11,83.1,296.19,82.92Z" stroke="#000" stroke-miterlimit="10" stroke-width="0.5"/>
      <path d="M288.3,74.64c-.2.07-1.25-2.13-2.39-5.9a69.32,69.32,0,0,1-2.66-15.14,70.6,70.6,0,0,1,0-8.47c.11-2.62.58-4.93.29-6.7a10.68,10.68,0,0,0-1.75-4c-.58-.92-.89-1.45-.8-1.52s.56.32,1.31,1.13a9.64,9.64,0,0,1,2.37,4.18,12.51,12.51,0,0,1,.22,3.33c-.05,1.17-.11,2.36-.14,3.65-.07,2.55,0,5.37.16,8.31C285.59,65.31,288.77,74.5,288.3,74.64Z" stroke="#000" stroke-miterlimit="10" stroke-width="0.5"/>
      <path d="M299.49,73.56c.14.15-.26.89-1.37,1.66a7.76,7.76,0,0,1-9.74-1c-.93-1-1.19-1.78-1-1.89s.77.38,1.75,1a9,9,0,0,0,8.47.83C298.66,73.79,299.33,73.38,299.49,73.56Z" stroke="#000" stroke-miterlimit="10" stroke-width="0.5"/>
      <path d="M228.91,103.28c0,.08-.56.43-1.78.55a8.61,8.61,0,0,1-4.95-1.25,13.39,13.39,0,0,1-5-5.66,51.58,51.58,0,0,1-3-8.54,101.12,101.12,0,0,1-3.23-16c-.47-4.16-.47-6.75-.26-6.76.48-.06,1.56,10.18,5,22.31a59.79,59.79,0,0,0,2.84,8.32,12.87,12.87,0,0,0,4.28,5.35,9.09,9.09,0,0,0,4.34,1.6C228.24,103.28,228.88,103.15,228.91,103.28Z" stroke="#000" stroke-miterlimit="10" stroke-width="0.5"/>
      <path d="M257.69,93.29c.05-.25,1.77.12,4.41-.45a17,17,0,0,0,4.4-1.65,28.8,28.8,0,0,0,4.78-3.35,37.85,37.85,0,0,0,7.34-7.73c1.51-2.26,1.95-4,2.2-3.89s.14,1.88-1.2,4.48a29.49,29.49,0,0,1-7.3,8.39,24.62,24.62,0,0,1-5.14,3.43,15.1,15.1,0,0,1-4.9,1.46C259.34,94.29,257.62,93.46,257.69,93.29Z" stroke="#000" stroke-miterlimit="10" stroke-width="0.5"/>
      <path d="M284,80.59c.11,0,.31.58-.07,1.49a21.93,21.93,0,0,1-1.9,3.39,29.29,29.29,0,0,1-15.93,11.45c-.53.16-1,.28-1.55.39s-1,.23-1.49.3a7.56,7.56,0,0,1-2.85,0,3.71,3.71,0,0,1-2.1-1.26,3.09,3.09,0,0,1-.73-1.68,1.89,1.89,0,0,1,.19-1.14c.13-.23.25-.31.29-.29s-.11.54.14,1.3a2.89,2.89,0,0,0,2.44,1.94c1.39.23,3.24-.33,5.21-1a33.58,33.58,0,0,0,6.16-2.75,34.55,34.55,0,0,0,9.3-8c1-1.22,1.75-2.29,2.26-3S283.9,80.61,284,80.59Z" stroke="#000" stroke-miterlimit="10" stroke-width="0.5"/>
      <path d="M271.58,92.91c-.2-.12-.26-.41-.34-.72a7.14,7.14,0,0,0-.79-2.12,1.1,1.1,0,0,1-.22-.76c.06-.2.4-.34.89-.17a2.42,2.42,0,0,1,1.24,3.31C272.1,92.9,271.76,93,271.58,92.91Z" stroke="#000" stroke-miterlimit="10" stroke-width="0.5"/>
      <path d="M361.49,78.67s-.38-.23-1-.77l-1.1-1c-.42-.41-1-.78-1.59-1.26a52.27,52.27,0,0,0-11.22-6.39c-2.5-1.12-5.3-2.23-8.3-3.47a92.94,92.94,0,0,1-9.45-4.38,36.69,36.69,0,0,1-9.32-7,31.15,31.15,0,0,1-6.37-10.76c-1.49-4-2.48-8-3.63-11.78a48.65,48.65,0,0,0-4.23-10.41A32.92,32.92,0,0,0,292.05,8.28a27.66,27.66,0,0,0-12.32-3.15c-3.05,0-4.73.37-4.75.22a3.79,3.79,0,0,1,1.19-.4,21.22,21.22,0,0,1,3.55-.46,26.71,26.71,0,0,1,12.85,2.76,33.46,33.46,0,0,1,14,13.49,50.07,50.07,0,0,1,4.45,10.69c1.19,3.81,2.18,7.79,3.63,11.67a29.79,29.79,0,0,0,6,10.25,35.86,35.86,0,0,0,8.88,6.73,99,99,0,0,0,9.25,4.44c3,1.3,5.76,2.47,8.25,3.68a46.68,46.68,0,0,1,11.14,6.94,18.36,18.36,0,0,1,1.52,1.4l1,1.13C361.28,78.29,361.54,78.63,361.49,78.67Z" stroke="#000" stroke-miterlimit="10" stroke-width="0.5"/>
      <path d="M274.1,124.9c0,.2-1.22.6-3.32.75a25.22,25.22,0,0,1-15.55-4.27c-1.73-1.2-2.59-2.18-2.46-2.34.29-.4,4.4,2.6,10.32,4.18S274.05,124.41,274.1,124.9Z" stroke="#000" stroke-miterlimit="10" stroke-width="0.5"/>
      <path d="M362.2,78.42a4.93,4.93,0,0,1,1.61.1,19.59,19.59,0,0,1,4.47,1.23,24.73,24.73,0,0,1,6.31,3.78,29.06,29.06,0,0,1,6.34,7.39,40.09,40.09,0,0,1,4.46,10.93,37,37,0,0,1,1.09,6.52,22.16,22.16,0,0,1-.57,7.06c-1.19,4.81-4.58,9.09-8.82,12.14a44.74,44.74,0,0,1-14.63,6.67,62.69,62.69,0,0,1-30.73.36,66.62,66.62,0,0,1-22.89-10.37,69.85,69.85,0,0,1-12.62-11.31c-1.31-1.51-2.28-2.73-2.89-3.59a6.22,6.22,0,0,1-.87-1.35c.11-.09,1.49,1.64,4.23,4.51a77.19,77.19,0,0,0,12.8,10.79,67.39,67.39,0,0,0,22.58,9.86,62.07,62.07,0,0,0,30-.48,43.46,43.46,0,0,0,14.12-6.38c4.05-2.9,7.18-6.83,8.31-11.23s.55-8.89-.39-12.88a39.61,39.61,0,0,0-4.13-10.66A28.77,28.77,0,0,0,374,84.22a25.27,25.27,0,0,0-6-3.88A38.68,38.68,0,0,0,362.2,78.42Z" stroke="#000" stroke-miterlimit="10" stroke-width="0.5"/>
    </g>
  </g>
</svg>
